<?xml version="1.0" encoding="utf-8"?>
<!-- Generator: Adobe Illustrator 16.0.3, SVG Export Plug-In . SVG Version: 6.00 Build 0)  -->
<!DOCTYPE svg PUBLIC "-//W3C//DTD SVG 1.1//EN" "http://www.w3.org/Graphics/SVG/1.1/DTD/svg11.dtd">
<svg version="1.1" id="Layer_1" xmlns="http://www.w3.org/2000/svg" xmlns:xlink="http://www.w3.org/1999/xlink" x="0px" y="0px"
	 width="111.35px" height="81.507px" viewBox="0 0 111.35 81.507" enable-background="new 0 0 111.35 81.507" xml:space="preserve">
<g>
	<path fill="#1ED1C4" d="M101.449,49.914h-9.563v-9.563c0-0.754-0.61-1.364-1.364-1.364h-9.482c-0.754,0-1.364,0.61-1.364,1.364
		v9.563h-9.563c-0.753,0-1.364,0.611-1.364,1.363v9.484c0,0.753,0.611,1.363,1.364,1.363h9.563v9.563
		c0,0.753,0.61,1.363,1.364,1.363h9.482c0.754,0,1.364-0.61,1.364-1.363v-9.563h9.563c0.753,0,1.363-0.61,1.363-1.363v-9.484
		C102.813,50.525,102.202,49.914,101.449,49.914z M100.086,59.397h-9.564c-0.752,0-1.363,0.61-1.363,1.364v9.563h-6.757v-9.563
		c0-0.754-0.609-1.364-1.362-1.364h-9.563v-6.756h9.563c0.753,0,1.362-0.611,1.362-1.364v-9.563h6.757v9.563
		c0,0.753,0.611,1.364,1.363,1.364h9.564V59.397z"/>
	<path fill="#171714" d="M108.173,0H3.177C1.426,0,0,1.425,0,3.177v12.92c0,0,0,0.001,0,0.001v12.367l0,0V78.33
		c0,1.752,1.426,3.178,3.177,3.178h104.996c1.753,0,3.177-1.426,3.177-3.178V3.177C111.35,1.425,109.926,0,108.173,0z M2.727,17.462
		h105.896V27.1H2.727V17.462z M3.177,2.726h104.996c0.247,0,0.45,0.203,0.45,0.451v11.559H2.727V3.177
		C2.727,2.929,2.93,2.726,3.177,2.726z M108.173,78.78H3.177c-0.247,0-0.45-0.202-0.45-0.45V29.828h105.896V78.33
		C108.623,78.578,108.42,78.78,108.173,78.78z"/>
	<path fill="#171714" d="M52.689,54.585H12.258c-0.752,0-1.362,0.61-1.362,1.363s0.61,1.363,1.362,1.363h40.432
		c0.754,0,1.363-0.61,1.363-1.363S53.443,54.585,52.689,54.585z"/>
	<path fill="#171714" d="M43.734,64.897H12.258c-0.752,0-1.362,0.61-1.362,1.364c0,0.752,0.61,1.363,1.362,1.363h31.477
		c0.754,0,1.364-0.611,1.364-1.363C45.099,65.507,44.488,64.897,43.734,64.897z"/>
</g>
</svg>
