<?xml version="1.0" encoding="utf-8"?>
<!-- Generator: Adobe Illustrator 16.0.3, SVG Export Plug-In . SVG Version: 6.00 Build 0)  -->
<!DOCTYPE svg PUBLIC "-//W3C//DTD SVG 1.1//EN" "http://www.w3.org/Graphics/SVG/1.1/DTD/svg11.dtd">
<svg version="1.1" id="Layer_1" xmlns="http://www.w3.org/2000/svg" xmlns:xlink="http://www.w3.org/1999/xlink" x="0px" y="0px"
	 width="89.38px" height="105.658px" viewBox="44.729 37.629 89.38 105.658" enable-background="new 44.729 37.629 89.38 105.658"
	 xml:space="preserve">
<g>
	<path fill="#171714" d="M47.763,134.178c0-0.068,0.013-0.127,0.036-0.182c0.035-0.083,0.096-0.157,0.172-0.207
		c0.077-0.051,0.159-0.079,0.262-0.08h5.788h70.797h5.787c0.068,0,0.127,0.014,0.184,0.037c0.082,0.033,0.156,0.096,0.208,0.171
		c0.051,0.077,0.078,0.158,0.079,0.261v5.605c-0.001,0.066-0.014,0.126-0.037,0.181c-0.034,0.083-0.096,0.157-0.171,0.209
		c-0.078,0.052-0.16,0.079-0.263,0.079H48.232c-0.069,0-0.127-0.014-0.182-0.037c-0.083-0.033-0.157-0.095-0.208-0.171
		c-0.051-0.077-0.078-0.158-0.079-0.261V134.178L47.763,134.178z M53.551,123.096c0-0.068,0.013-0.125,0.036-0.181
		c0.034-0.083,0.096-0.157,0.172-0.209c0.077-0.052,0.159-0.079,0.261-0.079h70.798c0.068,0,0.125,0.014,0.182,0.037
		c0.081,0.034,0.156,0.095,0.208,0.171c0.05,0.077,0.078,0.159,0.078,0.261v7.109c0,0.068-0.013,0.128-0.036,0.182
		c-0.034,0.084-0.096,0.157-0.171,0.209c-0.077,0.051-0.159,0.079-0.261,0.08H54.02c-0.069-0.001-0.127-0.015-0.182-0.037
		c-0.083-0.033-0.157-0.096-0.208-0.171c-0.05-0.077-0.078-0.159-0.079-0.263V123.096L53.551,123.096z M68.209,78.426v40.698
		c0,0.06-0.011,0.108-0.03,0.155c-0.029,0.068-0.083,0.134-0.147,0.178c-0.065,0.043-0.134,0.066-0.222,0.066h-5.106
		c-0.059,0-0.107-0.012-0.155-0.03c-0.069-0.028-0.133-0.082-0.176-0.146c-0.043-0.065-0.066-0.135-0.067-0.223V78.426
		c0-0.037,0.007-0.064,0.018-0.091c0.018-0.041,0.05-0.08,0.088-0.105c0.039-0.026,0.076-0.039,0.13-0.039h5.432
		c0.037,0,0.064,0.006,0.091,0.018c0.041,0.017,0.08,0.049,0.106,0.087C68.195,78.335,68.208,78.372,68.209,78.426L68.209,78.426z
		 M71.229,78.121h3.949c-0.01,0.101-0.016,0.203-0.016,0.305v40.699c0,0.158,0.011,0.313,0.032,0.468H71.21
		c0.021-0.153,0.033-0.31,0.033-0.469V78.426C71.243,78.324,71.238,78.222,71.229,78.121L71.229,78.121z M84.1,78.426v40.698
		c0,0.06-0.011,0.108-0.031,0.155c-0.029,0.068-0.082,0.134-0.146,0.178c-0.066,0.043-0.134,0.066-0.223,0.066h-5.105
		c-0.059,0-0.108-0.012-0.155-0.03c-0.069-0.028-0.134-0.082-0.176-0.146c-0.043-0.065-0.066-0.135-0.067-0.223V78.426
		c0-0.037,0.007-0.064,0.018-0.091c0.018-0.041,0.049-0.08,0.088-0.105c0.039-0.026,0.077-0.039,0.131-0.039h5.431
		c0.037,0,0.064,0.006,0.092,0.018c0.04,0.017,0.079,0.049,0.105,0.087C84.086,78.335,84.099,78.372,84.1,78.426L84.1,78.426z
		 M87.119,78.121h3.949c-0.01,0.101-0.017,0.203-0.017,0.305v40.699c0,0.158,0.011,0.313,0.032,0.468h-3.983
		c0.021-0.153,0.033-0.31,0.033-0.469V78.426C87.134,78.324,87.128,78.222,87.119,78.121L87.119,78.121z M99.99,78.426v40.698
		c0,0.06-0.012,0.108-0.031,0.155c-0.027,0.068-0.082,0.134-0.146,0.178c-0.063,0.043-0.133,0.066-0.223,0.066h-5.104
		c-0.061,0-0.108-0.012-0.155-0.03c-0.069-0.028-0.134-0.082-0.177-0.146c-0.045-0.065-0.067-0.135-0.067-0.223V78.426
		c0-0.037,0.007-0.064,0.019-0.091c0.018-0.041,0.049-0.08,0.088-0.105c0.039-0.026,0.076-0.039,0.131-0.039h5.432
		c0.037,0,0.064,0.006,0.092,0.018c0.039,0.017,0.079,0.049,0.104,0.087C99.977,78.335,99.99,78.372,99.99,78.426L99.99,78.426z
		 M103.01,78.121h3.948c-0.01,0.101-0.017,0.203-0.017,0.305v40.699c0,0.158,0.013,0.313,0.033,0.468h-3.982
		c0.021-0.153,0.031-0.31,0.031-0.469V78.426C103.023,78.324,103.02,78.222,103.01,78.121L103.01,78.121z M115.881,78.426v40.698
		c0,0.06-0.012,0.108-0.031,0.155c-0.029,0.068-0.082,0.134-0.146,0.178c-0.063,0.043-0.136,0.066-0.224,0.066h-5.104
		c-0.06,0-0.106-0.012-0.153-0.03c-0.07-0.028-0.136-0.082-0.178-0.146c-0.043-0.065-0.066-0.135-0.066-0.223V78.426
		c0-0.037,0.006-0.064,0.018-0.091c0.018-0.041,0.049-0.08,0.088-0.105c0.039-0.026,0.077-0.039,0.131-0.039h5.432
		c0.037,0,0.064,0.006,0.092,0.018c0.039,0.017,0.08,0.049,0.104,0.087C115.867,78.335,115.881,78.372,115.881,78.426
		L115.881,78.426z M53.231,75.087l35.946-16.382c0.082,0.013,0.164,0.021,0.25,0.021c0.08,0,0.16-0.008,0.237-0.019l35.939,16.38
		H53.231L53.231,75.087z M87.911,55.948L49.875,73.281c-0.232,0.104-0.449,0.245-0.639,0.412c-0.286,0.249-0.505,0.56-0.643,0.886
		c-0.14,0.327-0.203,0.666-0.203,0.996c0,0.314,0.057,0.621,0.166,0.912c0.082,0.218,0.194,0.428,0.339,0.625
		c0.216,0.292,0.508,0.551,0.862,0.732c0.352,0.182,0.761,0.279,1.168,0.278h8.361c-0.009,0.101-0.016,0.203-0.016,0.305v40.699
		c0,0.158,0.011,0.313,0.032,0.468H54.02c-0.48,0-0.945,0.098-1.365,0.276c-0.631,0.269-1.163,0.709-1.54,1.267
		c-0.377,0.559-0.6,1.24-0.599,1.961v7.108c0,0.159,0.012,0.315,0.033,0.471h-2.316c-0.48-0.001-0.945,0.097-1.364,0.274
		c-0.631,0.268-1.163,0.71-1.541,1.268c-0.377,0.559-0.6,1.24-0.599,1.961v5.604c0,0.479,0.098,0.944,0.276,1.362
		c0.267,0.631,0.709,1.164,1.267,1.541l0,0c0.557,0.377,1.24,0.601,1.96,0.6h82.374c0.479,0.001,0.944-0.1,1.365-0.275
		c0.629-0.269,1.161-0.71,1.538-1.268c0.378-0.559,0.601-1.239,0.601-1.96v-5.604c0-0.479-0.098-0.943-0.276-1.363
		c-0.267-0.631-0.709-1.164-1.269-1.541c-0.558-0.377-1.238-0.6-1.959-0.599h-2.317c0.021-0.153,0.032-0.311,0.032-0.471v-7.108
		c0-0.479-0.098-0.945-0.275-1.365c-0.268-0.631-0.709-1.162-1.268-1.539c-0.557-0.379-1.238-0.601-1.959-0.6h-5.938
		c0.021-0.154,0.034-0.31,0.034-0.469V78.426c0-0.103-0.006-0.205-0.016-0.305h9.013c0.36,0.001,0.726-0.075,1.049-0.221
		c0.242-0.108,0.462-0.254,0.649-0.423c0.279-0.255,0.486-0.559,0.625-0.882c0.14-0.323,0.209-0.667,0.209-1.021
		c0.002-0.439-0.112-0.899-0.366-1.314c-0.127-0.207-0.287-0.401-0.478-0.567c-0.189-0.167-0.408-0.306-0.641-0.412L90.943,55.956"
		/>
	<polygon fill="#171714" points="49.875,73.281 49.875,73.281 49.875,73.281 	"/>
</g>
<path fill="none" stroke="#FFBF6D" stroke-width="4" stroke-miterlimit="10" d="M74.643,126.447"/>
<path fill="none" stroke="#FFBF6D" stroke-width="4" stroke-miterlimit="10" d="M106.701,126.447"/>
<path fill="#FFBF6D" d="M102.355,46.328l4.555-4.194c0.457-0.422,0.609-1.088,0.385-1.668c-0.227-0.58-0.79-0.966-1.413-0.966
	H90.718v-0.435c0-0.792-0.678-1.436-1.517-1.436c-0.838,0-1.517,0.643-1.517,1.436v1.953v10.62v4.303l3.034,0.007v-2.792h15.164
	c0.622,0,1.187-0.385,1.413-0.966c0.227-0.58,0.072-1.246-0.385-1.667L102.355,46.328z M99.088,47.905l2.907,2.677H90.718v-7.586
	h11.277l-2.907,2.677c-0.311,0.287-0.488,0.693-0.488,1.116C98.6,47.211,98.777,47.619,99.088,47.905z"/>
</svg>
