<?xml version="1.0" encoding="utf-8"?>
<!-- Generator: Adobe Illustrator 16.0.3, SVG Export Plug-In . SVG Version: 6.00 Build 0)  -->
<!DOCTYPE svg PUBLIC "-//W3C//DTD SVG 1.1//EN" "http://www.w3.org/Graphics/SVG/1.1/DTD/svg11.dtd">
<svg version="1.1" xmlns="http://www.w3.org/2000/svg" xmlns:xlink="http://www.w3.org/1999/xlink" x="0px" y="0px" width="100px"
	 height="95px" viewBox="0 0 100 95" enable-background="new 0 0 100 95" xml:space="preserve">
<g id="_x31_-year">
	<g>
		<g>
			<path fill="#0E3C51" d="M51.914,45.067c0,1.079,0.085,1.858,0.255,2.34c0.17,0.482,0.488,0.808,0.956,0.979
				c0.467,0.17,1.21,0.283,2.229,0.34v0.851c-1.189-0.084-3.001-0.127-5.436-0.127c-2.576,0-4.614,0.043-6.115,0.127v-0.851
				c1.274-0.057,2.194-0.17,2.76-0.34c0.566-0.17,0.962-0.496,1.189-0.979c0.227-0.482,0.34-1.262,0.34-2.34V25.836
				c0-0.992-0.142-1.715-0.425-2.169c-0.283-0.454-0.764-0.759-1.444-0.915c-0.679-0.155-1.698-0.234-3.057-0.234v-0.894
				c2.066-0.312,3.772-0.688,5.117-1.127c1.344-0.439,2.554-0.929,3.63-1.468V45.067z"/>
			<path fill="#0E3C51" d="M41.782,53.871v0.295c-0.196,0.049-0.387,0.174-0.572,0.375c-0.186,0.201-0.387,0.512-0.602,0.934
				l-2.305,4.574v2.676c0,0.373,0.03,0.643,0.088,0.809c0.059,0.168,0.169,0.279,0.33,0.338c0.162,0.059,0.418,0.1,0.771,0.119
				v0.293c-0.45-0.029-1.071-0.043-1.864-0.043c-0.842,0-1.468,0.014-1.879,0.043V63.99c0.352-0.02,0.609-0.061,0.771-0.119
				s0.271-0.17,0.33-0.338c0.059-0.166,0.088-0.436,0.088-0.809V60.52l-2.98-5.516c-0.176-0.324-0.33-0.541-0.462-0.654
				c-0.132-0.113-0.262-0.17-0.389-0.17v-0.309c0.381,0.029,0.812,0.045,1.292,0.045c0.949,0,1.634-0.016,2.055-0.045v0.309
				c-0.685,0-1.028,0.188-1.028,0.559c0,0.148,0.049,0.32,0.147,0.516l2.437,4.691l1.879-3.736c0.264-0.52,0.396-0.941,0.396-1.264
				c0-0.275-0.108-0.471-0.323-0.588c-0.215-0.119-0.538-0.182-0.969-0.191v-0.295c0.558,0.029,1.121,0.045,1.688,0.045
				C41.122,53.916,41.489,53.9,41.782,53.871z"/>
			<path fill="#0E3C51" d="M49.782,64.283c-0.666-0.029-1.786-0.043-3.361-0.043c-1.879,0-3.298,0.014-4.256,0.043V63.99
				c0.352-0.02,0.609-0.061,0.771-0.119c0.161-0.059,0.271-0.17,0.33-0.338c0.059-0.166,0.088-0.436,0.088-0.809v-7.293
				c0-0.373-0.03-0.645-0.088-0.811s-0.169-0.279-0.33-0.338c-0.162-0.059-0.418-0.098-0.771-0.117v-0.295
				c0.958,0.029,2.377,0.045,4.256,0.045c1.438,0,2.461-0.016,3.068-0.045c-0.068,0.648-0.103,1.227-0.103,1.736
				c0,0.383,0.015,0.686,0.044,0.912h-0.338c-0.068-0.637-0.156-1.111-0.264-1.42c-0.107-0.309-0.289-0.535-0.543-0.676
				c-0.254-0.143-0.641-0.215-1.16-0.215h-1.218c-0.352,0-0.609,0.027-0.771,0.082s-0.271,0.164-0.33,0.33
				c-0.059,0.166-0.088,0.438-0.088,0.811v3.471h0.969c0.343,0,0.607-0.082,0.793-0.244c0.186-0.162,0.311-0.354,0.374-0.572
				c0.063-0.223,0.115-0.498,0.154-0.832l0.044-0.293h0.337c-0.029,0.412-0.044,0.871-0.044,1.381v0.707
				c0,0.5,0.029,1.195,0.088,2.088h-0.338c-0.01-0.068-0.039-0.307-0.088-0.713c-0.049-0.406-0.184-0.715-0.404-0.92
				s-0.526-0.309-0.917-0.309h-0.969v3.529c0,0.373,0.029,0.643,0.088,0.809c0.059,0.168,0.168,0.277,0.33,0.332
				c0.162,0.053,0.418,0.08,0.771,0.08h1.072c0.606,0,1.069-0.08,1.387-0.242s0.551-0.422,0.697-0.779
				c0.147-0.357,0.254-0.885,0.323-1.582h0.337c-0.029,0.266-0.044,0.619-0.044,1.059C49.679,62.961,49.713,63.588,49.782,64.283z"
				/>
			<path fill="#0E3C51" d="M59.542,63.99v0.293c-0.391-0.029-0.915-0.043-1.57-0.043c-0.842,0-1.468,0.014-1.879,0.043V63.99
				c0.372-0.02,0.639-0.066,0.8-0.141c0.162-0.074,0.242-0.207,0.242-0.404c0-0.166-0.059-0.396-0.176-0.691l-0.896-2.412h-3.552
				L51.91,61.9c-0.196,0.531-0.294,0.932-0.294,1.207c0,0.303,0.104,0.525,0.315,0.662c0.21,0.137,0.531,0.211,0.962,0.221v0.293
				c-0.559-0.029-1.121-0.043-1.688-0.043c-0.44,0-0.808,0.014-1.101,0.043V63.99c0.489-0.119,0.875-0.545,1.159-1.279l3.449-8.914
				h0.235l3.581,9.252C58.765,63.656,59.103,63.971,59.542,63.99z M55.946,60.049l-1.644-4.398l-1.674,4.398H55.946z"/>
			<path fill="#0E3C51" d="M68.569,63.549c-0.225,0.332-0.45,0.574-0.675,0.721c-0.226,0.146-0.523,0.221-0.896,0.221
				c-0.401,0-0.731-0.119-0.991-0.354c-0.259-0.236-0.452-0.646-0.579-1.236l-0.323-1.469c-0.117-0.51-0.228-0.902-0.33-1.178
				c-0.103-0.273-0.257-0.494-0.463-0.662c-0.205-0.166-0.494-0.25-0.865-0.25h-1.395v3.383c0,0.373,0.029,0.643,0.088,0.809
				c0.059,0.168,0.169,0.279,0.33,0.338s0.418,0.1,0.771,0.119v0.293c-0.45-0.029-1.071-0.043-1.864-0.043
				c-0.842,0-1.468,0.014-1.879,0.043V63.99c0.353-0.02,0.609-0.061,0.771-0.119c0.162-0.059,0.271-0.17,0.331-0.338
				c0.059-0.166,0.088-0.436,0.088-0.809v-7.293c0-0.373-0.029-0.645-0.088-0.811c-0.06-0.166-0.169-0.279-0.331-0.338
				c-0.161-0.059-0.418-0.098-0.771-0.117v-0.295c0.411,0.029,1.008,0.045,1.791,0.045l1.585-0.016
				c0.187-0.008,0.396-0.014,0.632-0.014c1.135,0,2.008,0.236,2.62,0.713c0.611,0.477,0.917,1.09,0.917,1.846
				c0,0.383-0.091,0.768-0.271,1.154c-0.182,0.389-0.484,0.734-0.91,1.045c-0.426,0.309-0.981,0.516-1.666,0.625l0.176,0.029
				c0.646,0.107,1.116,0.303,1.409,0.588c0.294,0.285,0.509,0.734,0.646,1.354l0.366,1.5c0.099,0.451,0.201,0.764,0.309,0.941
				c0.107,0.176,0.255,0.264,0.44,0.264c0.166,0,0.306-0.045,0.418-0.133s0.242-0.229,0.39-0.426L68.569,63.549z M62.456,54.268
				c-0.152,0.07-0.257,0.193-0.315,0.369s-0.088,0.441-0.088,0.795v3.617h0.983c0.969,0,1.634-0.217,1.996-0.646
				c0.361-0.432,0.543-1.029,0.543-1.795c0-0.805-0.19-1.412-0.572-1.824s-1.004-0.617-1.864-0.617
				C62.835,54.166,62.607,54.199,62.456,54.268z"/>
		</g>
	</g>
	<linearGradient id="SVGID_1_" gradientUnits="userSpaceOnUse" x1="15.2827" y1="51.6787" x2="84.7266" y2="51.6787">
		<stop  offset="0" style="stop-color:#FFBF6D"/>
		<stop  offset="0.3045" style="stop-color:#FCC87C"/>
		<stop  offset="0.8867" style="stop-color:#F5E1A3"/>
		<stop  offset="1" style="stop-color:#F4E6AB"/>
	</linearGradient>
	<path fill="url(#SVGID_1_)" d="M84.727,54.859V9.649H15.283v45.21c0,15.104,10.563,20.268,19.883,24.824
		c7.365,3.602,13.729,6.713,13.729,14.025h2.222c0-7.313,6.361-10.424,13.727-14.025C74.166,75.127,84.727,69.963,84.727,54.859z
		 M50.006,88.369c-2.322-5.041-7.97-7.803-13.868-10.684c-9.16-4.479-18.634-9.111-18.634-22.826V11.875h65.004v42.984
		c0,13.715-9.476,18.348-18.637,22.826C57.974,80.566,52.327,83.328,50.006,88.369z"/>
	<linearGradient id="SVGID_2_" gradientUnits="userSpaceOnUse" x1="0" y1="51.874" x2="39.8115" y2="51.874">
		<stop  offset="0" style="stop-color:#FFBF6D"/>
		<stop  offset="0.3045" style="stop-color:#FCC87C"/>
		<stop  offset="0.8867" style="stop-color:#F5E1A3"/>
		<stop  offset="1" style="stop-color:#F4E6AB"/>
	</linearGradient>
	<path fill="url(#SVGID_2_)" d="M31.274,87.668C22.051,83.184,6.648,75.639,6.409,55.311l4.156-4.162v-3.156l-4.178,4.185V47.78
		l4.178-4.215v-3.157l-4.178,4.218v-4.43l4.178-4.215v-3.156l-4.178,4.217v-4.43l4.178-4.215v-3.125l-4.178,4.186v-4.43l4.178-4.186
		v-3.154l-4.178,4.218v-4.432l4.178-4.215v-3.155l-4.178,4.218V9.649h-2.21v4.642L0,10.104v3.155l4.177,4.186v4.43L0,17.688v3.154
		l4.177,4.156v4.428L0,25.272v3.125l4.177,4.186v4.427L0,32.825v3.156l4.177,4.185v4.428L0,40.408v3.157l4.177,4.187v4.397L0,47.993
		v3.156l4.177,4.186l0.023,0.021c0.257,21.656,16.403,29.594,26.104,34.316c1.909,0.939,6.996,3.428,7.662,4.428l1.845-1.213
		C38.873,91.49,35.241,89.641,31.274,87.668z"/>
	<linearGradient id="SVGID_3_" gradientUnits="userSpaceOnUse" x1="60.1875" y1="51.874" x2="100" y2="51.874">
		<stop  offset="0" style="stop-color:#FFBF6D"/>
		<stop  offset="0.3045" style="stop-color:#FCC87C"/>
		<stop  offset="0.8867" style="stop-color:#F5E1A3"/>
		<stop  offset="1" style="stop-color:#F4E6AB"/>
	</linearGradient>
	<path fill="url(#SVGID_3_)" d="M100,13.259v-3.155l-4.179,4.218V9.649h-2.209v4.642l-4.178-4.187v3.155l4.178,4.188v4.428
		l-4.178-4.187v3.154l4.178,4.156v4.428l-4.178-4.154v3.125l4.178,4.186v4.427l-4.178-4.186v3.156l4.178,4.185v4.428l-4.178-4.187
		v3.157l4.178,4.187v4.397l-4.178-4.156v3.156l4.178,4.154C93.369,75.658,77.989,83.18,68.726,87.668
		c-3.967,1.973-7.6,3.822-8.538,5.219l1.846,1.213c0.668-1,5.753-3.488,7.691-4.428c9.688-4.73,25.856-12.65,26.097-34.338
		L100,51.148v-3.156l-4.179,4.185V47.78L100,43.564v-3.157l-4.179,4.218v-4.43L100,35.981v-3.156l-4.179,4.217v-4.43L100,28.397
		v-3.125l-4.179,4.186v-4.427L100,20.843v-3.154l-4.179,4.218v-4.432L100,13.259z"/>
	<linearGradient id="SVGID_4_" gradientUnits="userSpaceOnUse" x1="29.998" y1="3.0171" x2="70.0117" y2="3.0171">
		<stop  offset="0" style="stop-color:#FFBF6D"/>
		<stop  offset="0.3045" style="stop-color:#FCC87C"/>
		<stop  offset="0.8867" style="stop-color:#F5E1A3"/>
		<stop  offset="1" style="stop-color:#F4E6AB"/>
	</linearGradient>
	<rect x="29.998" y="1.905" fill="url(#SVGID_4_)" width="40.014" height="2.225"/>
</g>
<g id="_x32_1_day" display="none">
	<g display="inline">
		<g>
			<path fill="#0E3C51" d="M47.106,26.325c1.272,1.032,1.908,2.47,1.908,4.314c0,1.092-0.254,2.202-0.763,3.331
				c-0.508,1.129-1.15,2.227-1.925,3.295c-0.776,1.068-1.914,2.524-3.416,4.368c-2.083,2.573-3.779,4.782-5.087,6.625h8.139
				c0.799,0,1.411-0.249,1.835-0.746c0.424-0.497,0.708-1.377,0.854-2.639h0.835c-0.073,0.534-0.109,1.226-0.109,2.075
				c0,1.287,0.084,2.657,0.254,4.114H41.82l-4.905-0.037c-0.848,0-1.478,0.014-1.889,0.037v-0.729
				c1.84-2.063,3.481-4.041,4.923-5.934c1.441-1.893,2.725-4.01,3.852-6.352c1.126-2.342,1.689-4.617,1.689-6.826
				c0-1.82-0.399-3.216-1.199-4.187c-0.799-0.971-1.865-1.456-3.197-1.456c-0.896,0-1.738,0.218-2.525,0.655
				c-0.788,0.437-1.326,1.043-1.617,1.82c0.63,0.098,1.139,0.304,1.526,0.619c0.387,0.315,0.581,0.752,0.581,1.311
				c0,0.559-0.188,1.014-0.563,1.365c-0.376,0.352-0.854,0.528-1.435,0.528c-0.606,0-1.078-0.194-1.417-0.583
				c-0.34-0.388-0.509-0.861-0.509-1.42c0-0.412,0.109-0.861,0.327-1.347c0.218-0.485,0.532-0.958,0.944-1.42
				c0.727-0.801,1.593-1.389,2.598-1.766c1.005-0.376,2.077-0.564,3.215-0.564C44.205,24.777,45.834,25.293,47.106,26.325z"/>
			<path fill="#0E3C51" d="M59.623,47.202c0,0.923,0.072,1.59,0.218,2.002c0.146,0.413,0.418,0.691,0.817,0.838
				c0.399,0.145,1.035,0.242,1.907,0.291v0.729c-1.018-0.074-2.567-0.109-4.65-0.109c-2.204,0-3.948,0.035-5.231,0.109v-0.729
				c1.089-0.049,1.876-0.146,2.361-0.291c0.484-0.146,0.823-0.425,1.017-0.838c0.194-0.412,0.291-1.079,0.291-2.002V30.748
				c0-0.849-0.121-1.468-0.363-1.856c-0.242-0.388-0.654-0.649-1.235-0.783c-0.581-0.133-1.453-0.2-2.616-0.2v-0.765
				c1.768-0.267,3.228-0.588,4.378-0.964c1.15-0.376,2.187-0.795,3.107-1.256V47.202z"/>
		</g>
	</g>
	<g display="inline">
		<g>
			<linearGradient id="SVGID_5_" gradientUnits="userSpaceOnUse" x1="8.5415" y1="-3.0693" x2="8.5415" y2="59.1774">
				<stop  offset="0" style="stop-color:#FFBF6D"/>
				<stop  offset="0.3045" style="stop-color:#FCC87C"/>
				<stop  offset="0.8867" style="stop-color:#F5E1A3"/>
				<stop  offset="1" style="stop-color:#F4E6AB"/>
			</linearGradient>
			<path fill="url(#SVGID_5_)" d="M9.977,40.166l-1.903-3.257c-0.229-0.39-0.509-0.864-0.978-0.979
				c-0.555-0.135-1.001,0.243-1.129,0.77c-0.138,0.566,0.128,1.057,0.664,1.269l-0.389,1.184c-1.225-0.42-1.664-1.492-1.365-2.718
				c0.296-1.217,1.155-2.042,2.456-1.725c0.852,0.208,1.328,0.792,1.735,1.531l1.431,2.572l0.764-3.143l1.033,0.252l-1.104,4.542
				L9.977,40.166z"/>
			<linearGradient id="SVGID_6_" gradientUnits="userSpaceOnUse" x1="10.5923" y1="-3.062" x2="10.5923" y2="59.1727">
				<stop  offset="0" style="stop-color:#FFBF6D"/>
				<stop  offset="0.3045" style="stop-color:#FCC87C"/>
				<stop  offset="0.8867" style="stop-color:#F5E1A3"/>
				<stop  offset="1" style="stop-color:#F4E6AB"/>
			</linearGradient>
			<path fill="url(#SVGID_6_)" d="M8.382,30.416l0.612,1.678l-1.02,0.321L7.17,29.79l0.414-0.992l6.431,2.693l-0.456,1.092
				L8.382,30.416z"/>
			<linearGradient id="SVGID_7_" gradientUnits="userSpaceOnUse" x1="15.4961" y1="-3.0645" x2="15.4961" y2="59.1745">
				<stop  offset="0" style="stop-color:#FFBF6D"/>
				<stop  offset="0.3045" style="stop-color:#FCC87C"/>
				<stop  offset="0.8867" style="stop-color:#F5E1A3"/>
				<stop  offset="1" style="stop-color:#F4E6AB"/>
			</linearGradient>
			<path fill="url(#SVGID_7_)" d="M11.524,21.492l1.682-2.174c1.121-1.45,3.057-2.118,4.924-0.668
				c1.883,1.462,1.519,3.736,0.494,5.062l-1.591,2.058L11.524,21.492z M17.472,23.366c0.953-1.231,1.202-2.648-0.137-3.688
				c-1.338-1.039-2.543-0.576-3.471,0.625l-0.693,0.896l3.734,2.9L17.472,23.366z"/>
			<linearGradient id="SVGID_8_" gradientUnits="userSpaceOnUse" x1="22.873" y1="-3.0645" x2="22.873" y2="59.1751">
				<stop  offset="0" style="stop-color:#FFBF6D"/>
				<stop  offset="0.3045" style="stop-color:#FCC87C"/>
				<stop  offset="0.8867" style="stop-color:#F5E1A3"/>
				<stop  offset="1" style="stop-color:#F4E6AB"/>
			</linearGradient>
			<path fill="url(#SVGID_8_)" d="M19.044,13.005l0.807-0.708l6.851,3.269l-1.066,0.936l-1.539-0.772l-2.272,1.995l0.577,1.618
				l-1.044,0.917L19.044,13.005z M23.07,15.213l-2.675-1.427l1.046,2.857L23.07,15.213z"/>
			<linearGradient id="SVGID_9_" gradientUnits="userSpaceOnUse" x1="26.0796" y1="-3.0649" x2="26.0796" y2="59.1793">
				<stop  offset="0" style="stop-color:#FFBF6D"/>
				<stop  offset="0.3045" style="stop-color:#FCC87C"/>
				<stop  offset="0.8867" style="stop-color:#F5E1A3"/>
				<stop  offset="1" style="stop-color:#F4E6AB"/>
			</linearGradient>
			<path fill="url(#SVGID_9_)" d="M26.93,11.971l-4.337-1.983l1.316-0.829l2.927,1.439L26.824,7.32l1.249-0.787l-0.093,4.776
				l1.587,2.529L28.518,14.5L26.93,11.971z"/>
			<linearGradient id="SVGID_10_" gradientUnits="userSpaceOnUse" x1="38.3794" y1="-3.0635" x2="38.3794" y2="59.1726">
				<stop  offset="0" style="stop-color:#FFBF6D"/>
				<stop  offset="0.3045" style="stop-color:#FCC87C"/>
				<stop  offset="0.8867" style="stop-color:#F5E1A3"/>
				<stop  offset="1" style="stop-color:#F4E6AB"/>
			</linearGradient>
			<path fill="url(#SVGID_10_)" d="M33.825,3.887l1.819-0.514l3.114,4.202l0.486-5.218l1.8-0.508l1.89,6.72L41.797,8.89l-1.57-5.581
				l-0.019,0.006L39.741,9.47l-0.833,0.236L35.301,4.7l-0.019,0.005l1.569,5.581l-1.136,0.321L33.825,3.887z"/>
			<linearGradient id="SVGID_11_" gradientUnits="userSpaceOnUse" x1="47.9141" y1="-3.0649" x2="47.9141" y2="59.1783">
				<stop  offset="0" style="stop-color:#FFBF6D"/>
				<stop  offset="0.3045" style="stop-color:#FCC87C"/>
				<stop  offset="0.8867" style="stop-color:#F5E1A3"/>
				<stop  offset="1" style="stop-color:#F4E6AB"/>
			</linearGradient>
			<path fill="url(#SVGID_11_)" d="M47.725,1.009c2.172-0.143,3.775,1.242,3.88,3.479c0.104,2.177-1.36,3.708-3.532,3.851
				c-2.144,0.102-3.747-1.283-3.85-3.459C44.118,2.643,45.582,1.112,47.725,1.009z M48.03,7.215
				c1.445-0.069,2.346-1.218,2.276-2.705c-0.065-1.389-1.072-2.447-2.517-2.378c-1.436,0.068-2.337,1.217-2.271,2.606
				C45.588,6.226,46.594,7.284,48.03,7.215z"/>
			<linearGradient id="SVGID_12_" gradientUnits="userSpaceOnUse" x1="56.873" y1="-3.0645" x2="56.873" y2="59.1755">
				<stop  offset="0" style="stop-color:#FFBF6D"/>
				<stop  offset="0.3045" style="stop-color:#FCC87C"/>
				<stop  offset="0.8867" style="stop-color:#F5E1A3"/>
				<stop  offset="1" style="stop-color:#F4E6AB"/>
			</linearGradient>
			<path fill="url(#SVGID_12_)" d="M54.333,1.238l1.622,0.264l2.503,5.663l0.019,0.002l0.83-5.12l1.224,0.2l-1.117,6.891
				l-1.554-0.252l-2.544-5.838l-0.02-0.003L54.44,8.328l-1.225-0.199L54.333,1.238z"/>
			<linearGradient id="SVGID_13_" gradientUnits="userSpaceOnUse" x1="64.5498" y1="-3.064" x2="64.5498" y2="59.1735">
				<stop  offset="0" style="stop-color:#FFBF6D"/>
				<stop  offset="0.3045" style="stop-color:#FCC87C"/>
				<stop  offset="0.8867" style="stop-color:#F5E1A3"/>
				<stop  offset="1" style="stop-color:#F4E6AB"/>
			</linearGradient>
			<path fill="url(#SVGID_13_)" d="M63.55,3.108l4.348,1.559l-0.379,1.058l-3.179-1.14L63.763,6.2l3.012,1.08l-0.378,1.059
				l-3.012-1.081l-0.637,1.783l3.345,1.199L65.715,11.3l-4.513-1.618L63.55,3.108z"/>
			<linearGradient id="SVGID_14_" gradientUnits="userSpaceOnUse" x1="71.9902" y1="-3.063" x2="71.9902" y2="59.1724">
				<stop  offset="0" style="stop-color:#FFBF6D"/>
				<stop  offset="0.3045" style="stop-color:#FCC87C"/>
				<stop  offset="0.8867" style="stop-color:#F5E1A3"/>
				<stop  offset="1" style="stop-color:#F4E6AB"/>
			</linearGradient>
			<path fill="url(#SVGID_14_)" d="M70.06,10.18l-0.348-4.767l1.359,0.758l0.145,3.265l2.865-1.585l1.29,0.72l-4.228,2.213
				l-1.452,2.61l-1.083-0.604L70.06,10.18z"/>
			<linearGradient id="SVGID_15_" gradientUnits="userSpaceOnUse" x1="79.209" y1="-3.064" x2="79.209" y2="59.1757">
				<stop  offset="0" style="stop-color:#FFBF6D"/>
				<stop  offset="0.3045" style="stop-color:#FCC87C"/>
				<stop  offset="0.8867" style="stop-color:#F5E1A3"/>
				<stop  offset="1" style="stop-color:#F4E6AB"/>
			</linearGradient>
			<path fill="url(#SVGID_15_)" d="M80.226,12.294l1.964,1.878C82.95,14.901,83.4,16,82.524,16.919
				c-0.544,0.571-1.26,0.608-1.929,0.268l-0.014,0.015c0.565,0.677,0.545,1.612-0.073,2.261c-1.047,1.099-2.326,0.528-3.279-0.384
				l-1.815-1.736L80.226,12.294z M77.045,17.43l0.825,0.79c0.463,0.443,1.178,0.978,1.81,0.314c0.503-0.527,0.339-1.04-0.388-1.734
				l-0.861-0.825L77.045,17.43z M79.165,15.205l0.818,0.783c0.598,0.572,1.141,0.601,1.501,0.223
				c0.415-0.435,0.319-0.935-0.356-1.582l-0.74-0.708L79.165,15.205z"/>
			<linearGradient id="SVGID_16_" gradientUnits="userSpaceOnUse" x1="83.7256" y1="-3.0659" x2="83.7256" y2="59.1774">
				<stop  offset="0" style="stop-color:#FFBF6D"/>
				<stop  offset="0.3045" style="stop-color:#FCC87C"/>
				<stop  offset="0.8867" style="stop-color:#F5E1A3"/>
				<stop  offset="1" style="stop-color:#F4E6AB"/>
			</linearGradient>
			<path fill="url(#SVGID_16_)" d="M87.116,19.773l0.633,0.869l-3.857,6.545l-0.835-1.146l0.904-1.467l-1.782-2.445l-1.658,0.433
				l-0.818-1.123L87.116,19.773z M84.563,23.594l1.656-2.542l-2.933,0.791L84.563,23.594z"/>
			<linearGradient id="SVGID_17_" gradientUnits="userSpaceOnUse" x1="88.9141" y1="-3.063" x2="88.9141" y2="59.174">
				<stop  offset="0" style="stop-color:#FFBF6D"/>
				<stop  offset="0.3045" style="stop-color:#FCC87C"/>
				<stop  offset="0.8867" style="stop-color:#F5E1A3"/>
				<stop  offset="1" style="stop-color:#F4E6AB"/>
			</linearGradient>
			<path fill="url(#SVGID_17_)" d="M91.259,30.174c0.266-0.698,0.193-1.188-0.016-1.624c-0.622-1.298-2.029-1.681-3.28-1.079
				c-1.339,0.645-1.919,1.986-1.297,3.284c0.243,0.507,0.708,0.884,1.44,1.046l-0.213,1.24c-1.053-0.193-1.799-0.884-2.243-1.808
				c-0.93-1.938-0.282-3.957,1.679-4.901c2.014-0.97,3.992-0.215,4.922,1.722c0.409,0.854,0.484,1.715,0.063,2.684L91.259,30.174z"
				/>
			<linearGradient id="SVGID_18_" gradientUnits="userSpaceOnUse" x1="91.418" y1="-3.0635" x2="91.418" y2="59.1745">
				<stop  offset="0" style="stop-color:#FFBF6D"/>
				<stop  offset="0.3045" style="stop-color:#FCC87C"/>
				<stop  offset="0.8867" style="stop-color:#F5E1A3"/>
				<stop  offset="1" style="stop-color:#F4E6AB"/>
			</linearGradient>
			<path fill="url(#SVGID_18_)" d="M93.999,32.758l0.329,1.198l-2.846,0.785l0.016,0.057l3.611,2l0.443,1.616l-3.966-2.291
				l-2.693,4.352l-0.463-1.683l2.501-3.829l-0.019-0.066l-3.302,0.911l-0.329-1.198L93.999,32.758z"/>
		</g>
	</g>
	<g display="inline">
		<path fill="#0E3C51" d="M42.959,56.657c0.92,0.928,1.381,2.277,1.381,4.049c0,1.143-0.225,2.145-0.675,3.004
			c-0.45,0.859-1.102,1.523-1.954,1.988c-0.853,0.467-1.87,0.701-3.052,0.701l-0.911-0.016c-0.586-0.021-1.015-0.031-1.287-0.031
			c-0.858,0-1.507,0.016-1.946,0.047v-0.314c0.376-0.021,0.651-0.063,0.824-0.127c0.173-0.063,0.291-0.184,0.354-0.361
			c0.063-0.178,0.094-0.467,0.094-0.865v-7.799c0-0.398-0.032-0.688-0.094-0.865c-0.063-0.178-0.181-0.299-0.354-0.361
			c-0.172-0.063-0.447-0.105-0.824-0.125v-0.314c0.366,0.031,0.874,0.047,1.522,0.047l1.334-0.016
			c0.711-0.021,1.188-0.031,1.428-0.031C40.652,55.267,42.039,55.729,42.959,56.657z M37.678,55.659
			c-0.163,0.072-0.275,0.205-0.337,0.393c-0.063,0.189-0.094,0.473-0.094,0.85v7.861c0,0.379,0.031,0.662,0.094,0.85
			c0.063,0.189,0.175,0.32,0.337,0.393c0.162,0.074,0.41,0.111,0.745,0.111c1.109,0,1.983-0.201,2.621-0.605s1.085-0.994,1.342-1.77
			s0.385-1.766,0.385-2.973c0-1.205-0.141-2.188-0.424-2.947s-0.74-1.328-1.373-1.707c-0.633-0.377-1.489-0.566-2.566-0.566
			C38.083,55.548,37.84,55.585,37.678,55.659z"/>
		<path fill="#0E3C51" d="M54.557,66.085v0.314c-0.418-0.031-0.979-0.047-1.678-0.047c-0.9,0-1.57,0.016-2.01,0.047v-0.314
			c0.398-0.021,0.684-0.072,0.855-0.15s0.26-0.223,0.26-0.432c0-0.178-0.064-0.426-0.189-0.74l-0.957-2.578H47.04l-0.643,1.666
			c-0.209,0.566-0.314,0.996-0.314,1.291c0,0.324,0.112,0.561,0.337,0.707c0.225,0.146,0.567,0.225,1.028,0.236v0.314
			c-0.596-0.031-1.198-0.047-1.805-0.047c-0.471,0-0.863,0.016-1.177,0.047v-0.314c0.523-0.127,0.936-0.582,1.24-1.369l3.689-9.529
			h0.25l3.83,9.891C53.725,65.728,54.086,66.063,54.557,66.085z M50.713,61.87l-1.758-4.701l-1.79,4.701H50.713z"/>
		<path fill="#0E3C51" d="M62.609,55.267v0.314c-0.21,0.053-0.414,0.186-0.612,0.4c-0.199,0.215-0.413,0.547-0.644,0.998
			L58.89,61.87v2.861c0,0.398,0.031,0.688,0.094,0.865c0.063,0.178,0.181,0.299,0.354,0.361c0.173,0.064,0.447,0.105,0.824,0.127
			v0.314c-0.481-0.031-1.146-0.047-1.993-0.047c-0.9,0-1.569,0.016-2.009,0.047v-0.314c0.376-0.021,0.651-0.063,0.823-0.127
			c0.173-0.063,0.291-0.184,0.354-0.361s0.094-0.467,0.094-0.865v-2.357l-3.186-5.898c-0.188-0.346-0.354-0.578-0.494-0.699
			c-0.142-0.119-0.28-0.18-0.416-0.18v-0.33c0.408,0.031,0.868,0.047,1.381,0.047c1.015,0,1.747-0.016,2.197-0.047v0.33
			c-0.732,0-1.099,0.199-1.099,0.598c0,0.156,0.053,0.34,0.157,0.549l2.605,5.018l2.009-3.994c0.282-0.557,0.424-1.008,0.424-1.354
			c0-0.293-0.115-0.502-0.346-0.629c-0.23-0.125-0.575-0.193-1.036-0.203v-0.314c0.597,0.031,1.198,0.047,1.806,0.047
			C61.903,55.313,62.295,55.298,62.609,55.267z"/>
	</g>
	<g display="inline">
		<g>
			<g>
				<g>
					<path fill="#0E3C51" d="M20.092,83.771c-0.925-0.256-1.788-0.748-2.565-1.488c-1.556-1.48-1.667-3.596-0.17-5.178
						c1.538-1.623,3.654-1.623,5.209-0.143c0.771,0.732,1.308,1.555,1.389,2.529l-1.301,0.041c-0.023-0.619-0.346-1.268-0.853-1.748
						c-1.042-0.992-2.493-0.85-3.449,0.16c-1.022,1.078-1.089,2.539-0.047,3.529c0.457,0.434,0.952,0.742,1.436,0.861l1.131-1.193
						l-1.035-0.984l0.772-0.814l1.934,1.84L20.092,83.771z"/>
				</g>
			</g>
			<g>
				<g>
					<path fill="#0E3C51" d="M28.762,87.148c-0.888,1.43-2.472,1.688-3.826,0.844S23.111,85.611,24,84.18l2.328-3.75l1.053,0.656
						l-2.307,3.717c-0.364,0.586-0.525,1.555,0.486,2.184c1.012,0.631,1.807,0.059,2.171-0.529l2.308-3.715l1.053,0.654
						L28.762,87.148z"/>
				</g>
			</g>
			<g>
				<g>
					<path fill="#0E3C51" d="M35.302,85.223l1.004,0.377l0.361,7.594l-1.327-0.5l-0.048-1.723l-2.829-1.064l-1.15,1.273l-1.299-0.49
						L35.302,85.223z M35.262,89.82l-0.008-3.037l-2.019,2.275L35.262,89.82z"/>
				</g>
			</g>
			<g>
				<g>
					<path fill="#0E3C51" d="M40.696,86.969l2.384,0.42c1.318,0.23,2.484,0.877,2.214,2.42c-0.174,0.992-0.873,1.619-1.916,1.586
						l1.289,3.359l-1.473-0.26l-1.079-3.191l-0.892-0.156l-0.51,2.912l-1.221-0.215L40.696,86.969z M42.357,90.264
						c0.688,0.121,1.503,0.203,1.659-0.689c0.144-0.814-0.596-1.045-1.226-1.156l-1.057-0.186l-0.326,1.863L42.357,90.264z"/>
				</g>
			</g>
			<g>
				<g>
					<path fill="#0E3C51" d="M49.898,87.984l1.073-0.01l3.075,6.949l-1.417,0.016l-0.667-1.592l-3.021,0.031l-0.613,1.605L46.94,95
						L49.898,87.984z M51.518,92.287l-1.103-2.828l-1.062,2.852L51.518,92.287z"/>
				</g>
			</g>
			<g>
				<g>
					<path fill="#0E3C51" d="M55.536,87.725l1.606-0.348l4.399,4.348l0.02-0.004l-1.102-5.068l1.212-0.264l1.482,6.822l-1.539,0.334
						l-4.503-4.496l-0.019,0.004l1.137,5.23l-1.212,0.266L55.536,87.725z"/>
				</g>
			</g>
			<g>
				<g>
					<path fill="#0E3C51" d="M65.666,86.041l-1.966,0.84l-0.439-1.035l5.072-2.164l0.439,1.035l-1.965,0.838l2.291,5.391
						l-1.141,0.486L65.666,86.041z"/>
				</g>
			</g>
			<g>
				<g>
					<path fill="#0E3C51" d="M69.822,82.848l3.888-2.494l0.604,0.947l-2.843,1.822l0.922,1.445l2.694-1.727l0.604,0.947
						l-2.693,1.727l1.019,1.594l2.992-1.918l0.604,0.945l-4.037,2.59L69.822,82.848z"/>
				</g>
			</g>
			<g>
				<g>
					<path fill="#0E3C51" d="M75.53,78.891l3.452-3.068l0.744,0.842l-2.524,2.244l1.136,1.283l2.393-2.127l0.744,0.842l-2.393,2.125
						l1.254,1.416l2.657-2.361l0.744,0.842l-3.584,3.186L75.53,78.891z"/>
				</g>
			</g>
		</g>
	</g>
	<linearGradient id="SVGID_19_" gradientUnits="userSpaceOnUse" x1="4.958" y1="58.4316" x2="16.2065" y2="58.4316">
		<stop  offset="0" style="stop-color:#FFBF6D"/>
		<stop  offset="0.3045" style="stop-color:#FCC87C"/>
		<stop  offset="0.8867" style="stop-color:#F5E1A3"/>
		<stop  offset="1" style="stop-color:#F4E6AB"/>
	</linearGradient>
	<path display="inline" fill="url(#SVGID_19_)" d="M16.207,72.375c-5.231-7.018-8.333-15.719-8.333-25.132
		c0-1.636,0.097-3.251,0.28-4.839H5.218c-0.17,1.59-0.26,3.204-0.26,4.839c0,10.22,3.419,19.652,9.169,27.216L16.207,72.375z"/>
	<linearGradient id="SVGID_20_" gradientUnits="userSpaceOnUse" x1="82.1924" y1="59.2939" x2="94.8066" y2="59.2939">
		<stop  offset="0" style="stop-color:#FFBF6D"/>
		<stop  offset="0.3045" style="stop-color:#FCC87C"/>
		<stop  offset="0.8867" style="stop-color:#F5E1A3"/>
		<stop  offset="1" style="stop-color:#F4E6AB"/>
	</linearGradient>
	<path display="inline" fill="url(#SVGID_20_)" d="M82.192,74.111l2.068,2.072c6.576-7.832,10.546-17.93,10.546-28.941
		c0-1.635-0.09-3.249-0.26-4.839h-2.936c0.183,1.588,0.279,3.203,0.279,4.839C91.891,57.449,88.245,66.816,82.192,74.111z"/>
	<linearGradient id="SVGID_21_" gradientUnits="userSpaceOnUse" x1="32.0933" y1="71.6455" x2="65.5469" y2="71.6455">
		<stop  offset="0" style="stop-color:#FFBF6D"/>
		<stop  offset="0.3045" style="stop-color:#FCC87C"/>
		<stop  offset="0.8867" style="stop-color:#F5E1A3"/>
		<stop  offset="1" style="stop-color:#F4E6AB"/>
	</linearGradient>
	<rect x="32.093" y="70.717" display="inline" fill="url(#SVGID_21_)" width="33.454" height="1.856"/>
</g>
</svg>
