<?xml version="1.0" encoding="UTF-8"?>
<svg xmlns="http://www.w3.org/2000/svg" version="1.1" xmlns:xlink="http://www.w3.org/1999/xlink" viewBox="0 0 152.07 158.59">
  <!-- Generator: Adobe Illustrator 30.5.1, SVG Export Plug-In . SVG Version: 2.1.4 Build 3)  -->
  <defs>
    <style>
      .st0 {
        fill: url(#linear-gradient2);
      }

      .st1 {
        fill: #11164d;
      }

      .st2 {
        fill: url(#linear-gradient1);
      }

      .st3 {
        fill: url(#linear-gradient4);
      }

      .st4 {
        fill: url(#linear-gradient3);
      }

      .st5 {
        display: none;
      }

      .st6 {
        fill: url(#linear-gradient);
      }

      .st7 {
        fill: #040718;
      }

      .st8 {
        opacity: .7;
      }
    </style>
    <linearGradient id="linear-gradient" x1="-158.29" y1="1239.08" x2="-158.29" y2="1185.37" gradientTransform="translate(168 -1116)" gradientUnits="userSpaceOnUse">
      <stop offset=".25" stop-color="#ecc575"/>
      <stop offset=".77" stop-color="#ecd69d"/>
    </linearGradient>
    <linearGradient id="linear-gradient1" x1="-27.74" y1="1241.97" x2="-27.74" y2="1185.37" xlink:href="#linear-gradient"/>
    <linearGradient id="linear-gradient2" x1="-91.99" y1="1248.98" x2="-91.99" y2="1245.87" xlink:href="#linear-gradient"/>
    <linearGradient id="linear-gradient3" x1="-94.2" y1="1248.79" x2="-94.2" y2="1245.74" xlink:href="#linear-gradient"/>
    <linearGradient id="linear-gradient4" x1="73.7" y1="15.85" x2="73.7" y2="128.06" gradientTransform="matrix(1,0,0,1,0,0)" xlink:href="#linear-gradient"/>
  </defs>
  <g id="_x32_1_days">
    <g class="st8">
      <g>
        <path class="st7" d="M8.7,65.62l-3.19-5.46c-.38-.65-.85-1.45-1.64-1.64-.93-.23-1.68.41-1.89,1.29-.23.95.21,1.77,1.11,2.13l-.65,1.98c-2.05-.7-2.79-2.5-2.29-4.55.5-2.04,1.94-3.42,4.11-2.89,1.43.35,2.23,1.33,2.91,2.56l2.4,4.31,1.28-5.27,1.73.42-1.85,7.61-2.04-.5Z"/>
        <path class="st7" d="M6.02,49.29l1.03,2.81-1.71.54-1.35-4.4.69-1.66,10.77,4.51-.76,1.83-8.67-3.63Z"/>
        <path class="st7" d="M11.29,34.34l2.82-3.64c1.88-2.43,5.12-3.55,8.25-1.12,3.16,2.45,2.55,6.26.83,8.48l-2.67,3.45-9.23-7.17ZM21.25,37.48c1.6-2.06,2.01-4.44-.23-6.18-2.24-1.74-4.26-.96-5.81,1.05l-1.16,1.5,6.26,4.86.95-1.23Z"/>
        <path class="st7" d="M23.89,20.12l1.35-1.19,11.48,5.48-1.79,1.57-2.58-1.29-3.81,3.34.97,2.71-1.75,1.54-3.88-12.16ZM30.63,23.82l-4.48-2.39,1.75,4.79,2.73-2.4Z"/>
        <path class="st7" d="M37.1,18.38l-7.27-3.32,2.21-1.39,4.9,2.41-.02-5.49,2.09-1.32-.16,8,2.66,4.24-1.76,1.11-2.66-4.24Z"/>
        <path class="st7" d="M48.65,4.84l3.05-.86,5.22,7.04.81-8.74,3.02-.85,3.17,11.26-1.91.54-2.63-9.35h-.03s-.78,10.32-.78,10.32l-1.4.4-6.04-8.39h-.03s2.63,9.36,2.63,9.36l-1.9.54-3.17-11.26Z"/>
        <path class="st7" d="M71.94.02c3.64-.24,6.33,2.08,6.5,5.83.17,3.65-2.28,6.21-5.92,6.45-3.59.17-6.28-2.15-6.45-5.8-.18-3.75,2.28-6.31,5.87-6.49ZM72.45,10.41c2.42-.12,3.93-2.04,3.81-4.53-.11-2.33-1.8-4.1-4.22-3.98-2.41.11-3.91,2.04-3.8,4.37.12,2.49,1.8,4.27,4.21,4.15Z"/>
        <path class="st7" d="M83.01.4l2.72.44,4.19,9.49h.03s1.39-8.57,1.39-8.57l2.05.33-1.87,11.55-2.61-.42-4.26-9.78h-.03s-1.43,8.85-1.43,8.85l-2.05-.33,1.87-11.55Z"/>
        <path class="st7" d="M98.46,3.53l7.29,2.61-.63,1.77-5.33-1.91-.96,2.71,5.05,1.81-.64,1.77-5.05-1.81-1.07,2.99,5.6,2.01-.63,1.77-7.56-2.71,3.93-11.01Z"/>
        <path class="st7" d="M109.37,15.38l-.59-7.99,2.28,1.27.24,5.47,4.8-2.65,2.16,1.2-7.08,3.71-2.43,4.37-1.82-1.01,2.43-4.37Z"/>
        <path class="st7" d="M126.4,18.92l3.29,3.15c1.27,1.22,2.03,3.06.56,4.6-.91.96-2.11,1.02-3.23.45l-.03.03c.95,1.13.91,2.7-.12,3.79-1.75,1.84-3.9.88-5.49-.64l-3.04-2.91,8.06-8.46ZM121.07,27.53l1.38,1.32c.78.74,1.97,1.64,3.03.53.84-.88.57-1.74-.65-2.91l-1.44-1.38-2.32,2.44ZM124.62,23.8l1.37,1.31c1,.96,1.91,1.01,2.52.37.69-.73.53-1.57-.6-2.65l-1.24-1.19-2.05,2.15Z"/>
        <path class="st7" d="M137.94,31.46l1.06,1.46-6.46,10.97-1.4-1.92,1.52-2.46-2.99-4.1-2.78.73-1.37-1.88,12.42-2.79ZM133.66,37.86l2.78-4.26-4.92,1.33,2.14,2.93Z"/>
        <path class="st7" d="M144.88,48.88c.45-1.17.32-1.99-.03-2.72-1.04-2.17-3.4-2.82-5.5-1.81-2.25,1.08-3.22,3.33-2.17,5.5.41.85,1.19,1.48,2.41,1.75l-.36,2.08c-1.77-.32-3.02-1.48-3.76-3.03-1.56-3.25-.47-6.63,2.81-8.21,3.37-1.63,6.69-.36,8.25,2.89.69,1.43.81,2.87.11,4.5l-1.77-.94Z"/>
        <path class="st7" d="M149.47,53.21l.55,2.01-4.77,1.32.03.09,6.05,3.35.74,2.71-6.65-3.84-4.51,7.29-.78-2.82,4.19-6.42-.04-.11-5.53,1.53-.55-2.01,11.26-3.1Z"/>
      </g>
    </g>
    <g class="st8">
      <g>
        <path class="st7" d="M66.62,93.25c1.54,1.55,2.31,3.81,2.31,6.78,0,1.92-.38,3.59-1.13,5.03-.75,1.44-1.85,2.55-3.27,3.33-1.43.78-3.13,1.17-5.11,1.17l-1.53-.03c-.98-.03-1.7-.05-2.16-.05-1.44,0-2.52.03-3.26.08v-.53c.63-.04,1.09-.11,1.38-.21.29-.11.49-.31.59-.6.1-.3.16-.78.16-1.45v-13.07c0-.67-.05-1.15-.16-1.45-.11-.3-.3-.5-.59-.6-.29-.11-.75-.17-1.38-.21v-.53c.61.05,1.46.08,2.55.08l2.23-.03c1.19-.03,1.99-.05,2.39-.05,3.1,0,5.43.77,6.97,2.33ZM57.77,91.58c-.27.12-.46.34-.57.66-.11.32-.16.79-.16,1.43v13.17c0,.63.05,1.11.16,1.42.11.32.29.54.57.66.27.12.69.19,1.25.19,1.86,0,3.32-.34,4.39-1.01,1.07-.68,1.82-1.67,2.25-2.97.43-1.3.65-2.96.65-4.98s-.24-3.67-.71-4.94c-.47-1.27-1.24-2.22-2.3-2.86-1.06-.63-2.5-.95-4.3-.95-.54,0-.95.06-1.22.18Z"/>
        <path class="st7" d="M86.05,109.05v.53c-.7-.05-1.64-.08-2.81-.08-1.51,0-2.63.03-3.37.08v-.53c.67-.04,1.15-.12,1.43-.25.28-.13.44-.38.44-.72,0-.3-.11-.71-.32-1.24l-1.6-4.32h-6.36l-1.08,2.79c-.35.95-.53,1.67-.53,2.16,0,.54.19.94.56,1.18.38.25.95.38,1.72.39v.53c-1-.05-2.01-.08-3.02-.08-.79,0-1.45.03-1.97.08v-.53c.88-.21,1.57-.97,2.08-2.29l6.18-15.96h.42l6.42,16.57c.42,1.09,1.02,1.65,1.81,1.69ZM79.61,101.99l-2.94-7.88-3,7.88h5.94Z"/>
        <path class="st7" d="M99.54,90.93v.53c-.35.09-.69.31-1.03.67-.33.36-.69.92-1.08,1.67l-4.13,8.2v4.79c0,.67.05,1.15.16,1.45.11.3.3.5.59.6.29.11.75.18,1.38.21v.53c-.8-.05-1.92-.08-3.34-.08-1.51,0-2.63.03-3.37.08v-.53c.63-.04,1.09-.11,1.38-.21.29-.11.49-.31.59-.6.11-.3.16-.78.16-1.45v-3.95l-5.34-9.88c-.31-.58-.59-.97-.83-1.17-.24-.2-.47-.3-.7-.3v-.55c.68.05,1.46.08,2.31.08,1.7,0,2.93-.03,3.68-.08v.55c-1.22,0-1.84.33-1.84,1,0,.26.09.57.26.92l4.37,8.41,3.37-6.69c.47-.93.71-1.69.71-2.27,0-.49-.19-.84-.58-1.05-.38-.21-.96-.32-1.74-.34v-.53c1,.05,2.01.08,3.03.08.79,0,1.45-.03,1.97-.08Z"/>
      </g>
    </g>
    <g class="st8">
      <g>
        <path class="st7" d="M25.64,138.68c-1.55-.43-3-1.25-4.3-2.49-2.61-2.48-2.79-6.02-.28-8.67,2.58-2.72,6.12-2.72,8.73-.24,1.29,1.22,2.19,2.61,2.33,4.24l-2.18.07c-.04-1.04-.58-2.13-1.43-2.93-1.75-1.66-4.18-1.43-5.78.26-1.71,1.81-1.82,4.25-.08,5.91.77.73,1.59,1.24,2.41,1.44l1.9-2-1.73-1.65,1.29-1.36,3.24,3.09-4.11,4.34Z"/>
        <path class="st7" d="M40.17,144.34c-1.49,2.4-4.14,2.83-6.41,1.41-2.27-1.41-3.06-3.99-1.57-6.39l3.9-6.28,1.76,1.1-3.86,6.23c-.61.98-.88,2.61.81,3.66,1.69,1.06,3.03.1,3.64-.88l3.87-6.22,1.76,1.09-3.9,6.29Z"/>
        <path class="st7" d="M51.13,141.12l1.68.63.6,12.72-2.22-.84-.08-2.89-4.74-1.78-1.93,2.13-2.18-.82,8.86-9.16ZM51.06,148.82v-5.09s-3.4,3.81-3.4,3.81l3.4,1.28Z"/>
        <path class="st7" d="M60.16,144.04l3.99.7c2.21.39,4.16,1.47,3.71,4.05-.29,1.66-1.46,2.71-3.21,2.66l2.16,5.63-2.47-.44-1.81-5.35-1.5-.26-.85,4.88-2.05-.36,2.02-11.52ZM62.95,149.56c1.15.2,2.52.34,2.78-1.15.24-1.36-1-1.75-2.05-1.94l-1.77-.31-.55,3.12,1.59.28Z"/>
        <path class="st7" d="M75.58,145.74l1.8-.02,5.15,11.64-2.38.03-1.12-2.67-5.06.05-1.03,2.69-2.33.03,4.96-11.75ZM78.3,152.95l-1.85-4.74-1.78,4.78,3.63-.04Z"/>
        <path class="st7" d="M85.03,145.31l2.69-.58,7.37,7.29h.04s-1.85-8.5-1.85-8.5l2.03-.44,2.48,11.43-2.58.56-7.54-7.53h-.03s1.9,8.77,1.9,8.77l-2.03.44-2.48-11.43Z"/>
        <path class="st7" d="M102,142.49l-3.29,1.41-.74-1.73,8.5-3.63.74,1.74-3.29,1.4,3.84,9.03-1.91.81-3.84-9.03Z"/>
        <path class="st7" d="M108.97,137.14l6.51-4.18,1.01,1.59-4.76,3.05,1.54,2.42,4.51-2.89,1.01,1.59-4.51,2.9,1.71,2.67,5.01-3.21,1.01,1.58-6.77,4.34-6.29-9.85Z"/>
        <path class="st7" d="M118.53,130.51l5.79-5.14,1.25,1.41-4.23,3.76,1.9,2.15,4.01-3.56,1.25,1.41-4.01,3.56,2.1,2.37,4.45-3.96,1.25,1.41-6,5.34-7.75-8.76Z"/>
      </g>
    </g>
    <path class="st6" d="M19.13,119.59c-8.76-11.76-13.96-26.34-13.96-42.11,0-2.74.16-5.45.47-8.11H.72c-.28,2.66-.44,5.37-.44,8.11,0,17.12,5.73,32.93,15.36,45.6l3.48-3.49Z"/>
    <path class="st2" d="M129.69,122.5l3.46,3.47c11.02-13.12,17.67-30.04,17.67-48.49,0-2.74-.15-5.44-.44-8.11h-4.92c.31,2.66.47,5.37.47,8.11,0,17.1-6.1,32.8-16.24,45.02Z"/>
    <rect class="st0" x="47.98" y="116.81" width="56.05" height="3.11"/>
    <g>
      <path d="M63.1,77.58c0,1.57.12,2.7.37,3.4.25.7.71,1.17,1.39,1.42.68.25,1.76.41,3.24.49v1.24c-1.73-.12-4.36-.19-7.9-.19-3.75,0-6.71.06-8.89.19v-1.24c1.85-.08,3.19-.25,4.01-.49s1.4-.72,1.73-1.42c.33-.7.49-1.83.49-3.4v-27.91c0-1.44-.21-2.49-.62-3.15s-1.11-1.1-2.1-1.33c-.99-.23-2.47-.34-4.45-.34v-1.3c3-.45,5.48-1,7.44-1.64,1.95-.64,3.71-1.35,5.28-2.13v37.79Z"/>
      <path d="M93.85,72.7v4.88c0,1.57.12,2.7.37,3.4.25.7.71,1.17,1.39,1.42.68.25,1.76.41,3.24.49v1.24c-1.73-.12-4.36-.19-7.9-.19-3.75,0-6.71.06-8.89.19v-1.24c1.85-.08,3.19-.25,4.01-.49.82-.25,1.4-.72,1.73-1.42.33-.7.49-1.83.49-3.4v-4.88h-16.98v-1.23l21.55-31.92h.99v29.02h7.78v4.14h-7.78ZM88.29,68.57v-20.38l-13.64,20.38h13.64Z"/>
    </g>
  </g>
  <g id="Layer_2" class="st5">
    <rect class="st4" x="46.24" y="116.9" width="55.12" height="3.06"/>
    <path class="st7" d="M77.55,78.34c0,1.58.12,2.72.37,3.43.25.71.71,1.18,1.4,1.43.68.25,1.77.41,3.26.5v1.25c-1.74-.12-4.39-.19-7.96-.19-3.77,0-6.76.06-8.96.19v-1.25c1.87-.08,3.21-.25,4.04-.5.83-.25,1.41-.72,1.74-1.43.33-.71.5-1.85.5-3.43v-28.16c0-1.45-.21-2.51-.62-3.18-.41-.66-1.12-1.11-2.11-1.34-1-.23-2.49-.34-4.48-.34v-1.31c3.03-.46,5.52-1.01,7.49-1.65,1.97-.64,3.74-1.36,5.32-2.15v38.13Z"/>
    <g>
      <path class="st1" d="M58.35,91.28v.52c-.35.09-.69.31-1.02.67-.33.36-.69.91-1.07,1.66l-4.11,8.15v4.77c0,.66.05,1.15.16,1.44.11.3.3.5.59.6.29.11.75.18,1.37.21v.52c-.8-.05-1.91-.08-3.32-.08-1.5,0-2.62.02-3.35.08v-.53c.63-.04,1.09-.11,1.38-.21.29-.1.48-.3.59-.6.1-.29.16-.78.16-1.44v-3.93l-5.31-9.83c-.31-.58-.59-.97-.82-1.17-.23-.2-.47-.3-.69-.3v-.55c.68.05,1.45.08,2.3.08,1.69,0,2.91-.03,3.66-.08v.55c-1.22,0-1.83.33-1.83,1,0,.26.09.57.26.92l4.34,8.36,3.35-6.66c.47-.93.71-1.68.71-2.25,0-.49-.19-.84-.58-1.05-.38-.21-.96-.33-1.73-.34v-.53c.99.05,2,.08,3.01.08.79,0,1.44-.03,1.96-.08Z"/>
      <path class="st1" d="M72.61,109.84c-1.19-.05-3.18-.08-5.99-.08-3.35,0-5.88.02-7.59.08v-.52c.63-.04,1.09-.11,1.37-.21.29-.1.48-.3.59-.6.1-.29.16-.78.16-1.44v-13c0-.67-.05-1.15-.16-1.45-.1-.3-.3-.5-.59-.6-.29-.11-.74-.17-1.37-.21v-.53c1.71.05,4.24.08,7.59.08,2.56,0,4.39-.03,5.47-.08-.12,1.16-.18,2.19-.18,3.09,0,.68.03,1.22.08,1.63h-.6c-.12-1.14-.28-1.98-.47-2.53-.19-.55-.51-.95-.97-1.2-.45-.25-1.14-.38-2.07-.38h-2.17c-.63,0-1.09.05-1.38.15-.29.1-.48.29-.59.59-.11.3-.16.78-.16,1.44v6.19h1.73c.61,0,1.08-.14,1.41-.43.33-.29.55-.63.67-1.02.11-.4.2-.89.27-1.48l.08-.52h.6c-.05.74-.08,1.55-.08,2.46v1.26c0,.89.05,2.13.16,3.72h-.6c-.02-.12-.07-.55-.16-1.27-.09-.72-.33-1.27-.72-1.64-.39-.37-.94-.55-1.63-.55h-1.73v6.29c0,.66.05,1.15.16,1.44.11.3.3.49.59.59.29.09.74.14,1.37.14h1.91c1.08,0,1.91-.14,2.47-.43.57-.29.98-.75,1.24-1.39.26-.63.45-1.58.57-2.82h.6c-.05.47-.08,1.1-.08,1.89,0,1,.06,2.12.19,3.36Z"/>
      <path class="st1" d="M90.01,109.32v.52c-.7-.05-1.63-.08-2.8-.08-1.5,0-2.62.02-3.35.08v-.52c.67-.04,1.14-.12,1.43-.25.29-.13.43-.37.43-.72,0-.3-.1-.71-.31-1.24l-1.6-4.3h-6.33l-1.07,2.78c-.35.95-.52,1.66-.52,2.15,0,.54.19.94.56,1.18.37.24.94.37,1.71.39v.52c-1-.05-2-.08-3.01-.08-.78,0-1.44.02-1.96.08v-.52c.87-.21,1.56-.97,2.07-2.28l6.15-15.89h.42l6.38,16.49c.43,1.08,1.03,1.65,1.81,1.68ZM83.59,102.29l-2.93-7.84-2.98,7.84h5.91Z"/>
      <path class="st1" d="M106.1,108.53c-.4.59-.8,1.02-1.2,1.28-.4.26-.93.4-1.6.4-.71,0-1.3-.21-1.77-.63-.46-.42-.81-1.15-1.03-2.2l-.58-2.62c-.21-.91-.41-1.61-.59-2.1-.18-.49-.46-.88-.82-1.18-.37-.3-.88-.45-1.54-.45h-2.49v6.03c0,.66.05,1.15.16,1.44.1.3.3.5.59.6.29.11.75.18,1.37.21v.52c-.8-.05-1.91-.08-3.32-.08-1.5,0-2.62.02-3.35.08v-.53c.63-.04,1.09-.11,1.37-.21.29-.1.48-.3.59-.6.1-.29.16-.78.16-1.44v-13c0-.67-.05-1.15-.16-1.45-.11-.3-.3-.5-.59-.6-.29-.11-.74-.17-1.37-.21v-.53c.73.05,1.8.08,3.19.08l2.83-.03c.33-.01.71-.02,1.13-.02,2.02,0,3.58.42,4.67,1.27,1.09.85,1.63,1.94,1.63,3.29,0,.68-.16,1.37-.48,2.06-.33.69-.86,1.31-1.62,1.86-.76.55-1.75.92-2.97,1.11l.31.05c1.15.19,1.99.54,2.51,1.05.52.51.91,1.31,1.15,2.42l.65,2.67c.18.8.36,1.36.55,1.67.19.31.46.47.78.47.3,0,.55-.08.75-.24.2-.16.43-.41.7-.76l.39.29ZM95.2,91.98c-.27.13-.46.35-.56.66-.1.31-.16.79-.16,1.42v6.45h1.75c1.73,0,2.91-.39,3.56-1.15.64-.77.97-1.83.97-3.2s-.34-2.52-1.02-3.25c-.68-.74-1.79-1.1-3.32-1.1-.54,0-.95.06-1.22.18Z"/>
    </g>
    <path class="st3" d="M73.7,2.29L5.26,19.06v63.9c0,15.36,6.73,29.91,20,43.26,11.01,11.08,26.49,21.48,47.31,31.81l1.12.56,1.12-.56c20.82-10.33,36.3-20.73,47.31-31.81,13.27-13.35,20-27.91,20-43.26V19.06L73.7,2.29ZM137.08,82.96c0,14.18-6.06,27.16-18.53,39.71-10.42,10.48-25.1,20.4-44.86,30.29-19.75-9.89-34.43-19.8-44.86-30.29-12.47-12.54-18.53-25.53-18.53-39.71V23.02l61-14.94v15.59h4.64v-15.63l61.14,14.98v59.94Z"/>
  </g>
</svg>