<?xml version="1.0" encoding="utf-8"?>
<!-- Generator: Adobe Illustrator 16.0.3, SVG Export Plug-In . SVG Version: 6.00 Build 0)  -->
<!DOCTYPE svg PUBLIC "-//W3C//DTD SVG 1.1//EN" "http://www.w3.org/Graphics/SVG/1.1/DTD/svg11.dtd">
<svg version="1.1" id="Layer_1" xmlns="http://www.w3.org/2000/svg" xmlns:xlink="http://www.w3.org/1999/xlink" x="0px" y="0px"
	 width="100px" height="95px" viewBox="0 0 100 95" enable-background="new 0 0 100 95" xml:space="preserve">
<g id="_x31_-year" display="none">
	<g display="inline">
		<g>
			<path fill="#0E3C51" d="M51.914,45.067c0,1.079,0.085,1.858,0.255,2.34c0.17,0.482,0.488,0.808,0.956,0.979
				c0.467,0.171,1.21,0.283,2.229,0.341v0.851c-1.188-0.084-3-0.127-5.436-0.127c-2.576,0-4.614,0.043-6.115,0.127v-0.851
				c1.274-0.058,2.194-0.17,2.76-0.341c0.566-0.17,0.962-0.496,1.189-0.979c0.227-0.482,0.34-1.262,0.34-2.34V25.836
				c0-0.992-0.142-1.715-0.425-2.169s-0.764-0.759-1.444-0.915c-0.679-0.155-1.698-0.234-3.057-0.234v-0.894
				c2.066-0.312,3.772-0.688,5.117-1.127c1.344-0.439,2.554-0.929,3.63-1.468L51.914,45.067L51.914,45.067z"/>
			<path fill="#0E3C51" d="M41.782,53.871v0.295c-0.196,0.049-0.387,0.174-0.572,0.375c-0.186,0.201-0.387,0.512-0.602,0.934
				l-2.305,4.574v2.676c0,0.373,0.03,0.644,0.088,0.81c0.059,0.168,0.169,0.278,0.33,0.338c0.162,0.06,0.418,0.101,0.771,0.119
				v0.293c-0.45-0.029-1.071-0.043-1.864-0.043c-0.842,0-1.468,0.014-1.879,0.043V63.99c0.352-0.021,0.609-0.061,0.771-0.119
				s0.271-0.17,0.33-0.338c0.059-0.166,0.088-0.436,0.088-0.809V60.52l-2.98-5.516c-0.176-0.324-0.33-0.541-0.462-0.654
				c-0.132-0.113-0.262-0.17-0.389-0.17v-0.309c0.381,0.029,0.812,0.045,1.292,0.045c0.949,0,1.634-0.016,2.055-0.045v0.309
				c-0.685,0-1.028,0.188-1.028,0.56c0,0.147,0.049,0.319,0.147,0.516l2.437,4.69l1.879-3.735c0.264-0.521,0.396-0.94,0.396-1.265
				c0-0.274-0.108-0.471-0.323-0.588c-0.215-0.118-0.538-0.182-0.969-0.19v-0.295c0.558,0.028,1.121,0.045,1.688,0.045
				C41.122,53.916,41.489,53.9,41.782,53.871z"/>
			<path fill="#0E3C51" d="M49.782,64.283c-0.666-0.029-1.786-0.043-3.361-0.043c-1.879,0-3.298,0.014-4.256,0.043V63.99
				c0.352-0.021,0.609-0.061,0.771-0.119c0.161-0.059,0.271-0.17,0.33-0.338c0.059-0.166,0.088-0.436,0.088-0.809v-7.293
				c0-0.373-0.03-0.646-0.088-0.812s-0.169-0.279-0.33-0.338c-0.162-0.06-0.418-0.099-0.771-0.117V53.87
				c0.958,0.028,2.377,0.045,4.256,0.045c1.438,0,2.461-0.017,3.068-0.045c-0.068,0.647-0.103,1.228-0.103,1.735
				c0,0.384,0.015,0.687,0.044,0.912h-0.338c-0.068-0.637-0.156-1.11-0.264-1.42c-0.107-0.309-0.289-0.535-0.543-0.676
				c-0.254-0.143-0.641-0.215-1.16-0.215h-1.218c-0.352,0-0.609,0.027-0.771,0.082c-0.162,0.055-0.271,0.164-0.33,0.33
				s-0.088,0.438-0.088,0.811V58.9h0.969c0.343,0,0.607-0.082,0.793-0.243c0.186-0.162,0.311-0.354,0.374-0.572
				c0.063-0.224,0.115-0.498,0.154-0.832l0.044-0.293h0.337c-0.029,0.412-0.044,0.871-0.044,1.381v0.707
				c0,0.5,0.029,1.195,0.088,2.088h-0.338c-0.01-0.067-0.039-0.307-0.088-0.713c-0.049-0.405-0.184-0.715-0.404-0.92
				s-0.526-0.31-0.917-0.31h-0.969v3.529c0,0.373,0.029,0.644,0.088,0.81c0.059,0.168,0.168,0.276,0.33,0.332
				c0.162,0.053,0.418,0.079,0.771,0.079h1.072c0.606,0,1.069-0.079,1.387-0.241c0.318-0.162,0.551-0.422,0.697-0.779
				c0.147-0.356,0.254-0.885,0.323-1.582h0.337c-0.029,0.267-0.044,0.619-0.044,1.06C49.679,62.961,49.713,63.588,49.782,64.283z"/>
			<path fill="#0E3C51" d="M59.542,63.99v0.293c-0.392-0.029-0.915-0.043-1.569-0.043c-0.843,0-1.469,0.014-1.88,0.043V63.99
				c0.372-0.021,0.64-0.066,0.8-0.141c0.162-0.074,0.242-0.207,0.242-0.404c0-0.166-0.059-0.396-0.176-0.691l-0.896-2.412h-3.551
				L51.91,61.9c-0.196,0.531-0.294,0.932-0.294,1.207c0,0.303,0.104,0.524,0.315,0.662c0.209,0.137,0.53,0.211,0.961,0.221v0.293
				c-0.559-0.029-1.121-0.043-1.688-0.043c-0.439,0-0.808,0.014-1.101,0.043V63.99c0.489-0.119,0.875-0.545,1.16-1.279l3.448-8.914
				h0.235l3.58,9.252C58.766,63.656,59.104,63.971,59.542,63.99z M55.945,60.049l-1.644-4.398l-1.674,4.398H55.945z"/>
			<path fill="#0E3C51" d="M68.568,63.549c-0.225,0.332-0.449,0.574-0.674,0.721c-0.227,0.146-0.523,0.222-0.896,0.222
				c-0.4,0-0.73-0.119-0.991-0.354c-0.259-0.236-0.452-0.646-0.579-1.236l-0.322-1.469c-0.117-0.51-0.229-0.901-0.33-1.178
				c-0.104-0.273-0.258-0.494-0.463-0.662c-0.205-0.166-0.494-0.25-0.865-0.25h-1.396v3.383c0,0.373,0.029,0.644,0.089,0.81
				c0.059,0.168,0.168,0.278,0.33,0.338c0.16,0.06,0.418,0.101,0.771,0.119v0.293c-0.45-0.029-1.071-0.043-1.864-0.043
				c-0.842,0-1.468,0.014-1.879,0.043V63.99c0.354-0.021,0.609-0.061,0.771-0.119s0.271-0.17,0.33-0.338
				c0.06-0.166,0.088-0.436,0.088-0.809v-7.293c0-0.373-0.028-0.646-0.088-0.812s-0.168-0.279-0.33-0.338
				c-0.162-0.06-0.418-0.099-0.771-0.117V53.87c0.411,0.028,1.008,0.045,1.791,0.045l1.585-0.017
				c0.187-0.008,0.396-0.014,0.632-0.014c1.135,0,2.008,0.236,2.62,0.713c0.61,0.478,0.917,1.09,0.917,1.846
				c0,0.384-0.091,0.769-0.271,1.154c-0.182,0.389-0.483,0.734-0.91,1.045c-0.426,0.31-0.98,0.517-1.666,0.625l0.177,0.029
				c0.646,0.107,1.116,0.303,1.409,0.588c0.294,0.285,0.509,0.734,0.646,1.354l0.366,1.5c0.1,0.45,0.201,0.764,0.309,0.94
				c0.107,0.176,0.256,0.264,0.44,0.264c0.166,0,0.306-0.045,0.418-0.133s0.242-0.229,0.39-0.426L68.568,63.549z M62.456,54.268
				c-0.151,0.07-0.257,0.193-0.315,0.369c-0.058,0.176-0.088,0.441-0.088,0.795v3.617h0.983c0.969,0,1.634-0.217,1.996-0.646
				c0.36-0.432,0.543-1.028,0.543-1.795c0-0.805-0.19-1.412-0.572-1.823c-0.382-0.412-1.004-0.617-1.864-0.617
				C62.835,54.166,62.607,54.199,62.456,54.268z"/>
		</g>
	</g>
	
		<linearGradient id="SVGID_1_" gradientUnits="userSpaceOnUse" x1="141.2832" y1="-171.6787" x2="210.7266" y2="-171.6787" gradientTransform="matrix(1 0 0 -1 -126 -120)">
		<stop  offset="0" style="stop-color:#FFBF6D"/>
		<stop  offset="0.3045" style="stop-color:#FCC87C"/>
		<stop  offset="0.8867" style="stop-color:#F5E1A3"/>
		<stop  offset="1" style="stop-color:#F4E6AB"/>
	</linearGradient>
	<path display="inline" fill="url(#SVGID_1_)" d="M84.727,54.859V9.649H15.283v45.21c0,15.104,10.563,20.268,19.883,24.824
		c7.365,3.602,13.729,6.713,13.729,14.024h2.222c0-7.313,6.361-10.424,13.727-14.024C74.166,75.127,84.727,69.963,84.727,54.859z
		 M50.006,88.369c-2.322-5.041-7.97-7.803-13.868-10.684c-9.16-4.479-18.634-9.111-18.634-22.826V11.875h65.004v42.984
		c0,13.715-9.476,18.348-18.637,22.826C57.975,80.566,52.327,83.328,50.006,88.369z"/>
	
		<linearGradient id="SVGID_2_" gradientUnits="userSpaceOnUse" x1="126" y1="-171.874" x2="165.8105" y2="-171.874" gradientTransform="matrix(1 0 0 -1 -126 -120)">
		<stop  offset="0" style="stop-color:#FFBF6D"/>
		<stop  offset="0.3045" style="stop-color:#FCC87C"/>
		<stop  offset="0.8867" style="stop-color:#F5E1A3"/>
		<stop  offset="1" style="stop-color:#F4E6AB"/>
	</linearGradient>
	<path display="inline" fill="url(#SVGID_2_)" d="M31.274,87.668C22.051,83.184,6.648,75.639,6.409,55.311l4.156-4.162v-3.155
		l-4.178,4.185V47.78l4.178-4.215v-3.157l-4.178,4.218v-4.43l4.178-4.215v-3.156l-4.178,4.217v-4.43l4.178-4.215v-3.125
		l-4.178,4.186v-4.43l4.178-4.186v-3.154l-4.178,4.218v-4.432l4.178-4.215v-3.155l-4.178,4.218V9.649h-2.21v4.642L0,10.104v3.155
		l4.177,4.186v4.43L0,17.688v3.154l4.177,4.156v4.428L0,25.272v3.125l4.177,4.186v4.427L0,32.825v3.156l4.177,4.185v4.428L0,40.408
		v3.157l4.177,4.187v4.396L0,47.993v3.155l4.177,4.187L4.2,55.355C4.457,77.012,20.603,84.95,30.304,89.672
		c1.909,0.939,6.996,3.428,7.662,4.428l1.845-1.213C38.873,91.49,35.241,89.641,31.274,87.668z"/>
	
		<linearGradient id="SVGID_3_" gradientUnits="userSpaceOnUse" x1="186.1875" y1="-171.874" x2="226" y2="-171.874" gradientTransform="matrix(1 0 0 -1 -126 -120)">
		<stop  offset="0" style="stop-color:#FFBF6D"/>
		<stop  offset="0.3045" style="stop-color:#FCC87C"/>
		<stop  offset="0.8867" style="stop-color:#F5E1A3"/>
		<stop  offset="1" style="stop-color:#F4E6AB"/>
	</linearGradient>
	<path display="inline" fill="url(#SVGID_3_)" d="M100,13.259v-3.155l-4.18,4.218V9.649h-2.209v4.642l-4.178-4.187v3.155
		l4.178,4.188v4.428l-4.178-4.187v3.154l4.178,4.156v4.428l-4.178-4.154v3.125l4.178,4.186v4.427l-4.178-4.186v3.156l4.178,4.185
		v4.428l-4.178-4.187v3.157l4.178,4.187v4.396l-4.178-4.155v3.155l4.178,4.154C93.369,75.658,77.988,83.18,68.727,87.668
		c-3.968,1.973-7.601,3.822-8.539,5.219l1.847,1.213c0.668-1,5.753-3.488,7.69-4.428c9.688-4.73,25.856-12.65,26.098-34.338
		L100,51.148v-3.156l-4.18,4.185V47.78l4.18-4.216v-3.157l-4.18,4.218v-4.43l4.18-4.214v-3.156l-4.18,4.217v-4.43l4.18-4.215v-3.125
		l-4.18,4.186v-4.427l4.18-4.188v-3.154l-4.18,4.218v-4.432L100,13.259z"/>
	
		<linearGradient id="SVGID_4_" gradientUnits="userSpaceOnUse" x1="155.998" y1="-123.0176" x2="196.0117" y2="-123.0176" gradientTransform="matrix(1 0 0 -1 -126 -120)">
		<stop  offset="0" style="stop-color:#FFBF6D"/>
		<stop  offset="0.3045" style="stop-color:#FCC87C"/>
		<stop  offset="0.8867" style="stop-color:#F5E1A3"/>
		<stop  offset="1" style="stop-color:#F4E6AB"/>
	</linearGradient>
	<rect x="29.998" y="1.905" display="inline" fill="url(#SVGID_4_)" width="40.014" height="2.225"/>
</g>
<g>
	<g>
		<path fill="#0E3C51" d="M47.106,26.325c1.272,1.032,1.908,2.47,1.908,4.314c0,1.092-0.254,2.202-0.763,3.331
			c-0.508,1.129-1.15,2.228-1.925,3.295c-0.776,1.068-1.914,2.524-3.416,4.368c-2.083,2.573-3.779,4.782-5.087,6.625h8.139
			c0.799,0,1.411-0.249,1.835-0.746c0.424-0.497,0.708-1.377,0.854-2.639h0.835c-0.073,0.534-0.109,1.226-0.109,2.075
			c0,1.286,0.084,2.657,0.254,4.114H41.82l-4.905-0.037c-0.848,0-1.478,0.014-1.889,0.037v-0.729
			c1.84-2.063,3.481-4.041,4.923-5.934c1.441-1.893,2.725-4.01,3.852-6.352c1.126-2.342,1.689-4.617,1.689-6.826
			c0-1.82-0.399-3.216-1.199-4.187c-0.799-0.971-1.865-1.456-3.197-1.456c-0.896,0-1.738,0.218-2.525,0.655
			c-0.788,0.437-1.326,1.043-1.617,1.82c0.63,0.098,1.139,0.304,1.526,0.619s0.581,0.752,0.581,1.311s-0.188,1.014-0.563,1.365
			c-0.376,0.352-0.854,0.528-1.435,0.528c-0.606,0-1.078-0.194-1.417-0.583c-0.34-0.388-0.509-0.861-0.509-1.42
			c0-0.412,0.109-0.861,0.327-1.347c0.218-0.485,0.532-0.958,0.944-1.42c0.727-0.801,1.593-1.389,2.598-1.766
			c1.005-0.376,2.077-0.564,3.215-0.564C44.205,24.777,45.834,25.293,47.106,26.325z"/>
		<path fill="#0E3C51" d="M59.623,47.202c0,0.923,0.072,1.59,0.218,2.002c0.146,0.413,0.418,0.69,0.817,0.838
			c0.398,0.146,1.035,0.242,1.906,0.291v0.729c-1.018-0.074-2.566-0.109-4.649-0.109c-2.204,0-3.948,0.035-5.231,0.109v-0.729
			c1.09-0.049,1.877-0.146,2.361-0.291s0.823-0.425,1.018-0.838c0.193-0.412,0.291-1.079,0.291-2.002V30.748
			c0-0.849-0.121-1.468-0.363-1.856s-0.654-0.649-1.235-0.783c-0.581-0.133-1.453-0.2-2.616-0.2v-0.765
			c1.769-0.267,3.229-0.588,4.379-0.964c1.149-0.376,2.187-0.795,3.106-1.256L59.623,47.202L59.623,47.202z"/>
	</g>
</g>
<g>
	<g>
		<path fill="#0E3C51" d="M9.977,40.166l-1.903-3.257c-0.229-0.39-0.509-0.864-0.978-0.979c-0.555-0.135-1.001,0.243-1.129,0.77
			c-0.138,0.566,0.128,1.057,0.664,1.269l-0.389,1.184c-1.225-0.42-1.664-1.492-1.365-2.718c0.296-1.217,1.155-2.042,2.456-1.725
			c0.852,0.208,1.328,0.792,1.735,1.531l1.431,2.572l0.764-3.143l1.033,0.252l-1.104,4.542L9.977,40.166z"/>
		<path fill="#0E3C51" d="M8.382,30.416l0.612,1.678l-1.02,0.321L7.17,29.79l0.414-0.992l6.431,2.693l-0.456,1.092L8.382,30.416z"/>
		<path fill="#0E3C51" d="M11.524,21.492l1.682-2.174c1.121-1.45,3.057-2.118,4.924-0.668c1.883,1.462,1.519,3.736,0.494,5.062
			l-1.591,2.058L11.524,21.492z M17.472,23.366c0.953-1.231,1.202-2.648-0.137-3.688c-1.338-1.039-2.543-0.576-3.471,0.625
			l-0.693,0.896l3.734,2.9L17.472,23.366z"/>
		<path fill="#0E3C51" d="M19.044,13.005l0.807-0.708l6.851,3.269l-1.066,0.936l-1.539-0.772l-2.272,1.995l0.577,1.618l-1.044,0.917
			L19.044,13.005z M23.07,15.213l-2.675-1.427l1.046,2.857L23.07,15.213z"/>
		<path fill="#0E3C51" d="M26.93,11.971l-4.337-1.983l1.316-0.829l2.927,1.439L26.824,7.32l1.249-0.787l-0.093,4.776l1.587,2.529
			L28.518,14.5L26.93,11.971z"/>
		<path fill="#0E3C51" d="M33.825,3.887l1.819-0.514l3.114,4.202l0.486-5.218l1.8-0.508l1.89,6.72L41.797,8.89l-1.57-5.581
			l-0.019,0.006L39.741,9.47l-0.833,0.236L35.301,4.7l-0.019,0.005l1.569,5.581l-1.136,0.321L33.825,3.887z"/>
		<path fill="#0E3C51" d="M47.725,1.009c2.172-0.143,3.775,1.242,3.88,3.479c0.104,2.177-1.36,3.708-3.532,3.851
			c-2.144,0.102-3.747-1.283-3.85-3.459C44.118,2.643,45.582,1.112,47.725,1.009z M48.03,7.215c1.445-0.069,2.346-1.218,2.276-2.705
			c-0.065-1.389-1.072-2.447-2.517-2.378c-1.436,0.068-2.337,1.217-2.271,2.606C45.588,6.226,46.594,7.284,48.03,7.215z"/>
		<path fill="#0E3C51" d="M54.333,1.238l1.622,0.264l2.503,5.663l0.019,0.002l0.83-5.12l1.225,0.2l-1.117,6.891l-1.555-0.252
			l-2.543-5.838l-0.021-0.003l-0.856,5.283l-1.225-0.199L54.333,1.238z"/>
		<path fill="#0E3C51" d="M63.55,3.108l4.349,1.559L67.52,5.725l-3.18-1.14L63.764,6.2l3.012,1.08l-0.379,1.059l-3.012-1.081
			l-0.637,1.783l3.345,1.199l-0.378,1.06l-4.513-1.618L63.55,3.108z"/>
		<path fill="#0E3C51" d="M70.061,10.18l-0.349-4.767l1.358,0.758l0.146,3.265l2.865-1.585l1.29,0.72l-4.229,2.213l-1.451,2.61
			l-1.084-0.604L70.061,10.18z"/>
		<path fill="#0E3C51" d="M80.227,12.294l1.963,1.878C82.95,14.901,83.4,16,82.523,16.919c-0.543,0.571-1.26,0.608-1.928,0.268
			l-0.015,0.015c0.565,0.677,0.545,1.612-0.073,2.261c-1.047,1.099-2.326,0.528-3.279-0.384l-1.814-1.736L80.227,12.294z
			 M77.045,17.43l0.825,0.79c0.463,0.443,1.178,0.979,1.81,0.314c0.504-0.527,0.34-1.04-0.388-1.734l-0.86-0.825L77.045,17.43z
			 M79.165,15.205l0.817,0.783c0.599,0.572,1.142,0.601,1.502,0.223c0.414-0.435,0.318-0.935-0.356-1.582l-0.739-0.708
			L79.165,15.205z"/>
		<path fill="#0E3C51" d="M87.116,19.773l0.633,0.869l-3.856,6.545l-0.836-1.146l0.904-1.467l-1.781-2.445l-1.658,0.433
			l-0.818-1.123L87.116,19.773z M84.563,23.594l1.656-2.542l-2.933,0.791L84.563,23.594z"/>
		<path fill="#0E3C51" d="M91.259,30.174c0.267-0.698,0.193-1.188-0.016-1.624c-0.622-1.298-2.029-1.681-3.28-1.079
			c-1.339,0.645-1.919,1.986-1.297,3.284c0.243,0.507,0.708,0.884,1.439,1.046l-0.213,1.24c-1.053-0.193-1.799-0.884-2.242-1.808
			c-0.93-1.938-0.282-3.957,1.679-4.901c2.014-0.97,3.991-0.215,4.922,1.722c0.409,0.854,0.483,1.715,0.063,2.684L91.259,30.174z"/>
		<path fill="#0E3C51" d="M93.999,32.758l0.329,1.198l-2.846,0.785l0.016,0.057l3.611,2l0.442,1.616l-3.966-2.291l-2.693,4.352
			l-0.463-1.683l2.502-3.829l-0.02-0.066l-3.303,0.911l-0.328-1.198L93.999,32.758z"/>
	</g>
</g>
<g>
	<path fill="#0E3C51" d="M42.959,56.657c0.92,0.928,1.381,2.276,1.381,4.049c0,1.144-0.225,2.146-0.675,3.004
		s-1.102,1.522-1.954,1.988c-0.853,0.467-1.87,0.7-3.052,0.7l-0.911-0.016c-0.586-0.021-1.015-0.031-1.287-0.031
		c-0.858,0-1.507,0.017-1.946,0.047v-0.313c0.376-0.021,0.651-0.063,0.824-0.127c0.173-0.063,0.291-0.185,0.354-0.36
		c0.063-0.179,0.094-0.468,0.094-0.865v-7.799c0-0.398-0.032-0.688-0.094-0.865c-0.063-0.178-0.181-0.299-0.354-0.361
		c-0.172-0.063-0.447-0.105-0.824-0.125v-0.314c0.366,0.031,0.874,0.047,1.522,0.047l1.334-0.016
		c0.711-0.021,1.188-0.031,1.428-0.031C40.652,55.268,42.039,55.729,42.959,56.657z M37.678,55.659
		c-0.163,0.071-0.275,0.205-0.337,0.393c-0.063,0.189-0.094,0.474-0.094,0.851v7.861c0,0.379,0.031,0.661,0.094,0.85
		s0.175,0.32,0.337,0.393c0.162,0.074,0.41,0.111,0.745,0.111c1.109,0,1.983-0.201,2.621-0.605c0.638-0.404,1.085-0.994,1.342-1.77
		c0.257-0.776,0.385-1.766,0.385-2.973c0-1.205-0.141-2.188-0.424-2.947c-0.283-0.76-0.74-1.328-1.373-1.707
		c-0.633-0.377-1.489-0.566-2.566-0.566C38.083,55.548,37.84,55.585,37.678,55.659z"/>
	<path fill="#0E3C51" d="M54.557,66.085v0.313c-0.418-0.03-0.979-0.047-1.678-0.047c-0.9,0-1.57,0.017-2.01,0.047v-0.313
		c0.398-0.021,0.684-0.071,0.855-0.149c0.17-0.078,0.26-0.224,0.26-0.433c0-0.178-0.064-0.426-0.189-0.739l-0.957-2.578H47.04
		l-0.643,1.666c-0.209,0.565-0.314,0.996-0.314,1.291c0,0.323,0.112,0.561,0.337,0.707c0.225,0.146,0.567,0.225,1.028,0.235v0.313
		c-0.596-0.03-1.198-0.047-1.805-0.047c-0.471,0-0.863,0.017-1.177,0.047v-0.313c0.523-0.127,0.936-0.582,1.24-1.369l3.689-9.528
		h0.25l3.83,9.891C53.725,65.729,54.086,66.063,54.557,66.085z M50.713,61.87l-1.758-4.701l-1.79,4.701H50.713z"/>
	<path fill="#0E3C51" d="M62.609,55.268v0.313c-0.211,0.053-0.414,0.187-0.612,0.399c-0.199,0.215-0.413,0.547-0.644,0.998
		l-2.463,4.892v2.86c0,0.398,0.03,0.688,0.094,0.865c0.063,0.178,0.181,0.299,0.354,0.361c0.174,0.064,0.447,0.105,0.824,0.127
		v0.314c-0.48-0.031-1.146-0.047-1.993-0.047c-0.899,0-1.569,0.016-2.009,0.047v-0.314c0.376-0.021,0.65-0.063,0.822-0.127
		c0.174-0.063,0.291-0.184,0.354-0.361c0.063-0.177,0.095-0.467,0.095-0.865v-2.356l-3.187-5.897
		c-0.188-0.347-0.354-0.578-0.494-0.699c-0.142-0.119-0.28-0.18-0.416-0.18v-0.33c0.408,0.03,0.868,0.047,1.381,0.047
		c1.015,0,1.747-0.017,2.197-0.047v0.33c-0.731,0-1.099,0.198-1.099,0.598c0,0.156,0.053,0.34,0.156,0.549l2.605,5.018l2.009-3.994
		c0.282-0.557,0.424-1.008,0.424-1.354c0-0.293-0.114-0.502-0.346-0.629c-0.229-0.125-0.575-0.193-1.036-0.203v-0.314
		c0.598,0.031,1.198,0.047,1.807,0.047C61.902,55.313,62.295,55.298,62.609,55.268z"/>
</g>
<g>
	<g>
		<g>
			<g>
				<path fill="#0E3C51" d="M20.092,83.771c-0.925-0.256-1.788-0.748-2.565-1.488c-1.556-1.48-1.667-3.596-0.17-5.178
					c1.538-1.623,3.654-1.623,5.209-0.144c0.771,0.731,1.308,1.556,1.389,2.529l-1.301,0.041c-0.023-0.619-0.346-1.269-0.853-1.748
					c-1.042-0.992-2.493-0.851-3.449,0.159c-1.022,1.078-1.089,2.539-0.047,3.529c0.457,0.435,0.952,0.742,1.436,0.861l1.131-1.193
					l-1.035-0.983l0.772-0.814l1.934,1.841L20.092,83.771z"/>
			</g>
		</g>
		<g>
			<g>
				<path fill="#0E3C51" d="M28.762,87.148c-0.888,1.43-2.472,1.688-3.826,0.844S23.111,85.611,24,84.18l2.328-3.75l1.053,0.656
					l-2.307,3.717c-0.364,0.586-0.525,1.555,0.486,2.184c1.012,0.632,1.807,0.06,2.171-0.528l2.308-3.715l1.053,0.653L28.762,87.148
					z"/>
			</g>
		</g>
		<g>
			<g>
				<path fill="#0E3C51" d="M35.302,85.223l1.004,0.377l0.361,7.594l-1.327-0.5l-0.048-1.723l-2.829-1.063l-1.15,1.272l-1.299-0.49
					L35.302,85.223z M35.262,89.82l-0.008-3.037l-2.019,2.275L35.262,89.82z"/>
			</g>
		</g>
		<g>
			<g>
				<path fill="#0E3C51" d="M40.696,86.969l2.384,0.42c1.318,0.23,2.484,0.877,2.214,2.42c-0.174,0.992-0.873,1.619-1.916,1.586
					l1.289,3.359l-1.473-0.26l-1.079-3.191l-0.892-0.156l-0.51,2.912l-1.221-0.215L40.696,86.969z M42.357,90.264
					c0.688,0.121,1.503,0.203,1.659-0.688c0.144-0.814-0.596-1.046-1.226-1.156l-1.057-0.187l-0.326,1.863L42.357,90.264z"/>
			</g>
		</g>
		<g>
			<g>
				<path fill="#0E3C51" d="M49.898,87.984l1.073-0.01l3.075,6.948l-1.417,0.017l-0.667-1.592l-3.021,0.03l-0.613,1.604L46.94,95
					L49.898,87.984z M51.518,92.287l-1.103-2.828l-1.062,2.852L51.518,92.287z"/>
			</g>
		</g>
		<g>
			<g>
				<path fill="#0E3C51" d="M55.536,87.725l1.606-0.348l4.398,4.348l0.02-0.004l-1.102-5.068l1.212-0.264l1.481,6.822l-1.539,0.334
					l-4.502-4.496l-0.02,0.004l1.137,5.23l-1.211,0.266L55.536,87.725z"/>
			</g>
		</g>
		<g>
			<g>
				<path fill="#0E3C51" d="M65.666,86.041l-1.966,0.84l-0.438-1.035l5.071-2.164l0.438,1.035l-1.965,0.838l2.291,5.391
					l-1.141,0.486L65.666,86.041z"/>
			</g>
		</g>
		<g>
			<g>
				<path fill="#0E3C51" d="M69.822,82.848l3.888-2.494l0.604,0.947l-2.844,1.822l0.922,1.445l2.694-1.728l0.604,0.947l-2.693,1.728
					l1.02,1.594l2.991-1.918l0.604,0.944l-4.037,2.591L69.822,82.848z"/>
			</g>
		</g>
		<g>
			<g>
				<path fill="#0E3C51" d="M75.529,78.891l3.453-3.067l0.744,0.842l-2.524,2.244l1.136,1.282l2.393-2.127l0.744,0.843l-2.393,2.125
					l1.254,1.416l2.657-2.361l0.743,0.843l-3.584,3.186L75.529,78.891z"/>
			</g>
		</g>
	</g>
</g>
<linearGradient id="SVGID_5_" gradientUnits="userSpaceOnUse" x1="130.958" y1="-178.4316" x2="142.207" y2="-178.4316" gradientTransform="matrix(1 0 0 -1 -126 -120)">
	<stop  offset="0" style="stop-color:#FFBF6D"/>
	<stop  offset="0.3045" style="stop-color:#FCC87C"/>
	<stop  offset="0.8867" style="stop-color:#F5E1A3"/>
	<stop  offset="1" style="stop-color:#F4E6AB"/>
</linearGradient>
<path fill="url(#SVGID_5_)" d="M16.207,72.375c-5.231-7.018-8.333-15.719-8.333-25.132c0-1.636,0.097-3.251,0.28-4.839H5.218
	c-0.17,1.59-0.26,3.204-0.26,4.839c0,10.22,3.419,19.651,9.169,27.216L16.207,72.375z"/>
<linearGradient id="SVGID_6_" gradientUnits="userSpaceOnUse" x1="208.1914" y1="-179.293" x2="220.8066" y2="-179.293" gradientTransform="matrix(1 0 0 -1 -126 -120)">
	<stop  offset="0" style="stop-color:#FFBF6D"/>
	<stop  offset="0.3045" style="stop-color:#FCC87C"/>
	<stop  offset="0.8867" style="stop-color:#F5E1A3"/>
	<stop  offset="1" style="stop-color:#F4E6AB"/>
</linearGradient>
<path fill="url(#SVGID_6_)" d="M82.191,74.111l2.068,2.072c6.576-7.832,10.547-17.931,10.547-28.941
	c0-1.635-0.091-3.249-0.261-4.839h-2.937c0.184,1.588,0.279,3.203,0.279,4.839C91.891,57.449,88.245,66.816,82.191,74.111z"/>
<linearGradient id="SVGID_7_" gradientUnits="userSpaceOnUse" x1="158.0928" y1="-191.645" x2="191.5469" y2="-191.645" gradientTransform="matrix(1 0 0 -1 -126 -120)">
	<stop  offset="0" style="stop-color:#FFBF6D"/>
	<stop  offset="0.3045" style="stop-color:#FCC87C"/>
	<stop  offset="0.8867" style="stop-color:#F5E1A3"/>
	<stop  offset="1" style="stop-color:#F4E6AB"/>
</linearGradient>
<rect x="32.093" y="70.717" fill="url(#SVGID_7_)" width="33.454" height="1.856"/>
</svg>
