<?xml version="1.0" encoding="utf-8"?>
<!-- Generator: Adobe Illustrator 16.0.3, SVG Export Plug-In . SVG Version: 6.00 Build 0)  -->
<!DOCTYPE svg PUBLIC "-//W3C//DTD SVG 1.1//EN" "http://www.w3.org/Graphics/SVG/1.1/DTD/svg11.dtd">
<svg version="1.1" xmlns="http://www.w3.org/2000/svg" xmlns:xlink="http://www.w3.org/1999/xlink" x="0px" y="0px"
	 width="118.562px" height="120.429px" viewBox="0 0 118.562 120.429" enable-background="new 0 0 118.562 120.429"
	 xml:space="preserve">
<g id="affordable" display="none">
	<g display="inline">
		<rect x="48.558" y="61.665" fill="#1ED1C4" width="19.601" height="2.262"/>
		<polygon fill="#1ED1C4" points="55.087,56.732 58.352,59.748 61.619,56.732 64.889,59.748 68.925,56.024 67.392,54.362 
			64.889,56.67 61.619,53.654 58.352,56.67 55.087,53.654 51.822,56.67 49.324,54.363 47.79,56.023 51.822,59.748 		"/>
		<path fill="#1ED1C4" d="M62.321,1.452l-16.519,9.537l16.519,9.537V1.452z M60.06,16.608l-9.733-5.619l9.733-5.62V16.608z"/>
		<path fill="#1ED1C4" d="M14.855,7.162C14.855,3.213,11.643,0,7.694,0C3.745,0,0.532,3.213,0.532,7.162s3.213,7.162,7.162,7.162
			C11.643,14.324,14.855,11.111,14.855,7.162z M2.794,7.162c0-2.702,2.198-4.9,4.9-4.9c2.701,0,4.9,2.198,4.9,4.9
			s-2.199,4.9-4.9,4.9C4.992,12.063,2.794,9.864,2.794,7.162z"/>
		<path fill="#1ED1C4" d="M23.612,37.011c0.604-0.256,1.025-0.667,1.363-0.997c0.482-0.472,0.615-0.565,0.95-0.529
			c0.377,0.047,0.659,0.344,1.127,0.865c0.609,0.679,1.366,1.521,2.728,1.781l0.424-2.222c-0.582-0.111-0.938-0.479-1.468-1.069
			c-0.578-0.646-1.299-1.448-2.537-1.599c-1.441-0.178-2.264,0.625-2.806,1.155c-0.242,0.237-0.451,0.441-0.66,0.53
			c-1.114,0.47-1.345,0.261-2.028-0.355c-0.602-0.541-1.425-1.282-2.871-1.371c-1.588-0.1-2.495,0.775-3.096,1.352
			c-0.648,0.624-0.803,0.772-1.636,0.392c-0.113-0.059-0.469-0.326-0.728-0.521c-1.384-1.04-3.104-2.335-4.544-1.729
			c-0.487,0.204-1.102,0.697-1.259,1.886l2.243,0.296c0.001-0.013,0.004-0.026,0.005-0.038c0.591,0.187,1.731,1.045,2.195,1.393
			c0.483,0.364,0.834,0.628,1.137,0.766c2.242,1.025,3.393-0.081,4.153-0.813c0.536-0.516,0.814-0.763,1.39-0.726
			c0.658,0.041,1.011,0.357,1.496,0.795C20.028,37.006,21.172,38.039,23.612,37.011z"/>
		<path fill="#1ED1C4" d="M0,72.15l16.519-9.537L0,53.076V72.15z M2.262,56.993l9.733,5.62l-9.733,5.618V56.993z"/>
	</g>
	<rect x="19.218" y="28.531" display="inline" fill="#1ED1C4" width="76.896" height="76.897"/>
	<g display="inline">
		<path d="M108.309,70.031V56.085c0-3.381-1.876-6.345-4.503-7.975v-4.125c0-3.438-2.725-6.406-6.163-6.406h-2.384l2.071-2.334
			c0.396-0.463,0.353-1.115-0.1-1.524L66.127,5.571c-0.224-0.201-0.517-0.295-0.816-0.279c-0.301,0.017-0.581,0.249-0.78,0.474
			L27.961,46.962h-3.755l6.197-7.058c0.152-0.103,0.273-0.29,0.361-0.452l26.084-29.338c0.413-0.465,0.372-1.188-0.093-1.602
			c-0.464-0.413-1.175-0.464-1.589,0.002L29.223,37.579H16.099c-2.896,0-5.335,2.193-5.728,4.926
			c-0.037,0.112-0.02,0.316-0.02,0.441v60.391c0,5.399,7.147,9.307,12.022,9.307h76.71c5.132,0,9.225-4.174,9.225-9.307V90.412
			c1.502-0.51,2.253-1.788,2.253-3.283V73.315C110.562,71.819,109.811,70.542,108.309,70.031z M97.643,39.831
			c2.196,0,3.911,1.958,3.911,4.154v3.148c-0.75-0.23-1.589-0.172-2.47-0.172H87.531l5.8-7.131H97.643z M65.458,8.117l29.45,26.72
			L84.567,46.962H30.976L65.458,8.117z M12.533,42.968c0.164-1.711,1.729-3.137,3.565-3.137h11.12l-6.028,7.131h-5.285
			c-0.952,0-1.867-0.54-2.508-1.245C12.748,45.003,12.44,43.939,12.533,42.968z M99.084,110.392h-76.71
			c-4.213,0-9.771-3.487-9.771-7.055V47.892c0.751,0.729,2.073,1.322,3.303,1.322h83.179c3.89,0,6.974,2.98,6.974,6.871v13.772
			H84.08c-3.823,0-6.923,3.045-6.923,6.868v6.993c0,3.823,3.1,6.78,6.923,6.78h21.978v12.838
			C106.058,107.227,102.974,110.392,99.084,110.392z M108.309,87.129c0,0.701-0.484,1.119-1.186,1.119H84.08
			c-2.581,0-4.67-1.948-4.67-4.529v-6.993c0-2.582,2.089-4.617,4.67-4.617h23.043c0.701,0,1.186,0.506,1.186,1.207V87.129z"/>
		<path d="M88.843,75.181c-2.779,0-5.04,2.262-5.04,5.042c0,2.779,2.261,5.04,5.04,5.04c2.78,0,5.042-2.261,5.042-5.04
			C93.885,77.442,91.623,75.181,88.843,75.181z M88.843,83.011c-1.537,0-2.789-1.25-2.789-2.788s1.252-2.79,2.789-2.79
			c1.538,0,2.79,1.252,2.79,2.79S90.381,83.011,88.843,83.011z"/>
		<path d="M47.508,79.001v-13.38c3.002,0.307,5.68,1.82,6.882,4.036c0.297,0.546,1.018,0.749,1.563,0.453
			c0.546-0.297,0.693-0.98,0.397-1.527c-1.584-2.92-4.715-4.893-8.843-5.221v-3.464c0-0.622-0.504-1.126-1.126-1.126
			c-0.623,0-1.126,0.504-1.126,1.126v3.458c-5.255,0.464-9.722,4.259-9.722,8.856c0,4.774,3.342,7.712,9.722,8.749v13.396
			c-3.003-0.322-5.699-1.937-6.832-4.227c-0.277-0.557-0.915-0.784-1.473-0.509c-0.557,0.275-0.841,0.951-0.564,1.509
			c1.523,3.077,5.116,5.154,8.869,5.488v3.464c0,0.622,0.503,1.125,1.126,1.125c0.622,0,1.126-0.503,1.126-1.125v-3.459
			c5.63-0.464,9.722-4.259,9.722-8.856C57.229,80.834,51.636,79.53,47.508,79.001z M37.786,72.213c0-3.373,3.341-6.164,7.47-6.593
			v13.063C38.876,77.522,37.786,74.468,37.786,72.213z M47.508,94.36V81.287c4.879,0.743,7.471,2.193,7.471,6.48
			C54.979,91.141,52.012,93.933,47.508,94.36z"/>
	</g>
</g>
<g id="flexible">
	<g>
		<g>
			<rect x="98.339" y="64.433" fill="#F4E6AB" width="19.601" height="2.262"/>
			<polygon fill="#F4E6AB" points="104.868,59.5 108.133,62.515 111.4,59.5 114.67,62.515 118.706,58.792 117.173,57.13 
				114.67,59.438 111.4,56.422 108.133,59.438 104.868,56.421 101.604,59.437 99.105,57.13 97.571,58.792 101.604,62.517 			"/>
			<path fill="#F4E6AB" d="M112.103,4.22l-16.519,9.537l16.519,9.537V4.22z M109.841,19.376l-9.733-5.619l9.733-5.621V19.376z"/>
			<path fill="#F4E6AB" d="M64.637,9.93c0-3.949-3.213-7.162-7.161-7.162c-3.949,0-7.162,3.213-7.162,7.162s3.213,7.162,7.162,7.162
				C61.424,17.092,64.637,13.879,64.637,9.93z M52.575,9.93c0-2.702,2.198-4.9,4.9-4.9c2.701,0,4.899,2.198,4.899,4.9
				s-2.198,4.9-4.899,4.9C54.773,14.831,52.575,12.632,52.575,9.93z"/>
			<path fill="#F4E6AB" d="M73.393,39.779c0.605-0.256,1.026-0.667,1.364-0.998c0.481-0.471,0.615-0.565,0.95-0.528
				c0.377,0.047,0.66,0.344,1.127,0.865c0.609,0.678,1.366,1.521,2.728,1.781l0.424-2.223c-0.583-0.11-0.938-0.479-1.468-1.068
				c-0.578-0.646-1.299-1.448-2.537-1.6c-1.441-0.177-2.264,0.626-2.806,1.156c-0.242,0.237-0.451,0.441-0.66,0.53
				c-1.114,0.47-1.345,0.26-2.028-0.355c-0.602-0.542-1.425-1.282-2.871-1.371c-1.588-0.101-2.495,0.775-3.096,1.352
				c-0.648,0.623-0.803,0.772-1.635,0.392c-0.114-0.059-0.47-0.326-0.729-0.521c-1.384-1.039-3.104-2.334-4.544-1.729
				c-0.487,0.205-1.102,0.698-1.259,1.887l2.243,0.296c0.001-0.014,0.003-0.026,0.005-0.038c0.591,0.187,1.731,1.045,2.195,1.393
				c0.484,0.364,0.834,0.627,1.137,0.766c2.242,1.025,3.393-0.081,4.153-0.813c0.536-0.516,0.814-0.763,1.39-0.726
				c0.658,0.041,1.011,0.357,1.496,0.795C69.81,39.774,70.953,40.807,73.393,39.779z"/>
			<path fill="#F4E6AB" d="M49.781,74.917L66.3,65.38l-16.519-9.536V74.917z M52.043,59.76l9.733,5.62l-9.733,5.619V59.76z"/>
		</g>
	</g>
	<rect x="16.538" y="28.647" fill="#F4E6AB" width="76.896" height="76.897"/>
	<g>
		<polygon points="44.396,22.671 46.14,24.419 54.22,16.353 54.22,38.443 56.688,38.443 56.688,16.361 64.75,24.438 66.497,22.693 
			55.456,11.633 		"/>
		<rect x="54.223" y="52.507" width="2.468" height="2.467"/>
		<rect x="54.228" y="46.912" width="2.468" height="2.469"/>
		<rect x="54.231" y="41.318" width="2.469" height="2.467"/>
		<polygon points="13.852,56.724 12.107,54.975 1.045,66.017 12.086,77.079 13.834,75.334 5.765,67.251 27.857,67.251 
			27.857,64.784 5.773,64.784 		"/>
		<rect x="41.918" y="64.783" width="2.468" height="2.469"/>
		<rect x="36.325" y="64.777" width="2.468" height="2.47"/>
		<rect x="30.731" y="64.774" width="2.467" height="2.468"/>
		<polygon points="56.666,115.708 56.666,93.615 54.197,93.615 54.197,115.7 46.136,107.622 44.388,109.367 55.431,120.429 
			66.492,109.389 64.747,107.64 		"/>
		<rect x="54.196" y="77.087" width="2.47" height="2.469"/>
		<rect x="54.187" y="88.275" width="2.468" height="2.469"/>
		<rect x="54.191" y="82.681" width="2.469" height="2.469"/>
		<polygon points="98.8,54.982 97.053,56.728 105.12,64.809 83.029,64.809 83.029,67.275 105.112,67.275 97.035,75.336 
			98.779,77.084 109.841,66.043 		"/>
		<rect x="72.094" y="64.813" width="2.468" height="2.468"/>
		<rect x="77.688" y="64.818" width="2.467" height="2.468"/>
		<rect x="66.499" y="64.809" width="2.469" height="2.467"/>
		<path d="M47.902,73.571h15.082V58.488H47.902V73.571z M50.37,60.956h10.145v10.146H50.37V60.956z"/>
	</g>
</g>
<g id="comprehensive" display="none">
	<g display="inline">
		<g>
			<rect x="49.688" y="109.943" fill="#C494EA" width="19.602" height="2.262"/>
			<polygon fill="#C494EA" points="56.218,105.012 59.483,108.026 62.749,105.011 66.019,108.026 70.056,104.304 68.522,102.641 
				66.019,104.949 62.749,101.934 59.483,104.949 56.218,101.933 52.953,104.948 50.455,102.642 48.921,104.303 52.953,108.027 			
				"/>
			<path fill="#C494EA" d="M63.452,49.73l-16.518,9.537l16.518,9.537V49.73z M61.19,64.888l-9.733-5.62l9.733-5.62V64.888z"/>
			<path fill="#C494EA" d="M15.987,55.44c0-3.948-3.213-7.161-7.162-7.161s-7.162,3.213-7.162,7.161
				c0,3.949,3.213,7.162,7.162,7.162S15.987,59.39,15.987,55.44z M3.924,55.44c0-2.701,2.198-4.899,4.9-4.899s4.9,2.198,4.9,4.899
				c0,2.702-2.198,4.9-4.9,4.9S3.924,58.143,3.924,55.44z"/>
			<path fill="#C494EA" d="M24.743,85.29c0.604-0.256,1.025-0.668,1.363-0.998c0.482-0.471,0.616-0.565,0.95-0.528
				c0.377,0.046,0.66,0.344,1.127,0.864c0.609,0.679,1.366,1.522,2.728,1.781l0.425-2.222c-0.583-0.11-0.938-0.479-1.468-1.069
				c-0.579-0.645-1.299-1.448-2.537-1.599c-1.441-0.177-2.265,0.626-2.806,1.155c-0.242,0.237-0.451,0.442-0.66,0.53
				c-1.114,0.47-1.346,0.261-2.029-0.354c-0.602-0.542-1.424-1.282-2.871-1.372c-1.588-0.1-2.494,0.775-3.096,1.353
				c-0.647,0.623-0.803,0.771-1.635,0.392c-0.113-0.06-0.469-0.326-0.729-0.521c-1.383-1.04-3.104-2.335-4.544-1.729
				c-0.487,0.205-1.101,0.698-1.258,1.886l2.242,0.296c0.002-0.013,0.004-0.026,0.005-0.038c0.591,0.188,1.732,1.046,2.195,1.394
				c0.484,0.364,0.835,0.627,1.137,0.766c2.242,1.024,3.393-0.081,4.154-0.813c0.535-0.515,0.813-0.763,1.39-0.725
				c0.657,0.04,1.01,0.356,1.495,0.794C21.16,85.284,22.302,86.318,24.743,85.29z"/>
			<path fill="#C494EA" d="M1.13,120.429l16.519-9.537L1.13,101.354V120.429z M3.392,105.271l9.734,5.62l-9.734,5.619V105.271z"/>
		</g>
	</g>
	<rect x="26.127" y="15.3" display="inline" fill="#C494EA" width="76.897" height="76.897"/>
	<g display="inline">
		<path fill="none" stroke="#000000" stroke-width="2.736" stroke-miterlimit="10" d="M27.569,39.306
			c-2.786,0-5.046,2.259-5.046,5.044v42.842c0,2.785,2.26,5.045,5.046,5.045h36.415c0,2.9,2.353,5.256,5.255,5.256
			c2.904,0,5.256-2.355,5.256-5.256h36.416c2.784,0,5.046-2.26,5.046-5.045V44.35c0-2.786-2.262-5.044-5.046-5.044"/>
		<path fill="none" stroke="#000000" stroke-width="2.736" stroke-miterlimit="10" d="M63.984,34.424H28.876
			c-0.928,0-1.681,0.754-1.681,1.682V85.3c0,0.926,0.753,1.682,1.681,1.682h35.108c2.904,0,5.255,2.354,5.255,5.256"/>
		<path fill="none" stroke="#000000" stroke-width="2.736" stroke-miterlimit="10" d="M69.239,92.237
			c0-2.902,2.352-5.256,5.256-5.256h35.109c0.929,0,1.681-0.756,1.681-1.682V36.106c0-0.928-0.752-1.682-1.681-1.682H74.495"/>
		
			<line fill="none" stroke="#000000" stroke-width="2.736" stroke-miterlimit="10" x1="69.239" y1="39.68" x2="69.239" y2="81.726"/>
		<path fill="none" stroke="#000000" stroke-width="2.736" stroke-miterlimit="10" d="M69.239,39.68
			c0-2.903-2.351-5.256-5.255-5.256"/>
		<path fill="none" stroke="#000000" stroke-width="2.736" stroke-miterlimit="10" d="M74.495,34.424
			c-2.904,0-5.256,2.353-5.256,5.256"/>
		<g>
			<line fill="none" stroke="#000000" stroke-width="2.736" stroke-miterlimit="10" x1="69.239" y1="11.512" x2="69.239" y2="1"/>
			
				<line fill="none" stroke="#000000" stroke-width="2.736" stroke-miterlimit="10" x1="56.102" y1="15.033" x2="53.474" y2="10.48"/>
			
				<line fill="none" stroke="#000000" stroke-width="2.736" stroke-miterlimit="10" x1="46.483" y1="24.65" x2="37.379" y2="19.395"/>
			
				<line fill="none" stroke="#000000" stroke-width="2.736" stroke-miterlimit="10" x1="91.997" y1="24.65" x2="101.099" y2="19.395"/>
			
				<line fill="none" stroke="#000000" stroke-width="2.736" stroke-miterlimit="10" x1="82.379" y1="15.033" x2="85.006" y2="10.48"/>
		</g>
		<g>
			<g>
				<polygon fill="#FFFFFF" stroke="#000000" stroke-width="2.736" stroke-miterlimit="10" points="118.562,88.05 100.757,70.958 
					100.771,95.638 106.87,91.987 110.715,100.995 115.545,98.935 111.705,89.925 				"/>
			</g>
		</g>
		<g>
			
				<line fill="none" stroke="#000000" stroke-width="2.736" stroke-miterlimit="10" x1="53.474" y1="55.449" x2="42.962" y2="55.449"/>
			
				<line fill="none" stroke="#000000" stroke-width="2.736" stroke-miterlimit="10" x1="58.729" y1="69.464" x2="37.706" y2="69.464"/>
			
				<line fill="none" stroke="#000000" stroke-width="2.736" stroke-miterlimit="10" x1="58.729" y1="62.456" x2="37.706" y2="62.456"/>
		</g>
	</g>
</g>
</svg>
