<?xml version="1.0" encoding="utf-8"?>
<!-- Generator: Adobe Illustrator 16.0.3, SVG Export Plug-In . SVG Version: 6.00 Build 0)  -->
<!DOCTYPE svg PUBLIC "-//W3C//DTD SVG 1.1//EN" "http://www.w3.org/Graphics/SVG/1.1/DTD/svg11.dtd">
<svg version="1.1" id="Layer_1" xmlns="http://www.w3.org/2000/svg" xmlns:xlink="http://www.w3.org/1999/xlink" x="0px" y="0px"
	 width="427px" height="427px" viewBox="0 0 427 427" enable-background="new 0 0 427 427" xml:space="preserve">
<linearGradient id="SVGID_1_" gradientUnits="userSpaceOnUse" x1="-603.2056" y1="-724.6973" x2="-603.2056" y2="-822.0808" gradientTransform="matrix(0.4823 0.876 -0.876 0.4823 -219.9911 1115.932)">
	<stop  offset="0.1022" style="stop-color:#ECF2F2"/>
	<stop  offset="1" style="stop-color:#48D6F3"/>
</linearGradient>
<path fill="url(#SVGID_1_)" d="M204.055,193.881c-0.215-0.39-0.708-0.537-1.101-0.32l-79.662,43.864l0.78,1.418l79.664-43.864
	C204.129,194.765,204.272,194.273,204.055,193.881z"/>
<linearGradient id="SVGID_2_" gradientUnits="userSpaceOnUse" x1="-628.8223" y1="-771.2827" x2="-628.8223" y2="-824.2739" gradientTransform="matrix(0.4823 0.876 -0.876 0.4823 -219.9911 1115.932)">
	<stop  offset="0.1022" style="stop-color:#ECF2F2"/>
	<stop  offset="1" style="stop-color:#48D6F3"/>
</linearGradient>
<path fill="url(#SVGID_2_)" d="M195.978,169.084c-0.117-0.215-0.385-0.291-0.598-0.174l-43.348,23.87l0.423,0.771l43.351-23.87
	C196.018,169.564,196.095,169.296,195.978,169.084z"/>
<g>
	<g>
		
			<linearGradient id="SVGID_3_" gradientUnits="userSpaceOnUse" x1="226.9688" y1="19.7012" x2="217.5225" y2="86.2972" gradientTransform="matrix(1 0 0.0693 0.9495 -3.604 2.6491)">
			<stop  offset="0" style="stop-color:#7CFFFF"/>
			<stop  offset="0.0864" style="stop-color:#78F7F9"/>
			<stop  offset="0.2218" style="stop-color:#6DE1EA"/>
			<stop  offset="0.389" style="stop-color:#5BBCD0"/>
			<stop  offset="0.5818" style="stop-color:#4289AD"/>
			<stop  offset="0.7931" style="stop-color:#224A81"/>
			<stop  offset="1" style="stop-color:#000450"/>
		</linearGradient>
		<path fill="url(#SVGID_3_)" d="M239.873,66.13l1.183-24.959L206.39,25.523l-2.27,22.557c-0.794,7.882,4.087,13.35,8.521,18.321
			c3.596,4.029,6.767,7.582,6.447,11.771l1.175,0.65c0.312-4.204,3.81-4.156,7.906-4.099C233.42,74.799,239.46,74.883,239.873,66.13
			z M219.908,75.429c-1.002-3.528-3.805-6.656-6.679-9.866c-4.367-4.871-8.76-9.776-8.049-16.947l2.133-21.548l32.492,14.749
			l-1.164,23.69c-0.39,7.911-5.782,7.848-10.923,7.786C224.447,73.252,221.341,73.218,219.908,75.429z"/>
		
			<linearGradient id="SVGID_4_" gradientUnits="userSpaceOnUse" x1="211.4609" y1="15.6318" x2="201.7927" y2="83.7927" gradientTransform="matrix(1 0 0.0693 0.9495 -3.604 2.6491)">
			<stop  offset="0" style="stop-color:#7CFFFF"/>
			<stop  offset="0.0864" style="stop-color:#78F7F9"/>
			<stop  offset="0.2218" style="stop-color:#6DE1EA"/>
			<stop  offset="0.389" style="stop-color:#5BBCD0"/>
			<stop  offset="0.5818" style="stop-color:#4289AD"/>
			<stop  offset="0.7931" style="stop-color:#224A81"/>
			<stop  offset="1" style="stop-color:#000450"/>
		</linearGradient>
		<path fill="url(#SVGID_4_)" d="M210.291,69.759c-4.366-4.961-11.396-12.98-10.382-23.562l2.172-1.141l0.168-1.605l-2.18,1.148
			l0.238-2.225l2.172-1.163l0.166-1.587l-2.169,1.163l0.237-2.215l2.161-1.162l0.164-1.569l-2.156,1.162l0.234-2.19l2.15-1.159
			l0.159-1.536l-2.145,1.143l0.232-2.166l2.137-1.144l0.161-1.534l-2.134,1.159l0.228-2.145l2.128-1.157l0.157-1.517l-2.122,1.157
			l0.238-2.236l-1.002-0.452l-0.239,2.214l-1.667-2.848l-0.167,1.495l1.668,2.866l-0.231,2.137l-1.673-2.891l-0.168,1.513
			l1.677,2.894l-0.234,2.159l-1.681-2.917l-0.169,1.513l1.681,2.953l-0.237,2.182l-1.685-2.976l-0.173,1.545l1.688,2.995
			l-0.238,2.208l-1.692-3.022l-0.174,1.563l1.691,3.041l-0.238,2.217l-1.7-3.051l-0.176,1.581l1.699,3.086l0.012,0.016
			c-1.096,11.25,6.241,19.673,10.825,24.906c0.917,1.054,3.388,3.88,3.683,4.638l1.007-0.164
			C213.976,74.023,212.206,71.96,210.291,69.759z"/>
		
			<linearGradient id="SVGID_5_" gradientUnits="userSpaceOnUse" x1="241.3848" y1="32.4463" x2="233.46" y2="88.3158" gradientTransform="matrix(1 0 0.0693 0.9495 -3.604 2.6491)">
			<stop  offset="0" style="stop-color:#7CFFFF"/>
			<stop  offset="0.0864" style="stop-color:#78F7F9"/>
			<stop  offset="0.2218" style="stop-color:#6DE1EA"/>
			<stop  offset="0.389" style="stop-color:#5BBCD0"/>
			<stop  offset="0.5818" style="stop-color:#4289AD"/>
			<stop  offset="0.7931" style="stop-color:#224A81"/>
			<stop  offset="1" style="stop-color:#000450"/>
		</linearGradient>
		<path fill="url(#SVGID_5_)" d="M249.353,46.919l0.06-1.725l-2.405,1.245l0.097-2.541l-1.216-0.548l-0.102,2.515l-2.193-3.3
			l-0.073,1.696l2.197,3.323l-0.099,2.428l-2.205-3.354l-0.075,1.719l2.212,3.359l-0.1,2.456l-2.216-3.389l-0.075,1.722l2.223,3.431
			l-0.103,2.486l-2.227-3.462l-0.076,1.76l2.234,3.487l-0.102,2.517l-2.243-3.52l-0.077,1.783l2.248,3.544l-0.104,2.531l-2.253-3.56
			l-0.079,1.804l2.261,3.583c-0.622,11.949-9.573,11.756-14.862,11.616c-2.241-0.029-4.284-0.031-4.847,0.507l0.955,1.267
			c0.4-0.39,3.272-0.321,4.372-0.289c5.554,0.135,15.007,0.351,15.641-12.446l2.486-1.233l0.062-1.835l-2.476,1.234l0.097-2.541
			l2.471-1.252l0.062-1.812l-2.465,1.252l0.098-2.528l2.456-1.25l0.062-1.789l-2.449,1.25l0.097-2.496l2.44-1.249l0.062-1.75
			l-2.436,1.231l0.095-2.465l2.427-1.232l0.062-1.745l-2.422,1.248l0.095-2.438L249.353,46.919z"/>
		
			<linearGradient id="SVGID_6_" gradientUnits="userSpaceOnUse" x1="226.5879" y1="18.5181" x2="201.2652" y2="197.0429" gradientTransform="matrix(1 0 0.0693 0.9495 -3.604 2.6491)">
			<stop  offset="0" style="stop-color:#7CFFFF"/>
			<stop  offset="0.0864" style="stop-color:#78F7F9"/>
			<stop  offset="0.2218" style="stop-color:#6DE1EA"/>
			<stop  offset="0.389" style="stop-color:#5BBCD0"/>
			<stop  offset="0.5818" style="stop-color:#4289AD"/>
			<stop  offset="0.7931" style="stop-color:#224A81"/>
			<stop  offset="1" style="stop-color:#000450"/>
		</linearGradient>
		<polygon fill="url(#SVGID_6_)" points="233.501,33.642 213.649,24.855 213.55,25.94 233.436,34.789 		"/>
	</g>
	
		<linearGradient id="SVGID_7_" gradientUnits="userSpaceOnUse" x1="226.4531" y1="18.9814" x2="216.7683" y2="87.2593" gradientTransform="matrix(1 0 0.0693 0.9495 -3.604 2.6491)">
		<stop  offset="0" style="stop-color:#7CFFFF"/>
		<stop  offset="0.0864" style="stop-color:#78F7F9"/>
		<stop  offset="0.2218" style="stop-color:#6DE1EA"/>
		<stop  offset="0.389" style="stop-color:#5BBCD0"/>
		<stop  offset="0.5818" style="stop-color:#4289AD"/>
		<stop  offset="0.7931" style="stop-color:#224A81"/>
		<stop  offset="1" style="stop-color:#000450"/>
	</linearGradient>
	<path fill="url(#SVGID_7_)" d="M233.148,58.738c-1.039,1.732-3.224,2.213-5.637,0.995c-3.202-1.617-5.569-5.594-5.327-8.878
		c0.242-3.253,2.96-4.661,6.115-3.153c2.341,1.119,4.288,3.534,5.093,6.072l1.038,0.504c-0.834-3.124-3.201-6.168-6.069-7.531
		c-2.825-1.344-5.342-0.676-6.474,1.42c-0.743-2.996-2.95-5.903-5.664-7.193c-3.467-1.649-6.513-0.048-6.854,3.59
		c-0.343,3.676,2.195,8.117,5.726,9.905c1.623,0.822,3.174,0.936,4.405,0.452l1.472,2.508l0.728-0.372l-1.481-2.511
		c0.528-0.354,0.976-0.844,1.304-1.456c0.758,3.083,3.05,6.18,5.928,7.638c2.955,1.498,5.614,0.804,6.739-1.472L233.148,58.738z
		 M219.622,53.535l-1.79-3.03l-0.712,0.369l1.785,3.038c-1.049,0.394-2.357,0.291-3.732-0.403c-3.036-1.532-5.229-5.35-4.936-8.52
		c0.289-3.142,2.918-4.522,5.91-3.093c3.032,1.448,5.322,5.244,5.076,8.488C221.117,51.83,220.521,52.912,219.622,53.535z"/>
</g>
<g>
	<polygon fill="#B2D5DA" points="420.492,316.941 247.749,416.678 75.004,316.941 247.748,217.205 	"/>
	<linearGradient id="SVGID_8_" gradientUnits="userSpaceOnUse" x1="109.9043" y1="351.0039" x2="247.749" y2="351.0039">
		<stop  offset="0" style="stop-color:#2898F4"/>
		<stop  offset="0.1462" style="stop-color:#2690F1"/>
		<stop  offset="0.375" style="stop-color:#207AEA"/>
		<stop  offset="0.6576" style="stop-color:#1755DE"/>
		<stop  offset="0.9805" style="stop-color:#0B23CD"/>
		<stop  offset="1" style="stop-color:#0A20CC"/>
	</linearGradient>
	<polygon fill="url(#SVGID_8_)" points="247.749,389.585 247.749,392.008 109.904,312.424 109.904,309.999 	"/>
	<polygon fill="#0C27CE" points="385.591,312.423 247.749,392.008 247.749,389.585 385.591,309.999 	"/>
	<polygon opacity="0.3" fill="#00258A" points="385.591,316.645 247.749,396.23 109.904,316.645 247.748,237.059 	"/>
	<linearGradient id="SVGID_9_" gradientUnits="userSpaceOnUse" x1="109.9043" y1="309.999" x2="385.5908" y2="309.999">
		<stop  offset="0" style="stop-color:#44B4B0"/>
		<stop  offset="1" style="stop-color:#29FFEE"/>
	</linearGradient>
	<polygon fill="url(#SVGID_9_)" points="385.591,309.999 247.749,389.585 109.904,309.999 247.748,230.414 	"/>
</g>
<polygon opacity="0.3" fill="#00258A" points="295.47,244.759 247.748,230.414 263.779,328.579 397.261,330.354 420.492,316.941 "/>
<path fill="#D4DBDF" d="M213.743,72.21c0-4.952,3.509-6.977,7.796-4.502l68.768,39.701c4.288,2.477,7.794,8.553,7.794,13.502
	L298.1,323.84c0,4.95-3.507,6.976-7.796,4.499l-68.765-39.699c-4.29-2.476-7.797-8.552-7.797-13.504L213.743,72.21z"/>
<path fill="#95C4DF" d="M298.1,323.84l0.001-202.929c0-4.95-3.506-11.026-7.794-13.502l-68.768-39.701
	c-2.071-1.196-3.954-1.332-5.355-0.604v-0.009l9.249-5.318c1.386-0.64,3.213-0.464,5.21,0.689l68.769,39.7
	c4.284,2.477,7.792,8.552,7.792,13.504l-0.002,202.928c0,2.51-0.902,4.271-2.352,5.07l-8.612,4.911
	C297.396,327.676,298.1,326.052,298.1,323.84z"/>
<linearGradient id="SVGID_10_" gradientUnits="userSpaceOnUse" x1="2.2998" y1="93.3154" x2="137.0589" y2="521.6027" gradientTransform="matrix(1 0 0 1 221.8926 0)">
	<stop  offset="0" style="stop-color:#2580D3"/>
	<stop  offset="1" style="stop-color:#0A208F"/>
</linearGradient>
<path fill="url(#SVGID_10_)" d="M213.743,72.21l-0.001,196.193l84.357,48.7l0.001-196.193c0-0.409-0.032-0.828-0.079-1.25
	L213.824,71.05C213.776,71.419,213.743,71.799,213.743,72.21z"/>
<linearGradient id="SVGID_11_" gradientUnits="userSpaceOnUse" x1="78.4185" y1="79.1606" x2="78.4184" y2="221.3785" gradientTransform="matrix(1 0 0 1 221.8926 0)">
	<stop  offset="0" style="stop-color:#FE9FEE"/>
	<stop  offset="1" style="stop-color:#E33CE3"/>
</linearGradient>
<path fill="url(#SVGID_11_)" d="M302.61,314.339l-0.002-197.4l-4.596,2.653c0.05,0.446,0.088,0.888,0.088,1.319L298.1,316.941
	L302.61,314.339z"/>
<linearGradient id="SVGID_12_" gradientUnits="userSpaceOnUse" x1="67.1118" y1="103.374" x2="99.9404" y2="539.3295" gradientTransform="matrix(1 0 0 1 221.8926 0)">
	<stop  offset="0" style="stop-color:#FE9FEE"/>
	<stop  offset="1" style="stop-color:#E33CE3"/>
</linearGradient>
<path fill="url(#SVGID_12_)" d="M297.262,119.222v197.4l0.838,0.481l0.001-196.193c0-0.409-0.032-0.828-0.079-1.25L297.262,119.222z
	"/>
<linearGradient id="SVGID_13_" gradientUnits="userSpaceOnUse" x1="78.4185" y1="79.1606" x2="78.4184" y2="221.3785" gradientTransform="matrix(1 0 0 1 221.8926 0)">
	<stop  offset="0" style="stop-color:#2580D3"/>
	<stop  offset="1" style="stop-color:#0A208F"/>
</linearGradient>
<path fill="url(#SVGID_13_)" d="M302.61,314.339l-0.002-197.4l-4.596,2.653c0.05,0.446,0.088,0.888,0.088,1.319L298.1,316.941
	L302.61,314.339z"/>
<linearGradient id="SVGID_14_" gradientUnits="userSpaceOnUse" x1="67.1118" y1="103.374" x2="99.9404" y2="539.3295" gradientTransform="matrix(1 0 0 1 221.8926 0)">
	<stop  offset="0" style="stop-color:#328DE0"/>
	<stop  offset="1" style="stop-color:#172D9C"/>
</linearGradient>
<path fill="url(#SVGID_14_)" d="M297.262,119.222v197.4l0.838,0.481l0.001-196.193c0-0.409-0.032-0.828-0.079-1.25L297.262,119.222z
	"/>
<linearGradient id="SVGID_15_" gradientUnits="userSpaceOnUse" x1="167.9023" y1="-70.2383" x2="343.6093" y2="457.5409">
	<stop  offset="0" style="stop-color:#2898F4"/>
	<stop  offset="0.1462" style="stop-color:#2690F1"/>
	<stop  offset="0.375" style="stop-color:#207AEA"/>
	<stop  offset="0.6576" style="stop-color:#1755DE"/>
	<stop  offset="0.9805" style="stop-color:#0B23CD"/>
	<stop  offset="1" style="stop-color:#0A20CC"/>
</linearGradient>
<path fill="url(#SVGID_15_)" d="M213.743,72.21l-0.001,196.193l84.357,48.7l0.001-196.193c0-0.409-0.032-0.828-0.079-1.25
	L213.824,71.05C213.776,71.419,213.743,71.799,213.743,72.21z"/>
<g>
	<path fill="#1ED1C4" d="M333.241,163.542c0,3.027-2.126,4.254-4.747,2.741c-2.621-1.514-4.748-5.193-4.748-8.221
		s2.127-4.253,4.748-2.741C331.115,156.835,333.241,160.515,333.241,163.542z"/>
	<path opacity="0.8" fill="#1ED1C4" d="M333.241,183.343c0,3.027-2.126,4.253-4.747,2.739c-2.621-1.513-4.748-5.193-4.748-8.221
		c0-3.027,2.127-4.254,4.746-2.74C331.115,176.634,333.241,180.315,333.241,183.343z"/>
	<path opacity="0.6" fill="#1ED1C4" d="M333.241,203.142c-0.001,3.027-2.126,4.254-4.749,2.739
		c-2.621-1.513-4.746-5.194-4.746-8.221c0-3.027,2.125-4.254,4.748-2.74C331.115,196.433,333.241,200.115,333.241,203.142z"/>
	<path opacity="0.4" fill="#1ED1C4" d="M333.24,222.941c0,3.027-2.125,4.254-4.748,2.74c-2.621-1.514-4.746-5.194-4.746-8.221
		c0-3.028,2.125-4.254,4.746-2.74C331.115,216.232,333.24,219.913,333.24,222.941z"/>
	<path opacity="0.2" fill="#1ED1C4" d="M333.24,242.74c0,3.027-2.125,4.254-4.748,2.74c-2.621-1.514-4.747-5.195-4.747-8.221
		c0-3.026,2.126-4.253,4.747-2.741C331.113,236.032,333.24,239.711,333.24,242.74z"/>
	<path opacity="0.1" fill="#1ED1C4" d="M333.24,262.539c0,3.027-2.127,4.254-4.748,2.74c-2.621-1.515-4.747-5.193-4.746-8.221
		c0-3.028,2.125-4.254,4.746-2.742C331.115,255.832,333.24,259.511,333.24,262.539z"/>
</g>
<path opacity="0.3" fill="#00258A" d="M222.327,222.131l67.189,38.791c3.798,2.193,6.904,7.572,6.904,11.954v32.799
	c0,4.383-3.106,6.177-6.904,3.982l-12.063-6.963v17.783l-14.974-26.429l-40.152-23.183c-3.8-2.189-6.904-7.569-6.904-11.953v-32.798
	C215.423,221.731,218.527,219.939,222.327,222.131z"/>
<g>
	<polygon opacity="0.2" fill="#00258A" points="297.681,134.62 226.969,93.792 226.969,123.963 297.681,164.792 	"/>
	<polygon opacity="0.4" fill="#7CFFFF" points="223.464,95.769 223.464,125.939 221.409,127.125 221.409,96.955 	"/>
	<polygon opacity="0.8" fill="#7CFFFF" points="312.784,147.339 223.464,95.769 221.409,96.955 310.729,148.525 	"/>
	<polygon opacity="0.4" fill="#7CFFFF" points="312.784,177.51 223.464,125.939 221.409,127.125 310.729,178.696 	"/>
	<polygon opacity="0.8" fill="#7CFFFF" points="312.784,177.51 312.784,147.339 310.729,148.525 310.729,178.696 	"/>
	<polygon opacity="0.4" fill="#7CFFFF" points="310.729,148.525 221.409,96.955 221.409,127.125 310.729,178.696 	"/>
	<path fill="#0E3C51" d="M225.207,120.546c0,2.076,1.471,4.623,3.27,5.66l11.694,6.752c1.795,1.038,3.268,0.189,3.268-1.887v-13.503
		c0-2.076-1.473-4.623-3.268-5.661l-11.694-6.751c-1.799-1.038-3.27-0.188-3.27,1.886V120.546z"/>
	<polygon opacity="0.8" fill="#7CFFFF" points="305.526,151.165 305.526,153.383 250.031,121.344 250.031,119.133 	"/>
	<polygon opacity="0.8" fill="#7CFFFF" points="305.526,157.644 305.526,159.854 250.031,127.821 250.031,125.604 	"/>
	<polygon opacity="0.8" fill="#7CFFFF" points="271.626,144.542 271.626,146.759 250.031,134.292 250.031,132.075 	"/>
</g>
<g>
	<polygon opacity="0.2" fill="#00258A" points="297.681,177.072 226.969,136.244 226.969,166.416 297.681,207.243 	"/>
	<polygon opacity="0.4" fill="#7CFFFF" points="223.464,138.22 223.464,168.391 221.409,169.578 221.409,139.406 	"/>
	<polygon opacity="0.8" fill="#7CFFFF" points="312.784,189.791 223.464,138.22 221.409,139.406 310.729,190.977 	"/>
	<polygon opacity="0.4" fill="#7CFFFF" points="312.784,219.963 223.464,168.391 221.409,169.578 310.729,221.148 	"/>
	<polygon opacity="0.8" fill="#7CFFFF" points="312.784,219.963 312.784,189.791 310.729,190.977 310.729,221.148 	"/>
	<polygon opacity="0.4" fill="#7CFFFF" points="310.729,190.977 221.409,139.406 221.409,169.578 310.729,221.148 	"/>
	<path fill="#1ED1C4" d="M225.207,162.998c0,2.076,1.471,4.624,3.27,5.661l11.694,6.751c1.795,1.038,3.268,0.19,3.268-1.887V160.02
		c0-2.076-1.473-4.623-3.268-5.661l-11.694-6.751c-1.799-1.038-3.27-0.189-3.27,1.886V162.998z"/>
	<polygon opacity="0.8" fill="#7CFFFF" points="305.526,193.618 305.526,195.835 250.031,163.796 250.031,161.585 	"/>
	<polygon opacity="0.8" fill="#7CFFFF" points="305.526,200.095 305.526,202.306 250.031,170.272 250.031,168.056 	"/>
	<polygon opacity="0.8" fill="#7CFFFF" points="271.626,186.993 271.626,189.211 250.031,176.745 250.031,174.527 	"/>
</g>
<g>
	<polygon opacity="0.2" fill="#00258A" points="297.681,219.523 226.969,178.696 226.969,208.868 297.681,249.695 	"/>
	<polygon opacity="0.4" fill="#7CFFFF" points="223.464,180.672 223.464,210.843 221.409,212.03 221.409,181.858 	"/>
	<polygon opacity="0.8" fill="#7CFFFF" points="312.784,232.243 223.464,180.672 221.409,181.858 310.729,233.429 	"/>
	<polygon opacity="0.4" fill="#7CFFFF" points="312.784,262.413 223.464,210.843 221.409,212.03 310.729,263.601 	"/>
	<polygon opacity="0.8" fill="#7CFFFF" points="312.784,262.413 312.784,232.243 310.729,233.429 310.729,263.601 	"/>
	<polygon opacity="0.4" fill="#7CFFFF" points="310.729,233.429 221.409,181.858 221.409,212.03 310.729,263.601 	"/>
	<path fill="#0E3C51" d="M225.207,205.45c0,2.076,1.471,4.623,3.27,5.661l11.694,6.751c1.795,1.038,3.268,0.189,3.268-1.888v-13.503
		c0-2.076-1.473-4.623-3.268-5.66l-11.694-6.752c-1.799-1.038-3.27-0.189-3.27,1.887V205.45z"/>
	<polygon opacity="0.8" fill="#7CFFFF" points="305.526,236.069 305.526,238.288 250.031,206.248 250.031,204.038 	"/>
	<polygon opacity="0.8" fill="#7CFFFF" points="305.526,242.547 305.526,244.759 250.031,212.725 250.031,210.508 	"/>
	<polygon opacity="0.8" fill="#7CFFFF" points="271.626,229.445 271.626,231.664 250.031,219.196 250.031,216.979 	"/>
</g>
<g>
	<g>
		
			<linearGradient id="SVGID_16_" gradientUnits="userSpaceOnUse" x1="1305.4512" y1="251.0723" x2="1325.9115" y2="322.6851" gradientTransform="matrix(-1 0 0 1 1551.916 0)">
			<stop  offset="0" style="stop-color:#FFE71F"/>
			<stop  offset="1" style="stop-color:#FF8602"/>
		</linearGradient>
		<path fill="url(#SVGID_16_)" d="M205.814,232.007l67.19,38.791c3.797,2.194,6.902,7.573,6.902,11.955v32.8
			c0,4.381-3.105,6.176-6.902,3.982l-12.064-6.965v17.784l-14.973-26.429l-40.153-23.182c-3.799-2.191-6.905-7.571-6.905-11.954
			v-32.798C198.909,231.607,202.016,229.815,205.814,232.007z"/>
		
			<linearGradient id="SVGID_17_" gradientUnits="userSpaceOnUse" x1="1293.4424" y1="276.6543" x2="1283.2394" y2="291.6293" gradientTransform="matrix(-1 0 0 1 1551.916 0)">
			<stop  offset="0" style="stop-color:#FFF78C"/>
			<stop  offset="1" style="stop-color:#E76008"/>
		</linearGradient>
		<path fill="url(#SVGID_17_)" d="M279.907,315.553v-32.8c0-4.382-3.105-9.761-6.902-11.955l-67.19-38.791
			c-1.843-1.063-3.511-1.18-4.752-0.534l-0.002-0.002l4.609-2.772c1.25-0.732,2.987-0.638,4.894,0.464l67.192,38.791
			c3.794,2.193,6.9,7.571,6.9,11.954v32.799c0,2.277-0.836,3.856-2.174,4.54l-4.548,2.728v-0.001
			C279.148,319.235,279.907,317.709,279.907,315.553z"/>
		<polygon fill="#E76008" points="260.94,312.57 265.692,315.313 265.692,327.511 260.94,330.165 		"/>
	</g>
	<g>
		<path fill="#FFFFFF" d="M244.008,280.035c0,2.385,1.675,5.284,3.74,6.475c2.065,1.194,3.739,0.227,3.739-2.157
			s-1.674-5.284-3.739-6.477C245.683,276.686,244.008,277.65,244.008,280.035z"/>
		<path fill="#FFFFFF" d="M229.991,271.941c0,2.386,1.674,5.284,3.739,6.478c2.064,1.19,3.735,0.226,3.735-2.16
			c0-2.384-1.671-5.283-3.735-6.475C231.665,268.592,229.991,269.559,229.991,271.941z"/>
		<path fill="#FFFFFF" d="M215.971,263.848c0,2.385,1.674,5.285,3.74,6.478c2.063,1.191,3.739,0.226,3.739-2.159
			c0-2.384-1.676-5.284-3.739-6.478C217.645,260.498,215.971,261.463,215.971,263.848z"/>
	</g>
</g>
<g>
	<path fill="#FFFFFF" d="M236.263,122.278l-1.941,1.12l-1.941-3.362c-1.114,0.122-1.86,1.095-1.86,2.7l7.603,4.389
		C238.122,125.52,237.377,123.686,236.263,122.278z"/>
	<path fill="#FFFFFF" d="M234.321,120.137c1.534,0.884,2.773,0.167,2.773-1.601c0-1.769-1.239-3.919-2.773-4.803
		c-1.531-0.884-2.771-0.167-2.771,1.602C231.55,117.103,232.79,119.253,234.321,120.137z"/>
</g>
<g>
	<path fill="#FFFFFF" d="M236.263,164.275l-1.941,1.121l-1.941-3.362c-1.114,0.123-1.86,1.095-1.86,2.7l7.603,4.388
		C238.122,167.518,237.377,165.684,236.263,164.275z"/>
	<path fill="#FFFFFF" d="M234.321,162.134c1.534,0.885,2.773,0.168,2.773-1.601c0-1.769-1.239-3.918-2.773-4.803
		c-1.531-0.884-2.771-0.167-2.771,1.601C231.55,159.1,232.79,161.251,234.321,162.134z"/>
</g>
<g>
	<path fill="#FFFFFF" d="M236.263,206.075l-1.941,1.12l-1.941-3.362c-1.114,0.122-1.86,1.095-1.86,2.701l7.603,4.389
		C238.122,209.318,237.377,207.483,236.263,206.075z"/>
	<path fill="#FFFFFF" d="M234.321,203.935c1.534,0.884,2.773,0.167,2.773-1.601c0-1.77-1.239-3.92-2.773-4.804
		c-1.531-0.884-2.771-0.167-2.771,1.602S232.79,203.051,234.321,203.935z"/>
</g>
<g>
	<g>
		<linearGradient id="SVGID_18_" gradientUnits="userSpaceOnUse" x1="161.3115" y1="124.6245" x2="147.7222" y2="141.7372">
			<stop  offset="0" style="stop-color:#F532FF"/>
			<stop  offset="1" style="stop-color:#A232FF"/>
		</linearGradient>
		<path fill="url(#SVGID_18_)" d="M189.895,89.378c-0.917-0.533-2.185-0.461-3.578,0.344l-42.213,24.372
			c-2.77,1.599-5.029,5.511-5.019,8.693l0.137,48.506c0.005,1.582,0.568,2.697,1.473,3.222c0.834,0.485,1.668,0.969,2.501,1.454
			c0.076,0.044,0.175,0.102,0.25,0.146c0.584,0.339,1.169,0.678,1.751,1.018c0.151,0.087,0.352,0.204,0.501,0.29
			c-0.906-0.524-1.468-1.64-1.473-3.221l-0.138-48.507c-0.009-3.182,2.25-7.095,5.019-8.694l42.213-24.372
			c1.394-0.804,2.661-0.876,3.578-0.342C193.229,91.317,191.563,90.348,189.895,89.378z"/>
		<linearGradient id="SVGID_19_" gradientUnits="userSpaceOnUse" x1="182.4922" y1="253.376" x2="159.7761" y2="32.6035">
			<stop  offset="0" style="stop-color:#C100FF"/>
			<stop  offset="1" style="stop-color:#6E00FF"/>
		</linearGradient>
		<path fill="url(#SVGID_19_)" d="M196.371,95.508c-0.01-3.181-2.283-4.478-5.052-2.879l-42.213,24.372
			c-2.77,1.599-5.028,5.512-5.019,8.694l0.138,48.507c0.008,3.182,2.281,4.478,5.05,2.879l42.214-24.372
			c2.77-1.6,5.027-5.511,5.019-8.694L196.371,95.508z"/>
	</g>
</g>
<g>
	<g>
		<linearGradient id="SVGID_20_" gradientUnits="userSpaceOnUse" x1="130.1973" y1="203.6279" x2="134.1965" y2="194.5762">
			<stop  offset="0" style="stop-color:#6D99FE"/>
			<stop  offset="1" style="stop-color:#98FFFE"/>
		</linearGradient>
		<path fill="url(#SVGID_20_)" d="M164.112,161.447c-0.917-0.533-2.185-0.461-3.579,0.344l-42.214,24.372
			c-2.77,1.599-5.028,5.511-5.019,8.693l0.138,48.506c0.004,1.582,0.567,2.696,1.474,3.222c0.833,0.485,1.667,0.971,2.501,1.454
			c0.074,0.043,0.175,0.103,0.25,0.146c0.584,0.339,1.167,0.677,1.751,1.017c0.15,0.088,0.351,0.204,0.501,0.289
			c-0.906-0.525-1.469-1.64-1.474-3.221l-0.137-48.506c-0.01-3.183,2.249-7.095,5.019-8.693l42.213-24.372
			c1.393-0.805,2.662-0.876,3.579-0.343C167.447,163.385,165.78,162.417,164.112,161.447z"/>
		<g>
			<linearGradient id="SVGID_21_" gradientUnits="userSpaceOnUse" x1="138.5068" y1="179.9932" x2="165.7294" y2="302.0442">
				<stop  offset="0" style="stop-color:#2962FF"/>
				<stop  offset="1" style="stop-color:#29FFEE"/>
			</linearGradient>
			<path fill="url(#SVGID_21_)" d="M165.536,164.698c2.769-1.598,5.043-0.303,5.051,2.879l0.139,48.507
				c0.009,3.182-2.25,7.094-5.02,8.693l-42.213,24.372c-2.769,1.6-5.043,0.303-5.052-2.879l-0.137-48.506
				c-0.01-3.183,2.249-7.095,5.019-8.693L165.536,164.698z"/>
		</g>
	</g>
	<g>
		<path fill="#FFFFFF" d="M148.047,211.553c-0.448,0.557-0.601,1.304-0.342,1.67c0.173,0.246,0.488,0.258,0.81,0.072"/>
	</g>
</g>
<g>
	<g>
		<linearGradient id="SVGID_22_" gradientUnits="userSpaceOnUse" x1="89.2471" y1="145.1221" x2="75.6577" y2="162.2349">
			<stop  offset="0" style="stop-color:#FF9ED2"/>
			<stop  offset="1" style="stop-color:#D0202D"/>
		</linearGradient>
		<path fill="url(#SVGID_22_)" d="M117.831,109.876c-0.917-0.533-2.185-0.461-3.578,0.343l-42.215,24.373
			c-2.77,1.598-5.028,5.511-5.019,8.692l0.137,48.507c0.005,1.58,0.568,2.696,1.473,3.221c0.833,0.485,1.668,0.969,2.501,1.455
			c0.075,0.042,0.175,0.103,0.25,0.145c0.584,0.339,1.168,0.678,1.751,1.018c0.15,0.087,0.351,0.204,0.501,0.291
			c-0.906-0.526-1.468-1.641-1.474-3.221l-0.137-48.508c-0.009-3.181,2.25-7.094,5.019-8.693l42.214-24.372
			c1.394-0.805,2.662-0.876,3.579-0.343C121.167,111.814,119.499,110.845,117.831,109.876z"/>
		<path fill="#F74B4B" d="M124.308,116.006c-0.009-3.183-2.283-4.478-5.052-2.878l-42.214,24.372
			c-2.769,1.599-5.028,5.512-5.019,8.693L72.16,194.7c0.009,3.181,2.283,4.477,5.052,2.878l42.214-24.372
			c2.77-1.599,5.028-5.512,5.019-8.693L124.308,116.006z"/>
	</g>
</g>
<linearGradient id="SVGID_23_" gradientUnits="userSpaceOnUse" x1="-648.1616" y1="-617.9448" x2="-648.1616" y2="-730.6812" gradientTransform="matrix(0.4823 0.876 -0.876 0.4823 -219.9911 1115.932)">
	<stop  offset="0.1022" style="stop-color:#ECF2F2"/>
	<stop  offset="1" style="stop-color:#48D6F3"/>
</linearGradient>
<path fill="url(#SVGID_23_)" d="M101.49,199.027c-0.786-1.427-2.578-1.947-4.005-1.161l-90.46,49.81l2.845,5.166l90.459-49.81
	C101.757,202.246,102.275,200.454,101.49,199.027z"/>
<linearGradient id="SVGID_24_" gradientUnits="userSpaceOnUse" x1="66.8667" y1="272.2168" x2="161.6978" y2="272.2168">
	<stop  offset="0.1022" style="stop-color:#ECF2F2"/>
	<stop  offset="1" style="stop-color:#48D6F3"/>
</linearGradient>
<path fill="url(#SVGID_24_)" d="M161.332,246.071c-0.786-1.427-2.579-1.945-4.004-1.159l-90.461,49.808l2.844,5.167l90.461-49.812
	C161.597,249.292,162.117,247.499,161.332,246.071z"/>
<linearGradient id="SVGID_25_" gradientUnits="userSpaceOnUse" x1="-623.2207" y1="-625.2104" x2="-623.2207" y2="-721.9892" gradientTransform="matrix(0.4823 0.876 -0.876 0.4823 -219.9911 1115.932)">
	<stop  offset="0.1022" style="stop-color:#ECF2F2"/>
	<stop  offset="1" style="stop-color:#48D6F3"/>
</linearGradient>
<path fill="url(#SVGID_25_)" d="M106.753,224.603c-0.412-0.748-1.352-1.02-2.102-0.607l-78.517,43.233l1.49,2.706l78.518-43.234
	C106.89,226.289,107.164,225.352,106.753,224.603z"/>
<linearGradient id="SVGID_26_" gradientUnits="userSpaceOnUse" x1="-726.731" y1="-769.7817" x2="-726.731" y2="-866.5584" gradientTransform="matrix(0.4823 0.876 -0.876 0.4823 -219.9911 1115.932)">
	<stop  offset="0.1022" style="stop-color:#ECF2F2"/>
	<stop  offset="1" style="stop-color:#48D6F3"/>
</linearGradient>
<path fill="url(#SVGID_26_)" d="M183.472,64.2c-0.412-0.747-1.351-1.021-2.097-0.608l-78.519,43.235l1.492,2.708l78.517-43.233
	C183.613,65.889,183.884,64.95,183.472,64.2z"/>
<linearGradient id="SVGID_27_" gradientUnits="userSpaceOnUse" x1="-588.5601" y1="-745.4854" x2="-588.5601" y2="-798.4781" gradientTransform="matrix(0.4823 0.876 -0.876 0.4823 -219.9911 1115.932)">
	<stop  offset="0.1022" style="stop-color:#ECF2F2"/>
	<stop  offset="1" style="stop-color:#48D6F3"/>
</linearGradient>
<path fill="url(#SVGID_27_)" d="M192.799,216.795c-0.117-0.212-0.386-0.293-0.598-0.174l-43.351,23.87l0.426,0.771l43.348-23.868
	C192.84,217.276,192.916,217.009,192.799,216.795z"/>
<linearGradient id="SVGID_28_" gradientUnits="userSpaceOnUse" x1="-599.4741" y1="-648.7573" x2="-599.4741" y2="-701.7496" gradientTransform="matrix(0.4823 0.876 -0.876 0.4823 -219.9911 1115.932)">
	<stop  offset="0.1022" style="stop-color:#ECF2F2"/>
	<stop  offset="1" style="stop-color:#48D6F3"/>
</linearGradient>
<path fill="url(#SVGID_28_)" d="M102.801,253.888c-0.118-0.214-0.385-0.29-0.598-0.174l-43.35,23.868l0.423,0.771l43.352-23.868
	C102.841,254.367,102.917,254.1,102.801,253.888z"/>
<linearGradient id="SVGID_29_" gradientUnits="userSpaceOnUse" x1="-707.4375" y1="-641.5522" x2="-707.4375" y2="-694.545" gradientTransform="matrix(0.4823 0.876 -0.876 0.4823 -219.9911 1115.932)">
	<stop  offset="0.1022" style="stop-color:#ECF2F2"/>
	<stop  offset="1" style="stop-color:#48D6F3"/>
</linearGradient>
<path fill="url(#SVGID_29_)" d="M44.419,162.786c-0.119-0.215-0.385-0.291-0.598-0.174l-43.349,23.87l0.423,0.771l43.351-23.871
	C44.459,163.265,44.536,162.998,44.419,162.786z"/>
<linearGradient id="SVGID_30_" gradientUnits="userSpaceOnUse" x1="-711.8115" y1="-816.9741" x2="-711.8115" y2="-869.9648" gradientTransform="matrix(0.4823 0.876 -0.876 0.4823 -219.9911 1115.932)">
	<stop  offset="0.1022" style="stop-color:#ECF2F2"/>
	<stop  offset="1" style="stop-color:#48D6F3"/>
</linearGradient>
<path fill="url(#SVGID_30_)" d="M195.977,74.348c-0.116-0.214-0.383-0.291-0.596-0.174l-43.349,23.87l0.423,0.771l43.352-23.87
	C196.019,74.827,196.096,74.56,195.977,74.348z"/>
<linearGradient id="SVGID_31_" gradientUnits="userSpaceOnUse" x1="-667.0303" y1="-637.4766" x2="-667.0303" y2="-734.8607" gradientTransform="matrix(0.4823 0.876 -0.876 0.4823 -219.9911 1115.932)">
	<stop  offset="0.1022" style="stop-color:#ECF2F2"/>
	<stop  offset="1" style="stop-color:#48D6F3"/>
</linearGradient>
<path fill="url(#SVGID_31_)" d="M96.866,180.034c-0.215-0.393-0.705-0.533-1.096-0.318l-79.666,43.867l0.779,1.415l79.665-43.867
	C96.94,180.915,97.083,180.424,96.866,180.034z"/>
<g>
	<circle opacity="0.3" fill="#1ED4FC" cx="133.663" cy="252.966" r="2.566"/>
	<circle opacity="0.3" fill="#1ED4FC" cx="133.661" cy="252.964" r="1.643"/>
	<path fill="#1ED4FC" d="M134.189,253.925c-0.529,0.29-1.195,0.098-1.487-0.435c-0.292-0.526-0.099-1.196,0.43-1.488
		c0.531-0.29,1.2-0.096,1.49,0.433C134.915,252.964,134.719,253.633,134.189,253.925z"/>
</g>
<g>
	<circle opacity="0.3" fill="#1ED4FC" cx="183.665" cy="185.181" r="2.566"/>
	<circle opacity="0.3" fill="#1ED4FC" cx="183.663" cy="185.179" r="1.643"/>
	<path fill="#1ED4FC" d="M184.191,186.139c-0.529,0.292-1.195,0.099-1.487-0.432c-0.291-0.527-0.099-1.197,0.431-1.488
		c0.53-0.292,1.199-0.096,1.489,0.432C184.916,185.18,184.721,185.848,184.191,186.139z"/>
</g>
<g>
	<circle opacity="0.3" fill="#1ED4FC" cx="206.724" cy="83.901" r="2.566"/>
	<circle opacity="0.3" fill="#1ED4FC" cx="206.723" cy="83.899" r="1.643"/>
	<circle fill="#1ED4FC" cx="206.722" cy="83.898" r="1.096"/>
</g>
<g>
	<circle opacity="0.3" fill="#1ED4FC" cx="33.797" cy="189.27" r="2.566"/>
	<circle opacity="0.3" fill="#1ED4FC" cx="33.796" cy="189.269" r="1.643"/>
	<path fill="#1ED4FC" d="M34.323,190.229c-0.527,0.292-1.194,0.097-1.487-0.433c-0.291-0.526-0.098-1.196,0.431-1.488
		c0.53-0.293,1.199-0.096,1.489,0.432C35.048,189.27,34.855,189.936,34.323,190.229z"/>
</g>
<g>
	<circle opacity="0.3" fill="#1ED4FC" cx="47.888" cy="127.62" r="2.566"/>
	<circle opacity="0.3" fill="#1ED4FC" cx="47.887" cy="127.619" r="1.643"/>
	<path fill="#1ED4FC" d="M48.415,128.579c-0.529,0.291-1.195,0.098-1.488-0.433c-0.291-0.527-0.099-1.197,0.43-1.489
		c0.53-0.291,1.2-0.095,1.49,0.433C49.139,127.619,48.945,128.287,48.415,128.579z"/>
</g>
<g>
	<path opacity="0.3" fill="#1ED4FC" d="M76.775,231.685c-2.715,1.496-6.13,0.505-7.627-2.215c-1.497-2.713-0.505-6.128,2.21-7.625
		c2.717-1.497,6.132-0.506,7.626,2.208C80.483,226.773,79.495,230.188,76.775,231.685z"/>
	<path opacity="0.3" fill="#1ED4FC" d="M75.801,229.914c-1.739,0.957-3.925,0.326-4.884-1.417c-0.954-1.734-0.321-3.921,1.417-4.878
		c1.74-0.958,3.928-0.325,4.884,1.409C78.176,226.771,77.54,228.955,75.801,229.914z"/>
	<path fill="#1ED4FC" d="M75.226,228.866c-1.159,0.637-2.621,0.21-3.257-0.949c-0.635-1.153-0.214-2.613,0.944-3.25
		c1.156-0.637,2.62-0.213,3.254,0.938C76.803,226.764,76.381,228.229,75.226,228.866z"/>
</g>
<g>
	<path opacity="0.3" fill="#1ED4FC" d="M183.337,243.412c-2.717,1.496-6.132,0.507-7.631-2.214
		c-1.494-2.712-0.503-6.129,2.212-7.625c2.719-1.498,6.131-0.504,7.625,2.209C187.043,238.5,186.054,241.916,183.337,243.412z"/>
	<path opacity="0.3" fill="#1ED4FC" d="M182.36,241.639c-1.737,0.957-3.924,0.326-4.884-1.416c-0.955-1.734-0.32-3.921,1.418-4.878
		c1.739-0.959,3.925-0.325,4.88,1.41C184.736,238.498,184.1,240.682,182.36,241.639z"/>
	<path fill="#1ED4FC" d="M181.785,240.592c-1.16,0.638-2.62,0.212-3.258-0.948c-0.634-1.151-0.214-2.613,0.945-3.25
		c1.156-0.637,2.618-0.212,3.252,0.94C183.361,238.493,182.941,239.956,181.785,240.592z"/>
</g>
<g>
	<path opacity="0.3" fill="#1ED4FC" d="M138.767,111.744c-2.716,1.497-6.131,0.505-7.63-2.215c-1.493-2.712-0.504-6.129,2.212-7.625
		c2.717-1.496,6.133-0.504,7.626,2.207C142.474,106.832,141.485,110.249,138.767,111.744z"/>
	<path opacity="0.3" fill="#1ED4FC" d="M137.79,109.973c-1.736,0.956-3.925,0.324-4.884-1.419c-0.955-1.733-0.319-3.92,1.419-4.875
		c1.739-0.958,3.926-0.328,4.881,1.406C140.165,106.827,139.531,109.014,137.79,109.973z"/>
	<path fill="#1ED4FC" d="M137.214,108.924c-1.158,0.637-2.617,0.211-3.256-0.949c-0.634-1.154-0.213-2.611,0.944-3.249
		c1.159-0.638,2.62-0.217,3.254,0.938C138.795,106.823,138.371,108.285,137.214,108.924z"/>
</g>
<g>
	<path opacity="0.3" fill="#1ED4FC" d="M152.097,135.704c-0.568,0.313-1.286,0.104-1.599-0.462c-0.312-0.568-0.104-1.287,0.464-1.6
		c0.571-0.314,1.286-0.104,1.6,0.464C152.873,134.672,152.668,135.392,152.097,135.704z"/>
	<circle opacity="0.3" fill="#1ED4FC" cx="151.53" cy="134.672" r="0.754"/>
	<path fill="#1ED4FC" d="M151.771,135.109c-0.242,0.133-0.546,0.05-0.68-0.194c-0.135-0.243-0.043-0.547,0.198-0.68
		c0.243-0.133,0.547-0.048,0.681,0.195C152.104,134.675,152.014,134.977,151.771,135.109z"/>
</g>
<g>
	<path opacity="0.3" fill="#1ED4FC" d="M95.496,194.744c-0.569,0.312-1.287,0.103-1.6-0.466c-0.312-0.565-0.105-1.286,0.463-1.599
		c0.571-0.313,1.287-0.104,1.6,0.465C96.271,193.71,96.066,194.43,95.496,194.744z"/>
	<circle opacity="0.3" fill="#1ED4FC" cx="94.927" cy="193.712" r="0.755"/>
	<path fill="#1ED4FC" d="M95.168,194.149c-0.242,0.132-0.545,0.048-0.68-0.195c-0.134-0.244-0.042-0.547,0.197-0.68
		c0.243-0.134,0.548-0.049,0.682,0.195C95.502,193.714,95.411,194.015,95.168,194.149z"/>
</g>
<g>
	<path opacity="0.3" fill="#1ED4FC" d="M184.791,194.582c-0.568,0.312-1.286,0.103-1.6-0.463c-0.312-0.568-0.104-1.287,0.464-1.6
		c0.57-0.314,1.285-0.104,1.599,0.463C185.566,193.548,185.361,194.268,184.791,194.582z"/>
	<circle opacity="0.3" fill="#1ED4FC" cx="184.223" cy="193.55" r="0.755"/>
	<circle fill="#1ED4FC" cx="184.223" cy="193.549" r="0.499"/>
</g>
<g>
	<path opacity="0.3" fill="#1ED4FC" d="M63.018,157.162c-0.568,0.313-1.286,0.103-1.599-0.464c-0.312-0.567-0.104-1.286,0.463-1.599
		c0.571-0.313,1.286-0.104,1.6,0.464C63.793,156.13,63.588,156.849,63.018,157.162z"/>
	<circle opacity="0.3" fill="#1ED4FC" cx="62.45" cy="156.131" r="0.754"/>
	<path fill="#1ED4FC" d="M62.691,156.568c-0.242,0.133-0.546,0.049-0.68-0.194c-0.134-0.244-0.043-0.547,0.198-0.68
		c0.242-0.134,0.547-0.048,0.681,0.195C63.025,156.133,62.933,156.434,62.691,156.568z"/>
</g>
<g>
	<circle opacity="0.3" fill="#1ED4FC" cx="30.052" cy="158.026" r="1.178"/>
	<circle opacity="0.3" fill="#1ED4FC" cx="30.052" cy="158.027" r="0.754"/>
	<circle fill="#1ED4FC" cx="30.052" cy="158.026" r="0.5"/>
</g>
<g>
	<path opacity="0.3" fill="#1ED4FC" d="M197.775,158.892c-0.568,0.313-1.286,0.103-1.6-0.464c-0.311-0.567-0.104-1.287,0.464-1.599
		c0.571-0.314,1.286-0.104,1.599,0.464C198.551,157.859,198.347,158.578,197.775,158.892z"/>
	<circle opacity="0.3" fill="#1ED4FC" cx="197.208" cy="157.86" r="0.755"/>
	<circle fill="#1ED4FC" cx="197.207" cy="157.86" r="0.5"/>
</g>
<g>
	<path opacity="0.3" fill="#1ED4FC" d="M164.292,86.575c-0.568,0.312-1.287,0.103-1.599-0.464c-0.312-0.567-0.105-1.287,0.463-1.6
		c0.571-0.313,1.286-0.104,1.599,0.464C165.067,85.542,164.862,86.261,164.292,86.575z"/>
	<circle opacity="0.3" fill="#1ED4FC" cx="163.724" cy="85.543" r="0.755"/>
	<path fill="#1ED4FC" d="M163.964,85.98c-0.241,0.133-0.545,0.049-0.681-0.195c-0.133-0.244-0.041-0.547,0.199-0.68
		c0.242-0.133,0.547-0.048,0.681,0.195C164.299,85.545,164.207,85.846,163.964,85.98z"/>
</g>
<g>
	<circle opacity="0.3" fill="#1ED4FC" cx="101.093" cy="244.109" r="1.177"/>
	<circle opacity="0.3" fill="#1ED4FC" cx="101.093" cy="244.11" r="0.755"/>
	<circle fill="#1ED4FC" cx="101.093" cy="244.109" r="0.499"/>
</g>
<g>
	<circle opacity="0.3" fill="#1ED4FC" cx="196.03" cy="208.96" r="1.34"/>
	<path opacity="0.3" fill="#1ED4FC" d="M196.443,209.71c-0.413,0.228-0.935,0.081-1.166-0.338c-0.228-0.414-0.075-0.936,0.339-1.164
		c0.416-0.229,0.938-0.078,1.165,0.336C197.013,208.961,196.859,209.481,196.443,209.71z"/>
	<path fill="#1ED4FC" d="M196.305,209.459c-0.273,0.151-0.621,0.053-0.774-0.226c-0.152-0.275-0.05-0.622,0.225-0.774
		c0.277-0.153,0.625-0.051,0.775,0.222C196.684,208.962,196.583,209.306,196.305,209.459z"/>
</g>
<g>
	
		<ellipse transform="matrix(0.4825 0.8759 -0.8759 0.4825 195.6408 67.2996)" opacity="0.3" fill="#1ED4FC" cx="40.869" cy="199.208" rx="0.96" ry="0.966"/>
	<circle opacity="0.3" fill="#1ED4FC" cx="40.868" cy="199.209" r="0.617"/>
	<circle fill="#1ED4FC" cx="40.868" cy="199.208" r="0.411"/>
</g>
<g>
	<circle opacity="0.3" fill="#1ED4FC" cx="110.718" cy="251.625" r="1.339"/>
	<circle opacity="0.3" fill="#1ED4FC" cx="110.718" cy="251.627" r="0.858"/>
	<circle fill="#1ED4FC" cx="110.718" cy="251.625" r="0.573"/>
</g>
<g>
	<path opacity="0.3" fill="#1ED4FC" d="M123.938,277.89c-0.649,0.358-1.462,0.122-1.818-0.523c-0.357-0.649-0.123-1.466,0.526-1.823
		c0.648-0.355,1.464-0.117,1.82,0.529C124.822,276.72,124.585,277.534,123.938,277.89z"/>
	<circle opacity="0.3" fill="#1ED4FC" cx="123.292" cy="276.72" r="0.857"/>
	<path fill="#1ED4FC" d="M123.568,277.22c-0.275,0.151-0.626,0.051-0.777-0.226c-0.151-0.273-0.052-0.626,0.225-0.778
		c0.277-0.152,0.626-0.046,0.776,0.229C123.943,276.718,123.845,277.067,123.568,277.22z"/>
</g>
<g>
	<circle opacity="0.3" fill="#1ED4FC" cx="67.11" cy="207.62" r="1.34"/>
	<circle opacity="0.3" fill="#1ED4FC" cx="67.111" cy="207.621" r="0.858"/>
	<circle fill="#1ED4FC" cx="67.111" cy="207.62" r="0.572"/>
</g>
<g>
	<path fill="#FFFFFF" d="M188.613,144.074V124.4c0.023-0.067,0.035-0.139,0.035-0.214c0-0.274-0.17-0.518-0.424-0.613l-18.993-7.183
		c-0.15-0.056-0.314-0.056-0.462,0l-18.992,7.183c-0.257,0.096-0.426,0.339-0.426,0.613c0,0.274,0.169,0.518,0.426,0.614
		l4.634,1.753v5.518c0,0.338,0.259,0.621,0.594,0.652c0.062,0.008,6.25,0.667,12.424,6.474c0.446,0.42,1.005,0.63,1.568,0.63
		c0.56,0,1.12-0.21,1.566-0.63c6.174-5.807,12.369-6.465,12.43-6.471c0.336-0.033,0.596-0.316,0.596-0.655v-5.518l3.713-1.404
		v18.983c-0.969,0.321-1.668,1.237-1.668,2.313v5.448c0,0.364,0.293,0.656,0.656,0.656h3.545c0.361,0,0.654-0.292,0.654-0.656
		v-5.448C190.49,145.292,189.689,144.325,188.613,144.074z M182.277,131.5c-1.768,0.304-7.152,1.604-12.611,6.74
		c-0.382,0.358-0.957,0.358-1.34,0c-5.459-5.133-10.837-6.436-12.603-6.74v-4.452l13.046,4.934c0.075,0.028,0.154,0.043,0.23,0.043
		c0.079,0,0.157-0.015,0.232-0.043l13.045-4.934V131.5z M169,130.667l-17.136-6.481l17.136-6.48l17.135,6.48L169,130.667z
		 M189.18,151.235h-2.234v-4.791c0-0.618,0.502-1.121,1.117-1.121c0.617,0,1.117,0.503,1.117,1.121V151.235z"/>
</g>
<path id="XMLID_282_" fill="#FFFFFF" d="M158.766,199.696h-1.667v-1.106c0-0.287-0.207-0.534-0.494-0.591
	c-4.982-1.001-10.32,0.811-13.383,3c-3.213-2.24-8.466-3.986-13.373-3c-0.287,0.057-0.494,0.305-0.494,0.591v1.106h-1.667
	c-0.341,0-0.617,0.271-0.617,0.604v20.453c0,0.333,0.276,0.604,0.617,0.604h15.539h15.539c0.339,0,0.617-0.271,0.617-0.604v-20.453
	C159.382,199.967,159.105,199.696,158.766,199.696z M143.844,202.049c1.41-1.032,3.371-1.984,5.562-2.56
	c0.367-0.097,0.744-0.161,1.123-0.197c0,0,1.639-0.247,3.167-0.298c0.461-0.015,0.923-0.047,1.382-0.001
	c0.262,0.026,0.525,0.059,0.785,0.102v18.127c-4.387-0.237-8.428,1.28-12.019,2.648V202.049z M130.591,199.094
	c4.434-0.705,9.228,0.98,12.018,2.961v17.813c-3.338-1.271-7.064-2.672-11.097-2.672c-0.306,0-0.612,0.007-0.921,0.024V199.094z
	 M128.306,200.906h1.049v16.968c0,0.17,0.074,0.332,0.203,0.447c0.128,0.115,0.301,0.17,0.475,0.154
	c3.501-0.334,6.738,0.557,9.854,1.674h-11.582V200.906z M158.147,220.149h-11.581c3.115-1.118,6.353-2.009,9.854-1.674
	c0.174,0.017,0.347-0.039,0.476-0.154c0.129-0.115,0.203-0.277,0.203-0.447v-16.968h1.049V220.149z"/>
<path fill="#FFFFFF" d="M98.751,169.25h8.046c0.726,0,1.36-0.277,1.815-0.716c0.461-0.445,0.74-1.059,0.74-1.715v-12.996
	c0-0.503-0.309-0.757-0.679-0.828c-1.216-0.234-1.088,0.962-2.067,0.81c-0.404-0.063-0.801-0.375-0.989-0.855
	c-0.347-0.886-1.288-1.103-2.048-0.335c-0.753,0.761-1.545,0.375-1.901-0.418c-0.211-0.471-0.455-0.958-1.232-0.952
	c-0.673,0.006-0.939,0.468-1.221,0.783c-0.163,0.123-0.366,0.198-0.586,0.198c-0.534,0-0.966-0.433-0.966-0.966v-7.902
	c0-0.889-0.299-1.418-0.682-1.622c-0.125-0.066-0.259-0.099-0.39-0.099c-0.129,0-0.263,0.035-0.393,0.103
	c-0.398,0.21-0.71,0.746-0.71,1.618v18.031h-0.003c0,0.242-0.09,0.484-0.273,0.672c-0.371,0.382-0.981,0.39-1.362,0.019
	l-3.223-3.149l0,0l-0.008-0.008c-0.653-0.646-1.336-0.823-1.849-0.707c-0.159,0.036-0.299,0.102-0.407,0.189
	c-0.087,0.071-0.152,0.154-0.186,0.244c-0.078,0.205-0.012,0.494,0.264,0.834c0.671,0.826,1.519,1.82,2.408,2.846
	c0.922,1.063,1.842,2.107,2.658,3.027c0.513,0.58,0.901,1.071,1.254,1.52C95.894,168.312,96.634,169.25,98.751,169.25
	 M106.797,171.183h-8.046c-3.051,0-4.022-1.232-5.506-3.118c-0.36-0.457-0.755-0.958-1.179-1.436
	c-0.863-0.974-1.81-2.046-2.673-3.043c-0.898-1.036-1.757-2.045-2.446-2.892c-0.766-0.94-0.88-1.917-0.573-2.727
	c0.159-0.42,0.43-0.784,0.783-1.067c0.333-0.268,0.739-0.463,1.192-0.566c1.079-0.245,2.438,0.045,3.622,1.212l0,0l1.585,1.549
	v-15.74c0-1.685,0.768-2.806,1.745-3.323c0.403-0.213,0.845-0.32,1.291-0.322c0.444-0.001,0.885,0.104,1.288,0.318
	c0.965,0.512,1.716,1.623,1.716,3.327v6.102c1.027-0.316,2.19-0.176,2.963,0.521c0.189,0.141,0.355,0.301,0.496,0.477
	c1.281-0.626,2.974-0.395,3.867,0.861c1.756-0.718,4.363-0.032,4.363,2.242v13.26c0,1.19-0.503,2.3-1.336,3.103
	C109.147,170.695,108.045,171.183,106.797,171.183z"/>
<path fill-rule="evenodd" clip-rule="evenodd" fill="#FFFFFF" d="M89.879,194.751h16.139c0.787,0,1.431,0.643,1.431,1.43
	c0,0.787-0.644,1.43-1.431,1.43H89.879c-0.786,0-1.43-0.643-1.43-1.43C88.449,195.394,89.093,194.751,89.879,194.751"/>
<path fill-rule="evenodd" clip-rule="evenodd" fill="#FFFFFF" d="M100.734,136.751c-0.344-0.345-0.344-0.906,0-1.251l1.381-1.381
	c0.344-0.344,0.906-0.344,1.251,0c0.344,0.344,0.345,0.907,0,1.251l-1.381,1.381C101.641,137.096,101.078,137.096,100.734,136.751"
	/>
<path fill-rule="evenodd" clip-rule="evenodd" fill="#FFFFFF" d="M89.184,147.856c-0.344-0.345-0.344-0.907,0-1.251l1.381-1.381
	c0.344-0.344,0.906-0.344,1.25,0c0.344,0.345,0.344,0.907,0,1.25l-1.381,1.382C90.089,148.2,89.527,148.2,89.184,147.856"/>
<path fill-rule="evenodd" clip-rule="evenodd" fill="#FFFFFF" d="M101.187,145.224c0.344-0.344,0.907-0.344,1.251,0l1.381,1.381
	c0.344,0.345,0.344,0.907,0,1.251c-0.344,0.344-0.907,0.344-1.251,0l-1.382-1.382C100.842,146.13,100.842,145.568,101.187,145.224"
	/>
<path fill-rule="evenodd" clip-rule="evenodd" fill="#FFFFFF" d="M89.636,134.119c0.344-0.344,0.907-0.344,1.25,0l1.381,1.381
	c0.344,0.345,0.345,0.906,0,1.251c-0.344,0.344-0.907,0.344-1.25,0l-1.381-1.381C89.292,135.026,89.292,134.463,89.636,134.119"/>
<path fill-rule="evenodd" clip-rule="evenodd" fill="#FFFFFF" d="M102.488,140.984c0-0.487,0.397-0.884,0.884-0.884h1.954
	c0.487,0,0.884,0.397,0.884,0.884s-0.397,0.884-0.884,0.884h-1.954C102.885,141.868,102.488,141.471,102.488,140.984"/>
<path fill-rule="evenodd" clip-rule="evenodd" fill="#FFFFFF" d="M86.792,140.984c0-0.487,0.398-0.884,0.885-0.884h1.953
	c0.487,0,0.885,0.397,0.885,0.884s-0.398,0.884-0.885,0.884h-1.953C87.19,141.868,86.792,141.471,86.792,140.984"/>
<path fill-rule="evenodd" clip-rule="evenodd" fill="#FFFFFF" d="M96.501,131.275c0.487,0,0.884,0.397,0.884,0.885v1.953
	c0,0.488-0.397,0.885-0.884,0.885c-0.487,0-0.884-0.397-0.884-0.885v-1.953C95.617,131.673,96.014,131.275,96.501,131.275"/>
<g>
</g>
<g>
</g>
<g>
</g>
<g>
</g>
<g>
</g>
<g>
</g>
</svg>
