<?xml version="1.0" encoding="utf-8"?>
<!-- Generator: Adobe Illustrator 16.0.3, SVG Export Plug-In . SVG Version: 6.00 Build 0)  -->
<!DOCTYPE svg PUBLIC "-//W3C//DTD SVG 1.1//EN" "http://www.w3.org/Graphics/SVG/1.1/DTD/svg11.dtd">
<svg version="1.1" id="Layer_1" xmlns="http://www.w3.org/2000/svg" xmlns:xlink="http://www.w3.org/1999/xlink" x="0px" y="0px"
	 width="404.632px" height="429.126px" viewBox="65.278 58.205 404.632 429.126"
	 enable-background="new 65.278 58.205 404.632 429.126" xml:space="preserve">
<g>
	<g enable-background="new    ">
		<g>
			<path fill="#004466" d="M157.603,148.042l-0.161,0.094l-12.697,13.241c-0.075,0.077-0.152,0.14-0.23,0.185
				c-0.077,0.044-0.156,0.072-0.232,0.082l-12.934,1.458l-0.135,0.078l0.025,8.861c0.008,2.967,5.931,1.961,13.235-2.255
				c7.296-4.213,13.21-10.042,13.202-13.009c0-0.142-0.021-0.266-0.049-0.392L157.603,148.042z"/>
		</g>
		<g>
			<g>
				<path fill="#004466" d="M163.707,137.583l-19.414,2.196c-0.074,0.009-0.152,0.038-0.23,0.083
					c-0.077,0.045-0.157,0.106-0.23,0.184l-19.364,20.192c-0.502,0.532-0.5,1.361,0.006,1.303l2.815-0.313l0.032,11.229
					c-0.52,0.548-0.889,1.35-0.888,2.042c0.001,0.512,0.212,0.848,0.537,0.965l-0.455,5.511l2.829-1.633l-0.493-5.026
					c0.284-0.468,0.465-0.999,0.464-1.482c-0.002-0.654-0.342-1.022-0.821-1.011l-0.03-10.518l0.209-0.239l2.144-0.24l0.135-0.016
					l12.936-1.457c0.075-0.009,0.152-0.038,0.229-0.083c0.08-0.044,0.157-0.106,0.23-0.185l12.698-13.241l0.162-0.173l6.503-6.782
					C164.22,138.358,164.218,137.53,163.707,137.583z"/>
			</g>
		</g>
	</g>
</g>
<g>
	<g>
		<path fill="#CEE3E8" d="M225.682,144.171l1.493-31.523l-43.783-19.76l-2.867,28.488c-1.001,9.954,5.163,16.86,10.765,23.137
			c4.54,5.09,8.546,9.577,8.143,14.868l1.483,0.821c0.396-5.31,4.811-5.249,9.984-5.178
			C217.534,155.119,225.16,155.227,225.682,144.171z M200.466,155.917c-1.266-4.457-4.805-8.407-8.433-12.459
			c-5.518-6.154-11.064-12.349-10.168-21.405l2.692-27.215l41.038,18.627l-1.469,29.921c-0.49,9.99-7.303,9.911-13.798,9.832
			C206.2,153.168,202.276,153.124,200.466,155.917z"/>
		<path fill="#CEE3E8" d="M188.32,148.755c-5.514-6.267-14.393-16.395-13.11-29.756l2.742-1.443l0.213-2.026l-2.756,1.45l0.302-2.81
			l2.744-1.468l0.211-2.006l-2.739,1.47l0.297-2.797l2.731-1.467l0.207-1.981l-2.724,1.466l0.294-2.765l2.718-1.465l0.202-1.941
			l-2.709,1.443l0.293-2.735l2.699-1.443l0.205-1.939l-2.697,1.465l0.287-2.708l2.688-1.461l0.201-1.915l-2.681,1.46l0.299-2.824
			l-1.264-0.572l-0.302,2.799l-2.106-3.598l-0.211,1.886l2.106,3.62l-0.293,2.7l-2.111-3.651l-0.213,1.911l2.117,3.654l-0.295,2.727
			l-2.122-3.686l-0.216,1.912l2.124,3.728l-0.3,2.757l-2.128-3.76l-0.217,1.954l2.13,3.782l-0.304,2.788l-2.133-3.815l-0.223,1.976
			l2.138,3.84l-0.302,2.8l-2.146-3.855l-0.221,1.998l2.146,3.897l0.014,0.019c-1.386,14.208,7.881,24.848,13.671,31.456
			c1.159,1.331,4.279,4.902,4.651,5.858l1.275-0.206C192.972,154.142,190.738,151.536,188.32,148.755z"/>
		<path fill="#CEE3E8" d="M237.654,119.908l0.076-2.177l-3.038,1.572l0.119-3.209l-1.534-0.693l-0.126,3.175l-2.771-4.167
			l-0.093,2.142l2.774,4.198l-0.123,3.067l-2.784-4.236l-0.094,2.169l2.791,4.244l-0.126,3.102l-2.799-4.282l-0.096,2.175
			l2.808,4.333l-0.127,3.141l-2.814-4.373l-0.096,2.222l2.822,4.405l-0.128,3.179l-2.834-4.445l-0.097,2.251l2.837,4.477
			l-0.129,3.196l-2.846-4.495l-0.099,2.278l2.854,4.525c-0.784,15.091-12.093,14.849-18.77,14.672
			c-2.835-0.038-5.413-0.039-6.124,0.639l1.206,1.601c0.509-0.492,4.135-0.406,5.524-0.367c7.013,0.171,18.951,0.443,19.753-15.717
			l3.141-1.559l0.078-2.317l-3.129,1.557l0.123-3.208l3.12-1.581l0.079-2.288l-3.11,1.58l0.119-3.192l3.104-1.578l0.078-2.26
			l-3.094,1.578l0.121-3.152l3.083-1.578l0.075-2.21l-3.073,1.554l0.12-3.114l3.063-1.554l0.077-2.205l-3.06,1.577l0.121-3.079
			L237.654,119.908z"/>
		<polygon fill="#CEE3E8" points="217.634,103.141 192.562,92.042 192.439,93.413 217.549,104.589 		"/>
	</g>
	<path fill="#CEE3E8" d="M217.187,134.835c-1.311,2.189-4.069,2.796-7.118,1.258c-4.047-2.042-7.034-7.068-6.729-11.213
		c0.306-4.108,3.741-5.888,7.724-3.983c2.956,1.413,5.414,4.464,6.434,7.667l1.312,0.638c-1.054-3.946-4.045-7.79-7.665-9.511
		c-3.569-1.698-6.746-0.854-8.179,1.793c-0.938-3.784-3.726-7.458-7.15-9.086c-4.382-2.083-8.228-0.059-8.66,4.536
		c-0.433,4.644,2.773,10.25,7.23,12.509c2.052,1.038,4.009,1.182,5.563,0.57l1.862,3.167l0.919-0.47l-1.869-3.17
		c0.667-0.447,1.229-1.065,1.644-1.839c0.956,3.893,3.852,7.806,7.487,9.646c3.731,1.892,7.09,1.016,8.512-1.858L217.187,134.835z
		 M200.105,128.264l-2.259-3.826l-0.902,0.466l2.255,3.837c-1.325,0.497-2.974,0.366-4.713-0.509
		c-3.834-1.936-6.604-6.757-6.233-10.76c0.366-3.968,3.685-5.712,7.465-3.907c3.828,1.829,6.723,6.623,6.411,10.72
		C201.993,126.11,201.24,127.478,200.105,128.264z"/>
</g>
<g>
	<g>
		<path fill="#DCE8EB" d="M138.019,206.926c-0.488,0-0.966-0.242-1.232-0.685c-0.408-0.677-0.21-1.544,0.468-1.953l0.041-0.024
			c0.678-0.407,1.557-0.188,1.964,0.488c0.408,0.677,0.189,1.557-0.488,1.965C138.539,206.858,138.277,206.926,138.019,206.926z"/>
	</g>
	<g>
		<path fill="#DCE8EB" d="M142.329,204.326c-0.488,0-0.968-0.237-1.232-0.675c-0.41-0.677-0.229-1.536,0.447-1.944l0.071-0.043
			c0.677-0.41,1.557-0.193,1.966,0.483c0.409,0.676,0.192,1.557-0.483,1.966C142.859,204.257,142.593,204.326,142.329,204.326z
			 M146.65,201.723c-0.488,0-0.967-0.236-1.232-0.674c-0.409-0.677-0.229-1.536,0.449-1.944l0.07-0.043
			c0.677-0.409,1.556-0.192,1.965,0.483c0.41,0.677,0.192,1.557-0.483,1.966C147.181,201.654,146.915,201.723,146.65,201.723z"/>
	</g>
	<g>
		<path fill="#DCE8EB" d="M150.953,199.137c-0.485,0-0.959-0.24-1.228-0.678c-0.366-0.603-0.25-1.359,0.258-1.808
			c0.256-0.25,0.604-0.405,0.986-0.405c0.79,0,1.431,0.617,1.431,1.408c0,0.5-0.261,1.01-0.687,1.271
			C151.478,199.068,151.213,199.137,150.953,199.137z"/>
	</g>
	<g>
		<path fill="#DCE8EB" d="M150.969,192.92c-0.791,0-1.432-0.641-1.432-1.431v-0.104c0-0.791,0.641-1.432,1.432-1.432
			c0.79,0,1.431,0.641,1.431,1.432v0.104C152.4,192.28,151.759,192.92,150.969,192.92z M150.969,186.653
			c-0.791,0-1.432-0.641-1.432-1.432v-0.103c0-0.791,0.641-1.431,1.432-1.431c0.79,0,1.431,0.641,1.431,1.431v0.103
			C152.4,186.012,151.759,186.653,150.969,186.653z M150.969,180.385c-0.791,0-1.432-0.641-1.432-1.431v-0.103
			c0-0.791,0.641-1.432,1.432-1.432c0.79,0,1.431,0.641,1.431,1.432v0.103C152.4,179.744,151.759,180.385,150.969,180.385z"/>
	</g>
	<g>
		<path fill="#DCE8EB" d="M150.969,174.093c-0.791,0-1.432-0.617-1.432-1.408v-0.047c0-0.791,0.641-1.431,1.432-1.431
			c0.79,0,1.431,0.641,1.431,1.431C152.4,173.429,151.759,174.093,150.969,174.093z"/>
	</g>
</g>
<g>
	<polygon fill="#DCE8EB" points="204.431,422.85 65.278,344.049 165.992,285.087 302.359,367.062 	"/>
	<g>
		<g>
			<g enable-background="new    ">
				<g>
					<polygon fill="#002D3D" points="299.332,354.531 291.95,350.24 291.412,160.618 298.795,164.909 					"/>
				</g>
				<g>
					<path fill="#335464" d="M262.709,171.354c1.093-0.631,1.982-0.125,1.984,1.137l0.002,0.147
						c0.004,1.255-0.881,2.786-1.972,3.417l-25.9,14.953c-1.098,0.634-1.986,0.127-1.99-1.128l-0.001-0.147
						c-0.003-1.262,0.88-2.792,1.979-3.425L262.709,171.354z"/>
				</g>
				<g>
					<path fill="#002D3D" d="M296.943,141.974c2.947-1.702,5.354-0.332,5.363,3.056l0.621,220.056
						c0.01,3.396-2.377,7.526-5.326,9.228l-87.169,50.327c-2.953,1.707-5.352,0.34-5.362-3.056l-0.623-220.057
						c-0.011-3.388,2.374-7.522,5.328-9.228L296.943,141.974z M299.332,354.531l-0.536-189.623l-90.742,52.389l0.538,189.623
						L299.332,354.531 M234.833,189.731l0.001,0.147c0.003,1.255,0.892,1.762,1.99,1.128l25.9-14.953
						c1.092-0.63,1.976-2.161,1.971-3.417l-0.002-0.146c-0.002-1.262-0.893-1.768-1.983-1.137l-25.899,14.953
						C235.712,186.94,234.829,188.47,234.833,189.731 M270.021,167.131c-1.059,0.611-1.914,2.158-1.91,3.457
						c0.005,1.3,0.865,1.855,1.925,1.244c1.065-0.614,1.919-2.16,1.917-3.46C271.949,167.072,271.086,166.517,270.021,167.131"/>
				</g>
				<g>
					<path fill="#335464" d="M270.021,167.131c1.064-0.614,1.928-0.06,1.932,1.24c0.002,1.3-0.852,2.846-1.917,3.46
						c-1.06,0.612-1.92,0.057-1.925-1.244C268.107,169.289,268.963,167.743,270.021,167.131z"/>
				</g>
				<path fill="#335464" d="M293.363,137.313c-0.975-0.565-2.32-0.486-3.805,0.371l-87.167,50.326
					c-2.953,1.705-5.338,5.84-5.327,9.228l0.623,220.056c0.007,1.688,0.6,2.874,1.559,3.431l7.383,4.291
					c-0.958-0.559-1.553-1.744-1.559-3.431l-0.623-220.057c-0.011-3.388,2.374-7.522,5.328-9.228l87.168-50.326
					c1.482-0.857,2.828-0.935,3.802-0.371L293.363,137.313z"/>
			</g>
		</g>
		<g>
			<g>
				<polygon fill="#00546C" points="229.265,350.351 236.864,356.916 236.865,357.099 221.727,365.838 221.727,365.656 				"/>
			</g>
			<g>
				<path fill="#FFFFFF" d="M233.465,250.961l-7.449,11.165c-0.219,0.329-0.488,0.585-0.757,0.739
					c-0.269,0.157-0.537,0.21-0.759,0.136l-7.487-2.54L233.465,250.961z"/>
			</g>
			<g enable-background="new    ">
				<g>
					<path fill="#CEE4E8" d="M208.278,296.461l90.74-52.39l0.311,110.61l-90.742,52.393L208.278,296.461z"/>
				</g>
				<g>
					<path fill="#659DB5" d="M283.096,231.775c0.002,0.461-0.209,0.993-0.525,1.414l0.512,3.265l-2.326,1.342l0.494-3.845
						c-0.32-0.053-0.532-0.341-0.534-0.802c-0.002-0.73,0.525-1.632,1.19-2.014C282.563,230.755,283.094,231.045,283.096,231.775z"
						/>
				</g>
				<g>
					<path fill="#FFFFFF" d="M285.6,226.654l1.096-0.634l0.031,10.676l-9.603,5.545l-0.03-10.676l1.098-0.634l-0.01-4.047
						c-0.008-2.267,1.648-5.07,3.692-6.251c2.041-1.178,3.707-0.292,3.713,1.975L285.6,226.654z M284.729,227.156l-0.01-4.047
						c-0.007-1.736-1.279-2.417-2.842-1.516c-1.566,0.904-2.832,3.053-2.828,4.789l0.014,4.047L284.729,227.156 M283.082,236.453
						l-0.512-3.265c0.316-0.42,0.527-0.953,0.525-1.414c-0.002-0.73-0.533-1.02-1.189-0.64c-0.665,0.382-1.192,1.284-1.19,2.014
						c0.002,0.461,0.214,0.749,0.534,0.802l-0.494,3.845L283.082,236.453"/>
				</g>
				<g>
					<path fill="#659DB5" d="M269.73,223.563l24.263-14.007l0.075,26.975l-24.262,14.006L269.73,223.563z M286.727,236.696
						l-0.031-10.676l-1.096,0.634l-0.013-4.047c-0.006-2.267-1.672-3.153-3.713-1.975c-2.044,1.181-3.7,3.984-3.692,6.251
						l0.01,4.047l-1.098,0.634l0.03,10.676L286.727,236.696"/>
				</g>
				<g>
					<path fill="#659DB5" d="M281.877,221.593c1.563-0.901,2.835-0.22,2.842,1.516l0.01,4.047l-5.666,3.272l-0.014-4.047
						C279.045,224.646,280.311,222.497,281.877,221.593z"/>
				</g>
				<g>
					<path fill="#659DB5" d="M255.934,252.813c0.5-1.231,0.876-2.686,1.128-4.191l2.83-1.635
						C259,249.15,257.599,251.229,255.934,252.813z"/>
				</g>
				<g>
					<path fill="#659DB5" d="M253.6,254.583c-0.724,0.418-1.653-0.489-2.179-2.707l4.337-2.503
						C255.251,252.187,254.331,254.162,253.6,254.583z"/>
				</g>
				<g>
					<path fill="#659DB5" d="M257.422,244.178c-0.002-0.935-0.061-1.851-0.169-2.705l3.233-1.866c0.291,0.71,0.45,1.561,0.453,2.542
						c0.003,0.985-0.15,2.018-0.438,3.056l-3.231,1.866C257.373,246.094,257.425,245.113,257.422,244.178z"/>
				</g>
				<g>
					<path fill="#659DB5" d="M247.292,254.262l2.831-1.635c0.261,1.21,0.643,2.228,1.148,2.879
						C249.596,255.85,248.187,255.393,247.292,254.262z"/>
				</g>
				<g>
					<path fill="#659DB5" d="M255.89,237.295c1.669-0.341,3.075,0.117,3.978,1.244l-2.83,1.635
						C256.778,238.958,256.394,237.947,255.89,237.295z"/>
				</g>
				<g>
					<path fill="#659DB5" d="M251.013,247.879c-0.002-1.012,0.056-1.982,0.161-2.896l4.797-2.77c0.104,0.793,0.173,1.69,0.175,2.702
						c0.004,1.018-0.061,1.992-0.159,2.895l-4.799,2.771C251.081,249.797,251.017,248.897,251.013,247.879z"/>
				</g>
				<g>
					<path fill="#659DB5" d="M253.553,238.214c0.73-0.421,1.66,0.491,2.181,2.712l-4.337,2.503
						C251.908,240.614,252.83,238.633,253.553,238.214z"/>
				</g>
				<g>
					<path fill="#659DB5" d="M249.732,248.619c0.003,0.935,0.061,1.851,0.174,2.702l-3.237,1.87
						c-0.287-0.707-0.445-1.559-0.448-2.544c-0.002-0.98,0.15-2.012,0.433-3.053l3.239-1.869
						C249.783,246.704,249.729,247.684,249.732,248.619z"/>
				</g>
				<g>
					<path fill="#659DB5" d="M241.411,239.913l24.261-14.007l0.077,26.975l-24.261,14.009L241.411,239.913z M253.604,256.005
						c4.766-2.751,8.628-9.298,8.612-14.594c-0.015-5.296-3.901-7.37-8.666-4.618c-4.76,2.748-8.626,9.297-8.611,14.593
						C244.955,256.683,248.846,258.753,253.604,256.005"/>
				</g>
				<g>
					<path fill="#FFFFFF" d="M233.88,251.549l0.034,11.931c0.001,0.73-0.526,1.625-1.183,2.003l-14.904,8.605
						c-0.658,0.379-1.189,0.096-1.191-0.634l-0.033-11.932l7.879,3.071c0.225,0.09,0.503,0.037,0.782-0.124
						c0.278-0.162,0.557-0.431,0.779-0.777L233.88,251.549z"/>
				</g>
				<g>
					<path fill="#659DB5" d="M213.087,256.266l24.266-14.01l0.077,26.976l-24.267,14.01L213.087,256.266z M233.914,263.48
						l-0.033-11.931l-7.837,12.146c-0.223,0.346-0.501,0.615-0.779,0.777c-0.279,0.16-0.558,0.213-0.782,0.124l-7.879-3.071
						l0.033,11.932c0.002,0.729,0.533,1.013,1.191,0.634l14.904-8.605C233.388,265.105,233.916,264.21,233.914,263.48
						 M233.465,250.961l-16.453,9.499L224.5,263c0.222,0.074,0.49,0.021,0.759-0.136c0.269-0.154,0.538-0.41,0.757-0.739
						L233.465,250.961"/>
				</g>
				<g>
					
						<linearGradient id="SVGID_1_" gradientUnits="userSpaceOnUse" x1="384.1055" y1="24.6768" x2="475.0176" y2="24.6768" gradientTransform="matrix(1 0 0 -1 -176 264.5645)">
						<stop  offset="0" style="stop-color:#2898F4"/>
						<stop  offset="0.1462" style="stop-color:#2690F1"/>
						<stop  offset="0.375" style="stop-color:#207AEA"/>
						<stop  offset="0.6576" style="stop-color:#1755DE"/>
						<stop  offset="0.9805" style="stop-color:#0B23CD"/>
						<stop  offset="1" style="stop-color:#0A20CC"/>
					</linearGradient>
					<path fill="url(#SVGID_1_)" d="M208.106,235.703l90.74-52.389l0.172,60.757l-90.74,52.39L208.106,235.703z M237.43,269.231
						l-0.077-26.977l-24.266,14.01l0.076,26.974L237.43,269.231 M265.749,252.881l-0.077-26.975l-24.261,14.007l0.077,26.977
						L265.749,252.881 M294.068,236.532l-0.075-26.975l-24.263,14.007l0.076,26.975L294.068,236.532"/>
				</g>
				<g>
					<path fill="#659DB5" d="M250.098,244.18c0.248-1.508,0.629-2.96,1.128-4.191c-1.671,1.586-3.072,3.666-3.959,5.826
						L250.098,244.18z"/>
				</g>
				<g>
					<path fill="#FFFFFF" d="M253.55,236.793c4.765-2.752,8.651-0.678,8.666,4.618c0.016,5.296-3.847,11.843-8.612,14.594
						c-4.758,2.748-8.649,0.678-8.665-4.619C244.924,246.09,248.791,239.541,253.55,236.793z M256.146,244.916
						c-0.002-1.012-0.071-1.909-0.175-2.702l-4.797,2.77c-0.105,0.914-0.163,1.884-0.161,2.896c0.004,1.018,0.067,1.918,0.175,2.702
						l4.799-2.771C256.085,246.907,256.15,245.934,256.146,244.916 M257.27,247.07l3.231-1.866c0.288-1.038,0.441-2.07,0.438-3.056
						c-0.003-0.98-0.162-1.832-0.453-2.542l-3.233,1.866c0.108,0.854,0.167,1.771,0.169,2.705
						C257.425,245.113,257.373,246.094,257.27,247.07 M246.22,250.646c0.003,0.986,0.161,1.838,0.448,2.544l3.237-1.87
						c-0.113-0.851-0.171-1.767-0.174-2.702s0.051-1.915,0.16-2.895l-3.239,1.869C246.371,248.635,246.218,249.666,246.22,250.646
						 M253.553,238.214c-0.724,0.418-1.646,2.399-2.156,5.216l4.337-2.503C255.213,238.706,254.284,237.793,253.553,238.214
						 M253.6,254.583c0.73-0.421,1.651-2.397,2.158-5.21l-4.337,2.503C251.947,254.095,252.876,255.001,253.6,254.583
						 M251.226,239.988c-1.671,1.586-3.072,3.666-3.959,5.826l2.831-1.635C250.346,242.671,250.727,241.219,251.226,239.988
						 M247.292,254.262c0.896,1.131,2.305,1.588,3.979,1.244c-0.506-0.651-0.888-1.669-1.148-2.879L247.292,254.262
						 M255.934,252.813c1.665-1.583,3.065-3.663,3.958-5.826l-2.83,1.635C256.81,250.127,256.434,251.582,255.934,252.813
						 M259.868,238.539c-0.902-1.127-2.309-1.585-3.978-1.244c0.504,0.652,0.888,1.663,1.147,2.879L259.868,238.539"/>
				</g>
				<g>
					<polygon fill="#004466" points="298.797,166.503 298.846,183.314 208.106,235.703 208.058,218.892 					"/>
				</g>
			</g>
			<g>
				<polygon fill="#FFFFFF" points="221.585,315.795 220.348,316.511 220.49,366.554 221.727,365.838 221.727,365.656 				"/>
				<polygon fill="#FFFFFF" points="286.005,328.729 287.243,328.013 287.102,277.97 285.865,278.685 285.997,326.076 				"/>
				<polygon fill="#FFFFFF" points="254.48,346.028 254.34,296.885 253.103,297.599 253.24,346.122 253.245,347.642 
					254.482,346.927 				"/>
				<polygon fill="#FFFFFF" points="269.625,338.185 270.863,337.47 270.855,334.815 270.721,287.429 269.482,288.142 
					269.623,337.284 				"/>
				<polygon fill="#FFFFFF" points="236.865,357.099 238.108,356.38 238.102,354.843 237.965,306.338 236.723,307.056 
					236.864,356.916 				"/>
			</g>
		</g>
		<polygon opacity="0.4" fill="#004466" enable-background="new    " points="266.641,162.459 300.822,142.043 300.688,298.954 
			266.641,317.599 		"/>
		<g>
			<path fill="#FFFFFF" d="M188.722,261.995c1.51-0.873,2.74-0.17,2.744,1.564c0.005,1.742-1.217,3.859-2.728,4.732
				c-0.206,0.118-0.4,0.196-0.59,0.263l-5.085,11.98c0.336,0.332,0.537,0.85,0.54,1.549c0.005,1.741-1.218,3.857-2.729,4.729
				c-1.51,0.873-2.739,0.172-2.745-1.57c-0.002-0.697,0.203-1.463,0.541-2.186l-5.074-6.101c-0.19,0.159-0.386,0.298-0.58,0.41
				c-0.206,0.12-0.402,0.198-0.591,0.265l-5.091,11.982c0.335,0.332,0.544,0.849,0.546,1.546c0.005,1.743-1.217,3.858-2.728,4.731
				c-1.517,0.875-2.746,0.174-2.751-1.567c-0.005-1.737,1.218-3.854,2.732-4.728c0.201-0.117,0.401-0.201,0.592-0.267l5.085-11.979
				c-0.336-0.33-0.543-0.847-0.546-1.552c-0.005-1.733,1.217-3.853,2.733-4.728c1.51-0.872,2.74-0.172,2.745,1.564
				c0.002,0.704-0.202,1.471-0.54,2.192l5.075,6.101c0.188-0.16,0.378-0.296,0.579-0.412c0.199-0.115,0.401-0.199,0.591-0.265
				l5.084-11.979c-0.335-0.33-0.538-0.852-0.54-1.555C185.99,264.984,187.21,262.866,188.722,261.995z"/>
		</g>
		<g opacity="0.5">
			<path fill="#1ED1C4" d="M205.81,210.659c5.897-3.404,10.688-0.667,10.707,6.108l0.086,29.985l-11.122-2.399l-63.108,36.434
				c-5.896,3.405-10.693,0.671-10.712-6.104l-0.024-8.908c-0.021-6.774,4.747-15.03,10.643-18.435L205.81,210.659z"/>
		</g>
		<g>
			<g>
				<path fill="#FFFFFF" d="M300.264,167.586c3.303-1.906,5.993-0.475,6.005,3.198c0.007,2.932-1.69,6.396-4.057,8.65
					c3.679-1.374,6.683-0.25,7.989,2.789c-2.658,4.043-6.104,7.549-9.867,9.722c-3.766,2.173-7.219,2.65-9.895,1.687
					c1.287-4.537,4.277-9.122,7.949-11.991c-2.371,0.48-4.084-1.014-4.092-3.946C294.289,174.021,296.962,169.493,300.264,167.586z"
					/>
			</g>
			<g>
				<path fill="#3790A6" d="M300.236,157.832c8.474-4.893,15.361-1.219,15.389,8.203c0.002,0.496-0.017,0.999-0.051,1.504
					c-0.346,4.838-2.356,10.111-5.372,14.684c-1.308-3.039-4.312-4.163-7.989-2.789c2.365-2.253,4.063-5.718,4.057-8.65
					c-0.012-3.673-2.703-5.104-6.006-3.198c-3.301,1.907-5.975,6.436-5.965,10.109c0.008,2.932,1.721,4.426,4.092,3.946
					c-3.672,2.869-6.662,7.454-7.949,11.991c-3.028-1.084-5.064-4.019-5.435-8.445c-0.039-0.463-0.06-0.944-0.062-1.439
					C284.918,174.325,291.764,162.724,300.236,157.832z"/>
			</g>
			<g>
				<path fill="#1ED1C4" d="M359.567,83.8l0.166,58.244l-44.159,25.496c0.034-0.506,0.053-1.008,0.051-1.504
					c-0.026-9.422-6.915-13.096-15.389-8.203c-8.473,4.892-15.317,16.494-15.291,25.917c0.002,0.495,0.021,0.976,0.062,1.439
					l-10.75,6.207l-0.167-58.244L359.567,83.8z"/>
			</g>
			<g>
				<path fill="#DCE8EB" d="M315.574,167.539l44.159-25.496l0.329,116.028l-85.479,49.351l-0.328-116.029l10.75-6.207
					c0.369,4.426,2.405,7.361,5.436,8.445c2.675,0.963,6.129,0.486,9.892-1.687c3.767-2.173,7.211-5.679,9.869-9.722
					C313.217,177.65,315.229,172.377,315.574,167.539z M347.961,251.935l-0.013-4.06L286.6,283.293l0.012,4.062L347.961,251.935
					 M347.933,242.198l-0.013-4.06l-61.35,35.421l0.012,4.058L347.933,242.198 M347.907,232.462l-0.014-4.06l-61.351,35.421
					l0.012,4.059L347.907,232.462"/>
			</g>
			<g>
				<polygon fill="#CEE4E8" points="347.894,228.402 347.907,232.462 286.555,267.882 286.545,263.823 				"/>
			</g>
			<g>
				<polygon fill="#CEE4E8" points="347.92,238.138 347.933,242.198 286.584,277.617 286.572,273.56 				"/>
			</g>
			<g>
				<polygon fill="#CEE4E8" points="347.949,247.875 347.961,251.935 286.611,287.354 286.6,283.293 				"/>
			</g>
		</g>
		<g opacity="0.2">
			<polygon fill="#004466" points="327.226,210.524 327.226,210.523 327.224,210.521 			"/>
			<path fill="#004466" d="M327.212,210.462c0.004,0.018,0.008,0.04,0.012,0.059c0-0.005-0.002-0.01-0.002-0.015
				C327.218,210.491,327.214,210.477,327.212,210.462z"/>
			<path fill="#004466" d="M350.42,177.18c0.053-0.031,0.105-0.062,0.156-0.092c0.054-0.031,0.105-0.061,2.583-1.184
				c2.665-0.895,5.02-0.635,6.775,0.604v-15.033c-0.173,0.011-0.34,0.011-0.514,0.029c-0.071,0.008-0.146,0.016-0.265,0.031
				c-0.067,0.007-0.135,0.017-0.264,0.033c-0.062,0.008-0.125,0.018-0.27,0.039c-0.057,0.009-0.116,0.018-0.265,0.042
				c-0.057,0.01-0.112,0.02-0.168,0.029c-0.034,0.006-0.066,0.012-0.104,0.019c-0.053,0.01-0.108,0.02-0.163,0.031
				c-0.032,0.007-0.069,0.013-0.102,0.02c-0.055,0.011-0.108,0.022-0.161,0.033c-0.039,0.008-0.076,0.016-0.114,0.024
				c-0.051,0.011-0.1,0.022-0.151,0.034c-0.039,0.008-0.078,0.017-0.119,0.027c-0.052,0.011-0.101,0.023-0.148,0.035
				c-0.043,0.01-0.084,0.02-0.127,0.031c-0.049,0.012-0.1,0.025-0.15,0.038c-0.039,0.01-0.08,0.021-0.119,0.031
				c-0.055,0.013-0.104,0.027-0.155,0.041c-0.041,0.011-0.081,0.022-0.122,0.034c-0.051,0.014-0.102,0.027-0.149,0.042
				c-0.042,0.012-0.085,0.024-0.128,0.037c-0.051,0.015-0.1,0.029-0.15,0.044c-0.042,0.013-0.085,0.026-0.131,0.04
				c-0.047,0.014-0.096,0.03-0.145,0.045c-0.045,0.014-0.092,0.028-0.135,0.043c-0.049,0.015-0.094,0.03-0.144,0.046
				c-0.047,0.016-0.096,0.032-0.146,0.048c-0.045,0.016-0.089,0.03-0.134,0.046c-0.05,0.016-0.097,0.033-0.146,0.05
				c-0.047,0.016-0.092,0.033-0.139,0.05c-0.049,0.017-0.099,0.035-0.146,0.053c-0.047,0.017-0.094,0.035-0.141,0.051
				c-0.047,0.018-0.094,0.035-0.139,0.053c-0.05,0.018-0.099,0.038-0.148,0.056c-0.047,0.019-0.094,0.037-0.141,0.056
				c-0.05,0.019-0.097,0.038-0.144,0.057c-0.049,0.02-0.096,0.04-0.145,0.059c-0.048,0.019-0.096,0.039-0.143,0.058
				c-0.051,0.021-0.102,0.043-0.151,0.064c-0.045,0.02-0.093,0.039-0.138,0.059c-0.049,0.021-0.098,0.043-0.147,0.065
				c-0.047,0.02-0.094,0.041-0.142,0.062c-0.052,0.023-0.104,0.047-0.154,0.07c-0.045,0.021-0.09,0.041-0.136,0.062
				c-0.051,0.023-0.102,0.048-0.153,0.071c-0.045,0.022-0.09,0.044-0.138,0.066c-0.054,0.025-0.105,0.05-0.156,0.075
				c-0.045,0.022-0.09,0.043-0.138,0.065c-0.051,0.025-0.102,0.051-0.152,0.077c-0.047,0.024-0.095,0.046-0.142,0.07
				c-0.053,0.027-0.106,0.055-0.163,0.083c-0.042,0.022-0.085,0.044-0.128,0.067c-0.063,0.032-0.127,0.065-0.188,0.098
				c-0.037,0.019-0.071,0.037-0.106,0.056c-0.066,0.036-0.132,0.072-0.3,0.162c-0.063,0.036-0.13,0.072-0.297,0.165
				c-0.099,0.056-0.198,0.113-0.298,0.169c-0.101,0.058-0.198,0.115-0.298,0.173c-0.047,0.029-0.099,0.059-0.146,0.088
				c-0.051,0.03-0.098,0.06-0.148,0.09c-0.047,0.029-0.097,0.059-0.144,0.087c-0.051,0.032-0.104,0.064-0.153,0.095
				c-0.046,0.029-0.091,0.057-0.138,0.086c-0.056,0.034-0.105,0.066-0.159,0.1c-0.045,0.028-0.09,0.058-0.135,0.086
				c-0.053,0.035-0.104,0.067-0.159,0.103c-0.047,0.031-0.096,0.062-0.143,0.093c-0.049,0.034-0.1,0.066-0.15,0.1
				c-0.047,0.031-0.094,0.064-0.141,0.095c-0.052,0.034-0.103,0.067-0.151,0.101c-0.051,0.035-0.1,0.069-0.147,0.104
				c-0.047,0.032-0.097,0.064-0.144,0.097c-0.049,0.034-0.096,0.068-0.146,0.103c-0.047,0.034-0.094,0.067-0.144,0.1
				c-0.051,0.038-0.104,0.075-0.153,0.112c-0.043,0.031-0.088,0.062-0.131,0.094c-0.054,0.039-0.106,0.077-0.159,0.116
				c-0.043,0.031-0.088,0.063-0.128,0.093c-0.059,0.042-0.11,0.081-0.166,0.123c-0.038,0.029-0.081,0.061-0.12,0.09
				c-0.055,0.042-0.109,0.083-0.165,0.126c-0.041,0.029-0.079,0.059-0.118,0.089c-0.057,0.044-0.114,0.087-0.171,0.132
				c-0.037,0.029-0.078,0.059-0.114,0.088c-0.055,0.044-0.112,0.088-0.167,0.132c-0.039,0.03-0.076,0.06-0.114,0.089
				c-0.058,0.047-0.115,0.093-0.174,0.14c-0.034,0.028-0.07,0.056-0.104,0.084c-0.059,0.048-0.118,0.096-0.277,0.227
				c-0.062,0.052-0.122,0.102-0.277,0.23c-0.062,0.052-0.122,0.104-0.274,0.234c-0.047,0.04-0.094,0.081-0.142,0.122
				c-0.035,0.031-0.072,0.063-0.128,0.11c-0.066,0.059-0.135,0.118-0.27,0.236c-0.071,0.063-0.144,0.126-0.267,0.239
				c-0.074,0.067-0.147,0.132-0.269,0.241c-0.077,0.07-0.152,0.14-0.263,0.243c-0.063,0.059-0.129,0.118-0.191,0.177
				c-0.023,0.024-0.047,0.044-0.076,0.072c-0.789,0.745-1.551,1.537-2.302,2.35c0.483-0.524,0.979-1.033,1.479-1.53
				c-0.5,0.498-0.995,1.006-1.479,1.531l0,0c-0.188,0.204-0.375,0.409-0.561,0.617l0,0c-0.26,0.289-0.513,0.579-0.765,0.874
				c-0.482,0.566-0.954,1.145-1.417,1.736c-0.129,0.168-0.257,0.335-0.384,0.503v-0.001c0,0.001-0.002,0.003-0.002,0.004
				c0-0.001,0-0.001,0.002-0.002c-0.085,0.11-0.167,0.223-0.253,0.333c-0.377,0.503-0.748,1.011-1.11,1.529
				c-0.204,0.292-0.405,0.587-0.604,0.883c-0.339,0.506-0.669,1.02-0.993,1.537c-0.186,0.296-0.373,0.589-0.553,0.889
				c-0.373,0.62-0.729,1.249-1.076,1.882c-0.043,0.077-0.088,0.153-0.13,0.231l0.002-0.001c-0.108,0.197-0.217,0.395-0.32,0.592
				c-0.386,0.731-0.759,1.467-1.11,2.211c-0.138,0.291-0.264,0.584-0.396,0.876c-0.259,0.567-0.51,1.136-0.744,1.708
				c-0.132,0.318-0.259,0.638-0.383,0.957c-0.229,0.583-0.442,1.167-0.648,1.754c-0.1,0.283-0.201,0.566-0.298,0.851
				c-0.257,0.781-0.493,1.563-0.709,2.345c-0.347,1.261-0.646,2.522-0.877,3.777c-0.021,0.113-0.041,0.226-0.063,0.361
				c-0.021,0.109-0.036,0.217-0.063,0.369c-0.015,0.085-0.026,0.169-0.041,0.254c-0.006,0.035-0.011,0.066-0.019,0.108
				c-0.016,0.099-0.028,0.196-0.056,0.371c-0.013,0.093-0.026,0.184-0.052,0.358c-0.01,0.09-0.023,0.179-0.047,0.366
				c-0.01,0.086-0.02,0.171-0.042,0.35c-0.011,0.086-0.021,0.172-0.041,0.362c-0.008,0.082-0.017,0.164-0.037,0.362
				c-0.008,0.078-0.014,0.156-0.021,0.234c-0.004,0.043-0.009,0.085-0.011,0.128c-0.006,0.073-0.015,0.147-0.021,0.22
				c-0.002,0.045-0.006,0.09-0.01,0.136c-0.005,0.071-0.012,0.143-0.016,0.214c-0.004,0.047-0.008,0.095-0.01,0.143
				c-0.007,0.069-0.009,0.139-0.015,0.208c-0.002,0.044-0.004,0.087-0.006,0.13c-0.006,0.074-0.012,0.147-0.014,0.22
				c-0.002,0.048-0.004,0.097-0.006,0.145c-0.004,0.066-0.009,0.133-0.011,0.199c-0.002,0.064-0.004,0.129-0.006,0.194
				c-0.002,0.051-0.004,0.101-0.007,0.151c-0.002,0.07-0.002,0.141-0.004,0.21c-0.002,0.046-0.004,0.093-0.004,0.138
				c-0.003,0.07-0.003,0.14-0.003,0.21c-0.002,0.046-0.002,0.09-0.002,0.135c0,0.115,0,0.23,0,0.344c0,0.112,0,0.224,0.002,0.335
				c0,0.056,0.003,0.111,0.003,0.167c0.002,0.055,0.002,0.111,0.004,0.167s0.002,0.11,0.004,0.165c0,0.002,0,0.004,0,0.006
				c0-0.001,0-0.003,0-0.005c0,0.002,0,0.004,0,0.005c0.003,0.053,0.005,0.106,0.007,0.158c0.002,0.058,0.004,0.116,0.006,0.173
				c0.002,0.053,0.005,0.104,0.009,0.156c0,0.036,0.004,0.078,0.006,0.126c0,0.002,0,0.005,0,0.007c0,0.008,0,0.015,0.002,0.021
				c0.002,0.058,0.004,0.115,0.008,0.172c0.004,0.043,0.008,0.086,0.01,0.129c0,0.012,0.002,0.024,0.002,0.037
				c0.004,0.051,0.006,0.102,0.01,0.152c0.005,0.054,0.009,0.107,0.015,0.17c0.002,0.049,0.007,0.098,0.011,0.146
				c0.005,0.058,0.011,0.116,0.015,0.175c0.004,0.046,0.008,0.093,0.013,0.14c0.006,0.054,0.011,0.106,0.019,0.168
				c0.005,0.048,0.009,0.096,0.013,0.145c0.008,0.058,0.014,0.115,0.022,0.173c0,0.001,0,0.002,0,0.002c0,0.001,0,0.001,0,0.001
				c0.004,0.043,0.008,0.087,0.012,0.129c0.009,0.058,0.015,0.116,0.021,0.181c0.008,0.042,0.012,0.084,0.018,0.127
				c0.008,0.059,0.017,0.116,0.023,0.184c0.007,0.039,0.014,0.077,0.018,0.115c0,0.002,0.002,0.004,0.002,0.006
				c0-0.001-0.002-0.003-0.002-0.006c0.01,0.063,0.019,0.122,0.027,0.182c0.005,0.035,0.011,0.063,0.018,0.112
				c0,0.008,0.002,0.018,0.004,0.026c0.01,0.061,0.021,0.123,0.03,0.184c0-0.002-0.002-0.005-0.002-0.008
				c0.004,0.031,0.008,0.053,0.017,0.094c0.01,0.063,0.021,0.124,0.032,0.186c0.004,0.033,0.011,0.06,0.019,0.104
				c0.014,0.072,0.024,0.142,0.039,0.213c0.006,0.025,0.008,0.042,0.015,0.073c0.015,0.071,0.027,0.142,0.043,0.213
				c0.004,0.023,0.008,0.042,0.017,0.071c0,0.004,0,0.009,0,0.013c0-0.004,0-0.009,0-0.013c0.014,0.077,0.032,0.154,0.049,0.23
				c0.002,0.016,0.006,0.03,0.01,0.049c0.02,0.079,0.035,0.157,0.055,0.235c0.004,0.015,0.006,0.025,0.01,0.042
				c0.021,0.084,0.041,0.167,0.067,0.272c0.021,0.089,0.045,0.176,0.068,0.268c0.099,0.372,0.214,0.726,0.33,1.078
				c0.067,0.201,0.137,0.401,0.21,0.597c0.088,0.237,0.18,0.468,0.277,0.697c0.077,0.187,0.157,0.373,0.242,0.554
				c0.104,0.223,0.213,0.438,0.323,0.651c0.093,0.17,0.181,0.342,0.273,0.506c0.12,0.208,0.247,0.408,0.375,0.606
				c0.086,0.131,0.169,0.263,0.257,0.389c0.069,0.1,0.144,0.194,0.212,0.29c0.086,0.115,0.172,0.229,0.259,0.34
				c0.098,0.12,0.188,0.243,0.286,0.358c0.069,0.082,0.144,0.158,0.216,0.238c0.101,0.114,0.204,0.225,0.311,0.333
				c0.058,0.059,0.112,0.119,0.168,0.176c0.063,0.061,0.122,0.123,0.183,0.182c0.047,0.045,0.1,0.087,0.146,0.13
				c0.139,0.128,0.281,0.25,0.424,0.371c0.045,0.036,0.085,0.075,0.128,0.11c0.069,0.055,0.135,0.113,0.206,0.167
				c0.024,0.021,0.056,0.039,0.082,0.059c0.22,0.167,0.444,0.326,0.677,0.476c0.051,0.033,0.103,0.068,0.152,0.101
				c0.019,0.012,0.037,0.025,0.056,0.037c0.201,0.125,0.411,0.238,0.621,0.35c0.031,0.017,0.063,0.034,0.092,0.05
				c0.106,0.055,0.21,0.114,0.318,0.166c0.247,0.12,0.504,0.225,0.763,0.327c0.109,0.043,0.219,0.091,0.328,0.132
				c0.304,0.108,0.611,0.2,0.926,0.284c0.063,0.017,0.124,0.039,0.187,0.054c0.1,0.025,0.203,0.04,0.304,0.063
				c0.281,0.063,0.564,0.124,0.854,0.167c0.152,0.023,0.311,0.035,0.465,0.052c0.255,0.029,0.512,0.058,0.774,0.072
				c0.171,0.01,0.349,0.01,0.523,0.013c0.251,0.005,0.506,0.007,0.763-0.001c0.187-0.006,0.373-0.019,0.562-0.033
				c0.255-0.017,0.512-0.04,0.771-0.071c0.193-0.023,0.389-0.049,0.583-0.08c0.264-0.04,0.528-0.088,0.795-0.142
				c0.198-0.039,0.397-0.081,0.599-0.127c0.272-0.064,0.551-0.139,0.827-0.216c0.195-0.056,0.392-0.109,0.592-0.171
				c0.004-0.001,0.006-0.001,0.01-0.002c0.29-0.091,0.583-0.195,0.877-0.301c0.169-0.06,0.334-0.117,0.504-0.182
				c0.051-0.02,0.104-0.041,0.154-0.061c0.3-0.118,0.604-0.249,0.907-0.383c0.12-0.052,0.237-0.1,0.355-0.154
				c0.097-0.044,0.192-0.089,0.288-0.135c0.39-0.183,0.778-0.377,1.17-0.585c0.065-0.034,0.129-0.068,0.189-0.103
				c0.266-0.143,0.527-0.275,0.795-0.43c3.282-1.895,6.406-4.484,9.241-7.532v-15.058c-2.274,4.213-5.552,7.942-9.208,10.078
				c-3.263,1.479-7.329,2.04-9.34,0.68l0.007-0.008c-1.822-1.231-3.021-3.49-3.271-6.616c-0.006-0.05-0.01-0.101-0.014-0.179
				c-0.002-0.044-0.006-0.089-0.011-0.186c0,0.017,0.003,0.034,0.003,0.051c0-0.003,0-0.008,0-0.012c0-0.004-0.003-0.01-0.003-0.015
				c0-0.008,0-0.016,0-0.024c-0.005-0.04-0.007-0.079-0.019-0.469c0-0.006-0.002-0.015-0.002-0.022c0-0.001,0-0.003,0-0.004
				c0-0.033,0-0.071-0.003-0.146c-0.002-0.06-0.002-0.119-0.002-0.178C338.055,191.431,344.158,181.757,350.42,177.18z
				 M338.123,197.548c0.208-3.313,1.329-6.86,3.063-10.128C339.458,190.687,338.339,194.233,338.123,197.548z"/>
			<path fill="#004466" d="M337.522,199.416L337.522,199.416c0,0.011,0,0.021,0,0.03c0-0.003,0-0.006,0-0.01
				C337.522,199.43,337.522,199.423,337.522,199.416c-0.004-0.009-0.004-0.019-0.004-0.029
				C337.519,199.397,337.519,199.407,337.522,199.416z"/>
			<path fill="#004466" d="M337.515,199.279c0-0.003,0-0.006,0-0.01c-0.002-0.018-0.002-0.035-0.002-0.053
				C337.513,199.236,337.513,199.257,337.515,199.279z"/>
		</g>
		<g>
			<path fill="#004466" d="M337.399,215.149c0.203,0.125,0.411,0.239,0.622,0.35c0.029,0.017,0.062,0.034,0.094,0.05
				c0.105,0.055,0.208,0.114,0.315,0.166c0.248,0.12,0.505,0.225,0.763,0.327c0.109,0.043,0.219,0.092,0.331,0.132
				c0.301,0.108,0.61,0.2,0.925,0.284c0.062,0.017,0.123,0.038,0.186,0.053c0.102,0.024,0.202,0.041,0.305,0.063
				c0.28,0.063,0.563,0.123,0.853,0.167c0.153,0.022,0.31,0.034,0.465,0.052c0.255,0.029,0.512,0.058,0.774,0.072
				c0.172,0.01,0.349,0.01,0.523,0.013c0.253,0.005,0.505,0.007,0.763-0.001c0.186-0.007,0.372-0.02,0.562-0.033
				c0.257-0.019,0.514-0.041,0.774-0.071c0.19-0.023,0.385-0.05,0.581-0.081c0.263-0.04,0.528-0.088,0.795-0.141
				c0.196-0.041,0.396-0.082,0.598-0.128c0.271-0.064,0.55-0.139,0.827-0.217c0.198-0.055,0.394-0.108,0.594-0.17
				c0.002,0,0.004-0.002,0.008-0.003c0.289-0.09,0.583-0.195,0.879-0.301c0.167-0.061,0.334-0.116,0.503-0.182
				c0.052-0.02,0.104-0.041,0.155-0.061c0.3-0.119,0.604-0.25,0.907-0.383c0.118-0.053,0.236-0.1,0.354-0.154
				c0.097-0.044,0.193-0.09,0.29-0.135c0.388-0.183,0.776-0.377,1.17-0.585c0.063-0.034,0.126-0.069,0.189-0.103l-0.035-12.482
				c-3.345,1.687-6.342,1.664-8.479,0.221l-7.646,13.242C337.363,215.125,337.381,215.138,337.399,215.149z"/>
			<path fill="#3E86A3" d="M332.425,209.075c0.079,0.187,0.158,0.372,0.242,0.553c0.104,0.223,0.214,0.438,0.326,0.651
				c0.09,0.171,0.178,0.341,0.272,0.506c0.118,0.208,0.246,0.408,0.373,0.606c0.086,0.131,0.169,0.263,0.257,0.39
				c0.069,0.099,0.144,0.193,0.215,0.29c0.084,0.115,0.171,0.229,0.259,0.34c0.094,0.12,0.186,0.243,0.283,0.358
				c0.07,0.082,0.146,0.158,0.217,0.237c0.102,0.114,0.203,0.226,0.312,0.334c0.056,0.059,0.11,0.119,0.167,0.176
				c0.063,0.061,0.12,0.124,0.183,0.183c0.047,0.045,0.098,0.086,0.146,0.13c0.14,0.127,0.279,0.25,0.425,0.37
				c0.042,0.036,0.083,0.075,0.128,0.11c0.067,0.055,0.136,0.113,0.204,0.167c0.026,0.021,0.056,0.039,0.081,0.06
				c0.222,0.167,0.446,0.326,0.678,0.475c0.054,0.033,0.103,0.069,0.152,0.101l7.646-13.242l0,0l0.007-0.008
				c-1.823-1.231-3.021-3.49-3.271-6.615c-0.004-0.051-0.008-0.102-0.012-0.18c-0.005-0.045-0.007-0.09-0.013-0.186
				c0,0.018,0.002,0.034,0.002,0.051c0-0.004,0-0.008,0-0.012c0-0.005-0.002-0.011-0.002-0.016c0-0.007,0-0.016,0-0.023
				c-0.002-0.04-0.004-0.08-0.02-0.47c0-0.007,0-0.016-0.002-0.023c0.002,0.008,0.002,0.016,0.002,0.023
				c0-0.009-0.002-0.018-0.002-0.026c0-0.033,0-0.07,0-0.146c-0.002-0.059-0.002-0.118-0.002-0.177
				c-0.021-7.316,5.816-16.794,12.079-21.371c0,0,1.203-0.899,3.005-1.473c5.363-1.801,9.479,1.068,9.961,7.21l10.855-6.268
				c-0.002-0.047-0.002-0.096-0.004-0.143c-0.024-0.529-0.065-1.045-0.118-1.55c-0.006-0.083-0.016-0.167-0.022-0.249
				c-0.021-0.163-0.047-0.317-0.066-0.477c-0.049-0.361-0.099-0.72-0.159-1.068c-0.01-0.048-0.018-0.097-0.026-0.145
				c-0.037-0.202-0.084-0.393-0.126-0.59c-0.066-0.321-0.137-0.64-0.219-0.949c-0.004-0.017-0.008-0.034-0.012-0.05
				c-0.059-0.212-0.123-0.417-0.185-0.622c-0.09-0.296-0.182-0.591-0.28-0.875c-0.076-0.208-0.157-0.409-0.236-0.611
				c-0.108-0.27-0.221-0.536-0.339-0.793c-0.09-0.194-0.185-0.382-0.279-0.569c-0.126-0.247-0.259-0.488-0.396-0.722
				c-0.103-0.176-0.208-0.349-0.318-0.518c-0.145-0.227-0.297-0.445-0.454-0.658c-0.114-0.157-0.229-0.312-0.349-0.461
				c-0.167-0.208-0.344-0.404-0.521-0.598c-0.123-0.135-0.245-0.271-0.371-0.398c-0.191-0.191-0.394-0.369-0.596-0.544
				c-0.126-0.11-0.251-0.225-0.381-0.329c-0.226-0.179-0.459-0.34-0.695-0.5c-0.12-0.082-0.235-0.171-0.36-0.248
				c-0.285-0.178-0.586-0.337-0.888-0.489c-0.073-0.037-0.145-0.082-0.218-0.117c-0.071-0.034-0.146-0.06-0.221-0.092
				c-0.317-0.143-0.641-0.279-0.975-0.394c-0.131-0.044-0.266-0.076-0.396-0.116c-0.294-0.089-0.59-0.177-0.895-0.244
				c-0.163-0.036-0.332-0.058-0.497-0.088c-0.282-0.05-0.563-0.1-0.855-0.132c-0.189-0.021-0.385-0.028-0.579-0.041
				c-0.813-0.054-1.651-0.053-2.521,0.037c-0.07,0.008-0.146,0.017-0.263,0.03c-0.068,0.009-0.137,0.017-0.264,0.034
				c-0.063,0.008-0.126,0.018-0.27,0.039c-0.06,0.009-0.115,0.018-0.268,0.042c-0.055,0.01-0.109,0.02-0.165,0.029
				c-0.034,0.006-0.069,0.012-0.104,0.019c-0.056,0.011-0.107,0.021-0.165,0.032c-0.032,0.006-0.066,0.013-0.103,0.02
				c-0.053,0.011-0.107,0.022-0.161,0.033c-0.036,0.008-0.075,0.016-0.114,0.024c-0.049,0.011-0.1,0.022-0.147,0.033
				c-0.043,0.009-0.081,0.019-0.122,0.028c-0.049,0.012-0.102,0.023-0.149,0.035c-0.042,0.009-0.083,0.02-0.124,0.03
				c-0.051,0.012-0.102,0.024-0.149,0.038c-0.039,0.01-0.082,0.021-0.123,0.031c-0.051,0.014-0.103,0.027-0.152,0.041
				c-0.043,0.011-0.084,0.022-0.125,0.034c-0.051,0.014-0.098,0.027-0.147,0.042c-0.043,0.012-0.086,0.024-0.128,0.037
				c-0.051,0.015-0.102,0.029-0.149,0.044c-0.043,0.013-0.088,0.026-0.13,0.04c-0.05,0.015-0.1,0.03-0.147,0.045
				c-0.045,0.014-0.09,0.029-0.135,0.043c-0.047,0.015-0.094,0.031-0.141,0.046c-0.049,0.016-0.099,0.032-0.146,0.048
				c-0.045,0.016-0.09,0.03-0.135,0.046c-0.049,0.017-0.096,0.033-0.143,0.05c-0.048,0.016-0.095,0.033-0.142,0.05
				c-0.049,0.017-0.096,0.034-0.145,0.052c-0.047,0.017-0.095,0.035-0.142,0.052s-0.094,0.035-0.139,0.052
				c-0.049,0.019-0.098,0.037-0.146,0.056c-0.047,0.019-0.094,0.038-0.144,0.056c-0.047,0.02-0.096,0.038-0.143,0.057
				c-0.048,0.019-0.097,0.039-0.146,0.059c-0.047,0.019-0.094,0.039-0.139,0.058c-0.054,0.021-0.104,0.043-0.152,0.064
				c-0.047,0.02-0.092,0.039-0.139,0.059c-0.049,0.021-0.1,0.043-0.147,0.065c-0.049,0.021-0.094,0.041-0.143,0.062
				c-0.049,0.023-0.104,0.047-0.154,0.07c-0.043,0.021-0.09,0.041-0.133,0.062c-0.053,0.024-0.104,0.047-0.155,0.072
				c-0.047,0.022-0.092,0.043-0.139,0.065c-0.053,0.025-0.104,0.05-0.156,0.075c-0.045,0.022-0.09,0.044-0.135,0.066
				c-0.051,0.025-0.104,0.05-0.155,0.076c-0.047,0.023-0.092,0.046-0.141,0.07c-0.054,0.027-0.108,0.056-0.161,0.083
				c-0.045,0.022-0.088,0.044-0.13,0.067c-0.063,0.032-0.127,0.065-0.188,0.099c-0.034,0.019-0.07,0.037-0.104,0.056
				c-0.067,0.035-0.134,0.071-0.298,0.161c-0.065,0.036-0.131,0.073-0.301,0.166c-0.098,0.056-0.196,0.112-0.298,0.169
				c-0.098,0.058-0.197,0.115-0.295,0.173c-0.049,0.029-0.098,0.059-0.146,0.088c-0.052,0.031-0.101,0.06-0.15,0.09
				c-0.047,0.029-0.094,0.058-0.143,0.087c-0.052,0.031-0.103,0.063-0.153,0.095c-0.047,0.028-0.092,0.057-0.139,0.086
				c-0.054,0.033-0.105,0.066-0.156,0.1c-0.045,0.028-0.09,0.057-0.135,0.085c-0.057,0.035-0.106,0.068-0.161,0.103
				c-0.048,0.031-0.095,0.062-0.142,0.093c-0.051,0.034-0.103,0.066-0.15,0.101c-0.05,0.03-0.097,0.063-0.144,0.094
				c-0.051,0.034-0.1,0.066-0.147,0.101c-0.052,0.034-0.104,0.069-0.151,0.103c-0.047,0.032-0.096,0.065-0.143,0.097
				c-0.048,0.034-0.097,0.067-0.146,0.102c-0.049,0.034-0.096,0.066-0.143,0.101c-0.054,0.037-0.104,0.074-0.157,0.111
				c-0.043,0.031-0.088,0.063-0.13,0.094c-0.055,0.039-0.106,0.077-0.159,0.116c-0.043,0.03-0.086,0.063-0.129,0.093
				c-0.055,0.041-0.107,0.081-0.163,0.122c-0.041,0.03-0.081,0.061-0.122,0.09c-0.055,0.042-0.11,0.083-0.165,0.126
				c-0.039,0.029-0.077,0.06-0.118,0.088c-0.058,0.044-0.112,0.088-0.172,0.133c-0.036,0.029-0.075,0.059-0.111,0.087
				c-0.058,0.044-0.111,0.088-0.17,0.133c-0.036,0.029-0.072,0.059-0.11,0.089c-0.061,0.047-0.116,0.093-0.177,0.14
				c-0.033,0.028-0.068,0.056-0.104,0.083c-0.06,0.048-0.119,0.097-0.277,0.227c-0.063,0.051-0.123,0.102-0.276,0.23
				c-0.063,0.052-0.125,0.104-0.277,0.233c-0.045,0.04-0.094,0.081-0.141,0.122c-0.035,0.032-0.073,0.063-0.129,0.111
				c-0.067,0.059-0.136,0.118-0.27,0.236c-0.071,0.062-0.141,0.126-0.268,0.238c-0.073,0.067-0.146,0.132-0.266,0.242
				c-0.077,0.07-0.152,0.14-0.266,0.243c-0.063,0.059-0.126,0.118-0.189,0.177c-0.023,0.024-0.047,0.044-0.077,0.073
				c-0.788,0.744-1.55,1.537-2.302,2.35c0.485-0.524,0.979-1.032,1.48-1.53c-0.502,0.498-0.995,1.006-1.48,1.53l0,0
				c-0.188,0.205-0.375,0.41-0.561,0.617l0,0c-0.257,0.288-0.513,0.579-0.764,0.874c-0.481,0.567-0.955,1.146-1.419,1.737
				c-0.128,0.167-0.255,0.335-0.383,0.503v-0.001c0,0.001-0.002,0.002-0.002,0.003c0,0,0-0.002,0.002-0.002
				c-0.084,0.11-0.167,0.222-0.253,0.333c-0.375,0.503-0.748,1.012-1.109,1.53c-0.204,0.292-0.404,0.586-0.604,0.883
				c-0.338,0.506-0.668,1.019-0.992,1.537c-0.184,0.295-0.371,0.589-0.553,0.888c-0.371,0.62-0.729,1.249-1.076,1.883
				c-0.043,0.077-0.088,0.153-0.131,0.231h0.002c-0.107,0.196-0.214,0.393-0.317,0.591c-0.388,0.73-0.761,1.468-1.11,2.212
				c-0.14,0.29-0.266,0.584-0.397,0.876c-0.257,0.567-0.508,1.136-0.744,1.708c-0.133,0.319-0.259,0.638-0.384,0.957
				c-0.228,0.583-0.441,1.168-0.646,1.754c-0.104,0.284-0.204,0.567-0.299,0.851c-0.259,0.781-0.494,1.563-0.712,2.345
				c-0.347,1.261-0.644,2.522-0.874,3.776c-0.021,0.113-0.043,0.227-0.064,0.361c-0.02,0.109-0.037,0.218-0.063,0.369
				c-0.012,0.084-0.025,0.169-0.041,0.253c-0.006,0.036-0.01,0.066-0.016,0.109c-0.017,0.099-0.031,0.196-0.058,0.371
				c-0.013,0.093-0.024,0.184-0.05,0.358c-0.012,0.09-0.023,0.179-0.049,0.366c-0.01,0.086-0.021,0.171-0.041,0.349
				c-0.012,0.087-0.021,0.173-0.04,0.363c-0.011,0.082-0.019,0.163-0.039,0.361c-0.006,0.079-0.015,0.157-0.021,0.235
				c-0.002,0.043-0.006,0.086-0.01,0.128c-0.008,0.074-0.014,0.147-0.02,0.221c-0.004,0.045-0.007,0.09-0.011,0.135
				c-0.006,0.072-0.012,0.143-0.017,0.214c-0.005,0.047-0.007,0.096-0.011,0.143c-0.004,0.069-0.008,0.139-0.012,0.208
				c-0.005,0.043-0.007,0.086-0.009,0.13c-0.004,0.073-0.008,0.146-0.013,0.219c-0.002,0.047-0.004,0.097-0.006,0.146
				c-0.005,0.066-0.007,0.132-0.009,0.199c-0.004,0.065-0.006,0.129-0.008,0.194c-0.002,0.051-0.004,0.101-0.004,0.152
				c-0.005,0.07-0.005,0.141-0.007,0.21c0,0.045-0.002,0.092-0.002,0.137c-0.003,0.071-0.003,0.141-0.005,0.211
				c0,0.045-0.002,0.089-0.002,0.135c0,0.114,0,0.229,0,0.343c0,0.113,0,0.224,0.002,0.336c0.003,0.056,0.003,0.111,0.005,0.167
				c0.002,0.057,0.002,0.112,0.002,0.168c0.002,0.055,0.005,0.11,0.007,0.165c0,0.001,0,0.003,0,0.005c0-0.002,0-0.003,0-0.005
				c0,0.001,0,0.003,0,0.005c0.002,0.053,0.002,0.105,0.004,0.159c0.002,0.058,0.006,0.115,0.008,0.173
				c0.002,0.052,0.002,0.104,0.006,0.155c0.003,0.037,0.005,0.079,0.007,0.127c0,0.002,0,0.004,0,0.007
				c0,0.007,0.002,0.015,0.002,0.021c0.003,0.057,0.007,0.115,0.011,0.172c0,0.043,0.004,0.086,0.006,0.129
				c0.003,0.012,0.003,0.024,0.005,0.038c0.002,0.051,0.006,0.101,0.01,0.152c0.002,0.053,0.006,0.107,0.014,0.169
				c0.004,0.049,0.006,0.099,0.01,0.147c0.004,0.058,0.01,0.117,0.017,0.175c0.004,0.046,0.006,0.094,0.012,0.14
				c0.005,0.054,0.012,0.106,0.018,0.168c0.004,0.048,0.01,0.097,0.015,0.145c0.006,0.058,0.013,0.115,0.021,0.173
				c0,0,0,0.001,0,0.002v0.001c0.005,0.042,0.009,0.085,0.015,0.128c0.006,0.059,0.015,0.116,0.022,0.18
				c0.004,0.042,0.01,0.085,0.015,0.127c0.008,0.058,0.018,0.116,0.026,0.183c0.006,0.039,0.01,0.078,0.016,0.116
				c0,0.001,0,0.003,0,0.005c0-0.002,0-0.003,0-0.005c0.009,0.061,0.019,0.121,0.027,0.181c0.006,0.035,0.01,0.063,0.018,0.112
				c0,0.008,0,0.019,0.003,0.026c0.01,0.062,0.021,0.123,0.03,0.184c0-0.002,0-0.005-0.002-0.008c0.006,0.03,0.01,0.053,0.016,0.093
				c0.011,0.063,0.021,0.124,0.033,0.186c0.006,0.033,0.01,0.06,0.019,0.105c0.013,0.071,0.026,0.142,0.04,0.213
				c0.006,0.025,0.01,0.042,0.014,0.073c0.014,0.071,0.027,0.142,0.045,0.213c0.004,0.023,0.008,0.042,0.014,0.07
				c0,0.004,0.002,0.009,0.002,0.013c0-0.004-0.002-0.009-0.002-0.013c0.018,0.077,0.033,0.155,0.052,0.232
				c-0.002-0.006-0.005-0.013-0.007-0.019c-0.002-0.014-0.006-0.029-0.01-0.043c0.008,0.034,0.017,0.066,0.024,0.11
				c0.019,0.079,0.036,0.157,0.055,0.234c0.002,0.015,0.007,0.026,0.009,0.042c0.021,0.085,0.04,0.168,0.067,0.272
				c0.021,0.088,0.044,0.176,0.068,0.268c0.101,0.372,0.217,0.725,0.332,1.078c0.067,0.203,0.136,0.401,0.208,0.597
				C332.235,208.615,332.33,208.847,332.425,209.075z M341.693,194.73L341.693,194.73c0.002,0.011,0.002,0.021,0.002,0.031
				c0-0.003,0-0.007,0-0.01C341.695,194.745,341.695,194.738,341.693,194.73c0-0.008,0-0.018,0-0.027
				C341.693,194.713,341.693,194.722,341.693,194.73z M341.689,194.593c0-0.003-0.004-0.006-0.004-0.009c0-0.018,0-0.035,0-0.053
				C341.686,194.551,341.686,194.573,341.689,194.593z M348.098,164.349c-0.572,0.507-1.138,1.036-1.689,1.582
				C346.96,165.385,347.525,164.856,348.098,164.349z M344.786,182.734c-1.729,3.267-2.845,6.813-3.063,10.128
				C341.931,189.549,343.052,186.002,344.786,182.734z"/>
			<path fill="#FF8263" d="M377.579,172.161l-10.855,6.268c0.028,0.371,0.043,0.754,0.045,1.147
				c0.022,7.946-5.586,17.661-12.507,21.657c-0.268,0.154-0.531,0.296-0.794,0.43l0.035,12.468c0.263-0.142,0.526-0.275,0.793-0.429
				c12.902-7.449,23.365-25.572,23.324-40.391C377.618,172.917,377.595,172.542,377.579,172.161z"/>
		</g>
	</g>
</g>
<g>
	<g>
		<g>
			<path fill="#FFFFFF" d="M195.694,324.873c3.272-1.89,6.309-1.136,7.278,2.106c1.162,3.935-1.093,10.09-5.08,13.726
				c-0.709,0.647-1.425,1.175-2.129,1.58c-3.318,1.914-6.355,1.157-7.314-2.077c-1.171-3.916,1.122-10.107,5.188-13.813
				C194.322,325.774,195.012,325.267,195.694,324.873z"/>
		</g>
		<g>
			<g>
				<path fill="#0E3C51" d="M207.828,325.338c0.132,1.087,0.075,2.226-0.079,3.443l3.701,0.461
					c-0.245,1.247-0.568,2.526-0.972,3.786l-4.271,1.724c-0.57,1.244-1.144,2.485-1.814,3.638l1.727,3.631
					c-0.79,1.207-1.58,2.234-2.51,3.408l-3.11-1.703c-0.425,0.449-0.87,0.865-1.325,1.277c-0.484,0.439-0.999,0.896-1.465,1.256
					l-0.976,5.432c-0.221,0.125-0.441,0.254-0.66,0.381c-0.77,0.443-1.536,0.873-2.291,1.187l-0.747-4.526
					c-0.961,0.326-1.883,0.461-2.696,0.475l-3.308,5.168c-0.845-0.116-1.668-0.348-2.393-0.727l1.938-5.588
					c-0.586-0.537-1.144-1.117-1.622-1.89l-4.326,2.94c-0.159-0.465-0.331-0.891-0.471-1.356c-0.13-0.474-0.24-0.944-0.37-1.428
					l3.855-4.527c-0.072-1.121-0.026-2.265,0.061-3.419l-3.741-0.428c0.245-1.248,0.607-2.551,1.04-3.84l4.32-1.764
					c0.473-1.174,1.055-2.408,1.765-3.605l-1.696-3.659c0.74-1.146,1.591-2.24,2.431-3.317l3.1,1.696
					c0.435-0.444,0.939-0.917,1.434-1.362c0.445-0.416,0.9-0.815,1.356-1.182l0.975-5.408c0.4-0.246,0.779-0.476,1.149-0.689
					c0.639-0.37,1.252-0.689,1.892-0.975l0.718,4.555c0.923-0.291,1.834-0.406,2.747-0.5l3.248-5.137
					c0.824,0.15,1.607,0.416,2.333,0.783l-1.898,5.553c0.655,0.479,1.223,1.062,1.651,1.861l4.316-2.926
					c0.208,0.416,0.379,0.843,0.52,1.308c0.141,0.468,0.241,0.956,0.32,1.49L207.828,325.338z M197.892,340.705
					c3.987-3.636,6.242-9.791,5.08-13.726c-0.97-3.242-4.006-3.996-7.278-2.106c-0.682,0.394-1.372,0.901-2.057,1.522
					c-4.066,3.705-6.359,9.896-5.188,13.813c0.959,3.234,3.996,3.991,7.314,2.077C196.467,341.88,197.183,341.354,197.892,340.705"
					/>
			</g>
		</g>
		<g>
			<path fill="#FFFFFF" d="M174.282,321.353l42.768-24.691l0.14,49.134l-42.769,24.69L174.282,321.353z M207.749,328.781
				c0.154-1.22,0.211-2.356,0.079-3.443l3.854-4.505c-0.079-0.534-0.18-1.023-0.32-1.49c-0.141-0.465-0.312-0.892-0.52-1.308
				l-4.316,2.926c-0.429-0.801-0.996-1.384-1.651-1.86l1.898-5.554c-0.726-0.366-1.509-0.633-2.333-0.782l-3.248,5.135
				c-0.913,0.095-1.824,0.211-2.747,0.502l-0.718-4.555c-0.64,0.283-1.253,0.604-1.892,0.975c-0.37,0.214-0.749,0.441-1.149,0.688
				l-0.975,5.408c-0.456,0.365-0.911,0.765-1.356,1.181c-0.494,0.446-0.999,0.92-1.434,1.363l-3.1-1.697
				c-0.84,1.078-1.69,2.174-2.431,3.318l1.696,3.659c-0.71,1.196-1.292,2.433-1.765,3.606l-4.32,1.764
				c-0.433,1.287-0.795,2.591-1.04,3.839l3.741,0.428c-0.087,1.154-0.133,2.298-0.061,3.419l-3.855,4.527
				c0.13,0.482,0.24,0.953,0.37,1.428c0.14,0.467,0.312,0.893,0.471,1.357l4.326-2.941c0.479,0.771,1.036,1.352,1.622,1.891
				l-1.938,5.588c0.725,0.379,1.548,0.608,2.393,0.726l3.308-5.168c0.813-0.015,1.735-0.147,2.696-0.476l0.747,4.527
				c0.755-0.313,1.521-0.742,2.291-1.188c0.219-0.125,0.439-0.254,0.66-0.381l0.976-5.431c0.466-0.358,0.98-0.815,1.465-1.256
				c0.455-0.412,0.9-0.828,1.325-1.278l3.11,1.705c0.93-1.175,1.72-2.203,2.51-3.408l-1.727-3.631
				c0.671-1.152,1.244-2.395,1.814-3.639l4.271-1.723c0.403-1.26,0.727-2.541,0.972-3.787L207.749,328.781"/>
		</g>
	</g>
	<g>
		<path opacity="0.2" fill="#004466" enable-background="new    " d="M154.796,470.67c3.859-0.12,28.586,4.434,25.24,11.604
			c-3.177,6.809-16.362,3.563-21.457,2.563c-4.196-0.823-14.603-1.282-16.406-5.479C139.945,474.175,149.5,471.606,154.796,470.67z"
			/>
		<polygon fill="#AD745F" points="174.282,325.083 169.258,325.476 167.679,322.312 173.295,318.354 		"/>
		<polygon fill="#F74B4B" points="167.926,321.915 169.258,325.476 159.168,338.067 136.725,335.519 152.4,333.698 		"/>
		<path fill="#002D3D" d="M168.817,476.786c0,0,3.095-0.008,7.424,0c2.954,0.006,5.038,3.393,2.505,5.58l-15.941,4.752
			c0,0-4.792,1.297-6.354-2.51l0.382-5.665L168.817,476.786z"/>
		<path fill="#002D3D" d="M151.194,468.313c0,0,4.196-0.004,8.322,0.005c2.815,0.007,5.001,4.266,2.389,5.316l-15.196,4.531
			c0,0-5.337,1.492-6.825-2.134l0.353-5.52L151.194,468.313z"/>
		<path fill="#004466" d="M139.924,380.569c3.204,1.838,27.48,5.738,29.568,3.195l-1.693,93.204
			c-0.065,1.378-0.625,3.139-3.243,3.839c-4.363,1.168-7.802-0.7-7.802-0.7l-0.304-33.619l-3.915-29.849l-0.561,22.966
			l-1.188,29.748c-0.096,1.819-1.992,2.818-3.793,3.097c-4.891,0.754-7.093-1.604-7.093-1.604l0.253-33.181
			c0,0-0.438-11.16-1.182-20.688c-0.618-7.92-1.082-17.394-0.739-22.118C138.514,390.979,139.924,380.569,139.924,380.569z"/>
		<path opacity="0.2" fill="#004466" enable-background="new    " d="M147.09,418.862c-0.659-2.257-2.695-11.693-3.67-14.36
			c3.623,1.649,4.466,2.021,8.059,2.824c0.081,1.253,0.834,7.534,1.085,8.754l-0.589,23.525l-1.188,29.747
			c-0.096,1.82-1.992,2.819-3.793,3.098c-2.513,0.387-4.311-0.047-5.47-0.562C143.325,454.284,152.051,435.856,147.09,418.862z"/>
		<path opacity="0.2" fill="#004466" enable-background="new    " d="M163.007,419.639c0.566-9.021,2.326-17.893,1.896-26.965
			c-0.037-0.76-0.275-1.384-0.626-1.894c0.009-2.063-0.004-4.127-0.05-6.189c2.728,0.053,4.73-0.173,5.266-0.824L167.8,476.97
			c-0.065,1.378-0.626,3.139-3.243,3.839c-0.909,0.242-1.772,0.352-2.577,0.373c0.723-11.498,0.456-23.156,0.652-34.504
			C162.786,437.691,162.446,428.607,163.007,419.639z"/>
		<path fill="#F74B4B" d="M133.93,340.259c1.03-5.601,7.19-7.023,7.19-7.023s7.9-2.451,14.06-0.385
			c8.471,2.844,12.704,7.475,12.704,7.475l3.043,19.334l-1.672,28.974c0,0-0.926,3.412-7.642,3.431
			c-7.808,0.022-22.741-6.545-22.741-6.545s0.474-4.131,0.235-8.666C138.87,372.313,132.977,345.442,133.93,340.259z"/>
		<path opacity="0.2" fill="#004466" enable-background="new    " d="M164.482,341.914c0.916-0.744,1.862-1.46,2.808-2.175
			c0.389,0.361,0.595,0.585,0.595,0.585l0.781,4.956C167.322,344.094,165.922,342.976,164.482,341.914z"/>
		<path opacity="0.06" fill="#004466" enable-background="new    " d="M158.758,350.128c3.756,2.818,7.125,6.18,10.093,9.836
			c0.607,0.748,1.28,1.223,1.974,1.477l-1.569,27.191c0,0-0.926,3.412-7.642,3.432c-1.228,0.004-2.63-0.158-4.124-0.426
			c1.587-6.83,0.508-14.158,0.427-21.102C157.846,364.58,156.562,356.235,158.758,350.128z"/>
		<path fill="#AD745F" d="M158.188,323.78l-0.639,10.148c0,3.045-10.383,1.911-10.383-1.135l0.812-9.016h10.21V323.78z"/>
		<path fill="#FFFFFF" d="M147.167,330.649c0.939,3.088,7.356,3.656,10.773,2.377l1.229,1.285
			c-2.101,2.984-9.255,3.459-12.373,0.104c-0.724-0.781-0.833-1.953-0.396-2.924L147.167,330.649z"/>
		<path fill="#AD745F" d="M160.816,323.515c0.287,4.687-2.833,6.928-7.276,7.201c0,0-8.386-2.053-8.669-6.658l-1.45-8.471
			l16.672-3.875L160.816,323.515z"/>
		<path fill="#412928" d="M155.866,306.146c3.755,1.375,9.749,4.729,4.434,8.938c0,0-2.24,0.701-2.021,4.291
			c0.218,3.588-3.344,7.414-6.021,9.802c-1.945,1.737-5.619-0.728-5.619-0.728s-5.808-5.833-3.739-16.517
			C144.162,305.427,153.223,305.179,155.866,306.146z"/>
		<path fill="#AD745F" d="M158.798,319.522l0.239,3.902c-1.588,0.848-3.061-1.295-2.931-3.328
			C156.285,317.334,158.798,319.522,158.798,319.522z"/>
		<path fill="#F74B4B" d="M177.634,374.469l-1.394-1.298l-17.482-23.043c0,0,1.009-6.521,6.978-10.389
			c2.852-1.848,4.29,6.26,8.546,13.068c4.329,6.926,9.456,12.276,9.456,12.276C183.146,365.681,179.847,372.435,177.634,374.469z"/>
		<path fill="#F74B4B" d="M200.379,354.246l0.979,4.94c0,0-10.931,12.916-23.725,15.281l3.887-12.168
			C181.521,362.301,182.636,362.888,200.379,354.246z"/>
		<polygon fill="#AD745F" points="201.359,359.188 209.204,354.246 212.164,348.672 207.344,350.849 200.379,354.246 		"/>
		<path fill="#AD745F" d="M206.271,351.467l2.933-3.401c0,0-0.696-1.299-2.933,0.742c-1.632,1.489-2.578,1.604-3.745,2.659
			s-2.335,2.22-1.751,3.953C201.359,357.159,206.271,351.467,206.271,351.467z"/>
		<path fill="#AD745F" d="M180.643,317.353l-3.162,0.494l-4.186,0.508l-1.954,4.983l2.94,1.745l4.977-1.25
			c0,0-0.338-1.292-2.198-1.107l-2.387-0.08l0.064-1.614l3.71-2.112L180.643,317.353z"/>
	</g>
</g>
<g>
	<path opacity="0.2" fill="#004466" enable-background="new    " d="M397.617,384.897c-6.18-2.942-15.852,3.649-21.985,5.808
		c-6.444,2.269-13.787,2.002-18.215,7.465c-11.84,14.609,20.272,14.803,27.379,13.73c7.241-1.094,35.017-5.396,33.352-18.398
		C417.22,386.281,402.052,383.993,397.617,384.897z"/>
	<path fill="#002D3D" d="M379.663,400.69c0,0-3.093,0.308-7.417,0.76c-2.952,0.308-4.688,3.903-1.934,5.829l16.415,3.115
		c0,0,4.922,0.805,6.093-3.156l-0.963-5.623L379.663,400.69z"/>
	<path fill="#002D3D" d="M405.203,292.517l-1.988,10.604c0,0,13.278-1.921,12.752-6.604c-2.175-19.397-9.577-35.381-9.577-35.381
		L405.203,292.517z"/>
	<path opacity="0.2" fill="#1D1D1B" enable-background="new    " d="M405.706,279.25l-0.501,13.267l-1.99,10.602
		c0,0,7.932-1.152,11.284-3.84C412.671,292.233,409.571,285.49,405.706,279.25z"/>
	<path fill="#002D3D" d="M403.164,389.735c0,0-3.659-0.102-7.258-0.188c-2.456-0.061-4.476,4.167-2.225,5.282l13.136,4.9
		c0,0,5.629,1.286,7.022-2.321l-1.497-7.727L403.164,389.735z"/>
	<path fill="#004466" d="M406.326,304.99c-3.011,2.163-24.957,12.034-27.307,9.708l-2.149,50.715l3.828,35.354
		c0.206,1.37,0.945,3.072,3.633,3.505c4.48,0.72,7.725-1.5,7.725-1.5l-2.09-37.771l5.561-22.393L398.081,362l3.296,28.679
		c0.283,1.809,2.279,2.61,4.108,2.704c4.964,0.253,6.921-2.327,6.921-2.327l-2.716-32.207c0,0-0.348-7.695-0.579-17.289
		c-0.193-7.979,1.194-17.781,0.368-22.471C408.802,315.247,406.326,304.99,406.326,304.99z"/>
	<path opacity="0.2" fill="#1D1D1B" enable-background="new    " d="M402.344,372.188c-1.026-10.797-4.699-22.088-1.805-32.656
		c-2.362,1.365-3.834,1.49-5.015,3.078l2.555,19.392l3.296,28.679c0.283,1.81,2.279,2.61,4.108,2.704
		c0.765,0.038,1.431-0.009,2.055-0.086C404.142,387.345,403.051,379.614,402.344,372.188z"/>
	<path opacity="0.2" fill="#1D1D1B" enable-background="new    " d="M382.21,403.438c2.487-17.374-1.352-34.079-0.212-51.604
		c0.917-14.139,10.64-22.141,22.235-28.652c1.884-1.059,3.792-1.188,5.502-0.738c-0.019-1.279-0.093-2.42-0.258-3.352
		c-0.677-3.843-3.152-14.1-3.152-14.1c-3.011,2.162-24.957,12.033-27.307,9.708l-2.149,50.715l3.828,35.354
		C380.833,401.669,381.213,402.704,382.21,403.438z"/>
	<path fill="#0E3C51" d="M407.251,263.217c-1.601-5.49-5.906-5.671-5.906-5.671s-8.159-1.673-14.087,1.053
		c-12.583,5.786-12.181,7.593-15.356,10.397c-3.685,3.252,2.531,17.334,3.588,23.076c1.569,8.542,0.422,34.737,0.422,34.737
		s3.688,4.008,10.435,4.014c15.022,0.006,24.91-7.467,24.91-7.467s-3.22-17.881-3.445-22.438
		C407.583,296.362,408.733,268.3,407.251,263.217z"/>
	<path opacity="0.2" fill="#1D1D1B" enable-background="new    " d="M382.323,307.375c-1.368-13.772-4.226-25.629-9.573-38.376
		c-0.088-0.21-0.123-0.409-0.189-0.617c-0.205,0.201-0.421,0.405-0.658,0.615c-3.685,3.252,2.531,17.334,3.588,23.076
		c1.569,8.541,0.422,34.738,0.422,34.738s3.688,4.008,10.435,4.013c1.016,0,2-0.041,2.969-0.103
		C383.293,324.787,383.11,315.306,382.323,307.375z"/>
	<g>
		<path fill="#F8C4B8" d="M383.76,250.817l2.833,9.527c-0.012,3.058,8.877,1.372,8.888-1.686l-0.778-9.057L383.76,250.817z"/>
		<path fill="#FFFFFF" d="M385.301,257.419l-0.125,3.194c-0.012,3.059,11.005,0.684,11.017-2.375l-0.94-2.248
			C391.943,257.278,388.917,257.835,385.301,257.419z"/>
		<path fill="#00272E" d="M395.576,255.843c-0.954,3.098-7.251,3.59-10.679,2.292l-2.05,2.564c2.102,3.007,9.855,2.946,12.999-0.412
			c0.731-0.781,0.847-1.958,0.409-2.935L395.576,255.843z"/>
		<path fill="#F8C4B8" d="M381.809,249.286c-0.308,4.706,2.819,6.969,7.279,7.26c0,0,8.431-2.029,8.734-6.653l1.484-8.501
			l-16.729-3.957L381.809,249.286z"/>
		<path fill="#45393F" d="M386.844,231.859c-3.774,1.367-9.808,4.714-4.486,8.96c0,0,2.249,0.714,2.015,4.317
			c-0.232,3.604,3.331,7.459,6.01,9.868c1.949,1.751,5.647-0.708,5.647-0.708s5.854-5.836,3.814-16.575
			C398.603,231.182,389.504,230.897,386.844,231.859z"/>
		<path fill="#F8C4B8" d="M383.849,245.286l-0.254,3.918c1.593,0.858,3.078-1.289,2.955-3.334
			C386.383,243.096,383.849,245.286,383.849,245.286z"/>
	</g>
	<g>
		<path fill="#F8C4B8" d="M340.109,274.054l-6.371-2.603l-11.421-3.828c0,0-0.835,0.776,0.498,2.019l4.628,1.918
			c0,0-0.976,2.448-0.337,4.957l2.576,2.68c0,0,0.564-0.199,0.813-1.117c0,0,4.163,1.32,5.206,0.502l4.977,1.286L340.109,274.054z"
			/>
		<path fill="#0E3C51" d="M374.484,266.843c-1.502,1.057-5.055,4.666-13.892,11.038c-1.389,0.999-3.246,1.017-4.885,0.519
			l-16.201-4.957c0,0-2.83,1.478-2.956,4.295c-0.12,2.621,0.377,3.051,0.377,3.051l18.505,9.561c1.55,0.801,3.34,0.951,4.999,0.411
			c5.526-1.796,17.596-7.044,21.791-8.776c6.317-2.612,5.681-14.521-0.716-16.545C380.002,264.962,377.423,264.781,374.484,266.843z
			"/>
		<path opacity="0.2" fill="#1D1D1B" enable-background="new    " d="M358.183,284.521c-2.341-0.025-14.64-5.354-19.945-7.463
			c-0.509-0.201-0.958-0.442-1.363-0.705c-0.17,0.422-0.302,0.873-0.322,1.385c-0.118,2.621,0.377,3.051,0.377,3.051l18.505,9.561
			c1.55,0.801,3.34,0.951,4.999,0.411c5.526-1.796,17.596-7.044,21.791-8.776c0.174-0.07,0.321-0.178,0.486-0.262
			C380.619,282.269,368.588,284.631,358.183,284.521z"/>
	</g>
</g>
<g>
	<path opacity="0.2" fill="#004466" enable-background="new    " d="M442.03,299.638c-7.212-3.49-31.839,6.01-30.979,16.867
		c1.203,15.148,30.312,15.03,40.495,12.038c7.539-2.219,21.247-3.749,17.826-13.44C465.787,304.949,450.346,299.759,442.03,299.638z
		"/>
	<g>
		<g>
			<g>
				<path fill="#002D3D" d="M432.5,301.181c-0.789,3.359-6.141,7.532-8.024,8.981c-1.881,1.448-2.314,2.103-2.314,2.103
					c-0.073,0.725,0.506,1.086,0.506,1.086c0.45,0.459,3.555,1.186,5.512,0.389c1.955-0.797,3.887-2.905,6.665-3.477
					c2.853-0.588,3.549-1.449,3.549-1.449c0.725-2.957-0.569-7.348-0.569-7.348L432.5,301.181z"/>
				<path fill="#F8C4B8" d="M426.614,310.112c0.354-0.006,0.708,0.005,1.061-0.012c0.285-0.013,0.568-0.043,0.853-0.063
					c0.725-0.114,1.449-0.227,2.156-0.396c0.45-0.104,0.897-0.226,1.345-0.348c1.039-0.62,3.054-1.333,3.714-1.654
					c0.948-0.464,1.901-0.923,2.859-1.375c-0.083-2.431-0.779-4.799-0.779-4.799l-5.321-0.285c-0.693,2.953-4.909,6.533-7.198,8.342
					C425.744,309.706,426.182,309.903,426.614,310.112z"/>
				<path fill="#002D3D" d="M433.493,309.543c-1.68,0.827-3.085,2.104-4.815,2.856c-2.169,0.942-4.514,1.15-6.396-0.291
					c-0.085,0.101-0.122,0.154-0.122,0.154c-0.073,0.725,0.506,1.088,0.506,1.088c0.45,0.459,3.555,1.185,5.512,0.387
					c1.955-0.797,3.887-2.904,6.665-3.477c2.853-0.587,3.549-1.449,3.549-1.449c0.108-0.443,0.167-0.92,0.198-1.408
					c-0.045,0.037-0.082,0.078-0.131,0.113C436.944,308.615,435.152,308.724,433.493,309.543z"/>
				<path fill="#002D3D" d="M450.388,311.101l-5.251,8.111c-2.381,1.7-3.071,3.196-2.296,4.25c0.683,0.922,5.427,0.914,6.885,0
					c1.43-0.895,7.355-6.145,7.188-7.504c-0.172-1.359-0.806-5.035-0.806-5.035L450.388,311.101z"/>
				<path fill="#F8C4B8" d="M447.994,319.442c0.852,0.051,1.704,0.104,2.554,0.143c1.034-0.785,2.125-1.494,3.271-2.107
					c0.908-1.271,1.815-2.543,2.752-3.793c-0.226-1.381-0.463-2.762-0.463-2.762l-5.72,0.178l-5.049,7.797
					c0.173,0.041,0.344,0.09,0.519,0.129C446.566,319.183,447.28,319.31,447.994,319.442z"/>
				<path fill="#002D3D" d="M451.412,320.918c-2.385,2.006-5.768,3.228-8.813,2.013c0.05,0.187,0.12,0.366,0.242,0.531
					c0.683,0.922,5.427,0.914,6.885,0c1.43-0.895,7.355-6.145,7.188-7.504c-0.031-0.24-0.078-0.559-0.129-0.911
					C455.719,317.324,453.365,319.274,451.412,320.918z"/>
				<path fill="#F8C4B8" d="M457.379,225.869l-23.489,0.856l9.659,17.42c0,0,3.816,28.405,4.652,31.184
					c0.835,2.777,2.187,35.771,2.187,35.771s1.425,0.836,3.104,0.836c1.266,0.002,2.597-0.791,2.597-0.791s1.025-12.33,2.11-21.448
					c1.016-8.546-0.819-15.675-0.819-15.675l1.704-31.273c0,0,0.899-5.112,0.911-7.306
					C460.056,225.577,457.379,225.869,457.379,225.869z"/>
				<path opacity="0.1" fill="#004466" enable-background="new    " d="M457.379,225.869l-23.489,0.856l9.659,17.42
					c0,0,3.816,28.405,4.652,31.184c0.835,2.777,2.187,35.771,2.187,35.771s0.436,0.248,1.099,0.478
					c-0.357-2.83-1.823-20.111-0.59-33.435c-0.911-5.602-1.691-11.027,3.271-15.785c0.587-0.562,1.213-0.944,1.849-1.171
					c0.595-0.79,1.341-1.261,2.144-1.464l0.926-16.975c0,0,0.899-5.112,0.911-7.306
					C460.056,225.577,457.379,225.869,457.379,225.869z"/>
				<path fill="#F8C4B8" d="M433.24,225.902c-2.318,36.594-2.275,37.434-1.604,48.312c1.419,22.999,0.577,27.906,0.577,27.906
					s0.444,1.046,3.198,1.046c2.025,0,2.622-0.886,2.622-0.886s2.242-13.903,2.55-18.494c0.309-4.592-0.253-14.946-0.253-14.946
					l5.511-27.967L433.24,225.902z"/>
				<path opacity="0.1" fill="#004466" enable-background="new    " d="M431.635,274.214c1.419,22.999,0.577,27.906,0.577,27.906
					s0.234,0.484,1.262,0.791c0.554-2.773,1.07-5.555,1.192-8.365c0.21-4.734-0.024-9.512-0.15-14.27
					c-0.034-0.297-0.058-0.59-0.096-0.889c-0.704-5.402-2.845-15.084,3.039-18.455c1.617-0.927,3.188-0.876,4.479-0.254
					l3.901-19.807l-12.601-14.971C430.921,262.496,430.964,263.335,431.635,274.214z"/>
				<path fill="#002D3D" d="M457.379,225.869l-23.448,0.855l-0.69-0.822c-2.585,17.403-2.556,25.008-2.838,31.132
					c1.02,0.737,23.463,7.093,28.847,1.28l-0.165-15.565c0,0,0.899-5.112,0.911-7.306
					C460.056,225.577,457.379,225.869,457.379,225.869z"/>
				<path opacity="0.2" fill="#004466" enable-background="new    " d="M441.849,258.746c-4.313-6.269-5.155-13.621-6.212-20.97
					c-0.523-3.655-0.388-8.141,1.646-11.175l-3.353,0.123l-0.69-0.822c-2.585,17.403-2.556,25.008-2.838,31.132
					c0.51,0.369,6.398,2.149,12.824,3.101C442.723,259.786,442.252,259.333,441.849,258.746z"/>
				<path fill="#F8C4B8" d="M437.519,187.437c-0.688,1.31-2.174,1.892-3.569,1.763c-0.762,7.938-1.563,16.483-1.563,16.483
					l-5.227,20.229l-2.834,4.227l-0.988,5.948c0,0,0.37,0.231,0.805-0.107c-0.051,0.18-0.086,0.298-0.086,0.298l0.402,3.885
					c0,0,0.599,0.287,0.958-0.633l0.771,1.633c0.852-0.004,0.867-1.022,0.745-1.835l0.538,1.144
					c1.421-0.009,0.522-2.829,0.522-2.829l0.134-0.486l0.712,2.183c1.115,0.323,0.607-1.9,0.607-1.9l-0.32-2.196l0.131-1.004
					c0.654-1.458,2.33-4.484,1.649-6.285l7.59-21.373c0,0,2.617-13.721,4.289-21.933c-0.877,0.85-1.798,1.642-2.736,2.363
					C439.28,187.6,438.369,187.677,437.519,187.437z"/>
				<path fill="#FFFFFF" d="M428.669,222.626c1.354,0.084,2.707,0.137,4.063,0.187l5.764-16.231c0,0,2.617-13.721,4.289-21.933
					c-0.877,0.85-1.798,1.642-2.736,2.363c-0.769,0.588-1.68,0.666-2.529,0.426c-0.688,1.31-2.174,1.892-3.569,1.763
					c-0.762,7.938-1.563,16.483-1.563,16.483l-4.336,16.776C428.257,222.514,428.463,222.576,428.669,222.626z"/>
				<path fill="#F8C4B8" d="M437.519,187.437c-0.688,1.31-2.174,1.892-3.569,1.763c-0.279,2.901-0.563,5.878-0.81,8.495
					c1.653,4.987,0.375,10.153-1.411,15.226c-0.869,4.426-2.253,11.049-3.521,13.512c-0.815,1.609-2.506,2.337-3.083,4.067
					c-0.644,1.939-0.825,3.826-1.524,5.659c0.146,0.01,0.334-0.017,0.54-0.178c-0.051,0.18-0.086,0.298-0.086,0.298l0.402,3.885
					c0,0,0.599,0.287,0.958-0.633l0.771,1.633c0.853-0.004,0.868-1.022,0.746-1.835l0.538,1.144
					c1.421-0.009,0.522-2.829,0.522-2.829l0.134-0.486l0.712,2.183c1.115,0.323,0.607-1.9,0.607-1.9l-0.32-2.196l0.131-1.004
					c0.654-1.458,2.33-4.484,1.649-6.285l7.59-21.373c0,0,2.617-13.721,4.289-21.933c-0.877,0.85-1.798,1.642-2.736,2.363
					C439.28,187.6,438.369,187.677,437.519,187.437z"/>
				<path fill="#FFFFFF" d="M435.555,177.8c-0.106,0.67-0.777,7.568-1.427,14.367c2.255,0.8,4.566,1.356,6.96,1.799
					c0.681-3.482,1.382-7,1.918-9.588c1.537-7.404,1.684-9.524,1.684-9.524C439.463,171.673,435.894,175.727,435.555,177.8z"/>
				<path fill="#00586C" d="M440.667,173.679c-1.28,0.102-1.672,0.371-1.672,0.371s-1.492,0.327-2.128,2.774
					c-0.275,1.068-0.073,3.173-0.442,4.769l-2.096,5.345l-2.106,6.074c-1.26,4.965,2.099,7.449,2.099,7.449l1.279,9.354
					l-2.775,17.082c0,0,16.303,9.476,27.096,1.042l-3.196-14.565c-0.172-12.27,1.477-27.507,1.477-27.507s4.977-0.925,3.886-2.857
					C456.776,173.612,445.265,173.31,440.667,173.679z"/>
				<path fill="#F8C4B8" d="M447.604,173.143c-5.153,0.979-6.063,4.841-5.594,5.672c0.467,0.831,1.963,2.622,6.166,1.293
					c5.005-1.583,5.021-4.223,5.021-4.223S450.92,172.513,447.604,173.143z"/>
				<path fill="#F8C4B8" d="M451.691,170.202l-8.413-0.917c0,0-1.308,5.917,0.859,9.253l9.059-2.653
					C453.196,175.885,451.333,172.621,451.691,170.202z"/>
				<path fill="#EAAEA0" d="M451.691,170.202l-8.413-0.917c0,0-0.988,5.684-0.099,6.84c1.49,1.933,5.518-0.464,7.11-1.451
					c0.59-0.791,1.072-1.716,1.434-2.739c0.004-0.014,0.013-0.024,0.018-0.037C451.644,171.321,451.612,170.74,451.691,170.202z"/>
				<path fill="#F8C4B8" d="M439.337,166.561c0,4.634,1.938,9.102,6.397,7.912c0,0,7.63-2.282,8.621-7.127l1.256-8.557
					l-15.773-2.813L439.337,166.561z"/>
				<path fill="#0E3C51" d="M448.054,149.679c-11.29,0-9.465,9.373-9.465,9.373c6.006,4.659,13.479,3.49,13.479,3.49l-0.363,9.133
					c0.017,1.472,1.191,3.629,1.191,3.629l6.874,5.023c0,0-0.481-16.815-0.601-19.017
					C459.037,158.8,458.215,149.679,448.054,149.679z"/>
				<g>
					<path fill="#F8C4B8" d="M462.409,183.987c-0.191-0.643-0.722-1.147-1.381-1.282c-5.194-1.061-6.686,5.538-6.578,6.822
						c0.114,1.368,4.426,23.745,4.426,23.745c0.24,5.878-0.677,21.764-0.677,21.764l-2.929,5.673l-0.363,5.917
						c0,0,0.45,0.372,1.266-1.453l0.416-2.616l0.634,3.202l-0.345,2.094l-0.175,0.797c-0.219,0.75,0.597,0.955,1.07,0.348
						c0.139-0.176,1.064-1.143,1.064-1.143l1.992-1.237l1.16-2.56l0.263-6.778c0.879-5.601,3.099-19.832,3.252-21.312
						c0.191-1.849,0.373-3.617,0.373-3.617s-0.616-11.604-1.646-19.096C463.546,188.244,462.814,185.352,462.409,183.987z"/>
					<path opacity="0.1" fill="#00586C" enable-background="new    " d="M458.875,213.271c0.137,3.384-0.108,10.081-0.341,15.159
						c1.7,0.018,3.399,0.013,5.101-0.01c0.877-5.652,1.776-11.529,1.87-12.452c0.191-1.849,0.373-3.617,0.373-3.617
						s-0.616-11.604-1.646-19.096c-0.688-5.012-1.42-7.904-1.824-9.269c-0.191-0.643-0.723-1.147-1.381-1.282
						c-5.194-1.061-6.686,5.538-6.578,6.822C454.564,190.895,458.875,213.271,458.875,213.271z"/>
					<path opacity="0.2" fill="#004466" enable-background="new    " d="M454.907,246.625c0,0,0.199,0.149,0.563-0.263
						c0.122-3.578,1.304-7.098,2.397-10.689l-2.599,5.035L454.907,246.625z"/>
					<path opacity="0.2" fill="#004466" enable-background="new    " d="M454.551,190.22c0.659,4.032,4.324,23.052,4.324,23.052
						c0.214,5.215-0.483,18.302-0.645,21.187c0.506-1.722,1.021-3.455,1.23-5.239C462.242,205.516,455.777,193.425,454.551,190.22z"
						/>
				</g>
			</g>
			<path opacity="0.2" fill="#004466" enable-background="new    " d="M440.703,201.784c0,0,7.847,5.725,12.48-1.392
				C453.184,200.392,447.082,204.669,440.703,201.784z"/>
		</g>
	</g>
</g>
<g opacity="0.3">
	<path fill="#FFFFFF" d="M86.238,163.112l21.644-12.496l0.069,24.865L86.31,187.977L86.238,163.112z"/>
</g>
<g>
	<g>
		<path fill="#DCE8EB" d="M300.745,150.896c-0.687,0-1.239-0.532-1.239-1.217v-0.048c0-0.685,0.555-1.24,1.239-1.24
			s1.241,0.555,1.241,1.24S301.43,150.896,300.745,150.896z"/>
	</g>
	<g>
		<path fill="#DCE8EB" d="M300.745,145.984c-0.687,0-1.239-0.555-1.239-1.24v-0.098c0-0.685,0.555-1.241,1.239-1.241
			s1.241,0.556,1.241,1.241v0.098C301.986,145.429,301.43,145.984,300.745,145.984z M300.745,141c-0.687,0-1.239-0.556-1.239-1.241
			v-0.097c0-0.685,0.555-1.241,1.239-1.241s1.241,0.556,1.241,1.241v0.097C301.986,140.444,301.43,141,300.745,141z
			 M300.745,136.015c-0.687,0-1.239-0.555-1.239-1.24v-0.098c0-0.685,0.555-1.24,1.239-1.24s1.241,0.555,1.241,1.24v0.098
			C301.986,135.46,301.43,136.015,300.745,136.015z M300.745,131.03c-0.687,0-1.239-0.555-1.239-1.24v-0.098
			c0-0.685,0.555-1.24,1.239-1.24s1.241,0.555,1.241,1.24v0.098C301.986,130.475,301.43,131.03,300.745,131.03z M300.745,126.046
			c-0.687,0-1.239-0.556-1.239-1.241v-0.098c0-0.685,0.555-1.241,1.239-1.241s1.241,0.556,1.241,1.241v0.098
			C301.986,125.491,301.43,126.046,300.745,126.046z M300.745,121.062c-0.687,0-1.239-0.556-1.239-1.241v-0.097
			c0-0.685,0.555-1.241,1.239-1.241s1.241,0.556,1.241,1.241v0.097C301.986,120.506,301.43,121.062,300.745,121.062z
			 M300.745,116.077c-0.687,0-1.239-0.555-1.239-1.24v-0.098c0-0.685,0.555-1.241,1.239-1.241s1.241,0.556,1.241,1.241v0.098
			C301.986,115.522,301.43,116.077,300.745,116.077z M300.745,111.092c-0.687,0-1.239-0.555-1.239-1.24v-0.098
			c0-0.685,0.555-1.24,1.239-1.24s1.241,0.556,1.241,1.24v0.098C301.986,110.537,301.43,111.092,300.745,111.092z"/>
	</g>
	<g>
		<path fill="#DCE8EB" d="M300.745,106.084c-0.687,0-1.239-0.532-1.239-1.216v-0.048c0-0.433,0.227-0.833,0.596-1.06
			c0.584-0.356,1.367-0.183,1.725,0.402c0.318,0.523,0.221,1.179-0.223,1.567C301.38,105.947,301.079,106.084,300.745,106.084z"/>
	</g>
	<g>
		<path fill="#DCE8EB" d="M304.908,103.522c-0.426,0-0.84-0.202-1.068-0.581c-0.355-0.585-0.21-1.324,0.377-1.679l0.082-0.049
			c0.585-0.355,1.35-0.167,1.704,0.418s0.167,1.348-0.42,1.703C305.376,103.461,305.141,103.522,304.908,103.522z M309.063,101.001
			c-0.425,0-0.841-0.202-1.07-0.58c-0.354-0.586-0.208-1.324,0.379-1.679l0.082-0.049c0.587-0.355,1.35-0.167,1.704,0.418
			c0.354,0.585,0.167,1.349-0.42,1.703C309.531,100.94,309.294,101.001,309.063,101.001z M313.217,98.48
			c-0.425,0-0.84-0.202-1.067-0.581c-0.355-0.586-0.208-1.324,0.377-1.679l0.081-0.049c0.588-0.355,1.35-0.168,1.705,0.418
			c0.354,0.585,0.166,1.348-0.421,1.703C313.686,98.419,313.45,98.48,313.217,98.48z M317.372,95.959
			c-0.424,0-0.84-0.202-1.068-0.581c-0.355-0.585-0.208-1.323,0.377-1.679l0.082-0.049c0.587-0.355,1.351-0.167,1.704,0.418
			c0.354,0.585,0.167,1.348-0.418,1.703C317.84,95.898,317.604,95.959,317.372,95.959z M321.529,93.439
			c-0.428,0-0.844-0.203-1.07-0.581c-0.355-0.585-0.21-1.324,0.377-1.679l0.081-0.05c0.588-0.354,1.35-0.167,1.705,0.418
			c0.354,0.586,0.167,1.349-0.418,1.704C321.996,93.378,321.759,93.439,321.529,93.439z M325.683,90.917
			c-0.424,0-0.842-0.202-1.069-0.581c-0.354-0.585-0.208-1.323,0.377-1.679l0.084-0.049c0.585-0.355,1.348-0.167,1.702,0.418
			c0.354,0.586,0.167,1.349-0.42,1.704C326.15,90.857,325.916,90.917,325.683,90.917z M329.835,88.397
			c-0.422,0-0.838-0.202-1.067-0.581c-0.354-0.585-0.208-1.324,0.377-1.679l0.081-0.05c0.588-0.354,1.351-0.167,1.704,0.418
			c0.355,0.586,0.168,1.349-0.417,1.704C330.305,88.336,330.071,88.397,329.835,88.397z M333.993,85.876
			c-0.424,0-0.84-0.202-1.07-0.581c-0.354-0.585-0.208-1.323,0.379-1.679l0.08-0.049c0.587-0.355,1.351-0.167,1.704,0.418
			c0.356,0.585,0.167,1.349-0.418,1.704C334.459,85.815,334.225,85.876,333.993,85.876z M338.147,83.355
			c-0.425,0-0.839-0.201-1.067-0.578c-0.357-0.585-0.213-1.324,0.373-1.68l0.081-0.05c0.583-0.356,1.348-0.171,1.704,0.415
			c0.356,0.585,0.172,1.348-0.413,1.705C338.617,83.294,338.379,83.355,338.147,83.355z M342.302,80.834
			c-0.424,0-0.84-0.201-1.067-0.578c-0.356-0.585-0.212-1.323,0.373-1.68l0.082-0.049c0.583-0.357,1.347-0.171,1.705,0.414
			c0.354,0.585,0.17,1.348-0.416,1.705C342.771,80.773,342.535,80.834,342.302,80.834z M346.457,78.314
			c-0.424,0-0.838-0.201-1.068-0.578c-0.355-0.585-0.21-1.324,0.376-1.68l0.079-0.05c0.585-0.357,1.349-0.171,1.704,0.414
			c0.357,0.585,0.174,1.349-0.411,1.705C346.926,78.252,346.689,78.314,346.457,78.314z M350.612,75.793
			c-0.425,0-0.84-0.202-1.07-0.581c-0.354-0.585-0.208-1.324,0.377-1.679l0.084-0.049c0.587-0.356,1.351-0.168,1.702,0.418
			c0.354,0.585,0.169,1.348-0.418,1.703C351.079,75.732,350.844,75.793,350.612,75.793z M354.766,73.272
			c-0.424,0-0.84-0.202-1.067-0.58c-0.356-0.586-0.21-1.324,0.378-1.679l0.079-0.049c0.587-0.356,1.35-0.167,1.704,0.418
			c0.356,0.585,0.167,1.349-0.418,1.703C355.233,73.211,354.999,73.272,354.766,73.272z M358.921,70.751
			c-0.425,0-0.84-0.203-1.07-0.581c-0.354-0.586-0.208-1.324,0.38-1.679l0.081-0.049c0.585-0.356,1.348-0.168,1.702,0.418
			c0.356,0.586,0.169,1.349-0.418,1.704C359.39,70.69,359.154,70.751,358.921,70.751z M363.076,68.23
			c-0.424,0-0.84-0.202-1.07-0.581c-0.353-0.586-0.208-1.324,0.38-1.679l0.081-0.049c0.585-0.356,1.351-0.168,1.704,0.418
			c0.354,0.585,0.167,1.348-0.42,1.703C363.544,68.169,363.308,68.23,363.076,68.23z M367.231,65.71
			c-0.426,0-0.841-0.203-1.068-0.581c-0.357-0.585-0.208-1.324,0.377-1.679l0.081-0.049c0.588-0.355,1.35-0.168,1.705,0.418
			c0.354,0.586,0.167,1.348-0.42,1.704C367.698,65.649,367.463,65.71,367.231,65.71z M371.385,63.189
			c-0.424,0-0.84-0.202-1.067-0.581c-0.356-0.585-0.208-1.323,0.377-1.679l0.082-0.049c0.587-0.355,1.35-0.168,1.702,0.418
			c0.355,0.586,0.169,1.349-0.416,1.704C371.854,63.128,371.618,63.189,371.385,63.189z"/>
	</g>
	<g>
		<path fill="#DCE8EB" d="M375.532,60.709c-0.412,0-0.776-0.192-1.003-0.495c-0.028-0.037-0.056-0.076-0.079-0.117
			c-0.354-0.587-0.187-1.336,0.4-1.69l0.041-0.025c0.384-0.23,0.862-0.237,1.251-0.017c0.391,0.22,0.632,0.633,0.632,1.081
			C376.774,60.129,376.217,60.709,375.532,60.709z"/>
	</g>
	<g>
		<path fill="#DCE8EB" d="M375.532,147.948c-0.686,0-1.239-0.555-1.239-1.24s0.555-1.288,1.239-1.288
			c0.686,0,1.242,0.508,1.242,1.193v0.095C376.774,147.393,376.217,147.948,375.532,147.948z M375.532,143.103
			c-0.686,0-1.239-0.555-1.239-1.24s0.555-1.288,1.239-1.288c0.686,0,1.242,0.508,1.242,1.192v0.096
			C376.774,142.548,376.217,143.103,375.532,143.103z M375.532,138.257c-0.686,0-1.239-0.555-1.239-1.24s0.555-1.288,1.239-1.288
			c0.686,0,1.242,0.507,1.242,1.192v0.095C376.774,137.702,376.217,138.257,375.532,138.257z M375.532,133.413
			c-0.686,0-1.239-0.556-1.239-1.241s0.555-1.288,1.239-1.288c0.686,0,1.242,0.508,1.242,1.193v0.095
			C376.774,132.857,376.217,133.413,375.532,133.413z M375.532,128.567c-0.686,0-1.239-0.556-1.239-1.241
			c0-0.685,0.555-1.288,1.239-1.288c0.686,0,1.242,0.508,1.242,1.193v0.095C376.774,128.012,376.217,128.567,375.532,128.567z
			 M375.532,123.721c-0.686,0-1.239-0.555-1.239-1.24s0.555-1.288,1.239-1.288c0.686,0,1.242,0.508,1.242,1.193v0.095
			C376.774,123.167,376.217,123.721,375.532,123.721z M375.532,118.876c-0.686,0-1.239-0.556-1.239-1.241
			c0-0.685,0.555-1.288,1.239-1.288c0.686,0,1.242,0.508,1.242,1.193v0.095C376.774,118.321,376.217,118.876,375.532,118.876z
			 M375.532,114.031c-0.686,0-1.239-0.556-1.239-1.241s0.555-1.288,1.239-1.288c0.686,0,1.242,0.508,1.242,1.193v0.095
			C376.774,113.476,376.217,114.031,375.532,114.031z M375.532,109.186c-0.686,0-1.239-0.555-1.239-1.24s0.555-1.288,1.239-1.288
			c0.686,0,1.242,0.508,1.242,1.193v0.095C376.774,108.631,376.217,109.186,375.532,109.186z M375.532,104.34
			c-0.686,0-1.239-0.555-1.239-1.24s0.555-1.288,1.239-1.288c0.686,0,1.242,0.508,1.242,1.193v0.095
			C376.774,103.785,376.217,104.34,375.532,104.34z M375.532,99.495c-0.686,0-1.239-0.556-1.239-1.24
			c0-0.685,0.555-1.288,1.239-1.288c0.686,0,1.242,0.508,1.242,1.193v0.095C376.774,98.939,376.217,99.495,375.532,99.495z
			 M375.532,94.65c-0.686,0-1.239-0.556-1.239-1.241c0-0.685,0.555-1.288,1.239-1.288c0.686,0,1.242,0.507,1.242,1.192v0.095
			C376.774,94.095,376.217,94.65,375.532,94.65z M375.532,89.805c-0.686,0-1.239-0.555-1.239-1.24s0.555-1.288,1.239-1.288
			c0.686,0,1.242,0.508,1.242,1.193v0.095C376.774,89.25,376.217,89.805,375.532,89.805z M375.532,84.959
			c-0.686,0-1.239-0.555-1.239-1.24c0-0.685,0.555-1.288,1.239-1.288c0.686,0,1.242,0.509,1.242,1.194v0.094
			C376.774,84.404,376.217,84.959,375.532,84.959z M375.532,80.114c-0.686,0-1.239-0.556-1.239-1.24
			c0-0.685,0.555-1.288,1.239-1.288c0.686,0,1.242,0.508,1.242,1.192v0.096C376.774,79.559,376.217,80.114,375.532,80.114z
			 M375.532,75.269c-0.686,0-1.239-0.555-1.239-1.24s0.555-1.288,1.239-1.288c0.686,0,1.242,0.507,1.242,1.192v0.095
			C376.774,74.713,376.217,75.269,375.532,75.269z M375.532,70.424c-0.686,0-1.239-0.556-1.239-1.241s0.555-1.288,1.239-1.288
			c0.686,0,1.242,0.508,1.242,1.193v0.095C376.774,69.868,376.217,70.424,375.532,70.424z M375.532,65.578
			c-0.686,0-1.239-0.555-1.239-1.24s0.555-1.288,1.239-1.288c0.686,0,1.242,0.508,1.242,1.193v0.095
			C376.774,65.023,376.217,65.578,375.532,65.578z"/>
	</g>
	<g>
		<path fill="#DCE8EB" d="M375.532,152.747c-0.686,0-1.239-0.556-1.239-1.241s0.555-1.265,1.239-1.265
			c0.686,0,1.242,0.532,1.242,1.217v0.048C376.774,152.191,376.217,152.747,375.532,152.747z"/>
	</g>
</g>
<g>
	<g>
		<path fill="#DCE8EB" d="M305.466,352.556c-0.448,0-0.883-0.231-1.104-0.647c-0.322-0.604-0.112-1.347,0.49-1.667l0.041-0.022
			c0.604-0.319,1.357-0.094,1.681,0.513c0.321,0.604,0.092,1.354-0.513,1.68C305.874,352.509,305.667,352.556,305.466,352.556z"/>
	</g>
	<g>
		<path fill="#DCE8EB" d="M309.716,350.287c-0.441,0-0.868-0.237-1.093-0.652c-0.326-0.604-0.1-1.356,0.504-1.681l0.086-0.044
			c0.604-0.326,1.355-0.101,1.68,0.503c0.325,0.604,0.099,1.355-0.504,1.68l-0.086,0.045
			C310.119,350.24,309.915,350.287,309.716,350.287z M314.039,347.976c-0.444,0-0.875-0.238-1.097-0.66
			c-0.322-0.605-0.089-1.355,0.518-1.676l0.084-0.046c0.607-0.321,1.357-0.088,1.678,0.519c0.317,0.604,0.087,1.355-0.521,1.676
			l-0.083,0.045C314.432,347.931,314.234,347.976,314.039,347.976z M318.361,345.665c-0.44,0-0.869-0.234-1.092-0.652
			c-0.325-0.602-0.101-1.354,0.502-1.68l0.088-0.045c0.602-0.324,1.354-0.1,1.678,0.504c0.326,0.604,0.1,1.355-0.504,1.68
			l-0.085,0.047C318.762,345.618,318.56,345.665,318.361,345.665z M322.682,343.354c-0.439,0-0.867-0.235-1.091-0.651
			c-0.326-0.604-0.1-1.356,0.504-1.683l0.086-0.045c0.602-0.324,1.354-0.098,1.679,0.504c0.325,0.604,0.1,1.355-0.502,1.683
			l-0.089,0.045C323.083,343.308,322.882,343.354,322.682,343.354z M327.006,341.044c-0.441,0-0.868-0.236-1.093-0.652
			c-0.326-0.604-0.1-1.355,0.504-1.681l0.085-0.047c0.602-0.321,1.354-0.099,1.68,0.506c0.324,0.603,0.1,1.354-0.503,1.681
			l-0.086,0.045C327.406,340.997,327.204,341.044,327.006,341.044z"/>
	</g>
	<g>
		<path fill="#DCE8EB" d="M331.357,338.714c-0.446,0-0.882-0.232-1.104-0.648c-0.283-0.533-0.156-1.172,0.294-1.535
			c0.218-0.201,0.506-0.323,0.821-0.323c0.686,0,1.242,0.532,1.242,1.217c0,0.459-0.253,0.927-0.657,1.142
			C331.764,338.667,331.558,338.714,331.357,338.714z"/>
	</g>
	<g>
		<path fill="#DCE8EB" d="M331.369,333.724c-0.686,0-1.239-0.558-1.239-1.242v-0.098c0-0.686,0.555-1.242,1.239-1.242
			c0.686,0,1.242,0.558,1.242,1.242v0.098C332.611,333.166,332.054,333.724,331.369,333.724z M331.369,328.685
			c-0.686,0-1.239-0.556-1.239-1.24v-0.101c0-0.685,0.555-1.239,1.239-1.239c0.686,0,1.242,0.556,1.242,1.239v0.101
			C332.611,328.129,332.054,328.685,331.369,328.685z M331.369,323.644c-0.686,0-1.239-0.555-1.239-1.238v-0.1
			c0-0.687,0.555-1.24,1.239-1.24c0.686,0,1.242,0.555,1.242,1.24v0.1C332.611,323.089,332.054,323.644,331.369,323.644z
			 M331.369,318.604c-0.686,0-1.239-0.556-1.239-1.239v-0.101c0-0.686,0.555-1.24,1.239-1.24c0.686,0,1.242,0.556,1.242,1.24v0.101
			C332.611,318.05,332.054,318.604,331.369,318.604z M331.369,313.565c-0.686,0-1.239-0.556-1.239-1.24v-0.098
			c0-0.687,0.555-1.242,1.239-1.242c0.686,0,1.242,0.557,1.242,1.242v0.098C332.611,313.011,332.054,313.565,331.369,313.565z
			 M331.369,308.526c-0.686,0-1.239-0.555-1.239-1.238v-0.102c0-0.685,0.555-1.238,1.239-1.238c0.686,0,1.242,0.555,1.242,1.238
			v0.102C332.611,307.974,332.054,308.526,331.369,308.526z M331.369,303.487c-0.686,0-1.239-0.557-1.239-1.241v-0.099
			c0-0.685,0.555-1.238,1.239-1.238c0.686,0,1.242,0.555,1.242,1.238v0.099C332.611,302.933,332.054,303.487,331.369,303.487z
			 M331.369,298.448c-0.686,0-1.239-0.555-1.239-1.239v-0.101c0-0.686,0.555-1.239,1.239-1.239c0.686,0,1.242,0.555,1.242,1.239
			v0.101C332.611,297.894,332.054,298.448,331.369,298.448z M331.369,293.409c-0.686,0-1.239-0.555-1.239-1.24v-0.098
			c0-0.686,0.555-1.241,1.239-1.241c0.686,0,1.242,0.558,1.242,1.241v0.098C332.611,292.854,332.054,293.409,331.369,293.409z"/>
	</g>
	<g>
		<path fill="#DCE8EB" d="M331.369,288.347c-0.686,0-1.239-0.531-1.239-1.217v-0.047c0-0.686,0.555-1.239,1.239-1.239
			c0.686,0,1.242,0.554,1.242,1.239S332.054,288.347,331.369,288.347z"/>
	</g>
</g>
<g>
	<g>
		<path fill="#DCE8EB" d="M187.848,235.723c-0.424,0-0.837-0.218-1.069-0.61c-0.349-0.589-0.153-1.351,0.438-1.699
			c0.588-0.349,1.369-0.165,1.717,0.425c0.349,0.59,0.175,1.338-0.414,1.687l-0.042,0.024
			C188.28,235.667,188.063,235.723,187.848,235.723z"/>
	</g>
	<g>
		<path fill="#DCE8EB" d="M90.432,292.718c-0.425,0-0.84-0.221-1.071-0.613c-0.346-0.594-0.146-1.354,0.445-1.697l0.083-0.051
			c0.59-0.348,1.351-0.146,1.697,0.445c0.347,0.594,0.147,1.354-0.445,1.698l-0.083,0.049
			C90.861,292.663,90.646,292.718,90.432,292.718z M94.669,290.237c-0.427,0-0.843-0.219-1.073-0.612
			c-0.346-0.591-0.146-1.353,0.445-1.696l0.083-0.049c0.588-0.35,1.351-0.146,1.697,0.444c0.346,0.592,0.146,1.352-0.445,1.696
			l-0.083,0.049C95.096,290.187,94.881,290.237,94.669,290.237z M98.904,287.763c-0.423,0-0.835-0.217-1.067-0.605
			c-0.351-0.59-0.158-1.352,0.43-1.702l0.084-0.05c0.589-0.348,1.35-0.154,1.699,0.433c0.351,0.59,0.159,1.351-0.43,1.7l-0.083,0.05
			C99.338,287.705,99.119,287.763,98.904,287.763z M103.139,285.283c-0.427,0-0.843-0.222-1.074-0.618
			c-0.343-0.591-0.143-1.352,0.45-1.696l0.083-0.047c0.591-0.343,1.353-0.144,1.695,0.448c0.344,0.594,0.144,1.352-0.45,1.695
			l-0.083,0.05C103.564,285.228,103.351,285.283,103.139,285.283z M107.375,282.804c-0.427,0-0.844-0.22-1.074-0.615
			c-0.344-0.594-0.143-1.352,0.45-1.695l0.083-0.049c0.593-0.344,1.353-0.144,1.696,0.447c0.343,0.594,0.143,1.354-0.45,1.696
			l-0.083,0.05C107.801,282.751,107.586,282.804,107.375,282.804z M111.611,280.327c-0.427,0-0.843-0.221-1.074-0.614
			c-0.345-0.593-0.145-1.354,0.445-1.698l0.085-0.049c0.59-0.347,1.351-0.145,1.696,0.446c0.347,0.592,0.147,1.353-0.445,1.696
			l-0.083,0.049C112.037,280.271,111.823,280.327,111.611,280.327z M115.845,277.849c-0.427,0-0.842-0.219-1.071-0.613
			c-0.348-0.592-0.148-1.352,0.445-1.697l0.082-0.049c0.592-0.344,1.354-0.146,1.698,0.445c0.345,0.59,0.145,1.352-0.445,1.695
			l-0.083,0.049C116.274,277.795,116.057,277.849,115.845,277.849z M120.081,275.372c-0.426,0-0.841-0.221-1.072-0.613
			c-0.345-0.594-0.146-1.354,0.445-1.697l0.083-0.051c0.591-0.344,1.352-0.145,1.696,0.447c0.347,0.591,0.148,1.352-0.445,1.695
			l-0.082,0.05C120.509,275.317,120.294,275.372,120.081,275.372z M124.316,272.896c-0.427,0-0.844-0.223-1.073-0.617
			c-0.345-0.594-0.144-1.354,0.449-1.696l0.083-0.049c0.591-0.345,1.352-0.144,1.695,0.45c0.345,0.592,0.143,1.35-0.449,1.693
			l-0.084,0.049C124.742,272.84,124.527,272.896,124.316,272.896z M128.551,270.416c-0.425,0-0.84-0.22-1.07-0.613
			c-0.347-0.592-0.149-1.35,0.442-1.696l0.083-0.051c0.591-0.349,1.352-0.146,1.697,0.444c0.346,0.589,0.147,1.351-0.442,1.696
			l-0.084,0.049C128.981,270.36,128.765,270.416,128.551,270.416z M132.788,267.938c-0.425,0-0.839-0.219-1.069-0.611
			c-0.349-0.59-0.153-1.35,0.437-1.698l0.083-0.049c0.591-0.349,1.352-0.153,1.698,0.438c0.349,0.588,0.152,1.35-0.437,1.697
			l-0.083,0.049C133.217,267.882,133.001,267.938,132.788,267.938z M137.021,265.46c-0.425,0-0.84-0.221-1.071-0.616
			c-0.345-0.59-0.146-1.351,0.445-1.696l0.083-0.049c0.59-0.344,1.35-0.146,1.697,0.446c0.346,0.592,0.146,1.352-0.445,1.697
			l-0.083,0.05C137.451,265.405,137.236,265.46,137.021,265.46z M141.259,262.981c-0.428,0-0.844-0.221-1.073-0.614
			c-0.346-0.592-0.146-1.352,0.445-1.698l0.083-0.048c0.592-0.346,1.351-0.146,1.696,0.445c0.347,0.591,0.146,1.352-0.444,1.697
			l-0.084,0.048C141.686,262.927,141.471,262.981,141.259,262.981z M145.493,260.503c-0.426,0-0.841-0.22-1.072-0.615
			c-0.345-0.591-0.146-1.351,0.447-1.696l0.082-0.049c0.591-0.345,1.351-0.147,1.697,0.445c0.346,0.592,0.146,1.352-0.445,1.697
			l-0.084,0.049C145.921,260.449,145.707,260.503,145.493,260.503z M149.728,258.026c-0.427,0-0.843-0.221-1.073-0.617
			c-0.343-0.593-0.143-1.353,0.45-1.696l0.083-0.049c0.592-0.347,1.352-0.144,1.695,0.448c0.345,0.593,0.144,1.352-0.449,1.696
			l-0.084,0.049C150.155,257.972,149.941,258.026,149.728,258.026z M153.963,255.548c-0.424,0-0.838-0.218-1.069-0.611
			c-0.348-0.59-0.15-1.351,0.438-1.699l0.084-0.049c0.59-0.349,1.351-0.152,1.698,0.438c0.349,0.59,0.152,1.352-0.438,1.699
			l-0.083,0.049C154.396,255.493,154.179,255.548,153.963,255.548z M158.2,253.069c-0.426,0-0.842-0.22-1.073-0.615
			c-0.345-0.591-0.145-1.351,0.445-1.697l0.085-0.048c0.59-0.345,1.351-0.146,1.696,0.445c0.347,0.591,0.146,1.351-0.445,1.697
			l-0.083,0.048C158.627,253.014,158.413,253.069,158.2,253.069z M162.435,250.591c-0.427,0-0.842-0.22-1.071-0.615
			c-0.348-0.591-0.147-1.351,0.445-1.697l0.082-0.048c0.592-0.345,1.352-0.146,1.698,0.445c0.345,0.591,0.145,1.352-0.445,1.697
			l-0.084,0.048C162.865,250.536,162.647,250.591,162.435,250.591z M166.671,248.113c-0.427,0-0.842-0.22-1.073-0.615
			c-0.345-0.591-0.146-1.351,0.445-1.696l0.084-0.049c0.589-0.345,1.35-0.146,1.696,0.446c0.347,0.591,0.147,1.351-0.446,1.696
			l-0.081,0.048C167.098,248.058,166.884,248.113,166.671,248.113z M170.906,245.635c-0.427,0-0.844-0.221-1.073-0.617
			c-0.345-0.593-0.144-1.352,0.449-1.696l0.084-0.049c0.592-0.345,1.352-0.143,1.695,0.45c0.344,0.592,0.143,1.351-0.449,1.696
			l-0.084,0.048C171.332,245.582,171.117,245.635,170.906,245.635z M175.142,243.157c-0.425,0-0.839-0.218-1.07-0.61
			c-0.348-0.591-0.152-1.351,0.438-1.699l0.082-0.049c0.592-0.349,1.352-0.152,1.699,0.438c0.347,0.59,0.152,1.351-0.438,1.699
			l-0.083,0.049C175.573,243.102,175.355,243.157,175.142,243.157z M179.377,240.679c-0.427,0-0.842-0.22-1.072-0.615
			c-0.347-0.591-0.146-1.351,0.445-1.697l0.083-0.048c0.59-0.345,1.351-0.146,1.696,0.445c0.346,0.591,0.146,1.351-0.445,1.697
			l-0.083,0.049C179.805,240.624,179.589,240.679,179.377,240.679z M183.612,238.201c-0.427,0-0.84-0.22-1.071-0.615
			c-0.346-0.592-0.147-1.352,0.445-1.697l0.082-0.048c0.591-0.345,1.351-0.147,1.697,0.445c0.346,0.591,0.147,1.351-0.445,1.697
			l-0.082,0.049C184.041,238.146,183.826,238.201,183.612,238.201z"/>
	</g>
	<g>
		<path fill="#DCE8EB" d="M86.238,295.17c-0.213,0-0.426-0.055-0.618-0.163c-0.384-0.222-0.623-0.632-0.623-1.076
			c0-0.685,0.555-1.264,1.241-1.264c0.422,0,0.793,0.199,1.018,0.514c0.025,0.034,0.05,0.073,0.073,0.112
			c0.346,0.591,0.167,1.339-0.424,1.685l-0.042,0.023C86.671,295.115,86.454,295.17,86.238,295.17z"/>
	</g>
	<g>
		<path fill="#DCE8EB" d="M86.238,290.308c-0.686,0-1.241-0.507-1.241-1.191v-0.096c0-0.686,0.555-1.239,1.241-1.239
			c0.684,0,1.239,0.555,1.239,1.239C87.477,289.704,86.922,290.308,86.238,290.308z M86.238,285.493
			c-0.686,0-1.241-0.555-1.241-1.24v-0.096c0-0.686,0.555-1.241,1.241-1.241c0.684,0,1.239,0.558,1.239,1.241v0.096
			C87.478,284.938,86.922,285.493,86.238,285.493z M86.238,280.631c-0.686,0-1.241-0.555-1.241-1.239v-0.099
			c0-0.685,0.555-1.239,1.241-1.239c0.684,0,1.239,0.555,1.239,1.239v0.099C87.478,280.076,86.922,280.631,86.238,280.631z
			 M86.238,275.769c-0.686,0-1.241-0.556-1.241-1.24v-0.096c0-0.686,0.555-1.24,1.241-1.24c0.684,0,1.239,0.556,1.239,1.24v0.096
			C87.478,275.213,86.922,275.769,86.238,275.769z M86.238,270.858c-0.686,0-1.241-0.51-1.241-1.194v-0.095
			c0-0.686,0.555-1.241,1.241-1.241c0.684,0,1.239,0.557,1.239,1.241C87.478,270.255,86.922,270.858,86.238,270.858z
			 M86.238,266.043c-0.686,0-1.241-0.556-1.241-1.242v-0.095c0-0.686,0.555-1.24,1.241-1.24c0.684,0,1.239,0.555,1.239,1.24v0.095
			C87.478,265.487,86.922,266.043,86.238,266.043z M86.238,261.131c-0.686,0-1.241-0.507-1.241-1.192v-0.096
			c0-0.685,0.555-1.24,1.241-1.24c0.684,0,1.239,0.555,1.239,1.24C87.477,260.528,86.922,261.131,86.238,261.131z M86.238,256.316
			c-0.686,0-1.241-0.556-1.241-1.241v-0.096c0-0.685,0.555-1.24,1.241-1.24c0.684,0,1.239,0.556,1.239,1.24v0.096
			C87.478,255.761,86.922,256.316,86.238,256.316z M86.238,251.405c-0.686,0-1.241-0.508-1.241-1.193v-0.095
			c0-0.685,0.555-1.24,1.241-1.24c0.684,0,1.239,0.555,1.239,1.24C87.477,250.802,86.922,251.405,86.238,251.405z M86.238,246.59
			c-0.686,0-1.241-0.555-1.241-1.24v-0.096c0-0.685,0.555-1.24,1.241-1.24c0.684,0,1.239,0.555,1.239,1.24v0.096
			C87.478,246.035,86.922,246.59,86.238,246.59z M86.238,241.679c-0.686,0-1.241-0.507-1.241-1.192v-0.095
			c0-0.685,0.555-1.24,1.241-1.24c0.684,0,1.239,0.555,1.239,1.24S86.922,241.679,86.238,241.679z"/>
	</g>
	<g>
		<path fill="#DCE8EB" d="M86.238,236.84c-0.686,0-1.241-0.532-1.241-1.217v-0.048c0-0.431,0.223-0.831,0.592-1.057
			c0.581-0.358,1.368-0.188,1.726,0.396c0.322,0.523,0.225,1.182-0.22,1.57C86.872,236.704,86.57,236.84,86.238,236.84z"/>
	</g>
	<g>
		<path fill="#DCE8EB" d="M90.548,234.159c-0.416,0-0.823-0.209-1.057-0.588c-0.36-0.583-0.178-1.348,0.404-1.708l0.084-0.052
			c0.583-0.36,1.348-0.18,1.708,0.403c0.361,0.583,0.18,1.348-0.403,1.708l-0.085,0.052
			C90.995,234.099,90.769,234.159,90.548,234.159z M94.9,231.474c-0.416,0-0.823-0.209-1.056-0.589
			c-0.361-0.583-0.18-1.348,0.403-1.708l0.086-0.052c0.583-0.361,1.348-0.18,1.707,0.403c0.36,0.583,0.179,1.347-0.404,1.707
			l-0.085,0.053C95.348,231.414,95.124,231.474,94.9,231.474z M99.254,228.789c-0.418,0-0.825-0.21-1.059-0.592
			c-0.359-0.583-0.176-1.348,0.409-1.706l0.085-0.053c0.582-0.359,1.348-0.176,1.706,0.408c0.359,0.584,0.176,1.348-0.409,1.707
			l-0.086,0.052C99.699,228.729,99.474,228.789,99.254,228.789z M103.605,226.104c-0.416,0-0.822-0.209-1.056-0.589
			c-0.36-0.583-0.18-1.348,0.404-1.708l0.085-0.052c0.582-0.361,1.348-0.18,1.707,0.403c0.361,0.583,0.18,1.348-0.404,1.708
			l-0.086,0.052C104.053,226.043,103.829,226.104,103.605,226.104z M107.96,223.418c-0.417,0-0.824-0.209-1.057-0.589
			c-0.361-0.583-0.181-1.348,0.402-1.708l0.086-0.052c0.582-0.36,1.348-0.18,1.707,0.404c0.36,0.583,0.179,1.347-0.403,1.707
			l-0.084,0.053C108.406,223.358,108.181,223.418,107.96,223.418z M112.311,220.733c-0.416,0-0.821-0.209-1.057-0.589
			c-0.359-0.583-0.179-1.347,0.404-1.707l0.085-0.053c0.583-0.361,1.348-0.179,1.707,0.404c0.361,0.583,0.181,1.348-0.403,1.708
			l-0.086,0.052C112.759,220.673,112.535,220.733,112.311,220.733z M116.665,218.048c-0.417,0-0.825-0.21-1.059-0.592
			c-0.359-0.583-0.177-1.347,0.409-1.706l0.085-0.053c0.583-0.358,1.347-0.176,1.707,0.408c0.357,0.584,0.174,1.348-0.409,1.707
			l-0.085,0.053C117.11,217.989,116.885,218.048,116.665,218.048z M121.017,215.363c-0.416,0-0.821-0.209-1.057-0.589
			c-0.36-0.583-0.179-1.348,0.403-1.708l0.085-0.052c0.584-0.36,1.347-0.179,1.707,0.403c0.361,0.583,0.181,1.347-0.402,1.707
			l-0.086,0.053C121.465,215.302,121.24,215.363,121.017,215.363z"/>
	</g>
	<g>
		<path fill="#DCE8EB" d="M125.393,212.656c-0.417,0-0.826-0.202-1.058-0.577c-0.362-0.582-0.203-1.335,0.38-1.696l0.04-0.025
			c0.583-0.362,1.346-0.183,1.708,0.399c0.362,0.582,0.183,1.347-0.399,1.708C125.857,212.594,125.624,212.656,125.393,212.656z"/>
	</g>
</g>
<g>
	<g>
		<path opacity="0.4" fill="#FFFFFF" enable-background="new    " d="M281.282,87.269c2.298-1.326,4.165-0.263,4.171,2.369
			c0.008,2.64-1.848,5.853-4.143,7.179c-2.291,1.323-4.158,0.258-4.166-2.381C277.137,91.803,278.993,88.591,281.282,87.269z"/>
	</g>
	<g>
		<path opacity="0.702" fill="#FFFFFF" enable-background="new    " d="M295.559,79.027c2.295-1.327,4.162-0.263,4.17,2.369
			c0.008,2.64-1.847,5.853-4.146,7.179c-2.289,1.322-4.153,0.258-4.165-2.381C291.412,83.562,293.268,80.349,295.559,79.027z"/>
	</g>
	<g>
		<path fill="#FFFFFF" d="M309.831,70.786c2.298-1.326,4.165-0.262,4.173,2.369c0.007,2.64-1.847,5.853-4.145,7.179
			c-2.297,1.326-4.166,0.263-4.174-2.377C305.68,75.325,307.534,72.112,309.831,70.786z"/>
	</g>
</g>
<g>
	<g>
		<path opacity="0.4" fill="#FFFFFF" enable-background="new    " d="M84.909,285.722c2.289-1.322,4.157-0.26,4.164,2.381
			c0.008,2.641-1.847,5.854-4.137,7.176c-2.298,1.326-4.165,0.262-4.172-2.379C80.756,290.261,82.611,287.046,84.909,285.722z"/>
	</g>
	<g>
		<path opacity="0.702" fill="#FFFFFF" enable-background="new    " d="M84.862,269.325c2.291-1.321,4.157-0.258,4.165,2.375
			c0.007,2.641-1.847,5.854-4.138,7.175c-2.298,1.325-4.163,0.263-4.171-2.379C80.71,273.865,82.564,270.651,84.862,269.325z"/>
	</g>
	<g>
		<path fill="#FFFFFF" d="M84.815,252.923c2.292-1.322,4.158-0.258,4.165,2.374c0.007,2.64-1.847,5.853-4.137,7.175
			c-2.298,1.327-4.164,0.263-4.171-2.377C80.664,257.463,82.519,254.25,84.815,252.923z"/>
	</g>
</g>
</svg>
