<?xml version="1.0" encoding="utf-8"?>
<!-- Generator: Adobe Illustrator 16.0.3, SVG Export Plug-In . SVG Version: 6.00 Build 0)  -->
<!DOCTYPE svg PUBLIC "-//W3C//DTD SVG 1.1//EN" "http://www.w3.org/Graphics/SVG/1.1/DTD/svg11.dtd">
<svg version="1.1" xmlns="http://www.w3.org/2000/svg" xmlns:xlink="http://www.w3.org/1999/xlink" x="0px" y="0px"
	 width="118.563px" height="120.43px" viewBox="0 0 118.563 120.43" enable-background="new 0 0 118.563 120.43"
	 xml:space="preserve">
<g id="Layer_1">
	<g id="Layer_1_1_" display="none">
		<g id="affordable" display="inline">
			<g>
				<rect x="48.558" y="61.665" fill="#1ED1C4" width="19.602" height="2.262"/>
				<polygon fill="#1ED1C4" points="55.087,56.732 58.352,59.748 61.619,56.732 64.889,59.748 68.925,56.024 67.392,54.362 
					64.889,56.67 61.619,53.654 58.352,56.67 55.087,53.654 51.822,56.67 49.324,54.363 47.79,56.023 51.822,59.748 				"/>
				<path fill="#1ED1C4" d="M62.321,1.452l-16.52,9.537l16.52,9.536V1.452z M60.06,16.608l-9.732-5.618l9.732-5.62V16.608z"/>
				<path fill="#1ED1C4" d="M14.855,7.162C14.855,3.213,11.643,0,7.694,0C3.745,0,0.532,3.213,0.532,7.162
					c0,3.948,3.213,7.162,7.161,7.162C11.643,14.324,14.855,11.111,14.855,7.162z M2.794,7.162c0-2.702,2.198-4.899,4.899-4.899
					s4.9,2.197,4.9,4.899s-2.199,4.899-4.9,4.899C4.992,12.063,2.794,9.865,2.794,7.162z"/>
				<path fill="#1ED1C4" d="M23.612,37.01c0.604-0.256,1.025-0.667,1.363-0.996c0.481-0.473,0.614-0.564,0.949-0.529
					c0.377,0.048,0.659,0.345,1.127,0.865c0.609,0.679,1.366,1.521,2.729,1.78l0.425-2.222c-0.582-0.111-0.938-0.479-1.469-1.069
					c-0.577-0.646-1.299-1.447-2.536-1.599c-1.441-0.179-2.265,0.625-2.807,1.154c-0.242,0.236-0.451,0.44-0.66,0.529
					c-1.113,0.471-1.345,0.262-2.027-0.354c-0.603-0.541-1.426-1.281-2.871-1.37c-1.588-0.101-2.495,0.774-3.097,1.352
					c-0.647,0.624-0.803,0.772-1.636,0.393c-0.113-0.06-0.47-0.325-0.729-0.521c-1.385-1.04-3.104-2.335-4.544-1.729
					c-0.487,0.204-1.103,0.697-1.26,1.887l2.243,0.296c0.001-0.013,0.004-0.025,0.005-0.038c0.592,0.188,1.73,1.045,2.195,1.394
					c0.482,0.364,0.834,0.628,1.137,0.767c2.242,1.024,3.394-0.081,4.153-0.813c0.535-0.517,0.813-0.764,1.39-0.727
					c0.658,0.041,1.012,0.356,1.496,0.795C20.028,37.006,21.172,38.039,23.612,37.01z"/>
				<path fill="#1ED1C4" d="M0,72.15l16.52-9.537L0,53.076V72.15z M2.262,56.993l9.732,5.619l-9.732,5.618V56.993z"/>
			</g>
			<rect x="19.218" y="28.531" fill="#1ED1C4" width="76.896" height="76.896"/>
			<g>
				<path d="M108.309,70.031V56.085c0-3.381-1.876-6.345-4.503-7.976v-4.125c0-3.438-2.726-6.405-6.163-6.405h-2.385l2.071-2.334
					c0.396-0.463,0.354-1.115-0.101-1.523L66.127,5.571c-0.225-0.2-0.518-0.295-0.815-0.278c-0.302,0.018-0.581,0.249-0.779,0.475
					l-36.57,41.195h-3.755l6.196-7.059c0.152-0.104,0.272-0.289,0.361-0.451l26.084-29.338c0.413-0.466,0.372-1.188-0.094-1.603
					c-0.464-0.413-1.175-0.465-1.589,0.002L29.223,37.579H16.099c-2.896,0-5.335,2.192-5.729,4.926
					c-0.037,0.112-0.021,0.315-0.021,0.44v60.392c0,5.398,7.146,9.308,12.021,9.308h76.71c5.132,0,9.226-4.174,9.226-9.308V90.412
					c1.502-0.511,2.253-1.788,2.253-3.283V73.315C110.562,71.819,109.811,70.542,108.309,70.031z M97.643,39.831
					c2.195,0,3.911,1.958,3.911,4.153v3.147c-0.75-0.229-1.59-0.172-2.471-0.172H87.531l5.801-7.131L97.643,39.831L97.643,39.831z
					 M65.458,8.117l29.45,26.72L84.567,46.962H30.976L65.458,8.117z M12.533,42.968c0.163-1.711,1.729-3.137,3.564-3.137h11.119
					l-6.027,7.131h-5.285c-0.951,0-1.866-0.54-2.508-1.245C12.748,45.003,12.44,43.939,12.533,42.968z M99.084,110.392h-76.71
					c-4.213,0-9.771-3.487-9.771-7.056V47.892c0.751,0.729,2.072,1.321,3.303,1.321h83.18c3.891,0,6.975,2.979,6.975,6.871v13.771
					H84.08c-3.823,0-6.923,3.045-6.923,6.868v6.992c0,3.823,3.1,6.78,6.923,6.78h21.979v12.838
					C106.058,107.227,102.974,110.392,99.084,110.392z M108.309,87.129c0,0.701-0.483,1.119-1.187,1.119H84.08
					c-2.581,0-4.67-1.948-4.67-4.529v-6.992c0-2.582,2.089-4.617,4.67-4.617h23.043c0.701,0,1.187,0.507,1.187,1.207L108.309,87.129
					L108.309,87.129z"/>
				<path d="M88.843,75.181c-2.778,0-5.039,2.262-5.039,5.042c0,2.778,2.261,5.04,5.039,5.04c2.78,0,5.042-2.262,5.042-5.04
					C93.885,77.442,91.623,75.181,88.843,75.181z M88.843,83.01c-1.536,0-2.788-1.25-2.788-2.787c0-1.538,1.252-2.79,2.788-2.79
					c1.538,0,2.79,1.252,2.79,2.79C91.633,81.76,90.381,83.01,88.843,83.01z"/>
				<path d="M47.508,79.001v-13.38c3.002,0.308,5.681,1.819,6.883,4.036c0.297,0.546,1.019,0.749,1.563,0.452
					c0.546-0.297,0.692-0.979,0.396-1.526c-1.584-2.92-4.716-4.894-8.844-5.222v-3.464c0-0.622-0.504-1.126-1.126-1.126
					c-0.623,0-1.126,0.504-1.126,1.126v3.458c-5.255,0.464-9.722,4.26-9.722,8.855c0,4.773,3.342,7.712,9.722,8.749v13.396
					c-3.003-0.321-5.698-1.938-6.832-4.228c-0.276-0.558-0.915-0.783-1.473-0.509s-0.842,0.95-0.563,1.509
					c1.522,3.077,5.115,5.154,8.868,5.488v3.464c0,0.622,0.503,1.125,1.126,1.125c0.622,0,1.126-0.503,1.126-1.125v-3.459
					c5.631-0.464,9.723-4.26,9.723-8.855C57.229,80.834,51.636,79.53,47.508,79.001z M37.786,72.213c0-3.373,3.341-6.164,7.47-6.593
					v13.063C38.876,77.522,37.786,74.468,37.786,72.213z M47.508,94.36V81.287c4.88,0.742,7.472,2.192,7.472,6.479
					C54.979,91.141,52.012,93.933,47.508,94.36z"/>
			</g>
		</g>
		<g id="flexible" display="inline">
			<g>
				<g>
					<rect x="98.339" y="64.433" fill="#F4E6AB" width="19.602" height="2.262"/>
					<polygon fill="#F4E6AB" points="104.868,59.5 108.133,62.515 111.4,59.5 114.67,62.515 118.706,58.792 117.173,57.13 
						114.67,59.438 111.4,56.422 108.133,59.438 104.868,56.421 101.604,59.437 99.105,57.13 97.571,58.792 101.604,62.517 					"/>
					<path fill="#F4E6AB" d="M112.103,4.219l-16.52,9.537l16.52,9.537V4.219z M109.841,19.376l-9.732-5.619l9.732-5.621V19.376z"/>
					<path fill="#F4E6AB" d="M64.637,9.93c0-3.949-3.214-7.162-7.161-7.162c-3.949,0-7.162,3.213-7.162,7.162
						c0,3.948,3.213,7.161,7.162,7.161C61.424,17.092,64.637,13.879,64.637,9.93z M52.575,9.93c0-2.702,2.197-4.899,4.899-4.899
						c2.7,0,4.898,2.197,4.898,4.899c0,2.701-2.198,4.899-4.898,4.899C54.773,14.831,52.575,12.632,52.575,9.93z"/>
					<path fill="#F4E6AB" d="M73.393,39.779c0.604-0.256,1.025-0.667,1.363-0.997c0.48-0.472,0.615-0.565,0.95-0.528
						c0.377,0.047,0.66,0.345,1.127,0.865c0.608,0.678,1.366,1.521,2.729,1.78l0.424-2.224c-0.583-0.109-0.938-0.479-1.468-1.067
						c-0.578-0.646-1.3-1.447-2.537-1.601c-1.44-0.177-2.265,0.626-2.807,1.156c-0.241,0.236-0.45,0.44-0.659,0.529
						c-1.114,0.471-1.346,0.261-2.028-0.354c-0.603-0.542-1.425-1.281-2.87-1.371c-1.589-0.101-2.495,0.775-3.097,1.353
						c-0.647,0.623-0.804,0.771-1.636,0.393c-0.113-0.06-0.47-0.326-0.729-0.521c-1.384-1.039-3.104-2.334-4.544-1.729
						c-0.486,0.205-1.103,0.698-1.259,1.888l2.243,0.296c0.001-0.015,0.003-0.025,0.005-0.038c0.591,0.188,1.73,1.045,2.194,1.394
						c0.483,0.364,0.834,0.627,1.138,0.767c2.241,1.024,3.394-0.081,4.152-0.813c0.536-0.517,0.813-0.764,1.391-0.727
						c0.657,0.041,1.011,0.356,1.496,0.795C69.81,39.774,70.953,40.807,73.393,39.779z"/>
					<path fill="#F4E6AB" d="M49.781,74.917L66.3,65.38l-16.519-9.536C49.781,55.844,49.781,74.917,49.781,74.917z M52.043,59.76
						l9.732,5.62l-9.732,5.619V59.76z"/>
				</g>
			</g>
			<rect x="16.538" y="28.647" fill="#F4E6AB" width="76.896" height="76.896"/>
			<g>
				<polygon points="44.396,22.671 46.14,24.419 54.22,16.353 54.22,38.443 56.688,38.443 56.688,16.361 64.75,24.438 
					66.497,22.693 55.456,11.633 				"/>
				<rect x="54.223" y="52.507" width="2.468" height="2.468"/>
				<rect x="54.228" y="46.912" width="2.468" height="2.469"/>
				<rect x="54.231" y="41.318" width="2.47" height="2.468"/>
				<polygon points="13.852,56.724 12.107,54.975 1.045,66.017 12.086,77.079 13.834,75.334 5.765,67.251 27.857,67.251 
					27.857,64.784 5.773,64.784 				"/>
				<rect x="41.918" y="64.783" width="2.469" height="2.469"/>
				<rect x="36.325" y="64.777" width="2.468" height="2.471"/>
				<rect x="30.731" y="64.774" width="2.468" height="2.469"/>
				<polygon points="56.666,115.708 56.666,93.615 54.197,93.615 54.197,115.7 46.136,107.622 44.388,109.367 55.431,120.429 
					66.492,109.389 64.747,107.64 				"/>
				<rect x="54.196" y="77.087" width="2.471" height="2.47"/>
				<rect x="54.187" y="88.275" width="2.468" height="2.47"/>
				<rect x="54.191" y="82.681" width="2.47" height="2.469"/>
				<polygon points="98.8,54.982 97.053,56.728 105.12,64.809 83.029,64.809 83.029,67.275 105.112,67.275 97.035,75.336 
					98.779,77.084 109.841,66.043 				"/>
				<rect x="72.094" y="64.813" width="2.468" height="2.469"/>
				<rect x="77.688" y="64.818" width="2.467" height="2.469"/>
				<rect x="66.499" y="64.809" width="2.469" height="2.467"/>
				<path d="M47.902,73.571h15.082V58.488H47.902V73.571z M50.37,60.956h10.146v10.146H50.37V60.956z"/>
			</g>
		</g>
		<g display="inline">
			<rect x="39.279" y="51.1" fill="#1ED1C4" width="12.162" height="1.404"/>
			<polygon fill="#1ED1C4" points="43.33,48.039 45.355,49.91 47.383,48.039 49.412,49.91 51.916,47.6 50.965,46.569 49.412,48 
				47.383,46.13 45.355,48 43.33,46.13 41.304,48 39.755,46.57 38.802,47.599 41.304,49.91 			"/>
			<path fill="#1ED1C4" d="M47.819,13.74l-10.25,5.918l10.25,5.917V13.74z M46.415,23.143l-6.04-3.485l6.04-3.487V23.143z"/>
			<path fill="#1ED1C4" d="M18.366,17.282c0-2.451-1.993-4.444-4.443-4.444S9.48,14.831,9.48,17.282
				c0,2.449,1.993,4.443,4.443,4.443S18.366,19.732,18.366,17.282z M10.883,17.282c0-1.678,1.364-3.041,3.04-3.041
				s3.041,1.363,3.041,3.041c0,1.676-1.365,3.041-3.041,3.041S10.883,18.958,10.883,17.282z"/>
			<path fill="#1ED1C4" d="M23.8,35.802c0.375-0.159,0.637-0.414,0.847-0.619c0.298-0.292,0.382-0.351,0.589-0.328
				c0.234,0.029,0.409,0.213,0.7,0.537c0.377,0.421,0.849,0.944,1.692,1.105l0.263-1.378c-0.361-0.069-0.582-0.297-0.911-0.664
				c-0.357-0.401-0.806-0.898-1.573-0.992c-0.895-0.11-1.405,0.388-1.741,0.717c-0.15,0.147-0.28,0.274-0.41,0.33
				c-0.692,0.291-0.834,0.162-1.258-0.221c-0.374-0.336-0.885-0.796-1.782-0.852c-0.984-0.062-1.548,0.481-1.92,0.839
				c-0.402,0.389-0.499,0.479-1.016,0.243c-0.069-0.037-0.291-0.203-0.451-0.322c-0.858-0.646-1.926-1.449-2.819-1.073
				c-0.303,0.127-0.684,0.433-0.782,1.17l1.393,0.184c0.001-0.008,0.003-0.017,0.003-0.023c0.366,0.115,1.074,0.647,1.361,0.863
				c0.301,0.228,0.519,0.391,0.705,0.477c1.393,0.636,2.105-0.05,2.578-0.504c0.333-0.32,0.505-0.475,0.862-0.451
				c0.409,0.026,0.627,0.222,0.929,0.493C21.576,35.799,22.286,36.441,23.8,35.802z"/>
			<path fill="#1ED1C4" d="M9.15,57.606l10.249-5.918L9.15,45.771V57.606z M10.553,48.201l6.039,3.486l-6.039,3.486V48.201z"/>
		</g>
		<g display="inline">
			<g>
				<rect x="-72.91" y="51.1" fill="#F4E6AB" width="12.162" height="1.404"/>
				<polygon fill="#F4E6AB" points="-68.859,48.039 -66.834,49.91 -64.807,48.039 -62.777,49.91 -60.273,47.6 -61.224,46.569 
					-62.777,48 -64.807,46.13 -66.834,48 -68.859,46.13 -70.885,48 -72.435,46.57 -73.387,47.599 -70.885,49.91 				"/>
				<path fill="#F4E6AB" d="M-64.371,13.74l-10.25,5.918l10.25,5.917V13.74z M-65.774,23.143l-6.039-3.485l6.039-3.487V23.143z"/>
				<path fill="#F4E6AB" d="M-93.823,17.282c0-2.451-1.993-4.444-4.443-4.444s-4.443,1.994-4.443,4.444
					c0,2.449,1.994,4.443,4.443,4.443C-95.816,21.726-93.823,19.732-93.823,17.282z M-101.306,17.282
					c0-1.678,1.364-3.041,3.041-3.041s3.04,1.363,3.04,3.041c0,1.676-1.363,3.041-3.04,3.041S-101.306,18.958-101.306,17.282z"/>
				<path fill="#F4E6AB" d="M-88.389,35.802c0.375-0.159,0.638-0.414,0.847-0.619c0.299-0.292,0.381-0.351,0.589-0.328
					c0.233,0.029,0.409,0.213,0.7,0.537c0.377,0.421,0.847,0.944,1.691,1.105l0.264-1.378c-0.361-0.069-0.582-0.297-0.911-0.664
					c-0.358-0.401-0.807-0.898-1.574-0.992c-0.895-0.11-1.404,0.388-1.74,0.717c-0.149,0.147-0.28,0.274-0.41,0.33
					c-0.69,0.291-0.834,0.162-1.258-0.221c-0.373-0.336-0.884-0.796-1.781-0.852c-0.985-0.062-1.548,0.481-1.921,0.839
					c-0.401,0.389-0.498,0.479-1.015,0.243c-0.07-0.037-0.291-0.203-0.451-0.322c-0.858-0.646-1.926-1.449-2.82-1.073
					c-0.302,0.127-0.684,0.433-0.78,1.17l1.392,0.184c0.001-0.008,0.002-0.017,0.003-0.023c0.367,0.115,1.075,0.647,1.362,0.863
					c0.3,0.228,0.518,0.391,0.706,0.477c1.392,0.636,2.104-0.05,2.577-0.504c0.333-0.32,0.505-0.475,0.861-0.451
					c0.408,0.026,0.627,0.222,0.93,0.493C-90.613,35.799-89.903,36.441-88.389,35.802z"/>
				<path fill="#F4E6AB" d="M-103.04,57.606l10.249-5.918l-10.249-5.917V57.606z M-101.636,48.201l6.039,3.486l-6.039,3.486V48.201z
					"/>
			</g>
		</g>
		<g display="inline">
			<g>
				<rect x="221.102" y="51.1" fill="#C494EA" width="12.162" height="1.404"/>
				<polygon fill="#C494EA" points="225.154,48.039 227.179,49.91 229.207,48.039 231.236,49.91 233.741,47.6 232.788,46.569 
					231.236,48 229.207,46.13 227.179,48 225.154,46.13 223.128,48 221.578,46.57 220.626,47.599 223.128,49.91 				"/>
				<path fill="#C494EA" d="M229.642,13.74l-10.25,5.918l10.25,5.917V13.74z M228.239,23.143l-6.038-3.485l6.038-3.487V23.143z"/>
				<path fill="#C494EA" d="M200.191,17.282c0-2.451-1.995-4.444-4.443-4.444c-2.45,0-4.443,1.994-4.443,4.444
					c0,2.449,1.993,4.443,4.443,4.443C198.196,21.726,200.191,19.732,200.191,17.282z M192.707,17.282
					c0-1.678,1.363-3.041,3.04-3.041s3.04,1.363,3.04,3.041c0,1.676-1.363,3.041-3.04,3.041S192.707,18.958,192.707,17.282z"/>
				<path fill="#C494EA" d="M205.624,35.802c0.376-0.159,0.637-0.414,0.847-0.619c0.299-0.292,0.382-0.351,0.589-0.328
					c0.233,0.029,0.409,0.213,0.7,0.537c0.378,0.421,0.847,0.944,1.691,1.105l0.264-1.378c-0.361-0.069-0.582-0.297-0.912-0.664
					c-0.357-0.401-0.805-0.898-1.574-0.992c-0.894-0.11-1.403,0.388-1.738,0.717c-0.15,0.147-0.28,0.274-0.41,0.33
					c-0.691,0.291-0.835,0.162-1.26-0.221c-0.373-0.336-0.884-0.796-1.78-0.852c-0.984-0.062-1.549,0.481-1.921,0.839
					c-0.403,0.389-0.499,0.479-1.016,0.243c-0.07-0.037-0.291-0.203-0.451-0.322c-0.858-0.646-1.926-1.449-2.819-1.073
					c-0.303,0.127-0.684,0.433-0.781,1.17l1.393,0.184c0.001-0.008,0.002-0.017,0.003-0.023c0.367,0.115,1.074,0.647,1.362,0.863
					c0.3,0.228,0.519,0.391,0.705,0.477c1.392,0.636,2.105-0.05,2.577-0.504c0.333-0.32,0.506-0.475,0.862-0.451
					c0.407,0.026,0.627,0.222,0.928,0.493C203.4,35.799,204.11,36.441,205.624,35.802z"/>
				<path fill="#C494EA" d="M190.973,57.606l10.249-5.918l-10.249-5.917V57.606z M192.377,48.201l6.039,3.486l-6.039,3.486V48.201z"
					/>
			</g>
		</g>
		<rect x="28.286" y="33.492" display="inline" fill="#1ED1C4" width="67.531" height="67.532"/>
		<rect x="213.119" y="32.633" display="inline" fill="#C494EA" width="67.53" height="67.533"/>
		<rect x="-147.09" y="36.931" display="inline" fill="#F4E6AB" width="67.531" height="67.533"/>
		<g display="inline">
			<path d="M-76.109,52.928l-8.844-6.84v-7.674c0-3.478-2.829-6.306-6.304-6.306h-11.757l-6.446-4.982
				c-2.274-1.752-5.451-1.752-7.727,0.001l-6.445,4.981h-11.757c-3.476,0-6.305,2.828-6.305,6.306v7.674l-8.844,6.84
				c-0.386,0.298-0.612,0.759-0.612,1.247v40.979c0,1.816,0.772,3.531,2.094,4.684c1.154,1.045,2.65,1.622,4.211,1.622H-81.8
				c1.561,0,3.055-0.577,4.187-1.603c1.345-1.172,2.117-2.887,2.117-4.703V54.175C-75.496,53.687-75.722,53.226-76.109,52.928z
				 M-78.93,96.458l-25.103-19.432l25.385-19.641v37.767C-78.648,95.611-78.746,96.053-78.93,96.458z M-79.648,54.175l-5.304,4.104
				v-8.206L-79.648,54.175z M-115.26,29.622c1.156-0.894,2.715-0.895,3.873-0.001l3.221,2.487h-10.313L-115.26,29.622z
				 M-135.387,35.261h44.132c1.737,0,3.151,1.414,3.151,3.152v22.305l-23.288,18.018c-1.136,0.88-2.723,0.88-3.858,0l-23.288-18.018
				V38.414C-138.54,36.675-137.126,35.261-135.387,35.261z M-147.716,96.458c-0.183-0.401-0.28-0.847-0.28-1.306V57.386
				l25.385,19.641L-147.716,96.458z M-141.692,58.281l-5.305-4.104l5.305-4.103V58.281z M-144.844,98.304
				c-0.034,0-0.064-0.007-0.098-0.007l24.906-19.277l2.854,2.209c1.137,0.88,2.497,1.318,3.858,1.318s2.722-0.438,3.858-1.318
				l2.854-2.209l24.906,19.277c-0.033,0-0.064,0.007-0.097,0.007H-144.844z"/>
			<path d="M-113.546,68.359c0.01,0,0.019,0,0.028,0c0.857,0,1.561-0.688,1.575-1.549c0.017-0.87-0.678-1.588-1.549-1.604
				c-5.213-0.094-9.379-4.41-9.287-9.623c0.092-5.156,4.316-9.289,9.453-9.289c0.056,0,0.113,0,0.171,0.002
				c5.212,0.092,9.379,4.409,9.287,9.623c-0.022,1.276-0.396,2.117-1.11,2.498c-0.9,0.479-2.286,0.297-3.396-0.185l0.111-6.271
				c0.011-0.592-0.313-1.142-0.835-1.419c-2.355-1.253-5.918-1.025-7.803,1.53c-1.202,1.629-1.702,3.894-1.274,5.77
				c0.333,1.463,1.18,2.592,2.449,3.266c2.159,1.142,4.273,0.469,5.698-0.17c1.885,0.929,4.49,1.349,6.531,0.261
				c1.013-0.54,2.721-1.937,2.781-5.224c0.123-6.951-5.434-12.708-12.385-12.831c-0.075-0.001-0.149-0.001-0.227-0.001
				c-6.848,0-12.482,5.51-12.604,12.385C-126.052,62.479-120.497,68.235-113.546,68.359z M-111.526,58.146
				c-1.098,0.458-1.944,0.59-2.723,0.178c-0.447-0.236-0.727-0.623-0.854-1.18c-0.222-0.973,0.088-2.317,0.738-3.199
				c0.506-0.685,1.363-0.992,2.216-0.992c0.241,0,0.481,0.024,0.713,0.071L-111.526,58.146z"/>
		</g>
		<g display="inline">
			<g>
				<path d="M290.158,106.674c-0.293,0-0.583-0.073-0.841-0.213l-23.083-12.507h-28.526c-2.297,0-4.459-1.047-5.932-2.872
					l-0.016-0.02l-0.017-0.017c-0.011-0.011-1.655-1.877-2.387-4.729l-0.171-0.668l-28.173,15.263
					c-0.257,0.14-0.547,0.214-0.839,0.214c-0.49,0-0.962-0.207-1.294-0.565c-0.548-0.591-0.626-1.476-0.191-2.153l8.901-13.853
					l-0.856-0.102c-4.746-0.563-8.324-4.595-8.324-9.378V44.644c0-5.208,4.236-9.445,9.443-9.445h60.798
					c5.209,0,9.445,4.236,9.445,9.445V55.35h6.178c4.218,0,7.647,3.432,7.647,7.648v23.309c0,3.546-2.509,6.685-5.968,7.461
					l-0.75,0.17l6.437,10.019c0.437,0.679,0.357,1.563-0.189,2.153C291.119,106.468,290.648,106.674,290.158,106.674z
					 M234.446,88.774c0.862,1.064,2.021,1.65,3.263,1.65h28.976c0.292,0,0.583,0.073,0.84,0.213l19.016,11.2l-6.039-8.694
					c-0.35-0.544-0.374-1.231-0.063-1.8c0.311-0.567,0.902-0.919,1.549-0.919h2.292c2.271,0,4.118-1.848,4.118-4.118V62.998
					c0-2.271-1.849-4.118-4.118-4.118H278.1v16.195c0,5.208-4.235,9.443-9.445,9.443h-36.081l0.141,0.652
					c0.445,2.059,1.642,3.494,1.752,3.622L234.446,88.774z M207.855,38.729c-3.261,0-5.915,2.653-5.915,5.915v30.432
					c0,3.262,2.654,5.912,5.915,5.912h2.992c0.646,0,1.24,0.354,1.549,0.922c0.312,0.565,0.286,1.256-0.063,1.799l-8.211,12.005
					l25.861-14.511c0.26-0.14,0.551-0.215,0.842-0.215h37.827c3.263,0,5.916-2.65,5.916-5.912V44.644
					c0-3.262-2.653-5.915-5.916-5.915H207.855z"/>
			</g>
			<g>
				<path d="M220.556,63.14c-1.978,0-3.588-1.609-3.588-3.588c0-1.978,1.61-3.588,3.588-3.588c1.979,0,3.588,1.61,3.588,3.588
					C224.144,61.531,222.535,63.14,220.556,63.14z"/>
			</g>
			<g>
				<path d="M238.256,63.14c-1.979,0-3.588-1.609-3.588-3.588c0-1.978,1.607-3.588,3.588-3.588c1.978,0,3.587,1.61,3.587,3.588
					C241.843,61.531,240.233,63.14,238.256,63.14z"/>
			</g>
			<g>
				<path d="M255.954,63.14c-1.979,0-3.589-1.609-3.589-3.588c0-1.978,1.609-3.588,3.589-3.588c1.978,0,3.587,1.61,3.587,3.588
					C259.541,61.531,257.931,63.14,255.954,63.14z"/>
			</g>
		</g>
		<g display="inline">
			<path id="XMLID_14_" fill="none" stroke="#000000" stroke-width="3" stroke-miterlimit="10" d="M79.224,25.933H45.001
				c-2.987,0-5.409,2.422-5.409,5.409v71.077c0,2.988,2.422,5.41,5.409,5.41h34.223c2.988,0,5.41-2.422,5.41-5.41V31.343
				C84.635,28.355,82.213,25.933,79.224,25.933z"/>
			
				<rect id="XMLID_16_" x="39.592" y="39.983" fill="none" stroke="#000000" stroke-width="3" stroke-miterlimit="10" width="45.042" height="53.797"/>
			
				<circle id="XMLID_17_" fill="none" stroke="#000000" stroke-width="3" stroke-miterlimit="10" cx="62.113" cy="100.649" r="3.268"/>
			
				<line id="XMLID_2_" fill="none" stroke="#000000" stroke-width="3" stroke-linecap="round" stroke-miterlimit="10" x1="55.728" y1="32.855" x2="68.697" y2="32.855"/>
		</g>
	</g>
	<g id="Layer_2" display="none">
		<g display="inline">
			<g>
				<rect x="36.102" y="53.1" fill="#C494EA" width="12.162" height="1.404"/>
				<polygon fill="#C494EA" points="40.154,50.039 42.179,51.91 44.207,50.039 46.236,51.91 48.741,49.6 47.788,48.569 46.236,50 
					44.207,48.13 42.179,50 40.154,48.13 38.128,50 36.578,48.57 35.626,49.599 38.128,51.91 				"/>
				<path fill="#C494EA" d="M44.642,15.74l-10.25,5.918l10.25,5.917V15.74z M43.239,25.143L37.2,21.656l6.038-3.487V25.143z"/>
				<path fill="#C494EA" d="M15.191,19.282c0-2.451-1.995-4.444-4.443-4.444c-2.45,0-4.443,1.994-4.443,4.444
					c0,2.449,1.993,4.443,4.443,4.443C13.196,23.726,15.191,21.732,15.191,19.282z M7.707,19.282c0-1.678,1.363-3.041,3.04-3.041
					s3.04,1.363,3.04,3.041c0,1.676-1.363,3.041-3.04,3.041S7.707,20.958,7.707,19.282z"/>
				<path fill="#C494EA" d="M20.624,37.802c0.376-0.159,0.637-0.414,0.847-0.619c0.299-0.292,0.382-0.351,0.589-0.328
					c0.233,0.029,0.409,0.213,0.7,0.537c0.378,0.421,0.847,0.944,1.691,1.105l0.264-1.378c-0.361-0.069-0.582-0.297-0.912-0.664
					c-0.357-0.401-0.805-0.898-1.574-0.992c-0.894-0.11-1.403,0.388-1.738,0.717c-0.15,0.147-0.28,0.274-0.41,0.33
					c-0.691,0.291-0.835,0.162-1.26-0.221c-0.372-0.336-0.884-0.796-1.78-0.852c-0.984-0.062-1.549,0.481-1.921,0.839
					c-0.403,0.389-0.499,0.479-1.016,0.243c-0.07-0.037-0.291-0.203-0.451-0.322c-0.858-0.646-1.926-1.449-2.819-1.073
					c-0.303,0.127-0.684,0.433-0.781,1.17l1.393,0.184c0.001-0.008,0.002-0.017,0.004-0.023c0.366,0.115,1.073,0.647,1.361,0.863
					c0.3,0.228,0.519,0.391,0.705,0.477c1.393,0.636,2.105-0.05,2.577-0.504c0.333-0.32,0.506-0.475,0.862-0.451
					c0.407,0.026,0.627,0.222,0.928,0.493C18.4,37.799,19.11,38.441,20.624,37.802z"/>
				<path fill="#C494EA" d="M5.973,59.606l10.249-5.918L5.973,47.771V59.606z M7.377,50.201l6.039,3.486l-6.039,3.486V50.201z"/>
			</g>
		</g>
		<rect x="28.119" y="34.633" display="inline" fill="#C494EA" width="67.53" height="67.533"/>
		<g display="inline">
			<g>
				<path d="M105.158,108.674c-0.293,0-0.583-0.073-0.841-0.213L81.235,95.954H52.708c-2.297,0-4.459-1.047-5.932-2.872l-0.016-0.02
					l-0.017-0.017c-0.011-0.011-1.655-1.877-2.387-4.729l-0.171-0.668l-28.173,15.263c-0.257,0.14-0.547,0.214-0.839,0.214
					c-0.49,0-0.962-0.207-1.294-0.565c-0.548-0.591-0.626-1.476-0.191-2.153l8.901-13.853l-0.856-0.102
					c-4.746-0.563-8.324-4.595-8.324-9.378V46.644c0-5.208,4.236-9.445,9.443-9.445h60.798c5.209,0,9.445,4.236,9.445,9.445V57.35
					h6.178c4.218,0,7.647,3.432,7.647,7.648v23.309c0,3.546-2.509,6.685-5.968,7.461l-0.75,0.17l6.437,10.019
					c0.437,0.679,0.357,1.563-0.189,2.153C106.119,108.468,105.648,108.674,105.158,108.674z M49.446,90.774
					c0.862,1.064,2.021,1.65,3.263,1.65h28.976c0.292,0,0.583,0.073,0.84,0.213l19.016,11.2L95.5,95.143
					c-0.35-0.544-0.374-1.231-0.063-1.8c0.311-0.567,0.902-0.919,1.549-0.919h2.292c2.271,0,4.118-1.848,4.118-4.118V64.998
					c0-2.271-1.849-4.118-4.118-4.118H93.1v16.195c0,5.208-4.236,9.443-9.445,9.443H47.571l0.142,0.652
					c0.445,2.059,1.642,3.494,1.752,3.622L49.446,90.774z M22.855,40.729c-3.261,0-5.915,2.653-5.915,5.915v30.432
					c0,3.262,2.654,5.912,5.915,5.912h2.992c0.646,0,1.24,0.354,1.549,0.922c0.312,0.565,0.286,1.256-0.063,1.799l-8.211,12.005
					l25.861-14.511c0.26-0.14,0.551-0.215,0.842-0.215h37.827c3.263,0,5.916-2.65,5.916-5.912V46.644
					c0-3.262-2.653-5.915-5.916-5.915H22.855z"/>
			</g>
			<g>
				<path d="M35.556,65.14c-1.978,0-3.588-1.609-3.588-3.588s1.61-3.588,3.588-3.588c1.979,0,3.588,1.61,3.588,3.588
					C39.144,63.531,37.535,65.14,35.556,65.14z"/>
			</g>
			<g>
				<path d="M53.256,65.14c-1.979,0-3.588-1.609-3.588-3.588s1.607-3.588,3.588-3.588c1.978,0,3.587,1.61,3.587,3.588
					C56.843,63.531,55.233,65.14,53.256,65.14z"/>
			</g>
			<g>
				<path d="M70.954,65.14c-1.979,0-3.589-1.609-3.589-3.588s1.609-3.588,3.589-3.588c1.978,0,3.587,1.61,3.587,3.588
					C74.541,63.531,72.931,65.14,70.954,65.14z"/>
			</g>
		</g>
	</g>
	<g>
		<rect x="36.279" y="53.1" fill="#66D5F6" width="12.162" height="1.404"/>
		<polygon fill="#66D5F6" points="40.33,50.039 42.355,51.91 44.383,50.039 46.412,51.91 48.916,49.6 47.965,48.569 46.412,50 
			44.383,48.13 42.355,50 40.33,48.13 38.304,50 36.755,48.57 35.802,49.599 38.304,51.91 		"/>
		<path fill="#66D5F6" d="M44.819,15.74l-10.25,5.918l10.25,5.917V15.74z M43.415,25.143l-6.04-3.485l6.04-3.487V25.143z"/>
		<path fill="#66D5F6" d="M15.366,19.282c0-2.451-1.993-4.444-4.443-4.444S6.48,16.831,6.48,19.282c0,2.449,1.993,4.443,4.443,4.443
			S15.366,21.732,15.366,19.282z M7.883,19.282c0-1.678,1.364-3.041,3.04-3.041s3.041,1.363,3.041,3.041
			c0,1.676-1.365,3.041-3.041,3.041S7.883,20.958,7.883,19.282z"/>
		<path fill="#66D5F6" d="M20.8,37.802c0.375-0.159,0.637-0.414,0.847-0.619c0.298-0.292,0.382-0.351,0.589-0.328
			c0.234,0.029,0.409,0.213,0.7,0.537c0.377,0.421,0.849,0.944,1.692,1.105l0.263-1.378c-0.361-0.069-0.582-0.297-0.911-0.664
			c-0.357-0.401-0.806-0.898-1.573-0.992c-0.895-0.11-1.405,0.388-1.741,0.717c-0.15,0.147-0.28,0.274-0.41,0.33
			c-0.692,0.291-0.834,0.162-1.258-0.221c-0.374-0.336-0.885-0.796-1.782-0.852c-0.984-0.062-1.548,0.481-1.92,0.839
			c-0.402,0.389-0.499,0.479-1.016,0.243c-0.069-0.037-0.291-0.203-0.451-0.322c-0.858-0.646-1.926-1.449-2.819-1.073
			c-0.303,0.127-0.684,0.433-0.782,1.17l1.393,0.184c0.001-0.008,0.003-0.017,0.003-0.023c0.366,0.115,1.074,0.647,1.361,0.863
			c0.301,0.228,0.519,0.391,0.705,0.477c1.393,0.636,2.105-0.05,2.578-0.504c0.333-0.32,0.505-0.475,0.862-0.451
			c0.409,0.026,0.627,0.222,0.929,0.493C18.576,37.799,19.286,38.441,20.8,37.802z"/>
		<path fill="#66D5F6" d="M6.15,59.606l10.249-5.918L6.15,47.771V59.606z M7.553,50.201l6.039,3.486l-6.039,3.486V50.201z"/>
	</g>
	<rect x="28.286" y="34.492" fill="#66D5F6" width="67.531" height="67.532"/>
	<g id="Layer_4" display="none">
		<g display="inline">
			<g>
				<rect x="102.925" y="49.1" fill="#F4E6AB" width="12.162" height="1.404"/>
				<polygon fill="#F4E6AB" points="106.975,46.039 109.001,47.91 111.028,46.039 113.057,47.91 115.562,45.6 114.61,44.569 
					113.057,46 111.028,44.13 109.001,46 106.975,44.13 104.95,46 103.4,44.57 102.448,45.599 104.95,47.91 				"/>
				<path fill="#F4E6AB" d="M111.464,11.74l-10.249,5.918l10.249,5.917V11.74z M110.061,21.143l-6.039-3.485l6.039-3.487V21.143z"/>
				<path fill="#F4E6AB" d="M82.012,15.282c0-2.451-1.993-4.444-4.443-4.444c-2.449,0-4.442,1.994-4.442,4.444
					c0,2.449,1.993,4.443,4.442,4.443C80.019,19.726,82.012,17.732,82.012,15.282z M74.529,15.282c0-1.678,1.364-3.041,3.04-3.041
					c1.677,0,3.041,1.363,3.041,3.041c0,1.676-1.364,3.041-3.041,3.041C75.893,18.323,74.529,16.958,74.529,15.282z"/>
				<path fill="#F4E6AB" d="M87.446,33.802c0.375-0.159,0.638-0.414,0.847-0.619c0.299-0.292,0.382-0.351,0.59-0.328
					c0.234,0.029,0.408,0.213,0.699,0.537c0.378,0.421,0.848,0.944,1.691,1.105l0.264-1.378c-0.36-0.069-0.582-0.297-0.91-0.664
					c-0.359-0.401-0.808-0.898-1.574-0.992c-0.895-0.11-1.404,0.388-1.74,0.717c-0.149,0.147-0.281,0.274-0.41,0.33
					c-0.69,0.291-0.834,0.162-1.259-0.221c-0.373-0.336-0.884-0.796-1.781-0.852c-0.984-0.062-1.548,0.481-1.921,0.839
					c-0.401,0.389-0.498,0.479-1.016,0.243c-0.069-0.037-0.291-0.203-0.451-0.322c-0.858-0.646-1.926-1.449-2.819-1.073
					c-0.302,0.127-0.684,0.433-0.78,1.17l1.392,0.184c0.002-0.008,0.003-0.017,0.004-0.023c0.367,0.115,1.074,0.647,1.361,0.863
					c0.301,0.228,0.518,0.391,0.705,0.477c1.393,0.636,2.104-0.05,2.578-0.504c0.332-0.32,0.505-0.475,0.86-0.451
					c0.408,0.026,0.628,0.222,0.931,0.493C85.222,33.799,85.932,34.441,87.446,33.802z"/>
				<path fill="#F4E6AB" d="M72.796,55.606l10.248-5.918l-10.248-5.917V55.606z M74.198,46.201l6.038,3.486l-6.038,3.486V46.201z"/>
			</g>
		</g>
		<rect x="28.745" y="34.931" display="inline" fill="#F4E6AB" width="67.532" height="67.533"/>
		<g display="inline">
			<path d="M99.726,50.928l-8.844-6.84v-7.674c0-3.478-2.829-6.306-6.304-6.306H72.822l-6.446-4.982
				c-2.274-1.752-5.451-1.752-7.727,0.001l-6.445,4.981H40.448c-3.477,0-6.306,2.828-6.306,6.306v7.674l-8.844,6.84
				c-0.386,0.298-0.612,0.759-0.612,1.247v40.979c0,1.816,0.772,3.531,2.095,4.684c1.153,1.045,2.649,1.622,4.21,1.622h63.044
				c1.561,0,3.056-0.577,4.187-1.603c1.346-1.172,2.117-2.887,2.117-4.703V52.175C100.339,51.687,100.112,51.226,99.726,50.928z
				 M96.905,94.458L71.802,75.027l25.385-19.641v37.767C97.186,93.611,97.089,94.053,96.905,94.458z M96.186,52.175l-5.304,4.104
				v-8.206L96.186,52.175z M60.575,27.622c1.156-0.894,2.715-0.895,3.874-0.001l3.22,2.487H57.357L60.575,27.622z M40.448,33.261
				h44.131c1.737,0,3.15,1.414,3.15,3.152v22.305L64.442,76.736c-1.137,0.88-2.723,0.88-3.858,0L37.295,58.719V36.414
				C37.295,34.675,38.709,33.261,40.448,33.261z M28.119,94.458c-0.183-0.401-0.28-0.847-0.28-1.306V55.386l25.385,19.641
				L28.119,94.458z M34.143,56.281l-5.305-4.104l5.305-4.103V56.281z M30.991,96.304c-0.034,0-0.064-0.007-0.098-0.007L55.8,77.02
				l2.854,2.209c1.137,0.88,2.496,1.318,3.857,1.318s2.722-0.438,3.857-1.318l2.854-2.209L94.13,96.297
				c-0.033,0-0.064,0.007-0.097,0.007H30.991z"/>
			<path d="M62.289,66.359c0.01,0,0.019,0,0.028,0c0.856,0,1.561-0.688,1.575-1.549c0.017-0.87-0.678-1.588-1.549-1.604
				c-5.213-0.094-9.379-4.41-9.287-9.623c0.092-5.156,4.315-9.289,9.453-9.289c0.056,0,0.113,0,0.17,0.002
				c5.213,0.092,9.379,4.409,9.287,9.623c-0.022,1.276-0.396,2.117-1.11,2.498c-0.9,0.479-2.286,0.297-3.396-0.185l0.112-6.271
				c0.01-0.592-0.313-1.142-0.837-1.419c-2.354-1.253-5.918-1.025-7.803,1.53c-1.202,1.629-1.702,3.894-1.273,5.77
				c0.333,1.463,1.181,2.592,2.449,3.266c2.158,1.142,4.272,0.469,5.697-0.17c1.886,0.929,4.49,1.349,6.531,0.261
				c1.014-0.54,2.722-1.937,2.781-5.224c0.123-6.951-5.434-12.708-12.385-12.831c-0.075-0.001-0.149-0.001-0.227-0.001
				c-6.848,0-12.482,5.51-12.604,12.385C49.783,60.479,55.338,66.235,62.289,66.359z M64.309,56.146
				c-1.098,0.458-1.943,0.59-2.723,0.178c-0.447-0.236-0.728-0.623-0.854-1.18c-0.221-0.973,0.088-2.317,0.738-3.199
				c0.506-0.685,1.363-0.992,2.217-0.992c0.24,0,0.48,0.024,0.713,0.071L64.309,56.146z"/>
		</g>
	</g>
</g>
<g id="Layer_2_1_">
	<g>
		<g id="Ellipse_2_copy_7">
			<g>
				<path fill-rule="evenodd" clip-rule="evenodd" d="M48.033,77.133c-1.352,0-2.447,1.095-2.447,2.446
					c0,1.351,1.095,2.446,2.447,2.446c1.35,0,2.445-1.096,2.445-2.446C50.479,78.228,49.383,77.133,48.033,77.133z M33.802,77.133
					c-1.351,0-2.446,1.095-2.446,2.446c0,1.351,1.095,2.446,2.446,2.446s2.446-1.096,2.446-2.446
					C36.248,78.228,35.153,77.133,33.802,77.133z M62.264,63.792c-1.351,0-2.447,1.094-2.447,2.445s1.097,2.445,2.447,2.445
					s2.446-1.094,2.446-2.445S63.615,63.792,62.264,63.792z M48.033,63.792c-1.352,0-2.447,1.094-2.447,2.445
					s1.095,2.445,2.447,2.445c1.35,0,2.445-1.094,2.445-2.445S49.383,63.792,48.033,63.792z M33.802,63.792
					c-1.351,0-2.446,1.094-2.446,2.445s1.095,2.445,2.446,2.445s2.446-1.094,2.446-2.445S35.153,63.792,33.802,63.792z
					 M76.495,55.342c1.352,0,2.445-1.097,2.445-2.445c0-1.352-1.094-2.447-2.445-2.447s-2.446,1.095-2.446,2.447
					C74.049,54.245,75.144,55.342,76.495,55.342z M62.264,50.449c-1.351,0-2.447,1.095-2.447,2.447c0,1.349,1.097,2.445,2.447,2.445
					s2.446-1.097,2.446-2.445C64.71,51.545,63.615,50.449,62.264,50.449z M48.033,50.449c-1.352,0-2.447,1.095-2.447,2.447
					c0,1.349,1.095,2.445,2.447,2.445c1.35,0,2.445-1.097,2.445-2.445C50.479,51.545,49.383,50.449,48.033,50.449z M76.495,63.792
					c-1.352,0-2.446,1.094-2.446,2.445s1.095,2.445,2.446,2.445s2.445-1.094,2.445-2.445S77.847,63.792,76.495,63.792z
					 M62.264,77.133c-1.351,0-2.447,1.095-2.447,2.446c0,1.351,1.097,2.446,2.447,2.446s2.446-1.096,2.446-2.446
					C64.71,78.228,63.615,77.133,62.264,77.133z"/>
			</g>
		</g>
		<g>
			<path fill-rule="evenodd" clip-rule="evenodd" d="M89.615,108.264c-9.499,0-17.38-6.929-18.867-16.011H25.574
				c-3.439,0-6.226-2.787-6.226-6.226V34.438c0-3.438,2.787-6.224,6.226-6.224h8.005v-3.559c0-0.983,0.796-1.778,1.778-1.778
				c0.983,0,1.779,0.795,1.779,1.778v3.559h36.022v-3.559c0-0.983,0.797-1.778,1.78-1.778c0.981,0,1.778,0.795,1.778,1.778v3.559
				h8.005c3.438,0,6.226,2.786,6.226,6.224v35.63c9.938,0.686,17.789,8.959,17.789,19.072
				C108.738,99.702,100.176,108.264,89.615,108.264z M87.392,34.885c0-1.719-1.395-3.113-3.114-3.113h-7.56v3.558
				c0,0.981-0.797,1.779-1.778,1.779c-0.983,0-1.78-0.797-1.78-1.779v-3.558H37.137v3.558c0,0.981-0.796,1.779-1.779,1.779
				c-0.982,0-1.778-0.797-1.778-1.779v-3.558h-7.561c-1.72,0-3.113,1.394-3.113,3.113v5.337h64.486V34.885z M87.392,43.779H22.906
				v41.804c0,1.72,1.394,3.114,3.113,3.114h44.483c0.221-9.607,7.519-17.46,16.89-18.547V43.779z M89.615,73.575
				c-8.597,0-15.565,6.97-15.565,15.565c0,8.597,6.969,15.564,15.565,15.564s15.564-6.968,15.564-15.564
				C105.179,80.545,98.211,73.575,89.615,73.575z"/>
			<path fill-rule="evenodd" clip-rule="evenodd" d="M90.948,78.912v11.563c0,0.983-0.796,1.778-1.778,1.778
				c-0.983,0-1.778-0.795-1.778-1.778V78.912c0-0.982,0.795-1.779,1.778-1.779C90.153,77.133,90.948,77.93,90.948,78.912z"/>
			<path fill-rule="evenodd" clip-rule="evenodd" d="M97.62,92.253h-8.45c-0.983,0-1.778-0.795-1.778-1.778s0.795-1.778,1.778-1.778
				h8.45c0.982,0,1.778,0.795,1.778,1.778S98.603,92.253,97.62,92.253z"/>
		</g>
	</g>
</g>
</svg>
