<?xml version="1.0" encoding="utf-8"?>
<!-- Generator: Adobe Illustrator 16.0.3, SVG Export Plug-In . SVG Version: 6.00 Build 0)  -->
<!DOCTYPE svg PUBLIC "-//W3C//DTD SVG 1.1//EN" "http://www.w3.org/Graphics/SVG/1.1/DTD/svg11.dtd">
<svg version="1.1" id="Layer_1" xmlns="http://www.w3.org/2000/svg" xmlns:xlink="http://www.w3.org/1999/xlink" x="0px" y="0px"
	 width="100px" height="96px" viewBox="0 42 100 96" enable-background="new 0 42 100 96" xml:space="preserve">
<g id="proven" display="none">
	<g display="inline">
		<path fill="#171714" d="M399.351,114.82v6.394c0,4.349-3.532,7.886-7.877,7.886h-35.827c-0.824,0-1.494-0.668-1.494-1.496
			c0-0.824,0.67-1.492,1.494-1.492h35.827c2.695,0,4.886-2.198,4.886-4.896v-4.896H356.16v2.264c0,4.716-3.83,8.553-8.541,8.553
			c-5.068,0-8.68-4.002-8.68-8.553V61.649c-0.156-3.587-2.627-6.059-5.939-5.804c-3.195,0-5.793,2.606-5.793,5.804
			c0,0.828-0.672,1.496-1.496,1.496s-1.496-0.667-1.496-1.496c0-4.542,3.457-8.292,7.875-8.749
			c0.297-0.03,43.683-0.046,43.683-0.046c5.151,0,9.346,4.201,9.346,9.363v45.721h-2.988V62.217c0-3.515-2.854-6.372-6.356-6.372
			H339.74c1.363,1.551,2.19,3.582,2.19,5.804v56.931c0,2.904,2.275,5.564,5.689,5.564c3.063,0,5.553-2.496,5.553-5.564v-3.76
			c0-0.825,0.668-1.492,1.496-1.492h43.188C398.679,113.328,399.351,113.995,399.351,114.82L399.351,114.82z"/>
		<path fill="#1ED1C4" d="M375.232,73.729H349.32c-0.826,0-1.496-0.786-1.496-1.612c0-0.826,0.67-1.613,1.496-1.613h25.912
			c0.827,0,1.495,0.787,1.495,1.613C376.728,72.943,376.06,73.729,375.232,73.729L375.232,73.729z"/>
		<path fill="#1ED1C4" d="M375.232,65.67H349.32c-0.826,0-1.496-0.625-1.496-1.452c0-0.825,0.67-1.451,1.496-1.451h25.912
			c0.827,0,1.495,0.625,1.495,1.451C376.728,65.045,376.06,65.67,375.232,65.67L375.232,65.67z"/>
		<path fill="#1ED1C4" d="M355.3,81.467h-5.979c-0.826,0-1.496-0.625-1.496-1.451c0-0.826,0.67-1.451,1.496-1.451h5.979
			c0.824,0,1.494,0.625,1.494,1.451C356.794,80.842,356.125,81.467,355.3,81.467L355.3,81.467z"/>
		<path fill="#1ED1C4" d="M355.3,88.56h-5.979c-0.826,0-1.496-0.625-1.496-1.452c0-0.826,0.67-1.451,1.496-1.451h5.979
			c0.824,0,1.494,0.625,1.494,1.451C356.794,87.935,356.125,88.56,355.3,88.56L355.3,88.56z"/>
		<path fill="#1ED1C4" d="M355.3,96.619h-5.979c-0.826,0-1.496-0.786-1.496-1.611c0-0.826,0.67-1.613,1.496-1.613h5.979
			c0.824,0,1.494,0.787,1.494,1.613C356.794,95.833,356.125,96.619,355.3,96.619L355.3,96.619z"/>
		<path fill="#171714" d="M372.441,85.696c0,1.622-1.32,2.944-2.939,2.944c-1.623,0-2.943-1.322-2.943-2.944
			c0-1.621,1.32-2.94,2.943-2.94C371.121,82.756,372.441,84.075,372.441,85.696L372.441,85.696z"/>
		<path fill="#171714" d="M375.333,99.053c-0.432-0.006-0.842,0.154-1.133,0.465l-0.67,0.709l-1.777-4.351
			c0.611-0.413,1.107-1.022,1.408-1.778c0.108-0.275,0.809-0.449,0.936-0.41l2.211,5.404L375.333,99.053L375.333,99.053z
			 M370.378,93.08c-0.229,0.588-1.082,0.668-1.373-0.07c-0.68-1.723-2.567-2.77-4.576-2.146c-0.584,0.175-1.203-0.419-0.803-1.118
			c0.953-1.655,0.463-3.798-1.176-4.919c-0.512-0.348-0.416-1.2,0.377-1.322c1.885-0.288,3.256-2.005,3.111-3.986
			c-0.044-0.561,0.614-1.131,1.27-0.53c1.363,1.261,3.576,1.313,5.055-0.051c0.437-0.402,1.269-0.171,1.205,0.657
			c-0.137,1.905,1.23,3.623,3.193,3.923c0.621,0.094,0.889,0.906,0.235,1.354c-1.573,1.076-2.063,3.219-1.075,4.941
			c0.297,0.511-0.115,1.279-0.908,1.028C373.126,90.29,371.142,91.15,370.378,93.08L370.378,93.08z M365.361,100.227l-0.668-0.709
			c-0.293-0.311-0.689-0.471-1.134-0.465l-0.975,0.039l2.152-5.273h0.004c0.196-0.028,0.401-0.075,0.627-0.146
			c0.354-0.112,0.74,0.066,0.912,0.498c0.221,0.554,0.561,1.031,0.981,1.406L365.361,100.227L365.361,100.227z M377.132,93.291
			c0.51-0.309,0.947-0.747,1.258-1.283c0.662-1.144,0.662-2.517-0.037-3.737c-0.188-0.322-0.094-0.745,0.279-1
			c1.256-0.859,1.851-2.376,1.512-3.859c-0.34-1.485-1.53-2.59-3.11-2.833c-0.371-0.057-0.64-0.393-0.605-0.843
			c0.076-1.039-0.268-2.019-0.961-2.767c-1.33-1.428-3.688-1.613-5.27-0.156c-0.269,0.249-0.656,0.3-1.037-0.052
			c-1.459-1.347-3.885-1.22-5.213,0.208c-0.697,0.748-1.035,1.729-0.955,2.843c0.026,0.374-0.242,0.709-0.688,0.78
			c-1.506,0.23-2.696,1.335-3.032,2.82c-0.341,1.482,0.25,3,1.569,3.899c0.31,0.214,0.404,0.637,0.179,1.026
			c-0.66,1.154-0.66,2.527,0,3.671c0.225,0.389,0.516,0.729,0.852,1.006l-2.896,7.086c-0.389,0.947,0.285,2.059,1.431,2.037
			l2.598-0.1l1.785,1.891c0.508,0.606,1.867,0.942,2.445-0.453l2.215-5.414l2.213,5.414c0.322,0.801,1.438,1.533,2.447,0.453
			l1.784-1.891l2.597,0.1c1.123,0.021,1.826-1.07,1.43-2.037L377.132,93.291L377.132,93.291z"/>
	</g>
	<g display="inline">
		<path fill="#171714" d="M-203.126,121.895c4.09-2.302,7.521-7.188,9.775-13.689h11.342
			C-186.779,115.318-194.348,120.412-203.126,121.895L-203.126,121.895z M-207.055,108.204h10.642
			c-2.526,6.702-6.356,11.341-10.642,12.198V108.204L-207.055,108.204z M-209.794,120.428c-4.336-0.785-8.218-5.451-10.771-12.224
			h10.771V120.428L-209.794,120.428z M-234.875,108.204h11.251c2.241,6.479,5.658,11.354,9.729,13.665
			C-222.615,120.357-230.129,115.283-234.875,108.204L-234.875,108.204z M-180.369,105.475c-0.055-0.006-0.11-0.009-0.168-0.009
			H-192.5c0.559-2.018,1.012-4.157,1.344-6.399h-2.871c-0.365,2.25-0.859,4.397-1.46,6.399h-11.567v-6.399h-2.739v6.399h-11.695
			c-0.603-2.005-1.097-4.149-1.462-6.399h-2.87c0.329,2.242,0.785,4.383,1.345,6.399h-12.041c-1.077-2.014-1.943-4.157-2.566-6.399
			h-2.906c0.688,2.713,1.701,5.3,2.994,7.717c0.219,0.417,0.449,0.832,0.691,1.238c6.016,10.24,17.15,17.127,29.863,17.127
			c16.146,0,29.738-11.105,33.546-26.082h-2.902C-178.426,101.311-179.289,103.455-180.369,105.475L-180.369,105.475z
			 M-216.791,59.843c-3.093,2.933-5.639,7.476-7.349,13.073h-10.765C-230.695,66.609-224.292,61.885-216.791,59.843L-216.791,59.843
			z M-209.794,59.116v13.799h-11.331C-218.603,65.298-214.458,59.962-209.794,59.116L-209.794,59.116z M-207.055,59.141
			c4.615,0.924,8.701,6.23,11.199,13.774h-11.199V59.141L-207.055,59.141z M-181.975,72.916h-10.863
			c-1.716-5.622-4.277-10.176-7.387-13.105C-192.669,61.83-186.215,66.569-181.975,72.916L-181.975,72.916z M-236.545,75.653h11.66
			c-0.491,2.02-0.879,4.153-1.146,6.377h2.852c0.3-2.229,0.718-4.362,1.247-6.377h12.138v6.377h2.739v-6.377h12.008
			c0.529,2.015,0.951,4.149,1.248,6.377h2.855c-0.271-2.224-0.656-4.357-1.15-6.377h11.557c0.064,0,0.129-0.002,0.192-0.012
			c1.07,2.011,1.932,4.152,2.554,6.389h2.9c-3.801-14.985-17.401-26.105-33.551-26.105s-29.755,11.12-33.556,26.105h2.906
			C-238.473,79.797-237.613,77.661-236.545,75.653L-236.545,75.653z"/>
		<path fill="#29A7F8" d="M-173.896,92.677h-52.952l-1.561-0.315c-0.048,0,0-3.051,0-3.051c-0.002,0.01,1.561-0.283,1.561-0.283
			h52.952V92.677L-173.896,92.677z M-235.757,90.922l4.673-0.993v1.858c0,0.02-0.004,0.038,0,0.056L-235.757,90.922L-235.757,90.922
			z M-172.585,86.289h-54.548c-0.104,0-15.751,3.306-15.751,3.306c-0.648,0.145-1.111,0.713-1.106,1.376
			c0.005,0.663,0.476,1.219,1.127,1.352l15.73,3.107c0.092,0.02,54.548,0,54.548,0c0.776,0,1.428-0.529,1.428-1.305v-6.546
			C-171.157,86.802-171.809,86.289-172.585,86.289L-172.585,86.289z"/>
	</g>
	<g display="inline">
		<path fill="#C494EA" d="M82.888,105.42c-0.83,0-1.502-0.672-1.502-1.5v-1.541c-0.438-0.564-2.629-1.865-6.307-3.08
			c-2.104-0.693-3.186-0.729-5.255-0.174c-3.925,1.053-6.232,2.202-6.757,2.756v2.039c0,0.828-0.669,1.5-1.499,1.5
			s-1.5-0.672-1.5-1.5v-2.25c-0.015-0.805-0.057-3.018,8.979-5.443c2.627-0.705,4.321-0.65,6.973,0.226
			c8.424,2.78,8.379,5.05,8.365,5.796v1.673C84.386,104.748,83.714,105.42,82.888,105.42L82.888,105.42z"/>
		<path fill="#C494EA" d="M67.785,87.485c-0.053,2.513,1.943,4.705,4.597,4.705c2.482,0,4.543-2.095,4.594-4.578
			c0.047-2.269-1.732-4.491-4.502-4.491C69.904,83.121,67.835,84.991,67.785,87.485L67.785,87.485z M72.224,95.039
			c-4.197-0.086-7.527-3.555-7.44-7.752c0.083-4.103,3.489-7.441,7.592-7.441c4.504,0.055,7.684,3.676,7.6,7.753
			C79.894,91.637,76.556,95.094,72.224,95.039L72.224,95.039z"/>
		<path fill="#171714" d="M125.841,109.996c0,0.852-0.674,1.543-1.5,1.543H55.323c-0.826,0-1.499-0.691-1.499-1.543V67.412
			c0-0.85,0.673-1.542,1.499-1.542h27.608v7.965c0,3.557,2.531,6.533,5.928,7.222l-0.01,8.314c0,0.547,0.297,1.055,0.775,1.316
			c0.492,0.271,1.067,0.244,1.528-0.047l14.808-9.434h9.297c4.063,0,7.373-3.309,7.373-7.373V65.87h1.711
			c0.826,0,1.5,0.692,1.5,1.542V109.996L125.841,109.996z M85.929,60.716c0-2.407,1.961-4.37,4.371-4.37h24.957
			c2.41,0,4.369,1.963,4.369,4.37v13.119c0,2.412-1.959,4.37-4.369,4.37h-9.731c-0.287,0-0.566,0.084-0.808,0.235l-12.866,8.197
			l0.012-6.931c0-0.396-0.188-0.779-0.471-1.062c-0.281-0.282-0.693-0.44-1.093-0.44c-2.41,0-4.371-1.958-4.371-4.37V60.716
			L85.929,60.716z M124.341,62.869h-1.711v-2.153c0-4.064-3.312-7.37-7.373-7.37H90.3c-4.064,0-7.369,3.306-7.369,7.37v2.153H55.323
			c-2.479,0-4.497,2.036-4.497,4.542v42.584c0,2.507,2.018,4.543,4.497,4.543h69.018c2.482,0,4.5-2.036,4.5-4.543V67.412
			C128.841,64.905,126.824,62.869,124.341,62.869L124.341,62.869z"/>
		<path fill="#171714" d="M126.453,124.104H51.436c-0.828,0-1.5-0.682-1.5-1.511s0.672-1.512,1.5-1.512h75.017
			c0.826,0,1.5,0.683,1.5,1.512S127.279,124.104,126.453,124.104L126.453,124.104z"/>
		<path fill="#C494EA" d="M95.259,66.998c0,1.727-1.403,3.131-3.127,3.131c-1.729,0-3.133-1.404-3.133-3.131
			c0-1.723,1.404-3.13,3.133-3.13C93.855,63.868,95.259,65.275,95.259,66.998L95.259,66.998z"/>
		<path fill="#C494EA" d="M106.259,66.998c0,1.727-1.401,3.131-3.127,3.131c-1.728,0-3.131-1.404-3.131-3.131
			c0-1.723,1.403-3.13,3.131-3.13C104.857,63.868,106.259,65.275,106.259,66.998L106.259,66.998z"/>
		<path fill="#C494EA" d="M117.007,66.998c0,1.727-1.405,3.131-3.131,3.131c-1.724,0-3.131-1.404-3.131-3.131
			c0-1.723,1.407-3.13,3.131-3.13C115.602,63.868,117.007,65.275,117.007,66.998L117.007,66.998z"/>
		<polygon fill="#171714" points="120.46,96.223 92.58,96.223 92.58,93.199 120.46,93.199 		"/>
		<polygon fill="#171714" points="120.46,102.941 92.58,102.941 92.58,100.254 120.46,100.254 		"/>
	</g>
	<g display="inline">
		<path fill="#09100C" d="M670.886,75.833l-19.209-10.81c-0.733-0.412-1.684-0.151-2.098,0.584
			c-0.412,0.735-0.187,1.664,0.547,2.079l17.174,9.689l-15.406,6.624l-35.45-14.628l35.45-14.627l34.029,14.627L670.886,75.833
			L670.886,75.833z M679.49,91.328c-0.988,0.699-3.408,2.191-7.226,3.623V78.566l7.226-3.106V91.328L679.49,91.328z
			 M673.113,112.064v9.244h-4.068v-9.244C669.044,107.029,673.113,106.641,673.113,112.064L673.113,112.064z M652.007,98.379
			c-3.979,0-7.588-0.383-10.797-0.974c-2.352-5.412-7.746-9.207-14.012-9.207c-0.912,0-1.808,0.082-2.674,0.236V76.01l26.799,11.056
			c0.369,0.154,0.795,0.157,1.186-0.007l16.615-7.143v16.087C664.718,97.323,659,98.379,652.007,98.379L652.007,98.379z
			 M627.199,115.678c-6.734,0-12.211-5.477-12.211-12.212c0-6.733,5.477-12.214,12.211-12.214c6.735,0,12.215,5.48,12.215,12.214
			C639.414,110.201,633.935,115.678,627.199,115.678L627.199,115.678z M690.394,70.774c1.228-0.53,1.234-2.271,0-2.804
			l-37.885-16.285c-0.379-0.164-0.807-0.167-1.186-0.009L611.859,67.96c-1.259,0.519-1.252,2.309,0,2.824l9.526,3.928v14.639
			c-5.545,2.292-9.451,7.752-9.451,14.114c0,8.418,6.847,15.266,15.265,15.266c8.42,0,15.268-6.848,15.268-15.266
			c0-0.947-0.09-1.875-0.254-2.771c2.957,0.457,6.213,0.738,9.752,0.738c6.916,0,12.639-0.969,17.16-2.236v6.338
			c-1.855,1.033-3.135,3.537-3.135,6.531v10.771c0,0.842,0.686,1.525,1.526,1.525h7.125c0.845,0,1.527-0.685,1.527-1.525v-10.771
			c0-3.373-1.621-6.119-3.904-6.849v-7.008c6.265-2.192,9.5-4.728,9.73-4.912c0.356-0.289,0.635-0.726,0.635-1.188V74.113
			L690.394,70.774L690.394,70.774z"/>
		<path fill="#ED4F6E" d="M631.935,106.409c-0.272,1.923-1.479,3.237-3.325,3.712v1.053c0,0.842-0.729,1.526-1.572,1.526
			c-0.84,0-1.57-0.685-1.57-1.526v-1.134c-1.69-0.619-3.205-2.181-3.479-3.813c-0.14-0.828,0.424-1.617,1.256-1.754
			c0.83-0.14,1.617,0.42,1.756,1.252c0.273,1.608,3.607,2.342,3.912,0.254c0.231-1.653-4.853-1.302-6.17-4.381
			c-0.469-1.09-0.418-2.391,0.135-3.479c0.488-0.957,1.326-1.681,2.406-2.082v-1.222c0-0.842,0.682-1.526,1.524-1.526
			c0.844,0,1.527,0.687,1.527,1.526v1.029c1.664,0.465,2.633,1.891,2.922,3.051c0.203,0.815-0.293,1.646-1.113,1.851
			c-0.813,0.2-1.633-0.283-1.846-1.091c-0.506-1.756-3.358-0.692-2.752,0.74c0.414,0.734,3.701,1.668,4.479,2.051
			C631.492,103.182,632.189,104.626,631.935,106.409L631.935,106.409z"/>
	</g>
	
		<line display="inline" fill="none" stroke="#ED4F6E" stroke-width="3" stroke-miterlimit="10" x1="613.896" y1="100.314" x2="639.212" y2="107.275"/>
	<g display="inline">
		<g>
			<path d="M-484.658,121.111c-0.731,0-1.47-0.113-2.187-0.348c-2.036-0.66-3.644-2.188-4.409-4.188l-0.727-1.898
				c-0.664-1.734-2.292-2.917-4.146-3.013l-2.031-0.104c-2.139-0.109-4.086-1.166-5.344-2.898c-1.259-1.732-1.661-3.91-1.105-5.979
				l0.527-1.964c0.482-1.793-0.139-3.706-1.583-4.875l-1.581-1.276c-1.665-1.346-2.62-3.346-2.62-5.487
				c0-2.141,0.955-4.141,2.62-5.486l1.581-1.278c1.444-1.167,2.065-3.081,1.583-4.874l-0.527-1.964
				c-0.556-2.067-0.153-4.247,1.105-5.978c1.258-1.733,3.207-2.79,5.344-2.899l2.031-0.105c1.854-0.095,3.482-1.278,4.146-3.012
				l0.727-1.899c0.766-1.999,2.373-3.525,4.409-4.187c2.036-0.661,4.232-0.372,6.026,0.796l1.705,1.109
				c1.556,1.013,3.568,1.013,5.125,0l1.703-1.109c1.796-1.167,3.992-1.458,6.028-0.796c2.036,0.662,3.643,2.188,4.408,4.187
				l0.728,1.899c0.664,1.734,2.291,2.917,4.146,3.012l2.031,0.105c2.138,0.11,4.085,1.167,5.344,2.899
				c1.259,1.731,1.662,3.911,1.106,5.978l-0.528,1.964c-0.482,1.793,0.139,3.707,1.584,4.874l1.581,1.278
				c1.664,1.346,2.619,3.346,2.619,5.486c0,2.142-0.955,4.142-2.619,5.487l-1.581,1.276c-1.445,1.169-2.066,3.082-1.584,4.875
				l0.528,1.964c0.556,2.067,0.152,4.246-1.106,5.979c-1.258,1.732-3.206,2.789-5.344,2.898l-2.031,0.104
				c-1.854,0.096-3.481,1.278-4.146,3.013l-0.728,1.898c-0.766,2-2.372,3.525-4.408,4.188c-2.036,0.661-4.232,0.372-6.028-0.797
				l-1.703-1.107c-1.557-1.014-3.569-1.014-5.125,0l-1.705,1.107C-481.979,120.725-483.312,121.111-484.658,121.111z
				 M-476.551,115.744c1.339,0,2.678,0.38,3.847,1.141l1.704,1.108c1.196,0.778,2.659,0.972,4.015,0.53
				c1.357-0.441,2.427-1.457,2.938-2.789l0.727-1.898c0.996-2.604,3.44-4.379,6.226-4.523l2.029-0.104
				c1.424-0.074,2.722-0.777,3.56-1.932c0.839-1.153,1.107-2.604,0.735-3.982l-0.526-1.963c-0.724-2.691,0.209-5.564,2.377-7.318
				l1.581-1.277c1.109-0.896,1.745-2.229,1.745-3.654c0-1.425-0.635-2.758-1.745-3.655l-1.581-1.277
				c-2.168-1.753-3.101-4.626-2.377-7.318l0.526-1.963c0.372-1.377,0.104-2.829-0.735-3.982c-0.838-1.154-2.136-1.857-3.56-1.931
				l-2.029-0.104c-2.785-0.144-5.229-1.919-6.226-4.523l-0.727-1.898c-0.511-1.332-1.58-2.349-2.938-2.789
				c-1.355-0.441-2.818-0.248-4.015,0.53l-1.704,1.109c-2.337,1.521-5.357,1.521-7.694,0l-1.704-1.109
				c-1.196-0.778-2.658-0.971-4.015-0.53c-1.356,0.44-2.427,1.457-2.937,2.789l-0.727,1.898c-0.997,2.604-3.441,4.379-6.226,4.523
				l-2.031,0.104c-1.424,0.074-2.72,0.778-3.559,1.931c-0.839,1.153-1.106,2.605-0.736,3.982l0.528,1.963
				c0.723,2.693-0.21,5.566-2.378,7.318l-1.582,1.277c-1.108,0.897-1.745,2.229-1.745,3.655s0.637,2.758,1.745,3.654l1.582,1.277
				c2.168,1.754,3.101,4.627,2.378,7.318l-0.528,1.963c-0.37,1.378-0.103,2.829,0.736,3.982c0.839,1.154,2.135,1.856,3.559,1.932
				l2.031,0.104c2.784,0.146,5.229,1.92,6.226,4.523l0.727,1.898c0.51,1.332,1.58,2.349,2.937,2.789
				c1.356,0.44,2.818,0.248,4.015-0.53l1.704-1.108C-479.23,116.124-477.891,115.744-476.551,115.744z"/>
		</g>
		<g>
			<path fill="#FFBF6D" d="M-476.551,108.689c-10.813,0-19.609-8.797-19.609-19.608c0-10.812,8.797-19.608,19.609-19.608
				c10.811,0,19.607,8.796,19.607,19.608C-456.944,99.893-465.74,108.689-476.551,108.689z M-476.551,71.829
				c-9.514,0-17.253,7.74-17.253,17.252c0,9.513,7.739,17.252,17.253,17.252c9.513,0,17.252-7.739,17.252-17.252
				C-459.299,79.569-467.038,71.829-476.551,71.829z"/>
		</g>
		<g>
			<polygon points="-487.225,146.512 -494.336,135.98 -506.974,137.303 -494.581,110.725 -492.446,111.721 -503.081,134.525 
				-493.176,133.491 -487.602,141.745 -475.911,116.678 -473.776,117.672 			"/>
		</g>
		<g>
			<polygon points="-465.69,149.824 -478.57,123.413 -476.454,122.381 -465.397,145.051 -459.967,136.701 -450.046,137.563 
				-462.065,112.92 -459.947,111.889 -446.104,140.271 -458.765,139.17 			"/>
		</g>
		<g>
			
				<rect x="-485.955" y="90.674" transform="matrix(-0.7071 -0.7072 0.7072 -0.7071 -886.4429 -183.5106)" width="9.447" height="2.356"/>
			
				<rect x="-482.103" y="87.903" transform="matrix(0.7071 -0.7071 0.7071 0.7071 -201.6566 -308.6953)" width="17.273" height="2.355"/>
		</g>
	</g>
</g>
<g id="Layer_6" display="none">
	<g display="inline">
		<path fill="#09100C" d="M116.213,69.437L91.829,55.714c-0.933-0.522-2.138-0.191-2.663,0.742
			c-0.523,0.933-0.235,2.112,0.694,2.639l21.802,12.3l-19.559,8.408l-45.004-18.57l45.004-18.569l43.198,18.569L116.213,69.437
			L116.213,69.437z M127.135,89.107c-1.255,0.888-4.326,2.782-9.171,4.599v-20.8l9.171-3.943V89.107L127.135,89.107z
			 M119.04,115.434v11.732h-5.164v-11.732C113.875,109.039,119.04,108.546,119.04,115.434L119.04,115.434z M92.248,98.059
			c-5.054,0-9.633-0.485-13.707-1.235c-2.985-6.871-9.833-11.688-17.787-11.688c-1.158,0-2.293,0.103-3.395,0.299V69.661
			L91.38,83.697c0.47,0.195,1.009,0.199,1.505-0.01l21.094-9.067v20.423C108.383,96.718,101.124,98.059,92.248,98.059L92.248,98.059
			z M60.753,120.02c-8.549,0-15.501-6.953-15.501-15.504c0-8.548,6.952-15.505,15.501-15.505c8.551,0,15.506,6.958,15.506,15.505
			C76.259,113.064,69.305,120.02,60.753,120.02L60.753,120.02z M140.979,63.014c1.558-0.673,1.566-2.883,0-3.56L92.884,38.781
			c-0.479-0.208-1.022-0.211-1.505-0.012l-50.1,20.673c-1.597,0.658-1.589,2.931,0,3.585l12.095,4.987v18.584
			c-7.039,2.909-11.998,9.841-11.998,17.917c0,10.688,8.69,19.379,19.377,19.379c10.688,0,19.382-8.691,19.382-19.379
			c0-1.203-0.114-2.38-0.322-3.52c3.754,0.581,7.887,0.938,12.38,0.938c8.779,0,16.043-1.229,21.783-2.838v8.045
			c-2.354,1.312-3.979,4.489-3.979,8.293v13.672c0,1.068,0.87,1.938,1.938,1.938h9.045c1.071,0,1.939-0.868,1.939-1.938v-13.672
			c0-4.283-2.059-7.771-4.956-8.694v-8.896c7.951-2.782,12.06-6.001,12.353-6.235c0.453-0.366,0.807-0.92,0.807-1.507V67.253
			L140.979,63.014L140.979,63.014z"/>
		<path fill="#ED4F6E" d="M66.766,108.252c-0.347,2.441-1.879,4.111-4.223,4.712v1.337c0,1.068-0.925,1.938-1.996,1.938
			c-1.066,0-1.993-0.869-1.993-1.938v-1.439c-2.147-0.785-4.069-2.767-4.416-4.84c-0.176-1.053,0.538-2.055,1.594-2.229
			c1.054-0.176,2.053,0.535,2.229,1.591c0.347,2.042,4.58,2.973,4.966,0.322c0.295-2.1-6.159-1.652-7.833-5.563
			c-0.595-1.383-0.531-3.033,0.171-4.418c0.62-1.215,1.684-2.132,3.055-2.644V93.53c0-1.067,0.866-1.938,1.937-1.938
			c1.071,0,1.939,0.87,1.939,1.938v1.309c2.113,0.591,3.342,2.399,3.709,3.873c0.258,1.035-0.372,2.087-1.414,2.349
			c-1.031,0.254-2.073-0.359-2.343-1.385c-0.642-2.229-4.265-0.88-3.494,0.939c0.525,0.933,4.699,2.115,5.686,2.604
			C66.203,104.154,67.088,105.988,66.766,108.252L66.766,108.252z"/>
	</g>
	
		<line display="inline" fill="none" stroke="#ED4F6E" stroke-width="3" stroke-miterlimit="10" x1="43.866" y1="100.516" x2="76.004" y2="109.352"/>
</g>
<g id="Layer_5" display="none">
	<g display="inline">
		<path fill="#171714" d="M138.384,115.121v8.117c0,5.52-4.485,10.011-9.999,10.011H82.902c-1.046,0-1.896-0.849-1.896-1.899
			c0-1.048,0.851-1.896,1.896-1.896h45.483c3.422,0,6.201-2.791,6.201-6.216v-6.219H83.554v2.875
			c0,5.985-4.862,10.856-10.843,10.856c-6.434,0-11.019-5.081-11.019-10.856V47.622c-0.198-4.553-3.334-7.691-7.54-7.368
			c-4.056,0-7.354,3.309-7.354,7.368c0,1.051-0.853,1.899-1.899,1.899S43,48.673,43,47.622c0-5.766,4.389-10.526,9.997-11.106
			c0.377-0.038,55.453-0.058,55.453-0.058c6.54,0,11.864,5.333,11.864,11.886v58.041h-3.795V48.343c0-4.462-3.621-8.089-8.069-8.089
			H62.707c1.731,1.97,2.782,4.547,2.782,7.368v72.272c0,3.687,2.888,7.063,7.222,7.063c3.891,0,7.049-3.169,7.049-7.063v-4.773
			c0-1.047,0.849-1.895,1.899-1.895h54.825C137.532,113.229,138.384,114.074,138.384,115.121L138.384,115.121z"/>
		<path fill="#1ED1C4" d="M107.766,62.958H74.872c-1.049,0-1.899-0.998-1.899-2.046c0-1.049,0.851-2.047,1.899-2.047h32.896
			c1.051,0,1.898,0.999,1.898,2.047C109.666,61.959,108.816,62.958,107.766,62.958L107.766,62.958z"/>
		<path fill="#1ED1C4" d="M107.766,52.726H74.872c-1.049,0-1.899-0.792-1.899-1.843c0-1.047,0.851-1.841,1.899-1.841h32.896
			c1.051,0,1.898,0.794,1.898,1.841C109.666,51.934,108.816,52.726,107.766,52.726L107.766,52.726z"/>
		<path fill="#1ED1C4" d="M82.463,72.78h-7.592c-1.049,0-1.899-0.793-1.899-1.842c0-1.048,0.851-1.842,1.899-1.842h7.592
			c1.046,0,1.896,0.794,1.896,1.842C84.36,71.986,83.509,72.78,82.463,72.78L82.463,72.78z"/>
		<path fill="#1ED1C4" d="M82.463,81.784h-7.592c-1.049,0-1.899-0.793-1.899-1.843c0-1.048,0.851-1.842,1.899-1.842h7.592
			c1.046,0,1.896,0.794,1.896,1.842C84.36,80.991,83.509,81.784,82.463,81.784L82.463,81.784z"/>
		<path fill="#1ED1C4" d="M82.463,92.016h-7.592c-1.049,0-1.899-0.998-1.899-2.046c0-1.05,0.851-2.048,1.899-2.048h7.592
			c1.046,0,1.896,0.998,1.896,2.048C84.36,91.018,83.509,92.016,82.463,92.016L82.463,92.016z"/>
		<path fill="#171714" d="M104.223,78.148c0,2.059-1.677,3.737-3.73,3.737c-2.061,0-3.737-1.679-3.737-3.737
			s1.677-3.732,3.737-3.732C102.546,74.417,104.223,76.091,104.223,78.148L104.223,78.148z"/>
		<path fill="#171714" d="M107.895,95.104c-0.547-0.006-1.067,0.196-1.438,0.592l-0.852,0.898l-2.256-5.521
			c0.776-0.524,1.406-1.298,1.789-2.259c0.139-0.35,1.025-0.569,1.188-0.52l2.807,6.859L107.895,95.104L107.895,95.104z
			 M101.605,87.522c-0.291,0.747-1.375,0.848-1.744-0.089c-0.862-2.187-3.26-3.516-5.81-2.724c-0.741,0.222-1.526-0.532-1.02-1.42
			c1.21-2.1,0.588-4.822-1.492-6.245c-0.649-0.441-0.528-1.524,0.479-1.679c2.393-0.365,4.133-2.546,3.949-5.061
			c-0.055-0.712,0.78-1.436,1.611-0.673c1.73,1.601,4.54,1.667,6.417-0.064c0.553-0.511,1.608-0.217,1.528,0.834
			c-0.172,2.418,1.563,4.599,4.055,4.98c0.789,0.12,1.129,1.15,0.301,1.72c-1.999,1.365-2.619,4.087-1.365,6.271
			c0.377,0.65-0.146,1.624-1.154,1.306C105.093,83.979,102.574,85.073,101.605,87.522L101.605,87.522z M95.234,96.595l-0.848-0.899
			c-0.371-0.395-0.875-0.598-1.438-0.59l-1.237,0.05l2.731-6.694h0.006c0.251-0.037,0.511-0.097,0.796-0.186
			c0.448-0.143,0.938,0.084,1.157,0.632c0.281,0.702,0.713,1.309,1.248,1.784L95.234,96.595L95.234,96.595z M110.178,87.791
			c0.647-0.392,1.203-0.948,1.598-1.629c0.841-1.452,0.841-3.196-0.047-4.745c-0.24-0.409-0.119-0.946,0.354-1.27
			c1.595-1.091,2.35-3.017,1.919-4.898c-0.431-1.885-1.942-3.288-3.949-3.597c-0.472-0.073-0.811-0.499-0.769-1.07
			c0.097-1.318-0.34-2.563-1.221-3.512c-1.688-1.813-4.684-2.047-6.689-0.198c-0.339,0.316-0.833,0.381-1.316-0.066
			c-1.852-1.71-4.932-1.548-6.617,0.264c-0.885,0.95-1.313,2.194-1.213,3.609c0.035,0.475-0.308,0.9-0.871,0.99
			c-1.913,0.292-3.425,1.695-3.852,3.581c-0.432,1.882,0.317,3.808,1.993,4.95c0.392,0.272,0.514,0.809,0.226,1.302
			c-0.838,1.464-0.838,3.208,0,4.66c0.285,0.493,0.654,0.925,1.082,1.277l-3.678,8.995c-0.494,1.203,0.361,2.612,1.814,2.586
			l3.297-0.125l2.268,2.399c0.645,0.771,2.37,1.196,3.104-0.575l2.813-6.873l2.81,6.873c0.408,1.016,1.824,1.946,3.105,0.575
			l2.268-2.399l3.295,0.125c1.426,0.026,2.317-1.357,1.814-2.586L110.178,87.791L110.178,87.791z"/>
	</g>
</g>
<g id="Layer_4" display="none">
	<g display="inline">
		<path fill="#C494EA" d="M83.209,105.727c-1.054,0-1.906-0.853-1.906-1.903v-1.956c-0.556-0.719-3.338-2.368-8.007-3.91
			c-2.67-0.88-4.043-0.925-6.672-0.221c-4.981,1.337-7.911,2.796-8.577,3.498v2.589c0,1.052-0.85,1.903-1.903,1.903
			c-1.053,0-1.904-0.853-1.904-1.903v-2.856c-0.019-1.021-0.072-3.83,11.4-6.91c3.335-0.895,5.485-0.826,8.852,0.285
			c10.694,3.531,10.637,6.411,10.62,7.358v2.123C85.112,104.874,84.258,105.727,83.209,105.727L83.209,105.727z"/>
		<path fill="#C494EA" d="M64.037,82.959c-0.067,3.189,2.466,5.973,5.836,5.973c3.151,0,5.768-2.659,5.832-5.812
			c0.06-2.88-2.199-5.702-5.715-5.702C66.726,77.419,64.1,79.793,64.037,82.959L64.037,82.959z M69.672,92.549
			c-5.328-0.109-9.555-4.512-9.445-9.841c0.105-5.209,4.429-9.447,9.638-9.447c5.717,0.07,9.754,4.667,9.648,9.843
			C79.409,88.229,75.171,92.618,69.672,92.549L69.672,92.549z"/>
		<path fill="#171714" d="M137.738,111.536c0,1.081-0.855,1.959-1.904,1.959H48.217c-1.049,0-1.903-0.878-1.903-1.959v-54.06
			c0-1.079,0.854-1.958,1.903-1.958h35.047V65.63c0,4.516,3.214,8.294,7.525,9.168l-0.014,10.554c0,0.694,0.377,1.339,0.984,1.672
			c0.625,0.344,1.356,0.309,1.941-0.061L112.5,74.99h11.802c5.157,0,9.36-4.2,9.36-9.359V55.519h2.172
			c1.049,0,1.904,0.879,1.904,1.958V111.536L137.738,111.536z M87.07,48.976c0-3.056,2.489-5.548,5.549-5.548h31.683
			c3.06,0,5.548,2.492,5.548,5.548V65.63c0,3.062-2.488,5.547-5.548,5.547h-12.354c-0.365,0-0.72,0.107-1.024,0.299L94.587,81.882
			l0.017-8.798c0-0.502-0.238-0.989-0.599-1.347c-0.356-0.358-0.881-0.559-1.387-0.559c-3.06,0-5.549-2.485-5.549-5.547
			L87.07,48.976L87.07,48.976z M135.833,51.709h-2.172v-2.733c0-5.159-4.203-9.356-9.36-9.356H92.619
			c-5.159,0-9.354,4.197-9.354,9.356v2.733H48.217c-3.148,0-5.709,2.585-5.709,5.767v54.06c0,3.183,2.561,5.769,5.709,5.769h87.617
			c3.15,0,5.713-2.586,5.713-5.769v-54.06C141.546,54.294,138.984,51.709,135.833,51.709L135.833,51.709z"/>
		<path fill="#171714" d="M138.514,129.445H43.281c-1.051,0-1.904-0.865-1.904-1.918s0.853-1.92,1.904-1.92h95.233
			c1.049,0,1.903,0.867,1.903,1.92S139.563,129.445,138.514,129.445L138.514,129.445z"/>
		<path fill="#C494EA" d="M98.915,56.951c0,2.192-1.783,3.975-3.97,3.975c-2.194,0-3.978-1.783-3.978-3.975
			c0-2.188,1.782-3.974,3.978-3.974C97.131,52.977,98.915,54.764,98.915,56.951L98.915,56.951z"/>
		<path fill="#C494EA" d="M112.878,56.951c0,2.192-1.78,3.975-3.97,3.975c-2.191,0-3.975-1.783-3.975-3.975
			c0-2.188,1.782-3.974,3.975-3.974C111.098,52.977,112.878,54.764,112.878,56.951L112.878,56.951z"/>
		<path fill="#C494EA" d="M126.523,56.951c0,2.192-1.785,3.975-3.976,3.975c-2.187,0-3.975-1.783-3.975-3.975
			c0-2.188,1.788-3.974,3.975-3.974C124.738,52.977,126.523,54.764,126.523,56.951L126.523,56.951z"/>
		<polygon fill="#171714" points="130.907,94.051 95.512,94.051 95.512,90.213 130.907,90.213 		"/>
		<polygon fill="#171714" points="130.907,102.58 95.512,102.58 95.512,99.169 130.907,99.169 		"/>
	</g>
</g>
<g id="Layer_3">
	<g>
		<path fill="#171714" d="M56.108,132.576c5.613-3.16,10.326-9.871,13.421-18.797h15.571
			C78.55,123.549,68.158,130.541,56.108,132.576L56.108,132.576z M50.711,113.779h14.612c-3.469,9.201-8.729,15.57-14.612,16.75
			V113.779L50.711,113.779z M46.953,130.563c-5.954-1.078-11.285-7.486-14.79-16.783h14.79V130.563L46.953,130.563z M12.516,113.779
			h15.448c3.076,8.898,7.769,15.592,13.357,18.764C29.349,130.465,19.032,123.498,12.516,113.779L12.516,113.779z M87.35,110.031
			c-0.075-0.008-0.15-0.012-0.23-0.012H70.695c0.767-2.771,1.388-5.709,1.844-8.785h-3.942c-0.502,3.088-1.181,6.037-2.004,8.785
			H50.711v-8.785h-3.76v8.785H30.895c-0.83-2.752-1.507-5.697-2.009-8.785h-3.939c0.451,3.076,1.078,6.016,1.845,8.785H10.261
			c-1.479-2.766-2.668-5.709-3.524-8.785h-3.99c0.945,3.723,2.336,7.275,4.111,10.592c0.301,0.572,0.617,1.145,0.95,1.703
			c8.259,14.059,23.546,23.514,41.001,23.514c22.167,0,40.83-15.25,46.06-35.809h-3.985C90.019,104.314,88.834,107.26,87.35,110.031
			L87.35,110.031z M37.344,47.381c-4.245,4.026-7.742,10.264-10.088,17.949h-14.78C18.254,56.67,27.047,50.185,37.344,47.381
			L37.344,47.381z M46.953,46.383v18.946H31.394C34.857,54.87,40.549,47.544,46.953,46.383L46.953,46.383z M50.711,46.417
			c6.336,1.269,11.946,8.554,15.377,18.912H50.711V46.417L50.711,46.417z M85.146,65.329H70.23
			c-2.354-7.717-5.873-13.971-10.142-17.993C70.465,50.109,79.325,56.616,85.146,65.329L85.146,65.329z M10.223,69.087h16.009
			c-0.674,2.773-1.207,5.702-1.571,8.755h3.915c0.411-3.059,0.984-5.99,1.711-8.755h16.667v8.755h3.759v-8.755h16.487
			c0.727,2.767,1.305,5.698,1.713,8.755h3.921c-0.37-3.053-0.901-5.982-1.579-8.755h15.867c0.087,0,0.176-0.003,0.265-0.016
			c1.469,2.761,2.652,5.701,3.503,8.771h3.984C89.654,57.269,70.982,42,48.809,42C26.634,42,7.957,57.267,2.737,77.842h3.991
			C7.576,74.777,8.756,71.845,10.223,69.087L10.223,69.087z"/>
		<path fill="#29A7F8" d="M96.239,92.461H23.536l-2.142-0.433c-0.065,0,0-4.191,0-4.191c-0.002,0.016,2.142-0.387,2.142-0.387
			h72.703V92.461L96.239,92.461z M11.305,90.052l6.416-1.362v2.55c0,0.027-0.005,0.053,0,0.076L11.305,90.052L11.305,90.052z
			 M98.038,83.69H23.145c-0.142,0-21.625,4.538-21.625,4.538c-0.89,0.199-1.526,0.979-1.52,1.89c0.007,0.91,0.653,1.674,1.548,1.855
			l21.597,4.268c0.126,0.024,74.893,0,74.893,0c1.065,0,1.962-0.728,1.962-1.791v-8.989C100,84.395,99.104,83.69,98.038,83.69
			L98.038,83.69z"/>
	</g>
</g>
<g id="Layer_2" display="none">
	<g display="inline">
		<g>
			<path d="M81.246,107.875c-0.927,0-1.864-0.145-2.774-0.441c-2.586-0.839-4.626-2.775-5.599-5.314l-0.922-2.41
				c-0.843-2.202-2.909-3.703-5.264-3.824l-2.578-0.135c-2.715-0.139-5.187-1.479-6.784-3.68c-1.598-2.199-2.108-4.963-1.403-7.589
				l0.669-2.492c0.613-2.276-0.176-4.706-2.009-6.189l-2.007-1.622c-2.114-1.708-3.326-4.247-3.326-6.965
				c0-2.717,1.212-5.256,3.326-6.965l2.007-1.623c1.833-1.481,2.622-3.911,2.009-6.188l-0.669-2.493
				c-0.705-2.624-0.194-5.391,1.403-7.588c1.597-2.2,4.071-3.541,6.784-3.681l2.578-0.133c2.355-0.121,4.421-1.622,5.264-3.824
				l0.922-2.411c0.973-2.538,3.013-4.475,5.599-5.315c2.584-0.839,5.373-0.472,7.649,1.011l2.164,1.408
				c1.977,1.285,4.529,1.285,6.507,0l2.162-1.408c2.28-1.481,5.067-1.851,7.653-1.011c2.584,0.84,4.623,2.778,5.597,5.315
				l0.922,2.411c0.843,2.202,2.908,3.703,5.265,3.824l2.578,0.133c2.713,0.14,5.186,1.481,6.783,3.681
				c1.598,2.198,2.109,4.964,1.402,7.588l-0.668,2.493c-0.612,2.277,0.176,4.706,2.011,6.188l2.006,1.623
				c2.112,1.708,3.325,4.248,3.325,6.965c0,2.718-1.213,5.257-3.325,6.965l-2.006,1.622c-1.835,1.483-2.623,3.913-2.011,6.189
				l0.668,2.492c0.707,2.625,0.195,5.39-1.402,7.589c-1.6,2.199-4.07,3.541-6.783,3.68l-2.578,0.135
				c-2.355,0.121-4.422,1.622-5.265,3.824l-0.922,2.41c-0.974,2.539-3.013,4.476-5.597,5.314c-2.586,0.84-5.373,0.474-7.653-1.012
				l-2.162-1.406c-1.978-1.287-4.53-1.287-6.507,0l-2.164,1.406C84.648,107.383,82.957,107.875,81.246,107.875z M91.538,101.061
				c1.7,0,3.399,0.482,4.885,1.448l2.162,1.407c1.521,0.986,3.377,1.232,5.099,0.673c1.724-0.562,3.08-1.85,3.729-3.54l0.922-2.41
				c1.266-3.306,4.366-5.56,7.902-5.742l2.576-0.131c1.808-0.096,3.455-0.988,4.52-2.454c1.064-1.464,1.406-3.306,0.934-5.056
				l-0.668-2.492c-0.92-3.418,0.266-7.064,3.019-9.291l2.006-1.622c1.407-1.138,2.217-2.829,2.217-4.64
				c0-1.809-0.806-3.501-2.217-4.64l-2.006-1.622c-2.753-2.226-3.938-5.873-3.019-9.291l0.668-2.492
				c0.473-1.748,0.131-3.591-0.934-5.055c-1.063-1.465-2.712-2.358-4.52-2.452l-2.576-0.132c-3.536-0.182-6.639-2.436-7.902-5.742
				l-0.922-2.41c-0.648-1.69-2.006-2.981-3.729-3.54c-1.722-0.56-3.578-0.315-5.099,0.672l-2.162,1.409
				c-2.968,1.93-6.801,1.93-9.769,0l-2.162-1.409c-1.521-0.987-3.375-1.232-5.098-0.672c-1.721,0.559-3.08,1.85-3.727,3.54
				l-0.923,2.41c-1.267,3.306-4.369,5.56-7.904,5.742l-2.578,0.132c-1.807,0.094-3.453,0.988-4.518,2.452
				c-1.065,1.464-1.404,3.307-0.935,5.055l0.671,2.492c0.917,3.418-0.267,7.066-3.019,9.291l-2.008,1.622
				c-1.407,1.139-2.215,2.831-2.215,4.64c0,1.811,0.808,3.501,2.215,4.64l2.008,1.622c2.752,2.227,3.936,5.873,3.019,9.291
				l-0.671,2.492c-0.47,1.75-0.13,3.592,0.935,5.056c1.065,1.465,2.71,2.358,4.518,2.454l2.578,0.131
				c3.536,0.184,6.638,2.438,7.904,5.742l0.923,2.41c0.646,1.69,2.006,2.98,3.727,3.54c1.723,0.562,3.577,0.313,5.098-0.673
				l2.162-1.407C88.136,101.543,89.837,101.061,91.538,101.061z"/>
		</g>
		<g>
			<path fill="#FFBF6D" d="M91.538,92.104c-13.726,0-24.893-11.166-24.893-24.892S77.812,42.32,91.538,42.32
				c13.726,0,24.892,11.167,24.892,24.892S105.262,92.104,91.538,92.104z M91.538,45.312c-12.077,0-21.9,9.825-21.9,21.901
				c0,12.077,9.823,21.901,21.9,21.901c12.078,0,21.901-9.825,21.901-21.901C113.439,55.137,103.616,45.312,91.538,45.312z"/>
		</g>
		<g>
			<polygon points="77.988,140.119 68.96,126.751 52.917,128.43 68.65,94.688 71.361,95.953 57.859,124.904 70.433,123.59 
				77.509,134.068 92.352,102.246 95.061,103.508 			"/>
		</g>
		<g>
			<polygon points="105.327,144.324 88.974,110.796 91.662,109.484 105.698,138.266 112.591,127.665 125.188,128.76 109.928,97.477 
				112.616,96.166 130.189,132.197 114.119,130.799 			"/>
		</g>
		<g>
			
				<rect x="79.588" y="69.23" transform="matrix(-0.7071 -0.7071 0.7071 -0.7071 96.0973 181.2537)" width="11.993" height="2.991"/>
			<rect x="84.505" y="65.714" transform="matrix(0.7071 -0.7071 0.7071 0.7071 -19.5625 87.1898)" width="21.927" height="2.991"/>
		</g>
	</g>
</g>
</svg>
