<?xml version="1.0" encoding="utf-8"?>
<!-- Generator: Adobe Illustrator 16.0.3, SVG Export Plug-In . SVG Version: 6.00 Build 0)  -->
<!DOCTYPE svg PUBLIC "-//W3C//DTD SVG 1.1//EN" "http://www.w3.org/Graphics/SVG/1.1/DTD/svg11.dtd">
<svg version="1.1" id="Layer_1" xmlns="http://www.w3.org/2000/svg" xmlns:xlink="http://www.w3.org/1999/xlink" x="0px" y="0px"
	 width="118.562px" height="120.429px" viewBox="0 0 118.562 120.429" enable-background="new 0 0 118.562 120.429"
	 xml:space="preserve">
<g>
	<rect x="48.558" y="61.665" fill="#1ED1C4" width="19.601" height="2.262"/>
	<polygon fill="#1ED1C4" points="55.087,56.732 58.352,59.748 61.619,56.732 64.889,59.748 68.925,56.024 67.392,54.362 
		64.889,56.67 61.619,53.654 58.352,56.67 55.087,53.654 51.822,56.67 49.324,54.363 47.79,56.023 51.822,59.748 	"/>
	<path fill="#1ED1C4" d="M62.321,1.452l-16.519,9.537l16.519,9.537V1.452z M60.06,16.608l-9.733-5.619l9.733-5.62V16.608z"/>
	<path fill="#1ED1C4" d="M14.855,7.162C14.855,3.213,11.643,0,7.694,0C3.745,0,0.532,3.213,0.532,7.162s3.213,7.162,7.162,7.162
		C11.643,14.324,14.855,11.111,14.855,7.162z M2.794,7.162c0-2.702,2.198-4.9,4.9-4.9c2.701,0,4.9,2.198,4.9,4.9s-2.199,4.9-4.9,4.9
		C4.992,12.063,2.794,9.864,2.794,7.162z"/>
	<path fill="#1ED1C4" d="M23.612,37.011c0.604-0.256,1.025-0.667,1.363-0.997c0.482-0.472,0.615-0.565,0.95-0.529
		c0.377,0.047,0.659,0.344,1.127,0.865c0.609,0.679,1.366,1.521,2.728,1.781l0.424-2.222c-0.582-0.111-0.938-0.479-1.468-1.069
		c-0.578-0.646-1.299-1.448-2.537-1.599c-1.441-0.178-2.264,0.625-2.806,1.155c-0.242,0.237-0.451,0.441-0.66,0.53
		c-1.114,0.47-1.345,0.261-2.028-0.355c-0.602-0.541-1.425-1.282-2.871-1.371c-1.588-0.1-2.495,0.775-3.096,1.352
		c-0.648,0.624-0.803,0.772-1.636,0.392c-0.113-0.059-0.469-0.326-0.728-0.521c-1.384-1.04-3.104-2.335-4.544-1.729
		c-0.487,0.204-1.102,0.697-1.259,1.886l2.243,0.296c0.001-0.013,0.004-0.026,0.005-0.038c0.591,0.187,1.731,1.045,2.195,1.393
		c0.483,0.364,0.834,0.628,1.137,0.766c2.242,1.025,3.393-0.081,4.153-0.813c0.536-0.516,0.814-0.763,1.39-0.726
		c0.658,0.041,1.011,0.357,1.496,0.795C20.028,37.006,21.172,38.039,23.612,37.011z"/>
	<path fill="#1ED1C4" d="M0,72.15l16.519-9.537L0,53.076V72.15z M2.262,56.993l9.733,5.62l-9.733,5.618V56.993z"/>
</g>
<rect x="29.218" y="43.531" fill="#1ED1C4" width="76.896" height="76.897"/>
<g>
	<path d="M116.309,72.031V58.085c0-3.381-1.876-6.345-4.503-7.975v-4.125c0-3.438-2.725-6.406-6.163-6.406h-2.384l2.071-2.334
		c0.396-0.463,0.353-1.115-0.1-1.524L74.127,7.571c-0.224-0.201-0.517-0.295-0.816-0.279c-0.301,0.017-0.581,0.249-0.78,0.474
		L35.961,48.962h-3.755l6.197-7.058c0.152-0.103,0.273-0.29,0.361-0.452l26.084-29.338c0.413-0.465,0.372-1.188-0.093-1.602
		c-0.464-0.413-1.175-0.464-1.589,0.002L37.223,39.579H24.099c-2.896,0-5.335,2.193-5.728,4.926c-0.037,0.112-0.02,0.316-0.02,0.441
		v60.391c0,5.399,7.147,9.307,12.022,9.307h76.71c5.132,0,9.225-4.174,9.225-9.307V92.412c1.502-0.51,2.253-1.788,2.253-3.283
		V75.315C118.562,73.819,117.811,72.542,116.309,72.031z M105.643,41.831c2.196,0,3.911,1.958,3.911,4.154v3.148
		c-0.75-0.23-1.589-0.172-2.47-0.172H95.531l5.8-7.131H105.643z M73.458,10.117l29.45,26.72L92.567,48.962H38.976L73.458,10.117z
		 M20.533,44.968c0.164-1.711,1.729-3.137,3.565-3.137h11.12l-6.028,7.131h-5.285c-0.952,0-1.867-0.54-2.508-1.245
		C20.748,47.003,20.44,45.939,20.533,44.968z M107.084,112.392h-76.71c-4.213,0-9.771-3.487-9.771-7.055V49.892
		c0.751,0.729,2.073,1.322,3.303,1.322h83.179c3.89,0,6.974,2.98,6.974,6.871v13.772H92.08c-3.823,0-6.923,3.045-6.923,6.868v6.993
		c0,3.823,3.1,6.78,6.923,6.78h21.978v12.838C114.058,109.227,110.974,112.392,107.084,112.392z M116.309,89.129
		c0,0.701-0.484,1.119-1.186,1.119H92.08c-2.581,0-4.67-1.948-4.67-4.529v-6.993c0-2.582,2.089-4.617,4.67-4.617h23.043
		c0.701,0,1.186,0.506,1.186,1.207V89.129z"/>
	<path d="M96.843,77.181c-2.779,0-5.04,2.262-5.04,5.042c0,2.779,2.261,5.04,5.04,5.04c2.78,0,5.042-2.261,5.042-5.04
		C101.885,79.442,99.623,77.181,96.843,77.181z M96.843,85.011c-1.537,0-2.789-1.25-2.789-2.788s1.252-2.79,2.789-2.79
		c1.538,0,2.79,1.252,2.79,2.79S98.381,85.011,96.843,85.011z"/>
	<path d="M55.508,81.001v-13.38c3.002,0.307,5.68,1.82,6.882,4.036c0.297,0.546,1.018,0.749,1.563,0.453
		c0.546-0.297,0.693-0.98,0.397-1.527c-1.584-2.92-4.715-4.893-8.843-5.221v-3.464c0-0.622-0.504-1.126-1.126-1.126
		c-0.623,0-1.126,0.504-1.126,1.126v3.458c-5.255,0.464-9.722,4.259-9.722,8.856c0,4.774,3.342,7.712,9.722,8.749v13.396
		c-3.003-0.322-5.699-1.937-6.832-4.227c-0.277-0.557-0.915-0.784-1.473-0.509c-0.557,0.275-0.841,0.951-0.564,1.509
		c1.523,3.077,5.116,5.154,8.869,5.488v3.464c0,0.622,0.503,1.125,1.126,1.125c0.622,0,1.126-0.503,1.126-1.125v-3.459
		c5.63-0.464,9.722-4.259,9.722-8.856C65.229,82.834,59.636,81.53,55.508,81.001z M45.786,74.213c0-3.373,3.341-6.164,7.47-6.593
		v13.063C46.876,79.522,45.786,76.468,45.786,74.213z M55.508,96.36V83.287c4.879,0.743,7.471,2.193,7.471,6.48
		C62.979,93.141,60.012,95.933,55.508,96.36z"/>
</g>
<g>
</g>
<g>
</g>
<g>
</g>
<g>
</g>
<g>
</g>
<g>
</g>
</svg>
