<?xml version="1.0" encoding="UTF-8"?>
<svg id="Layer_1" data-name="Layer 1" xmlns="http://www.w3.org/2000/svg" version="1.1" viewBox="0 0 118.6 120.4">
  <defs>
    <style>
      .cls-1 {
        fill: #1ed1c4;
      }

      .cls-1, .cls-2, .cls-3, .cls-4 {
        stroke-width: 0px;
      }

      .cls-5 {
        fill: none;
      }

      .cls-5, .cls-6 {
        stroke: #000;
        stroke-miterlimit: 10;
        stroke-width: 2.7px;
      }

      .cls-2 {
        fill: #000;
      }

      .cls-3 {
        fill: #171714;
      }

      .cls-4 {
        fill: #c494ea;
      }

      .cls-6 {
        fill: #fff;
      }

      .cls-7 {
        display: none;
      }
    </style>
  </defs>
  <g id="affordable" class="cls-7">
    <g>
      <rect class="cls-1" x="48.6" y="61.7" width="19.6" height="2.3"/>
      <polygon class="cls-1" points="55.1 56.7 58.4 59.7 61.6 56.7 64.9 59.7 68.9 56 67.4 54.4 64.9 56.7 61.6 53.7 58.4 56.7 55.1 53.7 51.8 56.7 49.3 54.4 47.8 56 51.8 59.7 55.1 56.7"/>
      <path class="cls-1" d="M62.3,1.5l-16.5,9.5,16.5,9.5V1.5ZM60.1,16.6l-9.7-5.6,9.7-5.6s0,11.2,0,11.2Z"/>
      <path class="cls-1" d="M14.9,7.2c0-3.9-3.2-7.2-7.2-7.2S.5,3.2.5,7.2s3.2,7.2,7.2,7.2,7.2-3.2,7.2-7.2ZM2.8,7.2c0-2.7,2.2-4.9,4.9-4.9s4.9,2.2,4.9,4.9-2.2,4.9-4.9,4.9c-2.7,0-4.9-2.2-4.9-4.9Z"/>
      <path class="cls-1" d="M23.6,37c.6-.3,1-.7,1.4-1,.5-.5.6-.6,1-.5.4,0,.7.3,1.1.9.6.7,1.4,1.5,2.7,1.8l.4-2.2c-.6-.1-.9-.5-1.5-1.1-.6-.6-1.3-1.4-2.5-1.6-1.4-.2-2.3.6-2.8,1.2-.2.2-.5.4-.7.5-1.1.5-1.3.3-2-.4-.6-.5-1.4-1.3-2.9-1.4-1.6,0-2.5.8-3.1,1.4-.6.6-.8.8-1.6.4-.1,0-.5-.3-.7-.5-1.4-1-3.1-2.3-4.5-1.7-.5.2-1.1.7-1.3,1.9l2.2.3s0,0,0,0c.6.2,1.7,1,2.2,1.4.5.4.8.6,1.1.8,2.2,1,3.4,0,4.2-.8.5-.5.8-.8,1.4-.7.7,0,1,.4,1.5.8.8.8,2,1.8,4.4.8Z"/>
      <path class="cls-1" d="M0,72.2l16.5-9.5L0,53.1v19.1ZM2.3,57l9.7,5.6-9.7,5.6v-11.2Z"/>
    </g>
    <rect class="cls-1" x="19.2" y="28.5" width="76.9" height="76.9"/>
    <g>
      <path class="cls-2" d="M108.3,70v-13.9c0-3.4-1.9-6.3-4.5-8v-4.1c0-3.4-2.7-6.4-6.2-6.4h-2.4l2.1-2.3c.4-.5.4-1.1,0-1.5l-31.1-28.2c-.2-.2-.5-.3-.8-.3-.3,0-.6.2-.8.5L28,47h-3.8l6.2-7.1c.2-.1.3-.3.4-.5l26.1-29.3c.4-.5.4-1.2,0-1.6-.5-.4-1.2-.5-1.6,0l-25.9,29.1h-13.1c-2.9,0-5.3,2.2-5.7,4.9,0,.1,0,.3,0,.4v60.4c0,5.4,7.1,9.3,12,9.3h76.7c5.1,0,9.2-4.2,9.2-9.3v-12.9c1.5-.5,2.3-1.8,2.3-3.3v-13.8c0-1.5-.8-2.8-2.3-3.3ZM97.6,39.8c2.2,0,3.9,2,3.9,4.2v3.1c-.8-.2-1.6-.2-2.5-.2h-11.6l5.8-7.1h4.3ZM65.5,8.1l29.5,26.7-10.3,12.1H31L65.5,8.1ZM12.5,43c.2-1.7,1.7-3.1,3.6-3.1h11.1l-6,7.1h-5.3c-1,0-1.9-.5-2.5-1.2-.6-.7-1-1.8-.9-2.7ZM99.1,110.4H22.4c-4.2,0-9.8-3.5-9.8-7.1v-55.4c.8.7,2.1,1.3,3.3,1.3h83.2c3.9,0,7,3,7,6.9v13.8h-22c-3.8,0-6.9,3-6.9,6.9v7c0,3.8,3.1,6.8,6.9,6.8h22v12.8c0,3.9-3.1,7.1-7,7.1ZM108.3,87.1c0,.7-.5,1.1-1.2,1.1h-23c-2.6,0-4.7-1.9-4.7-4.5v-7c0-2.6,2.1-4.6,4.7-4.6h23c.7,0,1.2.5,1.2,1.2v13.8Z"/>
      <path class="cls-2" d="M88.8,75.2c-2.8,0-5,2.3-5,5s2.3,5,5,5,5-2.3,5-5-2.3-5-5-5ZM88.8,83c-1.5,0-2.8-1.2-2.8-2.8s1.3-2.8,2.8-2.8,2.8,1.3,2.8,2.8-1.3,2.8-2.8,2.8Z"/>
      <path class="cls-2" d="M47.5,79v-13.4c3,.3,5.7,1.8,6.9,4,.3.5,1,.7,1.6.5.5-.3.7-1,.4-1.5-1.6-2.9-4.7-4.9-8.8-5.2v-3.5c0-.6-.5-1.1-1.1-1.1s-1.1.5-1.1,1.1v3.5c-5.3.5-9.7,4.3-9.7,8.9s3.3,7.7,9.7,8.7v13.4c-3-.3-5.7-1.9-6.8-4.2-.3-.6-.9-.8-1.5-.5-.6.3-.8,1-.6,1.5,1.5,3.1,5.1,5.2,8.9,5.5v3.5c0,.6.5,1.1,1.1,1.1s1.1-.5,1.1-1.1v-3.5c5.6-.5,9.7-4.3,9.7-8.9,0-6.9-5.6-8.2-9.7-8.8ZM37.8,72.2c0-3.4,3.3-6.2,7.5-6.6v13.1c-6.4-1.2-7.5-4.2-7.5-6.5ZM47.5,94.4v-13.1c4.9.7,7.5,2.2,7.5,6.5s-3,6.2-7.5,6.6Z"/>
    </g>
  </g>
  <g id="comprehensive" class="cls-7">
    <g>
      <rect class="cls-4" x="49.7" y="109.9" width="19.6" height="2.3"/>
      <polygon class="cls-4" points="56.2 105 59.5 108 62.7 105 66 108 70.1 104.3 68.5 102.6 66 104.9 62.7 101.9 59.5 104.9 56.2 101.9 53 104.9 50.5 102.6 48.9 104.3 53 108 56.2 105"/>
      <path class="cls-4" d="M63.5,49.7l-16.5,9.5,16.5,9.5s0-19.1,0-19.1ZM61.2,64.9l-9.7-5.6,9.7-5.6s0,11.2,0,11.2Z"/>
      <path class="cls-4" d="M16,55.4c0-3.9-3.2-7.2-7.2-7.2s-7.2,3.2-7.2,7.2,3.2,7.2,7.2,7.2,7.2-3.2,7.2-7.2ZM3.9,55.4c0-2.7,2.2-4.9,4.9-4.9s4.9,2.2,4.9,4.9-2.2,4.9-4.9,4.9-4.9-2.2-4.9-4.9Z"/>
      <path class="cls-4" d="M24.7,85.3c.6-.3,1-.7,1.4-1,.5-.5.6-.6,1-.5.4,0,.7.3,1.1.9.6.7,1.4,1.5,2.7,1.8l.4-2.2c-.6-.1-.9-.5-1.5-1.1-.6-.6-1.3-1.4-2.5-1.6-1.4-.2-2.3.6-2.8,1.2-.2.2-.5.4-.7.5-1.1.5-1.3.3-2-.4-.6-.5-1.4-1.3-2.9-1.4-1.6,0-2.5.8-3.1,1.4-.6.6-.8.8-1.6.4-.1,0-.5-.3-.7-.5-1.4-1-3.1-2.3-4.5-1.7-.5.2-1.1.7-1.3,1.9l2.2.3s0,0,0,0c.6.2,1.7,1,2.2,1.4.5.4.8.6,1.1.8,2.2,1,3.4,0,4.2-.8.5-.5.8-.8,1.4-.7.7,0,1,.4,1.5.8.8.8,2,1.8,4.4.8Z"/>
      <path class="cls-4" d="M1.1,120.4l16.5-9.5L1.1,101.4v19.1ZM3.4,105.3l9.7,5.6-9.7,5.6s0-11.2,0-11.2Z"/>
    </g>
    <rect class="cls-4" x="26.1" y="15.3" width="76.9" height="76.9"/>
    <g>
      <path class="cls-5" d="M27.6,39.3c-2.8,0-5,2.3-5,5v42.8c0,2.8,2.3,5,5,5h36.4c0,2.9,2.4,5.3,5.3,5.3s5.3-2.4,5.3-5.3h36.4c2.8,0,5-2.3,5-5v-42.8c0-2.8-2.3-5-5-5"/>
      <path class="cls-5" d="M64,34.4H28.9c-.9,0-1.7.8-1.7,1.7v49.2c0,.9.8,1.7,1.7,1.7h35.1c2.9,0,5.3,2.4,5.3,5.3"/>
      <path class="cls-5" d="M69.2,92.2c0-2.9,2.4-5.3,5.3-5.3h35.1c.9,0,1.7-.8,1.7-1.7v-49.2c0-.9-.8-1.7-1.7-1.7h-35.1"/>
      <line class="cls-5" x1="69.2" y1="39.7" x2="69.2" y2="81.7"/>
      <path class="cls-5" d="M69.2,39.7c0-2.9-2.4-5.3-5.3-5.3"/>
      <path class="cls-5" d="M74.5,34.4c-2.9,0-5.3,2.4-5.3,5.3"/>
      <g>
        <line class="cls-5" x1="69.2" y1="11.5" x2="69.2" y2="1"/>
        <line class="cls-5" x1="56.1" y1="15" x2="53.5" y2="10.5"/>
        <line class="cls-5" x1="46.5" y1="24.6" x2="37.4" y2="19.4"/>
        <line class="cls-5" x1="92" y1="24.6" x2="101.1" y2="19.4"/>
        <line class="cls-5" x1="82.4" y1="15" x2="85" y2="10.5"/>
      </g>
      <polygon class="cls-6" points="118.6 88.1 100.8 71 100.8 95.6 106.9 92 110.7 101 115.5 98.9 111.7 89.9 118.6 88.1"/>
      <g>
        <line class="cls-5" x1="53.5" y1="55.4" x2="43" y2="55.4"/>
        <line class="cls-5" x1="58.7" y1="69.5" x2="37.7" y2="69.5"/>
        <line class="cls-5" x1="58.7" y1="62.5" x2="37.7" y2="62.5"/>
      </g>
    </g>
  </g>
  <rect class="cls-1" x="28.3" y="39.5" width="76.2" height="76.2"/>
  <g id="Layer_4" data-name="Layer 4">
    <g>
      <path class="cls-3" d="M59.6,84.1c-1.1,0-1.9-.9-1.9-1.9v-2c-.6-.7-3.3-2.4-8-3.9-2.7-.9-4-.9-6.7-.2-5,1.3-7.9,2.8-8.6,3.5v2.6c0,1.1-.8,1.9-1.9,1.9s-1.9-.9-1.9-1.9v-2.9c0-1,0-3.8,11.4-6.9,3.3-.9,5.5-.8,8.9.3,10.7,3.5,10.6,6.4,10.6,7.4v2.1c0,1.1-.9,1.9-1.9,1.9h0Z"/>
      <path class="cls-3" d="M40.5,61.4c0,3.2,2.5,6,5.8,6s5.8-2.7,5.8-5.8c0-2.9-2.2-5.7-5.7-5.7-3.3,0-5.9,2.4-6,5.5h0ZM46.1,70.9c-5.3-.1-9.6-4.5-9.4-9.8.1-5.2,4.4-9.4,9.6-9.4,5.7,0,9.8,4.7,9.6,9.8-.1,5.1-4.3,9.5-9.8,9.4h0Z"/>
      <path class="cls-3" d="M114.2,89.9c0,1.1-.9,2-1.9,2H24.6c-1,0-1.9-.9-1.9-2v-54.1c0-1.1.9-2,1.9-2h35v10.1c0,4.5,3.2,8.3,7.5,9.2v10.6c0,.7.4,1.3,1,1.7.6.3,1.4.3,1.9,0l18.8-12h11.8c5.2,0,9.4-4.2,9.4-9.4v-10.1h2.2c1,0,1.9.9,1.9,2v54.1h0ZM63.5,27.4c0-3.1,2.5-5.5,5.5-5.5h31.7c3.1,0,5.5,2.5,5.5,5.5v16.7c0,3.1-2.5,5.5-5.5,5.5h-12.4c-.4,0-.7.1-1,.3l-16.3,10.4v-8.8c0-.5-.2-1-.6-1.3-.4-.4-.9-.6-1.4-.6-3.1,0-5.5-2.5-5.5-5.5v-16.7h0ZM112.3,30.1h-2.2v-2.7c0-5.2-4.2-9.4-9.4-9.4h-31.7c-5.2,0-9.4,4.2-9.4,9.4v2.7H24.6c-3.1,0-5.7,2.6-5.7,5.8v54.1c0,3.2,2.6,5.8,5.7,5.8h87.6c3.2,0,5.7-2.6,5.7-5.8v-54.1c0-3.2-2.6-5.8-5.7-5.8h0Z"/>
      <path class="cls-3" d="M114.9,107.8H19.7c-1.1,0-1.9-.9-1.9-1.9s.9-1.9,1.9-1.9h95.2c1,0,1.9.9,1.9,1.9s-.9,1.9-1.9,1.9h0Z"/>
      <path class="cls-3" d="M75.3,35.4c0,2.2-1.8,4-4,4s-4-1.8-4-4,1.8-4,4-4,4,1.8,4,4h0Z"/>
      <path class="cls-3" d="M89.3,35.4c0,2.2-1.8,4-4,4s-4-1.8-4-4,1.8-4,4-4,4,1.8,4,4h0Z"/>
      <path class="cls-3" d="M102.9,35.4c0,2.2-1.8,4-4,4s-4-1.8-4-4,1.8-4,4-4,4,1.8,4,4h0Z"/>
      <polygon class="cls-3" points="107.3 72.5 71.9 72.5 71.9 68.6 107.3 68.6 107.3 72.5"/>
      <polygon class="cls-3" points="107.3 81 71.9 81 71.9 77.6 107.3 77.6 107.3 81"/>
    </g>
  </g>
  <path class="cls-1" d="M13.3,42.8c0-3.9-3.2-7.2-7.2-7.2s-7.2,3.2-7.2,7.2,3.2,7.2,7.2,7.2,7.2-3.2,7.2-7.2ZM1.2,42.8c0-2.7,2.2-4.9,4.9-4.9s4.9,2.2,4.9,4.9-2.2,4.9-4.9,4.9-4.9-2.2-4.9-4.9Z"/>
  <path class="cls-1" d="M28.4,21.8l16.5-9.5L28.4,2.8v19.1ZM30.7,6.7l9.7,5.6-9.7,5.6V6.7Z"/>
</svg>