<?xml version="1.0" encoding="utf-8"?>
<!-- Generator: Adobe Illustrator 16.0.3, SVG Export Plug-In . SVG Version: 6.00 Build 0)  -->
<!DOCTYPE svg PUBLIC "-//W3C//DTD SVG 1.1//EN" "http://www.w3.org/Graphics/SVG/1.1/DTD/svg11.dtd">
<svg version="1.1" xmlns="http://www.w3.org/2000/svg" xmlns:xlink="http://www.w3.org/1999/xlink" x="0px" y="0px"
	 width="106.654px" height="89.686px" viewBox="0 0 106.654 89.686" enable-background="new 0 0 106.654 89.686"
	 xml:space="preserve">
<g id="Layer_2">
</g>
<g id="Layer_6">
	<g opacity="0.2">
		<path fill="#FFFFFF" d="M51.336,56.266c-1.06,0.177-2.1,0.468-3.108,0.866c3.567,1.417,7.368,1.396,10.93,0.005
			C56.635,56.144,53.962,55.836,51.336,56.266z"/>
		<path fill="#FFFFFF" d="M34.177,59.778c-0.218,0.413-0.42,0.835-0.61,1.262c-0.285,0.642-0.543,1.308-0.771,2
			c-0.221,0.671-0.411,1.356-0.567,2.045c-0.107,0.473-0.198,0.945-0.273,1.417h6.286c0.051-0.238,0.109-0.476,0.173-0.714
			c0.119-0.439,0.26-0.885,0.422-1.332c0.033-0.091,0.067-0.182,0.102-0.271C37.277,62.921,35.479,61.445,34.177,59.778z"/>
		<path fill="#FFFFFF" d="M60.119,49.14c-0.235-0.072-0.474-0.141-0.711-0.204l-2.68-3.244c0.004,0,0.007,0.001,0.011,0.001
			c-0.061-0.073-0.106-0.129-0.127-0.164c-0.032-0.052-0.09-0.111-0.164-0.176v-0.001l0,0c-0.289-0.257-0.822-0.625-1.053-1.136
			c-0.289-0.641-1.154-2.243-1.473-2.531c-0.321-0.288-1.955-1.953-1.955-1.953s-0.112-0.095-0.192-0.449
			c-0.136-0.601-0.929-2.498-1.153-1.446c-0.224,1.053-0.449,1.253-0.96,1.318c-0.514,0.063-1.154,0.736-1.154,0.736
			s0,0-0.161,0.385c-0.16,0.384-0.608,0.577-0.705,0.865c-0.096,0.289,0.097,0.641,0.161,0.801c0.063,0.159,0.129,0.832,0.288,0.954
			c0.159,0.122,1.121,0.071,1.667,0.006c0.543-0.063,1.088,0.351,1.153,0.641c0.056,0.249-0.39,1.424-0.617,2.195
			c0.006-0.001,0.011-0.002,0.017-0.002c-0.174,0.362-0.397,1.216,0.236,2.656c0,0.001,0,0.001,0.001,0.001
			c-0.186,0.027-0.371,0.057-0.556,0.089c-2.737,0.476-5.342,1.471-7.677,2.907c1.043,1.805,2.486,3.302,4.178,4.409
			c1.6-0.82,3.339-1.369,5.147-1.607c1.695-0.222,3.447-0.173,5.196,0.181c0.737,0.15,1.466,0.353,2.174,0.604
			c3.125,1.11,5.712,3.128,7.536,5.672c0.625,0.871,1.162,1.809,1.6,2.789c0.438,0.98,0.778,2.006,1.011,3.064h5.995
			c-0.419-2.649-1.325-5.183-2.648-7.476C69.854,54.438,65.536,50.813,60.119,49.14z"/>
		<path fill="#FFFFFF" d="M74.67,39.164c-1.551-5.792-5.305-10.407-10.117-13.185c-4.81-2.778-10.682-3.719-16.475-2.167
			c-5.426,1.454-9.819,4.839-12.637,9.217c-0.327,0.51-0.635,1.031-0.92,1.566c-2.487,4.681-3.276,10.28-1.795,15.809
			c1.553,5.793,5.305,10.406,10.118,13.185c4.811,2.777,10.682,3.72,16.475,2.168c1.23-0.33,2.404-0.757,3.516-1.271
			c0.78-0.359,1.53-0.763,2.247-1.203c-1.018-1.755-2.438-3.276-4.176-4.413c-0.374,0.192-0.758,0.37-1.148,0.531
			c-0.427,0.176-0.86,0.335-1.296,0.474c-0.472,0.148-0.949,0.274-1.433,0.38c-3.562,0.77-7.133,0.266-10.21-1.223
			c-0.604-0.291-1.179-0.619-1.739-0.983c-3.021-1.96-5.384-4.948-6.51-8.628c-0.157-0.515-0.29-1.039-0.394-1.569
			c-0.77-3.878-0.039-7.75,1.823-10.973c1.675-2.9,4.439-5.375,7.666-6.75c-0.726,1.243,0.305,2.273,0.769,2.598
			c-2.642,1.148-4.759,3.099-6.13,5.477c-1.638,2.836-2.223,6.282-1.387,9.701c0.034,0.138,0.069,0.273,0.106,0.411
			c0.06,0.212,0.125,0.425,0.193,0.633c1.331-0.794,2.735-1.459,4.195-1.989c0.055-0.453,0.108-0.823,0.15-0.976
			c0.155-0.556,0.371-1.758,0.245-3.177c-0.122-1.42,0-1.28,0.155-2.004c0.108-0.508,1.357-2.218,1.945-2.994
			c0.559-0.74,0.123-3.054,0.277-3.425c0.118-0.283,0.309-0.713,0.811-0.938c0.518,0.881,1.513,1.713,1.95,2.193
			c0,0,2.236,1.97,3.057-0.086c0,0,0.489-1.036,0.536-3.92c0,0-0.023-0.729,0.104-1.208c0,0,0.765-0.706,0.742-1.313
			c0.537,0.043,0.656,0.052,1.295,0.311c0.681,0.393,1.317,0.788,2.229,1.796c0.093,0.772,0.447,1.284,1.896,2.024
			c1.45,0.74,2.284,1.018,2.561,1.295c0.278,0.277,0.062,1.142,0,1.419c-0.063,0.278-0.432,0.339-0.432,0.339
			s0.03,0.432-0.248,0.927c-0.276,0.494-1.047,0.37-1.202,0.432c-0.462,0.371-0.709,0.248-1.049,0.524
			c-0.34,0.278-0.616,0.339-0.956,0.292c-0.341-0.045-0.608,0.014-0.608,0.014s-0.488,0.188-0.912,0.188
			c-0.425,0-0.764-0.155-1.041-0.202c-0.277-0.045-0.215,0.571-0.215,0.695c0,0.125,0.802,0.957,0.817,2.1
			c0.014,1.14,0.122,3.022,0.438,3.949c0.064,0.19,0.146,0.436,0.24,0.712c0.405,0.076,0.812,0.163,1.218,0.261
			c0.525,0.128,1.048,0.272,1.564,0.434c1.857,0.58,3.6,1.364,5.207,2.322c0.319-0.96,0.53-1.965,0.62-2.995
			c0.134-1.495,0.011-3.037-0.399-4.565c-0.433-1.615-1.12-3.135-2.26-4.508c1.118-2.222-0.273-3.013-0.273-3.013
			c-1.112-0.401-3.104-1.559-3.275-1.935c-0.473-1.038-1.172-1.595-1.679-2.073c0.934,0.327,1.833,0.741,2.686,1.233
			c3.511,2.027,6.247,5.39,7.378,9.606c0.492,1.843,0.641,3.693,0.483,5.484c-0.132,1.481-0.474,2.93-1.006,4.302
			c1.682,1.282,3.178,2.768,4.458,4.413c1.099-2.089,1.861-4.359,2.235-6.722C75.614,45.258,75.485,42.203,74.67,39.164z
			 M54.304,29.081c0.635,0.107-0.272,0.982-0.443,1.152c-0.169,0.17,0.02,1.8-0.03,2.662c-0.05,0.864-0.449,2.159-1.311,2.418
			c-0.86,0.261-1.59-0.892-1.899-1.229c-0.073-0.082-0.18-0.214-0.302-0.374l0,0l0,0c-0.297-0.384-0.698-0.93-1.038-1.32
			c-0.108-0.126-0.211-0.236-0.3-0.319c-0.486-0.448-0.526-1.351-0.188-1.66c0.249-0.228,0.606-0.586,2.074-1.147
			C50.868,29.264,52.378,28.754,54.304,29.081z M53.972,33.7L53.972,33.7L53.972,33.7L53.972,33.7z M54.336,30.009
			C54.336,30.009,54.336,30.008,54.336,30.009L54.336,30.009L54.336,30.009z"/>
	</g>
</g>
<g id="Layer_5" display="none">
	<g display="inline" opacity="0.2">
		<g>
			<path fill="#FFFFFF" d="M74.849,60.185c-6.365,0-13.357-1.965-19.329-4.125l-6.482-2.278c2.99-1.571,5.265-3.839,6.534-6.672
				c2.01,4.937,7.004,8.281,12.65,8.281c3.417,0,6.914-1.414,9.429-3.691l-0.707-0.825c-2.16,2.12-4.989,3.534-8.094,3.573
				c-6.834,0.079-12.179-6.168-12.139-12.807c0.039-6.6,4.832-12.021,11.55-12.021c2.122,0,5.146,0.786,6.481,2.515
				c0.824,1.06,1.101,2.396,1.101,5.932h0.668v-9.861h-0.668v2.239c-2.199-1.258-4.399-1.768-6.914-1.768
				c-3.851,0-7.543,1.335-10.254,4.046c-1.176,1.194-2.157,2.637-2.858,4.206c-1.928-4.944-6.81-8.252-12.516-8.252
				c-3.693,0-7.268,1.296-9.978,3.851c-2.594,2.435-4.284,6.05-4.284,9.585c0,7.582,6.128,13.278,13.594,13.278
				c1.807,0,3.496-0.354,5.146-1.021l4.911,1.925c6.522,2.593,10.96,5.186,18.348,5.186c2.082,0,4.203-0.275,6.206-0.982
				l-0.157-0.431L74.849,60.185z M43.381,54.448c-1.101-0.039-2.24-0.194-3.34-0.471c0.785-0.551,1.611-0.747,2.514-0.747
				c1.295,0,2.554,0.276,3.771,0.747C45.345,54.173,44.362,54.488,43.381,54.448z M41.77,52.288c-0.708,0.039-2.71,0.039-2.71,1.062
				v0.235c-4.873-2.082-7.936-6.561-7.936-11.905c0-6.52,4.871-12.061,11.511-12.061c6.797,0,12.021,6.051,11.982,12.651
				c-0.041,4.91-2.398,9.036-6.837,11.156C45.815,52.877,43.813,52.17,41.77,52.288z M81.039,65.308H25.654v-40.93h55.384V65.308z"
				/>
		</g>
	</g>
</g>
<g id="Layer_4" display="none">
	<g display="inline">
		<path opacity="0.2" fill="#FFFFFF" d="M77.444,68.186h-47.25V20.935h47.25V68.186z M31.891,66.489h43.855V22.632H31.891V66.489z"
			/>
		<g opacity="0.2">
			<path fill="#FFFFFF" d="M51.383,36.517c0.688,0,0.962-0.659,0.962-1.359c0-0.737-0.274-1.359-0.962-1.359
				c-0.689,0-0.963,0.622-0.963,1.359C50.419,35.858,50.693,36.517,51.383,36.517z"/>
			<path fill="#FFFFFF" d="M60.475,52.958c-0.541,0-0.756,0.488-0.756,1.067c0,0.551,0.215,1.067,0.756,1.067
				s0.756-0.517,0.756-1.067C61.231,53.447,61.016,52.958,60.475,52.958z"/>
			<path fill="#FFFFFF" d="M33.614,24.355v40.41h40.41v-40.41H33.614z M57.039,32.957c0.433,0,0.853,0.098,1.262,0.22l-0.092,0.92
				c-0.366-0.201-0.72-0.298-1.109-0.298c-0.805,0-1.329,0.585-1.329,1.377c0,0.835,0.592,1.341,1.421,1.341
				c0.371,0,0.75-0.098,1.061-0.22l0.055,0.89c-0.323,0.079-0.683,0.17-1.262,0.17c-1.135,0-2.444-0.573-2.444-2.182
				C54.6,33.694,55.636,32.957,57.039,32.957z M55.223,43.928v1.006h-2.276v1.792h2.504v1.006h-3.785V41.35h3.767v1.006h-2.487
				v1.572H55.223z M51.383,32.957c1.402,0,2.133,0.835,2.133,2.201c0,0.957-0.371,1.664-1.084,1.987l1.006,0.945h-1.281
				l-0.712-0.732h-0.061c-1.39,0-2.134-0.847-2.134-2.2C49.249,33.792,49.981,32.957,51.383,32.957z M45.378,41.35l1.637,5.011
				h0.018l1.618-5.011h1.271l-2.149,6.382h-1.572l-2.194-6.382H45.378z M38.66,41.35h3.766v1.006h-2.487v1.572h2.277v1.006h-2.277
				v1.792h2.505v1.006H38.66V41.35z M42.72,55.754c-0.311,0-0.699-0.048-0.996-0.144l0.077-0.737c0.229,0.124,0.551,0.22,0.919,0.22
				c0.283,0,0.55-0.057,0.55-0.325c0-0.622-1.58-0.229-1.58-1.445c0-0.805,0.785-1.024,1.456-1.024c0.32,0,0.636,0.048,0.861,0.124
				l-0.058,0.689c-0.23-0.105-0.488-0.153-0.742-0.153c-0.225,0-0.599,0.02-0.599,0.312c0,0.541,1.58,0.177,1.58,1.383
				C44.189,55.52,43.462,55.754,42.72,55.754z M47.47,55.754c-0.89,0-1.919-0.45-1.919-1.714c0-1.163,0.814-1.742,1.915-1.742
				c0.34,0,0.67,0.076,0.991,0.173l-0.072,0.723c-0.287-0.158-0.564-0.235-0.871-0.235c-0.631,0-1.043,0.46-1.043,1.082
				c0,0.655,0.464,1.053,1.115,1.053c0.292,0,0.589-0.076,0.833-0.172l0.043,0.698C48.207,55.682,47.924,55.754,47.47,55.754z
				 M52.66,55.697h-0.891v-1.431h-1.053v1.431h-0.89v-3.341h0.89v1.277h1.053v-1.277h0.891V55.697z M55.792,55.754
				c-1.091,0-1.675-0.665-1.675-1.729c0-1.071,0.574-1.728,1.675-1.728c1.102,0,1.676,0.656,1.676,1.728
				C57.467,55.089,56.883,55.754,55.792,55.754z M60.475,55.754c-1.092,0-1.676-0.665-1.676-1.729c0-1.071,0.575-1.728,1.676-1.728
				s1.676,0.656,1.676,1.728C62.151,55.089,61.567,55.754,60.475,55.754z M62.848,47.732h-1.563l-2.441-4.773h-0.019v4.773H57.6
				V41.35h1.572l2.433,4.772h0.018V41.35h1.226V47.732z M65.875,55.697h-2.269v-3.341h0.89v2.681h1.379V55.697z M69.448,42.356
				h-1.829v5.376h-1.279v-5.376H64.51V41.35h4.938V42.356z"/>
			<path fill="#FFFFFF" d="M55.792,52.958c-0.541,0-0.756,0.488-0.756,1.067c0,0.551,0.215,1.067,0.756,1.067
				s0.757-0.517,0.757-1.067C56.548,53.447,56.333,52.958,55.792,52.958z"/>
		</g>
	</g>
</g>
<g id="Layer_3" display="none">
	<g display="inline">
		<rect x="67.744" y="21.736" opacity="0.2" fill="#FFFFFF" width="3.976" height="7.952"/>
		
			<rect x="55.52" y="25.571" transform="matrix(0.4806 0.8769 -0.8769 0.4806 55.128 -37.9584)" opacity="0.2" fill="#FFFFFF" width="8.177" height="3.976"/>
		<path opacity="0.2" fill="#FFFFFF" d="M79.585,52.662c-1.311,4.201-5.236,7.258-9.862,7.258c-5.693,0-10.326-4.633-10.326-10.327
			c0-5.694,4.633-10.327,10.326-10.327c4.445,0,8.242,2.823,9.695,6.77H86.3c-1.635-7.655-8.435-13.396-16.577-13.396
			c-7.295,0-13.513,4.608-15.904,11.072c-2.391-6.464-8.609-11.072-15.905-11.072c-9.363,0-16.954,7.59-16.954,16.953
			s7.59,16.954,16.954,16.954c3.42,0,6.602-1.016,9.265-2.758l3.882,3.882l4.687-4.686l-3.832-3.832
			c0.778-1.138,1.413-2.38,1.898-3.694c2.387,6.473,8.61,11.088,15.91,11.088c8.314,0,15.227-5.986,16.672-13.885H79.585z
			 M47.084,54.322l-7.018-7.018l-4.686,4.687l6.932,6.932c-1.336,0.633-2.824,0.997-4.398,0.997
			c-5.694,0-10.327-4.633-10.327-10.327c0-5.694,4.633-10.327,10.327-10.327c5.695,0,10.328,4.633,10.328,10.327
			C48.242,51.297,47.819,52.904,47.084,54.322z"/>
		
			<rect x="77.832" y="23.471" transform="matrix(0.8769 0.4807 -0.4807 0.8769 23.0735 -34.9756)" opacity="0.2" fill="#FFFFFF" width="3.977" height="8.177"/>
	</g>
</g>
<g id="Layer_7">
</g>
</svg>
