<?xml version="1.0" encoding="utf-8"?>
<!-- Generator: Adobe Illustrator 16.0.3, SVG Export Plug-In . SVG Version: 6.00 Build 0)  -->
<!DOCTYPE svg PUBLIC "-//W3C//DTD SVG 1.1//EN" "http://www.w3.org/Graphics/SVG/1.1/DTD/svg11.dtd">
<svg version="1.1" id="Layer_1" xmlns="http://www.w3.org/2000/svg" xmlns:xlink="http://www.w3.org/1999/xlink" x="0px" y="0px"
	 width="89.428px" height="82.289px" viewBox="0 0 89.428 82.289" enable-background="new 0 0 89.428 82.289" xml:space="preserve">
<path fill="#1ED1C4" d="M75.77,47.264V6.913H13.667v40.352c0,13.48,9.446,18.09,17.781,22.156
	c6.587,3.216,12.277,5.992,12.277,12.518h1.986c0-6.525,5.689-9.302,12.277-12.518C66.324,65.354,75.77,60.745,75.77,47.264z
	 M44.718,77.172c-2.077-4.499-7.127-6.963-12.4-9.535c-8.192-3.998-16.666-8.135-16.666-20.373V8.898h58.133v38.366
	c0,12.238-8.475,16.375-16.666,20.373C51.846,70.209,46.795,72.673,44.718,77.172z"/>
<path fill="#1ED1C4" d="M27.968,76.549c-8.247-4.004-22.021-10.74-22.235-28.882l3.717-3.717v-2.815l-3.736,3.736v-3.926
	l3.736-3.763v-2.816L5.713,38.13v-3.953l3.736-3.763v-2.816l-3.736,3.764v-3.953l3.736-3.763v-2.789l-3.736,3.736v-3.953
	l3.736-3.736v-2.815l-3.736,3.763v-3.953l3.736-3.764V7.319l-3.736,3.764v-4.17H3.736v4.142L0,7.319v2.815l3.736,3.736v3.953
	L0,14.088v2.815l3.736,3.709v3.953L0,20.856v2.789l3.736,3.736v3.953L0,27.598v2.816l3.736,3.736v3.953L0,34.366v2.816l3.736,3.736
	v3.926L0,41.135v2.815l3.736,3.737l0.021,0.02C3.987,67.035,18.426,74.12,27.102,78.336c1.705,0.838,6.254,3.059,6.85,3.952
	l1.651-1.083C34.763,79.959,31.515,78.309,27.968,76.549z"/>
<path fill="#1ED1C4" d="M89.428,10.134V7.319l-3.736,3.764v-4.17h-1.977v4.142l-3.736-3.736v2.815l3.736,3.737v3.953l-3.736-3.736
	v2.815l3.736,3.709v3.953l-3.736-3.709v2.789l3.736,3.736v3.953l-3.736-3.736v2.816l3.736,3.736v3.953l-3.736-3.737v2.816
	l3.736,3.736v3.926l-3.736-3.709v2.815l3.736,3.709c-0.217,18.167-13.971,24.882-22.256,28.89c-3.547,1.76-6.795,3.41-7.635,4.656
	l1.652,1.083c0.596-0.894,5.145-3.114,6.877-3.952c8.664-4.225,23.121-11.291,23.338-30.648l3.736-3.737v-2.815l-3.736,3.736v-3.926
	l3.736-3.763v-2.816l-3.736,3.764v-3.953l3.736-3.763v-2.816l-3.736,3.764v-3.953l3.736-3.763v-2.789l-3.736,3.736V20.64
	l3.736-3.736v-2.815l-3.736,3.763v-3.953L89.428,10.134z"/>
<rect x="26.826" fill="#1ED1C4" width="35.785" height="1.985"/>
<path fill="#1ED1C4" d="M64.439,41.053c-1.52,3.51-5.01,5.967-9.078,5.967c-5.463,0-9.893-4.428-9.893-9.891
	c0-5.464,4.43-9.893,9.893-9.893c4.006,0,7.453,2.383,9.01,5.808h1.734c-1.646-4.331-5.836-7.41-10.744-7.41
	c-4.896,0-9.076,3.063-10.734,7.375c-1.656-4.313-5.836-7.375-10.734-7.375c-6.348,0-11.494,5.146-11.494,11.495
	c0,6.348,5.146,11.495,11.494,11.495c2.893,0,5.535-1.069,7.556-2.833l2.802,2.804l1.17-1.172l-2.807-2.807
	c0.851-0.99,1.536-2.128,2.012-3.368c1.658,4.313,5.837,7.376,10.734,7.376c4.969,0,9.199-3.156,10.803-7.571H64.439z
	 M41.478,43.479l-3.45-3.45l-1.17,1.17l3.455,3.456c-1.728,1.475-3.969,2.365-6.419,2.365c-5.463,0-9.893-4.428-9.893-9.891
	c0-5.464,4.429-9.893,9.893-9.893c5.464,0,9.893,4.429,9.893,9.893C43.786,39.546,42.918,41.761,41.478,43.479z"/>
<g>
</g>
<g>
</g>
<g>
</g>
<g>
</g>
<g>
</g>
<g>
</g>
</svg>
