<?xml version="1.0" encoding="utf-8"?>
<!-- Generator: Adobe Illustrator 16.0.3, SVG Export Plug-In . SVG Version: 6.00 Build 0)  -->
<!DOCTYPE svg PUBLIC "-//W3C//DTD SVG 1.1//EN" "http://www.w3.org/Graphics/SVG/1.1/DTD/svg11.dtd">
<svg version="1.1" id="Layer_1" xmlns="http://www.w3.org/2000/svg" xmlns:xlink="http://www.w3.org/1999/xlink" x="0px" y="0px"
	 width="93.429px" height="92.273px" viewBox="0 0 93.429 92.273" enable-background="new 0 0 93.429 92.273" xml:space="preserve">
<g>
	<path fill="none" stroke="#373636" stroke-width="2" stroke-miterlimit="10" d="M4.003,4.211L4.003,4.211
		c2.446-2.446,7.059-1.075,9.727,2.326l11.765,15.001c0.526,0.672,0.258,1.841-0.561,2.66l0,0"/>
	<path fill="#EE2926" d="M91.998,54.556L51.403,13.962c-1.061-1.061-2.55-1.575-4.039-1.396l-26.212,3.169
		c-2.232,0.27-3.992,2.029-4.262,4.262l-3.168,26.212c-0.18,1.489,0.334,2.979,1.395,4.04l40.594,40.594
		c1.907,1.907,5,1.907,6.906,0l29.38-29.38C93.905,59.556,93.905,56.463,91.998,54.556z M23.477,27.855
		c-1.528-1.528-1.528-4.006,0-5.534c1.528-1.528,4.006-1.528,5.534,0c1.528,1.528,1.528,4.006,0,5.534
		C27.483,29.384,25.005,29.384,23.477,27.855z"/>
	<path fill="none" stroke="#373636" stroke-width="2" stroke-miterlimit="10" d="M24.934,24.198L24.934,24.198
		c-0.97,0.97-2.356,1.283-3.167,0.646L6.126,12.56c-2.994-2.353-4.189-6.282-2.123-8.349l0,0"/>
</g>
<g>
	<path fill="#FFFFFF" d="M51.01,51.818c-0.359,0.82-0.985,1.519-1.817,1.994l-0.166,0.095c-2.523,1.441-4.03,3.783-4.03,6.262v1.566
		h12.024v-1.566c0-2.479-1.506-4.82-4.03-6.262l-0.165-0.095C51.995,53.337,51.369,52.639,51.01,51.818z"/>
	<path fill="#FFFFFF" d="M54.383,49.226l0.166-0.095c3.505-2.003,5.611-5.375,5.611-8.985v-3.087h0.523
		c0.722,0,1.307-0.586,1.307-1.308l0,0c0-0.722-0.585-1.307-1.307-1.307H41.338c-0.722,0-1.307,0.585-1.307,1.307l0,0
		c0,0.722,0.585,1.308,1.307,1.308h0.523v3.087c0,3.61,2.105,6.982,5.611,8.985l0.166,0.095c0.776,0.443,0.776,1.42,0,1.863
		l-0.166,0.095c-3.505,2.003-5.611,5.375-5.611,8.985v3.135h-0.523c-0.722,0-1.307,0.585-1.307,1.307l0,0
		c0,0.723,0.585,1.308,1.307,1.308h19.345c0.722,0,1.307-0.585,1.307-1.308l0,0c0-0.722-0.585-1.307-1.307-1.307H60.16v-3.135
		c0-3.61-2.105-6.982-5.611-8.985l-0.166-0.095C53.607,50.646,53.607,49.669,54.383,49.226z M53.605,52.451l0.166,0.094
		c3.019,1.725,4.821,4.575,4.821,7.624v3.135H43.429v-3.135c0-3.049,1.802-5.899,4.821-7.624l0.165-0.094
		c0.859-0.491,1.373-1.349,1.373-2.294c0-0.945-0.513-1.803-1.373-2.293L48.25,47.77c-3.019-1.725-4.821-4.575-4.821-7.624v-3.087
		h15.162v3.087c0,3.049-1.802,5.899-4.821,7.624l-0.165,0.095c-0.859,0.49-1.372,1.348-1.373,2.293
		C52.233,51.103,52.746,51.96,53.605,52.451z"/>
</g>
<g>
</g>
<g>
</g>
<g>
</g>
<g>
</g>
<g>
</g>
<g>
</g>
</svg>
