<?xml version="1.0" encoding="utf-8"?>
<!-- Generator: Adobe Illustrator 16.0.3, SVG Export Plug-In . SVG Version: 6.00 Build 0)  -->
<!DOCTYPE svg PUBLIC "-//W3C//DTD SVG 1.1//EN" "http://www.w3.org/Graphics/SVG/1.1/DTD/svg11.dtd">
<svg version="1.1" id="Layer_1" xmlns="http://www.w3.org/2000/svg" xmlns:xlink="http://www.w3.org/1999/xlink" x="0px" y="0px"
	 width="570px" height="214.5px" viewBox="0 0 570 214.5" enable-background="new 0 0 570 214.5" xml:space="preserve">
<rect x="2.847" y="191.164" fill="#F4E6AB" width="562.153" height="15.836"/>
<rect x="83.725" y="6.682" fill="#47BFB9" width="409.551" height="71.877"/>
<g>
	<g>
		<path fill="#FFFFFF" d="M127.398,54.313h13.317v5.106h-19.504V26.161h6.187V54.313z"/>
		<path fill="#FFFFFF" d="M155.412,59.418h-6.21V26.161h6.21V59.418z"/>
		<path fill="#FFFFFF" d="M183.759,47.148c0.222,0.529,0.441,1.062,0.656,1.599c0.214-0.552,0.437-1.096,0.667-1.633
			c0.23-0.536,0.475-1.05,0.736-1.541l9.844-18.423c0.123-0.23,0.249-0.414,0.379-0.552c0.13-0.138,0.276-0.238,0.437-0.299
			c0.161-0.061,0.341-0.1,0.541-0.115c0.199-0.015,0.437-0.023,0.713-0.023h4.669v33.258h-5.451V37.937
			c0-0.398,0.011-0.835,0.034-1.311c0.023-0.475,0.058-0.958,0.104-1.449l-10.051,18.86c-0.23,0.429-0.529,0.763-0.897,1
			c-0.368,0.238-0.797,0.356-1.288,0.356H184c-0.491,0-0.92-0.119-1.288-0.356c-0.368-0.238-0.667-0.571-0.897-1l-10.189-18.929
			c0.061,0.506,0.104,1,0.126,1.483s0.035,0.932,0.035,1.346v21.482h-5.451V26.161h4.669c0.276,0,0.514,0.008,0.713,0.023
			c0.199,0.015,0.379,0.054,0.54,0.115c0.161,0.062,0.311,0.161,0.449,0.299c0.138,0.138,0.268,0.322,0.391,0.552l9.936,18.469
			C183.295,46.109,183.537,46.619,183.759,47.148z"/>
		<path fill="#FFFFFF" d="M219.536,59.418h-6.21V26.161h6.21V59.418z"/>
		<path fill="#FFFFFF" d="M253.897,26.161v5.083h-10.005v28.175h-6.187V31.244h-10.051v-5.083H253.897z"/>
		<path fill="#FFFFFF" d="M282.255,26.161v4.922h-14.743v9.223h11.615v4.761h-11.615v9.407h14.743v4.945h-20.976V26.161H282.255z"/>
		<path fill="#FFFFFF" d="M320.597,42.79c0,2.438-0.407,4.677-1.22,6.716c-0.813,2.04-1.955,3.795-3.426,5.267
			c-1.473,1.472-3.244,2.614-5.313,3.427c-2.07,0.813-4.362,1.219-6.877,1.219h-12.696V26.161h12.696c2.515,0,4.807,0.41,6.877,1.23
			c2.069,0.82,3.841,1.963,5.313,3.427c1.471,1.464,2.613,3.216,3.426,5.255C320.189,38.113,320.597,40.352,320.597,42.79z
			 M314.271,42.79c0-1.825-0.246-3.461-0.736-4.911c-0.49-1.449-1.188-2.675-2.093-3.68c-0.905-1.004-2.005-1.774-3.3-2.311
			c-1.297-0.537-2.757-0.805-4.382-0.805h-6.464v23.414h6.464c1.625,0,3.085-0.268,4.382-0.805c1.295-0.537,2.395-1.307,3.3-2.312
			c0.905-1.004,1.603-2.231,2.093-3.68C314.025,46.251,314.271,44.614,314.271,42.79z"/>
		<path fill="#FFFFFF" d="M364.664,26.161v5.083h-10.006v28.175h-6.187V31.244H338.42v-5.083H364.664z"/>
		<path fill="#FFFFFF" d="M379.015,59.418h-6.21V26.161h6.21V59.418z"/>
		<path fill="#FFFFFF" d="M407.362,47.148c0.223,0.529,0.44,1.062,0.655,1.599c0.215-0.552,0.438-1.096,0.667-1.633
			c0.23-0.536,0.476-1.05,0.736-1.541l9.844-18.423c0.123-0.23,0.249-0.414,0.38-0.552c0.13-0.138,0.276-0.238,0.437-0.299
			c0.161-0.061,0.342-0.1,0.541-0.115s0.437-0.023,0.713-0.023h4.669v33.258h-5.451V37.937c0-0.398,0.012-0.835,0.035-1.311
			c0.022-0.475,0.058-0.958,0.104-1.449l-10.052,18.86c-0.229,0.429-0.528,0.763-0.896,1s-0.798,0.356-1.288,0.356h-0.851
			c-0.491,0-0.921-0.119-1.288-0.356c-0.368-0.238-0.667-0.571-0.897-1L395.23,35.107c0.061,0.506,0.104,1,0.126,1.483
			c0.023,0.483,0.034,0.932,0.034,1.346v21.482h-5.45V26.161h4.669c0.275,0,0.514,0.008,0.713,0.023s0.379,0.054,0.54,0.115
			c0.161,0.062,0.311,0.161,0.448,0.299c0.139,0.138,0.269,0.322,0.392,0.552l9.936,18.469
			C406.898,46.109,407.14,46.619,407.362,47.148z"/>
		<path fill="#FFFFFF" d="M457.146,26.161v4.922h-14.743v9.223h11.615v4.761h-11.615v9.407h14.743v4.945H436.17V26.161H457.146z"/>
	</g>
</g>
<path fill="#091F38" stroke="#091F37" stroke-miterlimit="10" d="M320.088,184.893c-2.155-0.294-4.178-0.886-6.066-1.77
	c-1.888-0.885-3.495-1.981-4.822-3.289l2.101-3.126c0.184-0.276,0.428-0.502,0.732-0.678s0.621-0.264,0.953-0.264
	c0.405,0,0.838,0.145,1.3,0.43c0.46,0.286,0.985,0.62,1.576,1.007c0.588,0.39,1.26,0.775,2.016,1.163
	c0.756,0.386,1.648,0.671,2.682,0.856l1.05-12.384c-1.311-0.369-2.603-0.803-3.883-1.302c-1.281-0.499-2.432-1.16-3.455-1.983
	c-1.022-0.822-1.848-1.863-2.474-3.121c-0.626-1.255-0.939-2.829-0.939-4.713c0-1.406,0.281-2.778,0.843-4.118
	c0.563-1.342,1.378-2.539,2.446-3.592c1.067-1.054,2.387-1.923,3.952-2.608c1.566-0.684,3.361-1.026,5.39-1.026l0.303-3.519
	c0.037-0.446,0.222-0.847,0.554-1.201c0.331-0.354,0.765-0.531,1.298-0.531h2.515l-0.468,5.435c1.952,0.313,3.638,0.865,5.057,1.657
	c1.418,0.792,2.653,1.688,3.704,2.682l-1.659,2.515c-0.258,0.369-0.516,0.646-0.774,0.828c-0.257,0.187-0.569,0.278-0.938,0.278
	c-0.277,0-0.605-0.089-0.983-0.264c-0.377-0.176-0.81-0.386-1.298-0.635c-0.487-0.25-1.027-0.503-1.617-0.761
	c-0.589-0.257-1.244-0.47-1.961-0.635l-0.968,11.447c1.326,0.405,2.64,0.854,3.938,1.342c1.298,0.489,2.469,1.119,3.509,1.894
	c1.041,0.773,1.884,1.736,2.529,2.889c0.645,1.152,0.967,2.593,0.967,4.325c0,1.715-0.285,3.321-0.855,4.822
	c-0.572,1.502-1.406,2.83-2.502,3.981c-1.097,1.151-2.446,2.087-4.048,2.806c-1.604,0.719-3.438,1.151-5.5,1.3l-0.332,4.063
	c-0.038,0.425-0.222,0.814-0.553,1.176c-0.332,0.358-0.766,0.537-1.299,0.537h-2.515L320.088,184.893z M317.298,155.09
	c0,0.702,0.118,1.319,0.358,1.855c0.238,0.533,0.575,1.009,1.009,1.424c0.433,0.415,0.944,0.784,1.534,1.106
	c0.591,0.321,1.233,0.612,1.934,0.869l0.857-10.232c-1.013,0.131-1.879,0.347-2.598,0.649c-0.718,0.306-1.309,0.681-1.769,1.123
	c-0.462,0.442-0.798,0.935-1.01,1.479C317.402,153.908,317.298,154.482,317.298,155.09z M330.729,173.174
	c0-0.7-0.123-1.313-0.371-1.838c-0.25-0.525-0.602-0.989-1.052-1.395c-0.452-0.406-0.98-0.756-1.591-1.05
	c-0.607-0.296-1.27-0.563-1.989-0.802l-0.939,11.22c1.954-0.258,3.434-0.916,4.437-1.976
	C330.227,176.273,330.729,174.887,330.729,173.174z"/>
<path fill="#091F38" stroke="#091F37" stroke-width="4" stroke-miterlimit="10" d="M346.505,185.804h19.521v-56.169
	c0-2.175,0.068-4.464,0.2-6.862l-13.857,11.593c-0.578,0.49-1.167,0.823-1.767,0.998c-0.6,0.18-1.188,0.269-1.766,0.269
	c-0.889,0-1.699-0.188-2.432-0.567c-0.733-0.375-1.276-0.809-1.632-1.297l-5.197-7.13l29.382-24.986h13.525v84.153h17.323v12.326
	h-53.301V185.804z"/>
<path fill="#091F38" stroke="#091F37" stroke-width="4" stroke-miterlimit="10" d="M479.159,149.956c0,8.396-0.9,15.69-2.699,21.888
	c-1.799,6.196-4.288,11.316-7.462,15.358c-3.177,4.042-6.931,7.053-11.261,9.029c-4.33,1.976-9.006,2.963-14.026,2.963
	c-5.02,0-9.672-0.987-13.957-2.963c-4.288-1.977-8.007-4.987-11.161-9.029c-3.155-4.042-5.62-9.162-7.396-15.358
	c-1.776-6.197-2.666-13.491-2.666-21.888c0-8.438,0.89-15.746,2.666-21.92c1.775-6.175,4.24-11.281,7.396-15.325
	c3.154-4.042,6.873-7.051,11.161-9.027c4.285-1.976,8.938-2.966,13.957-2.966c5.021,0,9.696,0.99,14.026,2.966
	s8.084,4.985,11.261,9.027c3.174,4.043,5.663,9.15,7.462,15.325S479.159,141.518,479.159,149.956z M462.168,149.956
	c0-6.972-0.511-12.747-1.532-17.323c-1.022-4.575-2.39-8.218-4.098-10.927c-1.711-2.708-3.676-4.607-5.896-5.697
	c-2.223-1.088-4.53-1.633-6.931-1.633c-2.354,0-4.629,0.545-6.829,1.633c-2.198,1.089-4.143,2.988-5.829,5.697
	c-1.69,2.709-3.032,6.352-4.032,10.927c-0.999,4.576-1.498,10.351-1.498,17.323c0,6.974,0.499,12.749,1.498,17.325
	c1,4.574,2.342,8.217,4.032,10.927c1.687,2.71,3.631,4.608,5.829,5.695c2.2,1.09,4.476,1.633,6.829,1.633
	c2.4,0,4.708-0.543,6.931-1.633c2.221-1.087,4.186-2.985,5.896-5.695c1.708-2.71,3.075-6.353,4.098-10.927
	C461.657,162.705,462.168,156.93,462.168,149.956z"/>
<path fill="#091F38" stroke="#091F37" stroke-width="4" stroke-miterlimit="10" d="M563.777,149.956c0,8.396-0.9,15.69-2.698,21.888
	c-1.8,6.196-4.288,11.316-7.462,15.358c-3.178,4.042-6.931,7.053-11.262,9.029c-4.33,1.976-9.008,2.963-14.026,2.963
	c-5.02,0-9.671-0.987-13.956-2.963c-4.288-1.977-8.007-4.987-11.162-9.029c-3.153-4.042-5.619-9.162-7.396-15.358
	c-1.776-6.197-2.665-13.491-2.665-21.888c0-8.438,0.889-15.746,2.665-21.92s4.242-11.281,7.396-15.325
	c3.155-4.042,6.874-7.051,11.162-9.027c4.285-1.976,8.937-2.966,13.956-2.966c5.019,0,9.696,0.99,14.026,2.966
	c4.331,1.976,8.084,4.985,11.262,9.027c3.174,4.043,5.662,9.15,7.462,15.325C562.877,134.21,563.777,141.518,563.777,149.956z
	 M546.787,149.956c0-6.972-0.512-12.747-1.533-17.323c-1.021-4.575-2.389-8.218-4.098-10.927c-1.711-2.708-3.675-4.607-5.896-5.697
	c-2.223-1.088-4.53-1.633-6.931-1.633c-2.354,0-4.63,0.545-6.829,1.633c-2.198,1.089-4.143,2.988-5.83,5.697
	c-1.688,2.709-3.03,6.352-4.03,10.927c-0.999,4.576-1.499,10.351-1.499,17.323c0,6.974,0.5,12.749,1.499,17.325
	c1,4.574,2.342,8.217,4.03,10.927c1.688,2.71,3.632,4.608,5.83,5.695c2.199,1.09,4.475,1.633,6.829,1.633
	c2.4,0,4.708-0.543,6.931-1.633c2.222-1.087,4.186-2.985,5.896-5.695c1.709-2.71,3.076-6.353,4.098-10.927
	C546.275,162.705,546.787,156.93,546.787,149.956z"/>
<g>
	<g>
		<path fill="#091F38" d="M52.093,127.562c-0.408,0.815-0.881,1.39-1.417,1.722c-0.538,0.334-1.177,0.501-1.917,0.501
			c-0.741,0-1.575-0.287-2.5-0.861c-0.927-0.574-2.02-1.213-3.279-1.917c-1.26-0.704-2.733-1.342-4.418-1.917
			c-1.687-0.574-3.678-0.861-5.975-0.861c-2.075,0-3.882,0.25-5.419,0.75c-1.538,0.5-2.834,1.195-3.89,2.084
			s-1.844,1.954-2.362,3.195c-0.52,1.242-0.778,2.604-0.778,4.085c0,1.891,0.528,3.465,1.584,4.725
			c1.056,1.26,2.454,2.334,4.196,3.223c1.741,0.89,3.724,1.687,5.947,2.391s4.492,1.454,6.808,2.25
			c2.315,0.797,4.585,1.723,6.808,2.779c2.223,1.056,4.205,2.39,5.946,4.001c1.742,1.612,3.14,3.585,4.197,5.919
			c1.056,2.335,1.583,5.168,1.583,8.504c0,3.631-0.621,7.03-1.862,10.198c-1.242,3.167-3.057,5.928-5.446,8.28
			c-2.39,2.354-5.308,4.206-8.753,5.558c-3.446,1.353-7.392,2.028-11.838,2.028c-2.556,0-5.077-0.25-7.558-0.75
			c-2.483-0.5-4.863-1.213-7.142-2.14c-2.279-0.926-4.41-2.037-6.391-3.334c-1.982-1.297-3.751-2.741-5.308-4.335l4.335-7.169
			c0.407-0.52,0.898-0.955,1.472-1.307s1.214-0.528,1.917-0.528c0.926,0,1.926,0.381,3.001,1.14c1.074,0.76,2.343,1.604,3.807,2.529
			c1.463,0.926,3.186,1.77,5.168,2.528c1.982,0.76,4.363,1.14,7.142,1.14c4.261,0,7.559-1.01,9.893-3.029
			c2.334-2.02,3.501-4.919,3.501-8.698c0-2.111-0.528-3.835-1.583-5.168c-1.056-1.335-2.455-2.455-4.196-3.363
			c-1.742-0.907-3.724-1.675-5.946-2.306c-2.223-0.63-4.484-1.315-6.781-2.057c-2.297-0.74-4.557-1.63-6.78-2.668
			c-2.223-1.037-4.206-2.39-5.946-4.057c-1.742-1.667-3.14-3.751-4.196-6.252c-1.056-2.502-1.584-5.586-1.584-9.254
			c0-2.927,0.583-5.78,1.75-8.559c1.167-2.779,2.871-5.243,5.113-7.392c2.241-2.148,4.993-3.871,8.253-5.168
			c3.26-1.296,6.983-1.945,11.171-1.945c4.742,0,9.115,0.741,13.116,2.223c4.001,1.483,7.41,3.557,10.226,6.225L52.093,127.562z"/>
		<path fill="#091F38" d="M142.071,193.309h-11.56c-1.297,0-2.362-0.323-3.196-0.973c-0.833-0.647-1.436-1.453-1.806-2.418
			l-6.002-16.395H86.217l-6.002,16.395c-0.297,0.853-0.88,1.631-1.75,2.335c-0.871,0.704-1.937,1.056-3.195,1.056H63.653
			l31.567-80.364h15.284L142.071,193.309z M90.052,162.963h25.621l-9.781-26.73c-0.445-1.187-0.937-2.585-1.473-4.197
			c-0.538-1.612-1.065-3.362-1.583-5.252c-0.519,1.89-1.028,3.65-1.528,5.279c-0.5,1.631-0.992,3.057-1.473,4.28L90.052,162.963z"/>
		<path fill="#091F38" d="M135.847,112.945h12.06c1.296,0,2.353,0.315,3.168,0.945c0.814,0.63,1.426,1.445,1.834,2.445
			l18.896,49.018c0.63,1.594,1.231,3.345,1.806,5.252c0.574,1.909,1.121,3.918,1.64,6.029c0.852-4.26,1.908-8.021,3.168-11.281
			l18.84-49.018c0.334-0.852,0.926-1.63,1.779-2.334c0.852-0.703,1.908-1.056,3.168-1.056h12.06l-32.457,80.364h-13.505
			L135.847,112.945z"/>
		<path fill="#091F38" d="M276.122,112.945v11.894h-35.625v22.287h28.066v11.504h-28.066v22.731h35.625v11.948h-50.687v-80.364
			H276.122z"/>
	</g>
</g>
</svg>
