<?xml version="1.0" encoding="utf-8"?>
<!-- Generator: Adobe Illustrator 16.0.3, SVG Export Plug-In . SVG Version: 6.00 Build 0)  -->
<!DOCTYPE svg PUBLIC "-//W3C//DTD SVG 1.1//EN" "http://www.w3.org/Graphics/SVG/1.1/DTD/svg11.dtd">
<svg version="1.1" id="Layer_1" xmlns="http://www.w3.org/2000/svg" xmlns:xlink="http://www.w3.org/1999/xlink" x="0px" y="0px"
	 width="259.546px" height="238.827px" viewBox="0 0 259.546 238.827" enable-background="new 0 0 259.546 238.827"
	 xml:space="preserve">
<path fill="#1ED1C4" d="M219.908,137.175V20.063H39.667v117.112c0,39.125,27.415,52.504,51.605,64.306
	c19.12,9.332,35.633,17.389,35.633,36.328h5.765c0-18.939,16.513-26.996,35.632-36.328
	C192.493,189.679,219.908,176.3,219.908,137.175z M129.787,223.977c-6.028-13.057-20.685-20.209-35.991-27.676
	C70.02,184.7,45.43,172.697,45.43,137.175V25.826h168.714v111.349c0,35.521-24.59,47.524-48.367,59.126
	C150.472,203.768,135.814,210.92,129.787,223.977z"/>
<path fill="#1ED1C4" d="M81.171,222.167C57.235,210.55,17.257,191,16.637,138.346l10.788-10.787v-8.173L16.58,130.231v-11.394
	l10.844-10.923v-8.172L16.58,110.665V99.192L27.424,88.27v-8.173L16.58,91.02V79.547l10.844-10.922v-8.094L16.58,71.375V59.902
	l10.844-10.844v-8.171L16.58,51.809V40.336l10.844-10.923v-8.171L16.58,32.164V20.063h-5.736v12.022L0,21.242v8.171l10.844,10.844
	V51.73L0,40.886v8.171l10.844,10.766v11.473L0,60.531v8.094l10.844,10.843v11.473L0,80.097v8.173l10.844,10.844v11.472L0,99.742
	v8.172l10.844,10.844v11.394L0,119.386v8.173l10.844,10.844l0.063,0.058c0.667,56.097,42.573,76.656,67.75,88.895
	c4.951,2.435,18.153,8.879,19.882,11.472l4.793-3.144C100.895,232.068,91.466,227.275,81.171,222.167z"/>
<path fill="#1ED1C4" d="M259.546,29.413v-8.171l-10.844,10.922V20.063h-5.736v12.022l-10.844-10.843v8.171l10.844,10.845V51.73
	l-10.844-10.844v8.171l10.844,10.766v11.473l-10.844-10.766v8.094l10.844,10.843v11.473l-10.844-10.844v8.173l10.844,10.844v11.472
	l-10.844-10.844v8.172l10.844,10.844v11.394l-10.844-10.766v8.173l10.844,10.766c-0.629,52.726-40.547,72.213-64.592,83.843
	c-10.294,5.107-19.724,9.9-22.16,13.516l4.793,3.144c1.729-2.593,14.931-9.037,19.96-11.472
	c25.146-12.259,67.106-32.769,67.735-88.952l10.844-10.844v-8.173l-10.844,10.845v-11.394l10.844-10.923v-8.172l-10.844,10.923
	V99.192l10.844-10.922v-8.173L248.703,91.02V79.547l10.844-10.922v-8.094l-10.844,10.844V59.903l10.844-10.845v-8.171
	l-10.844,10.922V40.336L259.546,29.413z"/>
<rect x="77.858" fill="#1ED1C4" width="103.857" height="5.762"/>
<path fill="#1ED1C4" d="M187.023,119.149c-4.407,10.188-14.539,17.319-26.346,17.319c-15.857,0-28.713-12.854-28.713-28.709
	c0-15.858,12.855-28.712,28.713-28.712c11.626,0,21.632,6.915,26.146,16.854h5.037c-4.781-12.57-16.937-21.504-31.183-21.504
	c-14.212,0-26.347,8.887-31.153,21.406c-4.807-12.519-16.941-21.406-31.153-21.406c-18.424,0-33.361,14.936-33.361,33.361
	c0,18.424,14.937,33.359,33.361,33.359c8.394,0,16.064-3.102,21.928-8.22l8.133,8.135l3.396-3.398l-8.146-8.146
	c2.47-2.875,4.458-6.176,5.841-9.777c4.807,12.52,16.941,21.407,31.153,21.407c14.422,0,26.695-9.156,31.351-21.969H187.023z
	 M120.383,126.189l-10.013-10.013l-3.396,3.396l10.028,10.029c-5.015,4.281-11.521,6.867-18.631,6.867
	c-15.857,0-28.712-12.854-28.712-28.709c0-15.858,12.854-28.712,28.712-28.712c15.856,0,28.711,12.854,28.711,28.712
	C127.082,114.775,124.563,121.202,120.383,126.189z"/>
<g>
</g>
<g>
</g>
<g>
</g>
<g>
</g>
<g>
</g>
<g>
</g>
</svg>
